G04 DipTrace 2.4.0.2*
%INBottomSilk.gbr*%
%MOIN*%
%ADD34C,0.0077*%
%ADD35C,0.0108*%
%FSLAX44Y44*%
G04*
G70*
G90*
G75*
G01*
%LNBotSilk*%
%LPD*%
X10310Y12968D2*
D35*
Y12633D1*
X10276Y12533D1*
X10209Y12499D1*
X10108D1*
X10042Y12533D1*
X9941Y12633D1*
Y12968D2*
Y12499D1*
X9189D2*
X9457Y13203D1*
X9725Y12499D1*
X9625Y12734D2*
X9290D1*
X8973Y13203D2*
Y12499D1*
X8355Y12968D2*
Y12499D1*
Y12868D2*
X8422Y12935D1*
X8489Y12968D1*
X8589D1*
X8656Y12935D1*
X8723Y12868D1*
X8757Y12767D1*
Y12700D1*
X8723Y12600D1*
X8656Y12533D1*
X8589Y12499D1*
X8489D1*
X8422Y12533D1*
X8355Y12600D1*
X8139Y12968D2*
Y12499D1*
Y12767D2*
X8105Y12868D1*
X8038Y12935D1*
X7971Y12968D1*
X7870D1*
X7654D2*
Y12499D1*
Y12834D2*
X7554Y12935D1*
X7486Y12968D1*
X7387D1*
X7319Y12935D1*
X7286Y12834D1*
Y12499D1*
Y12834D2*
X7185Y12935D1*
X7118Y12968D1*
X7018D1*
X6951Y12935D1*
X6917Y12834D1*
Y12499D1*
X8928Y12103D2*
D34*
Y11768D1*
Y12031D2*
X8976Y12079D1*
X9024Y12103D1*
X9095D1*
X9143Y12079D1*
X9191Y12031D1*
X9215Y11959D1*
Y11912D1*
X9191Y11840D1*
X9143Y11792D1*
X9095Y11768D1*
X9024D1*
X8976Y11792D1*
X8928Y11840D1*
X8774Y12103D2*
Y11864D1*
X8750Y11792D1*
X8702Y11768D1*
X8630D1*
X8583Y11792D1*
X8511Y11864D1*
Y12103D2*
Y11768D1*
X8069Y12270D2*
Y11768D1*
Y12031D2*
X8117Y12079D1*
X8165Y12103D1*
X8237D1*
X8284Y12079D1*
X8333Y12031D1*
X8356Y11959D1*
Y11912D1*
X8333Y11840D1*
X8284Y11792D1*
X8237Y11768D1*
X8165D1*
X8117Y11792D1*
X8069Y11840D1*
X7915Y12270D2*
X7891Y12247D1*
X7867Y12270D1*
X7891Y12295D1*
X7915Y12270D1*
X7891Y12103D2*
Y11768D1*
X7593Y12103D2*
X7641Y12079D1*
X7689Y12031D1*
X7713Y11959D1*
Y11912D1*
X7689Y11840D1*
X7641Y11792D1*
X7593Y11768D1*
X7521D1*
X7473Y11792D1*
X7426Y11840D1*
X7401Y11912D1*
Y11959D1*
X7426Y12031D1*
X7473Y12079D1*
X7521Y12103D1*
X7593D1*
M02*
