M48
INCH
T01C0.035
T02C0.0354
T03C0.038
%
T01
X+006440Y+009940
X+005815Y+009440
X+005190Y+009940
X+008315Y+009940
X+008940Y+009440
X+009565Y+009940
T02
X+005440Y+012440
X+005440Y+013440
X+005440Y+006940
X+006440Y+006940
X+007940Y+006940
X+008940Y+006940
X+009940Y+006940
X+009940Y+004940
X+008940Y+004940
X+007940Y+004940
X+006940Y+004940
X+005940Y+004940
X+004940Y+004940
T03
X+006440Y+011940
X+006440Y+013440
X+010440Y+013440
X+010440Y+011940
T00
M30
