G04 DipTrace 2.4.0.2*
%INTop.gbr*%
%MOIN*%
%ADD13C,0.013*%
%ADD14C,0.025*%
%ADD15R,0.0591X0.0591*%
%ADD16C,0.0591*%
%ADD17C,0.06*%
%ADD18C,0.06*%
%ADD19R,0.06X0.06*%
%FSLAX44Y44*%
G04*
G70*
G90*
G75*
G01*
%LNTop*%
%LPD*%
X8940Y4940D2*
D13*
X7940D1*
X7051Y5829D1*
X6551D1*
X5440Y6940D1*
X5815Y9440D2*
X8940D1*
X5440Y13440D2*
X5950Y12930D1*
X9930D1*
X10440Y13440D1*
X8940Y6940D2*
X8185Y7695D1*
X7195D1*
X6440Y6940D1*
X9565Y9940D2*
X8810Y10695D1*
X7195D1*
X6440Y9940D1*
X4090Y14066D2*
D14*
X10792D1*
X4090Y13818D2*
X5003D1*
X5877D2*
X5997D1*
X6885D2*
X9995D1*
X4090Y13569D2*
X4870D1*
X7014D2*
X9866D1*
X4090Y13320D2*
X4866D1*
X7018D2*
X9827D1*
X4090Y13072D2*
X4991D1*
X4090Y12823D2*
X4854D1*
X10315D2*
X10792D1*
X4090Y12574D2*
X4854D1*
X6026D2*
X10792D1*
X4090Y12325D2*
X4854D1*
X6877D2*
X10003D1*
X4090Y12077D2*
X4854D1*
X7014D2*
X9866D1*
X4090Y11828D2*
X5862D1*
X7018D2*
X9862D1*
X4090Y11579D2*
X5979D1*
X6901D2*
X9979D1*
X4090Y11331D2*
X10792D1*
X4090Y11082D2*
X10792D1*
X4090Y10833D2*
X6843D1*
X9162D2*
X10792D1*
X4090Y10585D2*
X6593D1*
X9412D2*
X10792D1*
X4090Y10336D2*
X6011D1*
X7326D2*
X7886D1*
X9994D2*
X10792D1*
X4090Y10087D2*
X5870D1*
X7080D2*
X7745D1*
X10135D2*
X10792D1*
X4090Y9839D2*
X5390D1*
X7022D2*
X7733D1*
X10147D2*
X10792D1*
X4090Y9590D2*
X5245D1*
X10033D2*
X10792D1*
X4090Y9341D2*
X5233D1*
X9522D2*
X10792D1*
X4090Y9093D2*
X5343D1*
X6287D2*
X8468D1*
X9412D2*
X10792D1*
X4090Y8844D2*
X10792D1*
X4090Y8595D2*
X10792D1*
X4090Y8346D2*
X10792D1*
X4090Y8098D2*
X10792D1*
X4090Y7849D2*
X6858D1*
X8522D2*
X10792D1*
X4090Y7600D2*
X6608D1*
X8772D2*
X10792D1*
X4090Y7352D2*
X6030D1*
X9350D2*
X9529D1*
X10350D2*
X10792D1*
X4090Y7103D2*
X5874D1*
X7096D2*
X7351D1*
X10506D2*
X10792D1*
X4090Y6854D2*
X5858D1*
X7022D2*
X7351D1*
X10522D2*
X10792D1*
X4090Y6606D2*
X5960D1*
X6920D2*
X7351D1*
X10420D2*
X10792D1*
X4090Y6357D2*
X10792D1*
X4090Y6108D2*
X10792D1*
X4090Y5860D2*
X10792D1*
X4090Y5611D2*
X10792D1*
X4090Y5362D2*
X4354D1*
X6334D2*
X6546D1*
X7334D2*
X9546D1*
X10334D2*
X10792D1*
X4090Y5114D2*
X4354D1*
X7498D2*
X9382D1*
X10498D2*
X10792D1*
X4090Y4865D2*
X4354D1*
X7522D2*
X9358D1*
X10522D2*
X10792D1*
X4090Y4616D2*
X4354D1*
X7424D2*
X9456D1*
X10424D2*
X10792D1*
X4090Y4367D2*
X10792D1*
X4090Y4119D2*
X10792D1*
X5005Y13000D2*
X5095D1*
X5007Y13084D1*
X4939Y13189D1*
X4896Y13306D1*
X4880Y13430D1*
X4891Y13554D1*
X4930Y13673D1*
X4994Y13780D1*
X5081Y13870D1*
X5185Y13939D1*
X5301Y13983D1*
X5425Y14000D1*
X5549Y13990D1*
X5668Y13952D1*
X5776Y13889D1*
X5867Y13803D1*
X5938Y13696D1*
X5980Y13768D1*
X6063Y13861D1*
X6165Y13933D1*
X6280Y13982D1*
X6403Y14004D1*
X6527Y13998D1*
X6648Y13966D1*
X6758Y13907D1*
X6853Y13826D1*
X6927Y13726D1*
X6978Y13612D1*
X7005Y13440D1*
X6991Y13316D1*
X6972Y13261D1*
X9797Y13260D1*
X9882Y13349D1*
X9876Y13415D1*
X9884Y13539D1*
X9919Y13659D1*
X9980Y13768D1*
X10063Y13861D1*
X10165Y13933D1*
X10280Y13982D1*
X10403Y14004D1*
X10527Y13998D1*
X10648Y13966D1*
X10758Y13907D1*
X10814Y13859D1*
X10815Y14315D1*
X4065D1*
Y4065D1*
X10815D1*
Y11514D1*
X10693Y11435D1*
X10576Y11392D1*
X10452Y11375D1*
X10328Y11386D1*
X10209Y11424D1*
X10102Y11487D1*
X10011Y11573D1*
X9941Y11676D1*
X9895Y11792D1*
X9876Y11915D1*
X9884Y12039D1*
X9919Y12159D1*
X9980Y12268D1*
X10063Y12361D1*
X10165Y12433D1*
X10280Y12482D1*
X10403Y12504D1*
X10527Y12498D1*
X10648Y12466D1*
X10758Y12407D1*
X10814Y12359D1*
X10815Y13014D1*
X10693Y12935D1*
X10576Y12892D1*
X10452Y12875D1*
X10348Y12884D1*
X10164Y12697D1*
X10061Y12627D1*
X9930Y12600D1*
X5999D1*
X6000Y12293D1*
X6063Y12361D1*
X6165Y12433D1*
X6280Y12482D1*
X6403Y12504D1*
X6527Y12498D1*
X6648Y12466D1*
X6758Y12407D1*
X6853Y12326D1*
X6927Y12226D1*
X6978Y12112D1*
X7005Y11940D1*
X6991Y11816D1*
X6951Y11698D1*
X6885Y11592D1*
X6798Y11503D1*
X6693Y11435D1*
X6576Y11392D1*
X6452Y11375D1*
X6328Y11386D1*
X6209Y11424D1*
X6102Y11487D1*
X6011Y11573D1*
X5941Y11676D1*
X5895Y11792D1*
X5875Y11880D1*
X4880D1*
Y13000D1*
X5005D1*
X4505Y5500D2*
X5500D1*
Y5285D1*
X5581Y5370D1*
X5685Y5439D1*
X5801Y5483D1*
X5925Y5500D1*
X6049Y5490D1*
X6168Y5452D1*
X6276Y5389D1*
X6367Y5303D1*
X6441Y5189D1*
X6494Y5280D1*
X6581Y5370D1*
X6685Y5439D1*
X6801Y5483D1*
X6925Y5500D1*
X7049Y5490D1*
X7168Y5452D1*
X7276Y5389D1*
X7367Y5303D1*
X7436Y5200D1*
X7482Y5084D1*
X7500Y4940D1*
X7486Y4816D1*
X7445Y4698D1*
X7379Y4592D1*
X7292Y4504D1*
X7186Y4437D1*
X7069Y4395D1*
X6945Y4380D1*
X6821Y4393D1*
X6703Y4432D1*
X6596Y4497D1*
X6507Y4584D1*
X6441Y4686D1*
X6379Y4592D1*
X6292Y4504D1*
X6186Y4437D1*
X6069Y4395D1*
X5945Y4380D1*
X5821Y4393D1*
X5703Y4432D1*
X5596Y4497D1*
X5501Y4594D1*
X5500Y4380D1*
X4380D1*
Y5500D1*
X4505D1*
X10486Y4816D2*
X10445Y4698D1*
X10379Y4592D1*
X10292Y4504D1*
X10186Y4437D1*
X10069Y4395D1*
X9945Y4380D1*
X9821Y4393D1*
X9703Y4432D1*
X9596Y4497D1*
X9507Y4584D1*
X9439Y4689D1*
X9396Y4806D1*
X9380Y4930D1*
X9391Y5054D1*
X9430Y5173D1*
X9494Y5280D1*
X9581Y5370D1*
X9685Y5439D1*
X9801Y5483D1*
X9925Y5500D1*
X10049Y5490D1*
X10168Y5452D1*
X10276Y5389D1*
X10367Y5303D1*
X10436Y5200D1*
X10482Y5084D1*
X10500Y4940D1*
X10486Y4816D1*
X6991Y9816D2*
X6975Y9768D1*
X7780Y9770D1*
X7751Y9915D1*
X7759Y10039D1*
X7794Y10159D1*
X7855Y10268D1*
X7941Y10363D1*
X7330Y10365D1*
X7000Y10034D1*
X7005Y9940D1*
X6991Y9816D1*
X5881Y10004D2*
X5919Y10159D1*
X5980Y10268D1*
X6063Y10361D1*
X6165Y10433D1*
X6280Y10482D1*
X6403Y10504D1*
X6531Y10497D1*
X6962Y10928D1*
X7064Y10998D1*
X7195Y11025D1*
X8810D1*
X8932Y11002D1*
X9043Y10928D1*
X9471Y10500D1*
X9652Y10498D1*
X9773Y10466D1*
X9883Y10407D1*
X9978Y10326D1*
X10052Y10226D1*
X10103Y10112D1*
X10130Y9940D1*
X10116Y9816D1*
X10076Y9698D1*
X10010Y9592D1*
X9923Y9503D1*
X9818Y9435D1*
X9701Y9392D1*
X9577Y9375D1*
X9504Y9382D1*
X9491Y9316D1*
X9451Y9198D1*
X9385Y9092D1*
X9298Y9003D1*
X9193Y8935D1*
X9076Y8892D1*
X8952Y8875D1*
X8828Y8886D1*
X8709Y8924D1*
X8602Y8987D1*
X8511Y9073D1*
X8487Y9108D1*
X6272Y9110D1*
X6173Y9003D1*
X6068Y8935D1*
X5951Y8892D1*
X5827Y8875D1*
X5703Y8886D1*
X5584Y8924D1*
X5477Y8987D1*
X5386Y9073D1*
X5316Y9176D1*
X5270Y9292D1*
X5251Y9415D1*
X5259Y9539D1*
X5294Y9659D1*
X5355Y9768D1*
X5438Y9861D1*
X5540Y9933D1*
X5655Y9982D1*
X5778Y10004D1*
X5875Y9999D1*
X8505Y6579D2*
Y6375D1*
X7375D1*
Y7363D1*
X7252Y7285D1*
X7000Y7034D1*
X7005Y6940D1*
X6991Y6816D1*
X6951Y6698D1*
X6885Y6592D1*
X6798Y6503D1*
X6693Y6435D1*
X6576Y6392D1*
X6452Y6375D1*
X6328Y6386D1*
X6209Y6424D1*
X6102Y6487D1*
X6011Y6573D1*
X5941Y6676D1*
X5895Y6792D1*
X5876Y6915D1*
X5884Y7039D1*
X5919Y7159D1*
X5980Y7268D1*
X6063Y7361D1*
X6165Y7433D1*
X6280Y7482D1*
X6403Y7504D1*
X6531Y7497D1*
X6962Y7928D1*
X7064Y7998D1*
X7195Y8025D1*
X8185D1*
X8307Y8002D1*
X8418Y7928D1*
X8846Y7500D1*
X9027Y7498D1*
X9148Y7466D1*
X9258Y7407D1*
X9353Y7326D1*
X9438Y7201D1*
X9480Y7268D1*
X9563Y7361D1*
X9665Y7433D1*
X9780Y7482D1*
X9903Y7504D1*
X10027Y7498D1*
X10148Y7466D1*
X10258Y7407D1*
X10353Y7326D1*
X10427Y7226D1*
X10478Y7112D1*
X10505Y6940D1*
X10491Y6816D1*
X10451Y6698D1*
X10385Y6592D1*
X10298Y6503D1*
X10193Y6435D1*
X10076Y6392D1*
X9952Y6375D1*
X9828Y6386D1*
X9709Y6424D1*
X9602Y6487D1*
X9511Y6573D1*
X9439Y6679D1*
X9385Y6592D1*
X9298Y6503D1*
X9193Y6435D1*
X9076Y6392D1*
X8952Y6375D1*
X8828Y6386D1*
X8709Y6424D1*
X8602Y6487D1*
X8504Y6582D1*
D15*
X5440Y12440D3*
D16*
Y13440D3*
D15*
X4940Y4940D3*
D16*
X5940D3*
X6940D3*
X7940D3*
X8940D3*
X9940D3*
D17*
X6440Y9940D3*
X5815Y9440D3*
X5190Y9940D3*
X9565D3*
X8940Y9440D3*
X8315Y9940D3*
D18*
X6440Y11940D3*
D17*
X10440D3*
D18*
X6440Y13440D3*
D17*
X10440D3*
D19*
X7940Y6940D3*
D17*
X8940D3*
X9940D3*
D19*
X5440D3*
D17*
X6440D3*
M02*
