G04 MADE WITH FRITZING*
G04 WWW.FRITZING.ORG*
G04 DOUBLE SIDED*
G04 HOLES PLATED*
G04 CONTOUR ON CENTER OF CONTOUR VECTOR*
%ASAXBY*%
%FSLAX23Y23*%
%MOIN*%
%OFA0B0*%
%SFA1.0B1.0*%
%ADD10C,0.075000*%
%ADD11C,0.078000*%
%ADD12R,0.075000X0.075000*%
%ADD13R,0.078000X0.078000*%
%ADD14C,0.024000*%
%LNCOPPER1*%
G90*
G70*
G54D10*
X1035Y1724D03*
X113Y2019D03*
X1397Y2019D03*
X113Y260D03*
G54D11*
X1491Y884D03*
X1491Y784D03*
X91Y1184D03*
X1491Y1384D03*
X1491Y1284D03*
X1491Y584D03*
X1491Y484D03*
X91Y484D03*
X91Y384D03*
G54D10*
X491Y684D03*
X91Y684D03*
X491Y1184D03*
X491Y784D03*
X891Y1584D03*
X991Y1584D03*
X891Y1484D03*
X991Y1484D03*
X891Y1384D03*
X991Y1384D03*
X891Y1284D03*
X991Y1284D03*
X891Y1184D03*
X991Y1184D03*
X891Y1084D03*
X991Y1084D03*
G54D11*
X391Y84D03*
X491Y84D03*
X591Y84D03*
X591Y1984D03*
X691Y1984D03*
X791Y1984D03*
X891Y1984D03*
G54D10*
X1191Y1984D03*
X1291Y1984D03*
X1191Y1884D03*
X1291Y1884D03*
X1191Y1784D03*
X1291Y1784D03*
X1191Y1684D03*
X1291Y1684D03*
X1191Y1584D03*
X1291Y1584D03*
X1191Y1484D03*
X1291Y1484D03*
X1191Y1384D03*
X1291Y1384D03*
X1191Y1284D03*
X1291Y1284D03*
X1191Y1184D03*
X1291Y1184D03*
X1191Y1084D03*
X1291Y1084D03*
X1191Y984D03*
X1291Y984D03*
X1191Y884D03*
X1291Y884D03*
X1191Y784D03*
X1291Y784D03*
X1191Y684D03*
X1291Y684D03*
X1191Y584D03*
X1291Y584D03*
X1191Y484D03*
X1291Y484D03*
X1191Y384D03*
X1291Y384D03*
X1191Y284D03*
X1291Y284D03*
X891Y684D03*
X991Y684D03*
X891Y584D03*
X991Y584D03*
X891Y484D03*
X991Y484D03*
X891Y384D03*
X991Y384D03*
G54D11*
X491Y1384D03*
X491Y1484D03*
X491Y1584D03*
X491Y1684D03*
X491Y1784D03*
X291Y1784D03*
X291Y1684D03*
X291Y1584D03*
X291Y1484D03*
X91Y984D03*
X91Y884D03*
X291Y284D03*
X391Y284D03*
X491Y284D03*
X391Y1184D03*
X391Y1084D03*
X391Y984D03*
X291Y484D03*
X391Y484D03*
X491Y484D03*
G54D12*
X891Y1584D03*
G54D13*
X391Y84D03*
X591Y1984D03*
G54D12*
X1191Y1984D03*
X891Y684D03*
G54D13*
X491Y1384D03*
X291Y1784D03*
X91Y984D03*
X291Y284D03*
X391Y1184D03*
X291Y484D03*
G54D14*
X890Y284D02*
X1091Y284D01*
D02*
X1091Y284D02*
X1171Y363D01*
D02*
X891Y355D02*
X890Y284D01*
D02*
X1011Y404D02*
X1171Y563D01*
D02*
X1011Y504D02*
X1171Y663D01*
D02*
X1011Y604D02*
X1171Y763D01*
D02*
X1171Y863D02*
X1011Y704D01*
D02*
X1391Y384D02*
X1320Y384D01*
D02*
X1391Y184D02*
X1391Y384D01*
D02*
X590Y184D02*
X1391Y184D01*
D02*
X590Y1084D02*
X590Y184D01*
D02*
X862Y1084D02*
X590Y1084D01*
D02*
X792Y1684D02*
X1165Y1871D01*
D02*
X792Y1383D02*
X792Y1684D01*
D02*
X862Y1383D02*
X792Y1383D01*
D02*
X1220Y1984D02*
X1262Y1984D01*
D02*
X591Y1684D02*
X591Y1483D01*
D02*
X774Y1959D02*
X591Y1684D01*
D02*
X591Y1483D02*
X521Y1483D01*
D02*
X874Y1959D02*
X691Y1684D01*
D02*
X691Y1684D02*
X691Y1385D01*
D02*
X691Y1385D02*
X521Y1384D01*
D02*
X300Y1812D02*
X390Y2083D01*
D02*
X1191Y2083D02*
X1191Y2012D01*
D02*
X390Y2083D02*
X1191Y2083D01*
D02*
X318Y1770D02*
X464Y1697D01*
D02*
X318Y1497D02*
X464Y1570D01*
D02*
X1320Y584D02*
X1461Y584D01*
D02*
X1320Y884D02*
X1461Y884D01*
D02*
X1320Y1384D02*
X1461Y1384D01*
D02*
X491Y453D02*
X491Y314D01*
D02*
X291Y453D02*
X291Y314D01*
D02*
X570Y105D02*
X412Y262D01*
D02*
X191Y84D02*
X361Y84D01*
D02*
X191Y383D02*
X191Y84D01*
D02*
X121Y383D02*
X191Y383D01*
D02*
X191Y383D02*
X121Y383D01*
D02*
X191Y684D02*
X191Y383D01*
D02*
X119Y684D02*
X191Y684D01*
D02*
X491Y514D02*
X491Y655D01*
D02*
X291Y1383D02*
X192Y1383D01*
D02*
X192Y1784D02*
X261Y1784D01*
D02*
X291Y514D02*
X291Y1383D01*
D02*
X192Y1383D02*
X192Y1784D01*
D02*
X1262Y284D02*
X1220Y284D01*
D02*
X392Y683D02*
X391Y953D01*
D02*
X462Y684D02*
X392Y683D01*
G36*
X1230Y1860D02*
X1230Y1858D01*
X1228Y1858D01*
X1228Y1856D01*
X1226Y1856D01*
X1226Y1852D01*
X1224Y1852D01*
X1224Y1850D01*
X1222Y1850D01*
X1222Y1848D01*
X1218Y1848D01*
X1218Y1846D01*
X1216Y1846D01*
X1216Y1844D01*
X1214Y1844D01*
X1214Y1824D01*
X1216Y1824D01*
X1216Y1822D01*
X1218Y1822D01*
X1218Y1820D01*
X1220Y1820D01*
X1220Y1818D01*
X1222Y1818D01*
X1222Y1816D01*
X1224Y1816D01*
X1224Y1814D01*
X1226Y1814D01*
X1226Y1812D01*
X1228Y1812D01*
X1228Y1810D01*
X1230Y1810D01*
X1230Y1806D01*
X1250Y1806D01*
X1250Y1808D01*
X1252Y1808D01*
X1252Y1810D01*
X1254Y1810D01*
X1254Y1812D01*
X1256Y1812D01*
X1256Y1814D01*
X1258Y1814D01*
X1258Y1816D01*
X1260Y1816D01*
X1260Y1818D01*
X1262Y1818D01*
X1262Y1820D01*
X1264Y1820D01*
X1264Y1822D01*
X1266Y1822D01*
X1266Y1824D01*
X1268Y1824D01*
X1268Y1844D01*
X1266Y1844D01*
X1266Y1846D01*
X1262Y1846D01*
X1262Y1848D01*
X1260Y1848D01*
X1260Y1850D01*
X1258Y1850D01*
X1258Y1852D01*
X1256Y1852D01*
X1256Y1854D01*
X1254Y1854D01*
X1254Y1858D01*
X1252Y1858D01*
X1252Y1860D01*
X1230Y1860D01*
G37*
D02*
G36*
X1230Y1760D02*
X1230Y1758D01*
X1228Y1758D01*
X1228Y1756D01*
X1226Y1756D01*
X1226Y1752D01*
X1224Y1752D01*
X1224Y1750D01*
X1222Y1750D01*
X1222Y1748D01*
X1218Y1748D01*
X1218Y1746D01*
X1216Y1746D01*
X1216Y1744D01*
X1214Y1744D01*
X1214Y1724D01*
X1216Y1724D01*
X1216Y1722D01*
X1218Y1722D01*
X1218Y1720D01*
X1220Y1720D01*
X1220Y1718D01*
X1222Y1718D01*
X1222Y1716D01*
X1224Y1716D01*
X1224Y1714D01*
X1226Y1714D01*
X1226Y1712D01*
X1228Y1712D01*
X1228Y1710D01*
X1230Y1710D01*
X1230Y1706D01*
X1250Y1706D01*
X1250Y1708D01*
X1252Y1708D01*
X1252Y1710D01*
X1254Y1710D01*
X1254Y1712D01*
X1256Y1712D01*
X1256Y1714D01*
X1258Y1714D01*
X1258Y1716D01*
X1260Y1716D01*
X1260Y1718D01*
X1262Y1718D01*
X1262Y1720D01*
X1264Y1720D01*
X1264Y1722D01*
X1266Y1722D01*
X1266Y1724D01*
X1268Y1724D01*
X1268Y1744D01*
X1266Y1744D01*
X1266Y1746D01*
X1262Y1746D01*
X1262Y1748D01*
X1260Y1748D01*
X1260Y1750D01*
X1258Y1750D01*
X1258Y1752D01*
X1256Y1752D01*
X1256Y1754D01*
X1254Y1754D01*
X1254Y1758D01*
X1252Y1758D01*
X1252Y1760D01*
X1230Y1760D01*
G37*
D02*
G36*
X1230Y1660D02*
X1230Y1658D01*
X1228Y1658D01*
X1228Y1656D01*
X1226Y1656D01*
X1226Y1652D01*
X1224Y1652D01*
X1224Y1650D01*
X1222Y1650D01*
X1222Y1648D01*
X1218Y1648D01*
X1218Y1646D01*
X1216Y1646D01*
X1216Y1644D01*
X1214Y1644D01*
X1214Y1624D01*
X1216Y1624D01*
X1216Y1622D01*
X1218Y1622D01*
X1218Y1620D01*
X1220Y1620D01*
X1220Y1618D01*
X1222Y1618D01*
X1222Y1616D01*
X1224Y1616D01*
X1224Y1614D01*
X1226Y1614D01*
X1226Y1612D01*
X1228Y1612D01*
X1228Y1610D01*
X1230Y1610D01*
X1230Y1606D01*
X1250Y1606D01*
X1250Y1608D01*
X1252Y1608D01*
X1252Y1610D01*
X1254Y1610D01*
X1254Y1612D01*
X1256Y1612D01*
X1256Y1614D01*
X1258Y1614D01*
X1258Y1616D01*
X1260Y1616D01*
X1260Y1618D01*
X1262Y1618D01*
X1262Y1620D01*
X1264Y1620D01*
X1264Y1622D01*
X1266Y1622D01*
X1266Y1624D01*
X1268Y1624D01*
X1268Y1644D01*
X1266Y1644D01*
X1266Y1646D01*
X1262Y1646D01*
X1262Y1648D01*
X1260Y1648D01*
X1260Y1650D01*
X1258Y1650D01*
X1258Y1652D01*
X1256Y1652D01*
X1256Y1654D01*
X1254Y1654D01*
X1254Y1658D01*
X1252Y1658D01*
X1252Y1660D01*
X1230Y1660D01*
G37*
D02*
G36*
X1230Y1560D02*
X1230Y1558D01*
X1228Y1558D01*
X1228Y1556D01*
X1226Y1556D01*
X1226Y1552D01*
X1224Y1552D01*
X1224Y1550D01*
X1222Y1550D01*
X1222Y1548D01*
X1218Y1548D01*
X1218Y1546D01*
X1216Y1546D01*
X1216Y1544D01*
X1214Y1544D01*
X1214Y1524D01*
X1216Y1524D01*
X1216Y1522D01*
X1218Y1522D01*
X1218Y1520D01*
X1220Y1520D01*
X1220Y1518D01*
X1222Y1518D01*
X1222Y1516D01*
X1224Y1516D01*
X1224Y1514D01*
X1226Y1514D01*
X1226Y1512D01*
X1228Y1512D01*
X1228Y1510D01*
X1230Y1510D01*
X1230Y1506D01*
X1250Y1506D01*
X1250Y1508D01*
X1252Y1508D01*
X1252Y1510D01*
X1254Y1510D01*
X1254Y1512D01*
X1256Y1512D01*
X1256Y1514D01*
X1258Y1514D01*
X1258Y1516D01*
X1260Y1516D01*
X1260Y1518D01*
X1262Y1518D01*
X1262Y1520D01*
X1264Y1520D01*
X1264Y1522D01*
X1266Y1522D01*
X1266Y1524D01*
X1268Y1524D01*
X1268Y1544D01*
X1266Y1544D01*
X1266Y1546D01*
X1262Y1546D01*
X1262Y1548D01*
X1260Y1548D01*
X1260Y1550D01*
X1258Y1550D01*
X1258Y1552D01*
X1256Y1552D01*
X1256Y1554D01*
X1254Y1554D01*
X1254Y1558D01*
X1252Y1558D01*
X1252Y1560D01*
X1230Y1560D01*
G37*
D02*
G36*
X818Y1946D02*
X818Y1944D01*
X816Y1944D01*
X816Y1942D01*
X812Y1942D01*
X812Y1940D01*
X808Y1940D01*
X808Y1938D01*
X804Y1938D01*
X804Y1936D01*
X796Y1936D01*
X796Y1934D01*
X784Y1934D01*
X784Y1932D01*
X782Y1932D01*
X782Y1930D01*
X780Y1930D01*
X780Y1926D01*
X778Y1926D01*
X778Y1924D01*
X776Y1924D01*
X776Y1920D01*
X774Y1920D01*
X774Y1918D01*
X772Y1918D01*
X772Y1914D01*
X770Y1914D01*
X770Y1912D01*
X768Y1912D01*
X768Y1908D01*
X766Y1908D01*
X766Y1906D01*
X764Y1906D01*
X764Y1902D01*
X762Y1902D01*
X762Y1900D01*
X760Y1900D01*
X760Y1896D01*
X758Y1896D01*
X758Y1894D01*
X756Y1894D01*
X756Y1890D01*
X754Y1890D01*
X754Y1888D01*
X752Y1888D01*
X752Y1884D01*
X750Y1884D01*
X750Y1882D01*
X748Y1882D01*
X748Y1878D01*
X746Y1878D01*
X746Y1876D01*
X744Y1876D01*
X744Y1872D01*
X742Y1872D01*
X742Y1870D01*
X740Y1870D01*
X740Y1866D01*
X738Y1866D01*
X738Y1864D01*
X736Y1864D01*
X736Y1860D01*
X734Y1860D01*
X734Y1858D01*
X732Y1858D01*
X732Y1854D01*
X730Y1854D01*
X730Y1852D01*
X728Y1852D01*
X728Y1848D01*
X726Y1848D01*
X726Y1846D01*
X724Y1846D01*
X724Y1842D01*
X722Y1842D01*
X722Y1840D01*
X720Y1840D01*
X720Y1836D01*
X718Y1836D01*
X718Y1834D01*
X716Y1834D01*
X716Y1830D01*
X714Y1830D01*
X714Y1828D01*
X712Y1828D01*
X712Y1824D01*
X710Y1824D01*
X710Y1822D01*
X708Y1822D01*
X708Y1818D01*
X706Y1818D01*
X706Y1816D01*
X704Y1816D01*
X704Y1812D01*
X702Y1812D01*
X702Y1810D01*
X700Y1810D01*
X700Y1806D01*
X698Y1806D01*
X698Y1804D01*
X696Y1804D01*
X696Y1800D01*
X694Y1800D01*
X694Y1798D01*
X692Y1798D01*
X692Y1794D01*
X690Y1794D01*
X690Y1792D01*
X688Y1792D01*
X688Y1788D01*
X686Y1788D01*
X686Y1786D01*
X684Y1786D01*
X684Y1782D01*
X682Y1782D01*
X682Y1780D01*
X680Y1780D01*
X680Y1776D01*
X678Y1776D01*
X678Y1774D01*
X676Y1774D01*
X676Y1770D01*
X674Y1770D01*
X674Y1768D01*
X672Y1768D01*
X672Y1764D01*
X670Y1764D01*
X670Y1762D01*
X668Y1762D01*
X668Y1758D01*
X666Y1758D01*
X666Y1756D01*
X664Y1756D01*
X664Y1752D01*
X662Y1752D01*
X662Y1750D01*
X660Y1750D01*
X660Y1746D01*
X658Y1746D01*
X658Y1744D01*
X656Y1744D01*
X656Y1740D01*
X654Y1740D01*
X654Y1738D01*
X652Y1738D01*
X652Y1734D01*
X650Y1734D01*
X650Y1732D01*
X648Y1732D01*
X648Y1728D01*
X646Y1728D01*
X646Y1726D01*
X644Y1726D01*
X644Y1722D01*
X642Y1722D01*
X642Y1720D01*
X640Y1720D01*
X640Y1716D01*
X638Y1716D01*
X638Y1714D01*
X636Y1714D01*
X636Y1710D01*
X634Y1710D01*
X634Y1708D01*
X632Y1708D01*
X632Y1704D01*
X630Y1704D01*
X630Y1702D01*
X628Y1702D01*
X628Y1698D01*
X626Y1698D01*
X626Y1696D01*
X624Y1696D01*
X624Y1692D01*
X622Y1692D01*
X622Y1690D01*
X620Y1690D01*
X620Y1686D01*
X618Y1686D01*
X618Y1684D01*
X616Y1684D01*
X616Y1680D01*
X614Y1680D01*
X614Y1678D01*
X612Y1678D01*
X612Y1474D01*
X610Y1474D01*
X610Y1470D01*
X608Y1470D01*
X608Y1468D01*
X606Y1468D01*
X606Y1466D01*
X604Y1466D01*
X604Y1464D01*
X600Y1464D01*
X600Y1462D01*
X594Y1462D01*
X594Y1460D01*
X670Y1460D01*
X670Y1692D01*
X672Y1692D01*
X672Y1696D01*
X674Y1696D01*
X674Y1700D01*
X676Y1700D01*
X676Y1702D01*
X678Y1702D01*
X678Y1706D01*
X680Y1706D01*
X680Y1708D01*
X682Y1708D01*
X682Y1712D01*
X684Y1712D01*
X684Y1714D01*
X686Y1714D01*
X686Y1718D01*
X688Y1718D01*
X688Y1720D01*
X690Y1720D01*
X690Y1724D01*
X692Y1724D01*
X692Y1726D01*
X694Y1726D01*
X694Y1730D01*
X696Y1730D01*
X696Y1732D01*
X698Y1732D01*
X698Y1736D01*
X700Y1736D01*
X700Y1738D01*
X702Y1738D01*
X702Y1742D01*
X704Y1742D01*
X704Y1744D01*
X706Y1744D01*
X706Y1748D01*
X708Y1748D01*
X708Y1750D01*
X710Y1750D01*
X710Y1754D01*
X712Y1754D01*
X712Y1756D01*
X714Y1756D01*
X714Y1760D01*
X716Y1760D01*
X716Y1762D01*
X718Y1762D01*
X718Y1766D01*
X720Y1766D01*
X720Y1768D01*
X722Y1768D01*
X722Y1772D01*
X724Y1772D01*
X724Y1774D01*
X726Y1774D01*
X726Y1778D01*
X728Y1778D01*
X728Y1780D01*
X730Y1780D01*
X730Y1784D01*
X732Y1784D01*
X732Y1786D01*
X734Y1786D01*
X734Y1790D01*
X736Y1790D01*
X736Y1792D01*
X738Y1792D01*
X738Y1796D01*
X740Y1796D01*
X740Y1798D01*
X742Y1798D01*
X742Y1802D01*
X744Y1802D01*
X744Y1804D01*
X746Y1804D01*
X746Y1808D01*
X748Y1808D01*
X748Y1810D01*
X750Y1810D01*
X750Y1814D01*
X752Y1814D01*
X752Y1816D01*
X754Y1816D01*
X754Y1820D01*
X756Y1820D01*
X756Y1822D01*
X758Y1822D01*
X758Y1826D01*
X760Y1826D01*
X760Y1828D01*
X762Y1828D01*
X762Y1832D01*
X764Y1832D01*
X764Y1834D01*
X766Y1834D01*
X766Y1838D01*
X768Y1838D01*
X768Y1840D01*
X770Y1840D01*
X770Y1844D01*
X772Y1844D01*
X772Y1846D01*
X774Y1846D01*
X774Y1850D01*
X776Y1850D01*
X776Y1852D01*
X778Y1852D01*
X778Y1856D01*
X780Y1856D01*
X780Y1858D01*
X782Y1858D01*
X782Y1862D01*
X784Y1862D01*
X784Y1864D01*
X786Y1864D01*
X786Y1868D01*
X788Y1868D01*
X788Y1870D01*
X790Y1870D01*
X790Y1874D01*
X792Y1874D01*
X792Y1876D01*
X794Y1876D01*
X794Y1880D01*
X796Y1880D01*
X796Y1882D01*
X798Y1882D01*
X798Y1886D01*
X800Y1886D01*
X800Y1888D01*
X802Y1888D01*
X802Y1892D01*
X804Y1892D01*
X804Y1894D01*
X806Y1894D01*
X806Y1898D01*
X808Y1898D01*
X808Y1900D01*
X810Y1900D01*
X810Y1904D01*
X812Y1904D01*
X812Y1906D01*
X814Y1906D01*
X814Y1910D01*
X816Y1910D01*
X816Y1912D01*
X818Y1912D01*
X818Y1916D01*
X820Y1916D01*
X820Y1918D01*
X822Y1918D01*
X822Y1922D01*
X824Y1922D01*
X824Y1924D01*
X826Y1924D01*
X826Y1928D01*
X828Y1928D01*
X828Y1930D01*
X830Y1930D01*
X830Y1934D01*
X832Y1934D01*
X832Y1936D01*
X834Y1936D01*
X834Y1940D01*
X836Y1940D01*
X836Y1942D01*
X838Y1942D01*
X838Y1946D01*
X818Y1946D01*
G37*
D02*
G36*
X534Y1462D02*
X534Y1460D01*
X572Y1460D01*
X572Y1462D01*
X534Y1462D01*
G37*
D02*
G36*
X532Y1460D02*
X532Y1458D01*
X670Y1458D01*
X670Y1460D01*
X532Y1460D01*
G37*
D02*
G36*
X532Y1460D02*
X532Y1458D01*
X670Y1458D01*
X670Y1460D01*
X532Y1460D01*
G37*
D02*
G36*
X530Y1458D02*
X530Y1456D01*
X528Y1456D01*
X528Y1452D01*
X526Y1452D01*
X526Y1432D01*
X540Y1432D01*
X540Y1406D01*
X670Y1406D01*
X670Y1458D01*
X530Y1458D01*
G37*
D02*
G36*
X930Y1460D02*
X930Y1458D01*
X928Y1458D01*
X928Y1456D01*
X926Y1456D01*
X926Y1452D01*
X924Y1452D01*
X924Y1450D01*
X922Y1450D01*
X922Y1448D01*
X918Y1448D01*
X918Y1446D01*
X916Y1446D01*
X916Y1444D01*
X914Y1444D01*
X914Y1424D01*
X916Y1424D01*
X916Y1422D01*
X918Y1422D01*
X918Y1420D01*
X920Y1420D01*
X920Y1418D01*
X922Y1418D01*
X922Y1416D01*
X924Y1416D01*
X924Y1414D01*
X926Y1414D01*
X926Y1412D01*
X928Y1412D01*
X928Y1410D01*
X930Y1410D01*
X930Y1406D01*
X950Y1406D01*
X950Y1408D01*
X952Y1408D01*
X952Y1410D01*
X954Y1410D01*
X954Y1412D01*
X956Y1412D01*
X956Y1414D01*
X958Y1414D01*
X958Y1416D01*
X960Y1416D01*
X960Y1418D01*
X962Y1418D01*
X962Y1420D01*
X964Y1420D01*
X964Y1422D01*
X966Y1422D01*
X966Y1424D01*
X968Y1424D01*
X968Y1444D01*
X966Y1444D01*
X966Y1446D01*
X962Y1446D01*
X962Y1448D01*
X960Y1448D01*
X960Y1450D01*
X958Y1450D01*
X958Y1452D01*
X956Y1452D01*
X956Y1454D01*
X954Y1454D01*
X954Y1458D01*
X952Y1458D01*
X952Y1460D01*
X930Y1460D01*
G37*
D02*
G36*
X1230Y1460D02*
X1230Y1458D01*
X1228Y1458D01*
X1228Y1456D01*
X1226Y1456D01*
X1226Y1452D01*
X1224Y1452D01*
X1224Y1450D01*
X1222Y1450D01*
X1222Y1448D01*
X1218Y1448D01*
X1218Y1446D01*
X1216Y1446D01*
X1216Y1444D01*
X1214Y1444D01*
X1214Y1424D01*
X1216Y1424D01*
X1216Y1422D01*
X1218Y1422D01*
X1218Y1420D01*
X1220Y1420D01*
X1220Y1418D01*
X1222Y1418D01*
X1222Y1416D01*
X1224Y1416D01*
X1224Y1414D01*
X1226Y1414D01*
X1226Y1412D01*
X1228Y1412D01*
X1228Y1410D01*
X1230Y1410D01*
X1230Y1406D01*
X1250Y1406D01*
X1250Y1408D01*
X1252Y1408D01*
X1252Y1410D01*
X1254Y1410D01*
X1254Y1412D01*
X1256Y1412D01*
X1256Y1414D01*
X1258Y1414D01*
X1258Y1416D01*
X1260Y1416D01*
X1260Y1418D01*
X1262Y1418D01*
X1262Y1420D01*
X1264Y1420D01*
X1264Y1422D01*
X1266Y1422D01*
X1266Y1424D01*
X1268Y1424D01*
X1268Y1444D01*
X1266Y1444D01*
X1266Y1446D01*
X1262Y1446D01*
X1262Y1448D01*
X1260Y1448D01*
X1260Y1450D01*
X1258Y1450D01*
X1258Y1452D01*
X1256Y1452D01*
X1256Y1454D01*
X1254Y1454D01*
X1254Y1458D01*
X1252Y1458D01*
X1252Y1460D01*
X1230Y1460D01*
G37*
D02*
G36*
X930Y1360D02*
X930Y1358D01*
X928Y1358D01*
X928Y1356D01*
X926Y1356D01*
X926Y1352D01*
X924Y1352D01*
X924Y1350D01*
X922Y1350D01*
X922Y1348D01*
X918Y1348D01*
X918Y1346D01*
X916Y1346D01*
X916Y1344D01*
X914Y1344D01*
X914Y1324D01*
X916Y1324D01*
X916Y1322D01*
X918Y1322D01*
X918Y1320D01*
X920Y1320D01*
X920Y1318D01*
X922Y1318D01*
X922Y1316D01*
X924Y1316D01*
X924Y1314D01*
X926Y1314D01*
X926Y1312D01*
X928Y1312D01*
X928Y1310D01*
X930Y1310D01*
X930Y1306D01*
X950Y1306D01*
X950Y1308D01*
X952Y1308D01*
X952Y1310D01*
X954Y1310D01*
X954Y1312D01*
X956Y1312D01*
X956Y1314D01*
X958Y1314D01*
X958Y1316D01*
X960Y1316D01*
X960Y1318D01*
X962Y1318D01*
X962Y1320D01*
X964Y1320D01*
X964Y1322D01*
X966Y1322D01*
X966Y1324D01*
X968Y1324D01*
X968Y1344D01*
X966Y1344D01*
X966Y1346D01*
X962Y1346D01*
X962Y1348D01*
X960Y1348D01*
X960Y1350D01*
X958Y1350D01*
X958Y1352D01*
X956Y1352D01*
X956Y1354D01*
X954Y1354D01*
X954Y1358D01*
X952Y1358D01*
X952Y1360D01*
X930Y1360D01*
G37*
D02*
G36*
X1230Y1360D02*
X1230Y1358D01*
X1228Y1358D01*
X1228Y1356D01*
X1226Y1356D01*
X1226Y1352D01*
X1224Y1352D01*
X1224Y1350D01*
X1222Y1350D01*
X1222Y1348D01*
X1218Y1348D01*
X1218Y1346D01*
X1216Y1346D01*
X1216Y1344D01*
X1214Y1344D01*
X1214Y1324D01*
X1216Y1324D01*
X1216Y1322D01*
X1218Y1322D01*
X1218Y1320D01*
X1220Y1320D01*
X1220Y1318D01*
X1222Y1318D01*
X1222Y1316D01*
X1224Y1316D01*
X1224Y1314D01*
X1226Y1314D01*
X1226Y1312D01*
X1228Y1312D01*
X1228Y1310D01*
X1230Y1310D01*
X1230Y1306D01*
X1250Y1306D01*
X1250Y1308D01*
X1252Y1308D01*
X1252Y1310D01*
X1254Y1310D01*
X1254Y1312D01*
X1256Y1312D01*
X1256Y1314D01*
X1258Y1314D01*
X1258Y1316D01*
X1260Y1316D01*
X1260Y1318D01*
X1262Y1318D01*
X1262Y1320D01*
X1264Y1320D01*
X1264Y1322D01*
X1266Y1322D01*
X1266Y1324D01*
X1268Y1324D01*
X1268Y1344D01*
X1266Y1344D01*
X1266Y1346D01*
X1262Y1346D01*
X1262Y1348D01*
X1260Y1348D01*
X1260Y1350D01*
X1258Y1350D01*
X1258Y1352D01*
X1256Y1352D01*
X1256Y1354D01*
X1254Y1354D01*
X1254Y1358D01*
X1252Y1358D01*
X1252Y1360D01*
X1230Y1360D01*
G37*
D02*
G36*
X930Y1260D02*
X930Y1258D01*
X928Y1258D01*
X928Y1256D01*
X926Y1256D01*
X926Y1252D01*
X924Y1252D01*
X924Y1250D01*
X922Y1250D01*
X922Y1248D01*
X918Y1248D01*
X918Y1246D01*
X916Y1246D01*
X916Y1244D01*
X914Y1244D01*
X914Y1224D01*
X916Y1224D01*
X916Y1222D01*
X918Y1222D01*
X918Y1220D01*
X920Y1220D01*
X920Y1218D01*
X922Y1218D01*
X922Y1216D01*
X924Y1216D01*
X924Y1214D01*
X926Y1214D01*
X926Y1212D01*
X928Y1212D01*
X928Y1210D01*
X930Y1210D01*
X930Y1206D01*
X950Y1206D01*
X950Y1208D01*
X952Y1208D01*
X952Y1210D01*
X954Y1210D01*
X954Y1212D01*
X956Y1212D01*
X956Y1214D01*
X958Y1214D01*
X958Y1216D01*
X960Y1216D01*
X960Y1218D01*
X962Y1218D01*
X962Y1220D01*
X964Y1220D01*
X964Y1222D01*
X966Y1222D01*
X966Y1224D01*
X968Y1224D01*
X968Y1244D01*
X966Y1244D01*
X966Y1246D01*
X962Y1246D01*
X962Y1248D01*
X960Y1248D01*
X960Y1250D01*
X958Y1250D01*
X958Y1252D01*
X956Y1252D01*
X956Y1254D01*
X954Y1254D01*
X954Y1258D01*
X952Y1258D01*
X952Y1260D01*
X930Y1260D01*
G37*
D02*
G36*
X1230Y1260D02*
X1230Y1258D01*
X1228Y1258D01*
X1228Y1256D01*
X1226Y1256D01*
X1226Y1252D01*
X1224Y1252D01*
X1224Y1250D01*
X1222Y1250D01*
X1222Y1248D01*
X1218Y1248D01*
X1218Y1246D01*
X1216Y1246D01*
X1216Y1244D01*
X1214Y1244D01*
X1214Y1224D01*
X1216Y1224D01*
X1216Y1222D01*
X1218Y1222D01*
X1218Y1220D01*
X1220Y1220D01*
X1220Y1218D01*
X1222Y1218D01*
X1222Y1216D01*
X1224Y1216D01*
X1224Y1214D01*
X1226Y1214D01*
X1226Y1212D01*
X1228Y1212D01*
X1228Y1210D01*
X1230Y1210D01*
X1230Y1206D01*
X1250Y1206D01*
X1250Y1208D01*
X1252Y1208D01*
X1252Y1210D01*
X1254Y1210D01*
X1254Y1212D01*
X1256Y1212D01*
X1256Y1214D01*
X1258Y1214D01*
X1258Y1216D01*
X1260Y1216D01*
X1260Y1218D01*
X1262Y1218D01*
X1262Y1220D01*
X1264Y1220D01*
X1264Y1222D01*
X1266Y1222D01*
X1266Y1224D01*
X1268Y1224D01*
X1268Y1244D01*
X1266Y1244D01*
X1266Y1246D01*
X1262Y1246D01*
X1262Y1248D01*
X1260Y1248D01*
X1260Y1250D01*
X1258Y1250D01*
X1258Y1252D01*
X1256Y1252D01*
X1256Y1254D01*
X1254Y1254D01*
X1254Y1258D01*
X1252Y1258D01*
X1252Y1260D01*
X1230Y1260D01*
G37*
D02*
G36*
X930Y1160D02*
X930Y1158D01*
X928Y1158D01*
X928Y1156D01*
X926Y1156D01*
X926Y1152D01*
X924Y1152D01*
X924Y1150D01*
X922Y1150D01*
X922Y1148D01*
X918Y1148D01*
X918Y1146D01*
X916Y1146D01*
X916Y1144D01*
X914Y1144D01*
X914Y1124D01*
X916Y1124D01*
X916Y1122D01*
X918Y1122D01*
X918Y1120D01*
X920Y1120D01*
X920Y1118D01*
X922Y1118D01*
X922Y1116D01*
X924Y1116D01*
X924Y1114D01*
X926Y1114D01*
X926Y1112D01*
X928Y1112D01*
X928Y1110D01*
X930Y1110D01*
X930Y1106D01*
X950Y1106D01*
X950Y1108D01*
X952Y1108D01*
X952Y1110D01*
X954Y1110D01*
X954Y1112D01*
X956Y1112D01*
X956Y1114D01*
X958Y1114D01*
X958Y1116D01*
X960Y1116D01*
X960Y1118D01*
X962Y1118D01*
X962Y1120D01*
X964Y1120D01*
X964Y1122D01*
X966Y1122D01*
X966Y1124D01*
X968Y1124D01*
X968Y1144D01*
X966Y1144D01*
X966Y1146D01*
X962Y1146D01*
X962Y1148D01*
X960Y1148D01*
X960Y1150D01*
X958Y1150D01*
X958Y1152D01*
X956Y1152D01*
X956Y1154D01*
X954Y1154D01*
X954Y1158D01*
X952Y1158D01*
X952Y1160D01*
X930Y1160D01*
G37*
D02*
G36*
X1230Y1160D02*
X1230Y1158D01*
X1228Y1158D01*
X1228Y1156D01*
X1226Y1156D01*
X1226Y1152D01*
X1224Y1152D01*
X1224Y1150D01*
X1222Y1150D01*
X1222Y1148D01*
X1218Y1148D01*
X1218Y1146D01*
X1216Y1146D01*
X1216Y1144D01*
X1214Y1144D01*
X1214Y1124D01*
X1216Y1124D01*
X1216Y1122D01*
X1218Y1122D01*
X1218Y1120D01*
X1220Y1120D01*
X1220Y1118D01*
X1222Y1118D01*
X1222Y1116D01*
X1224Y1116D01*
X1224Y1114D01*
X1226Y1114D01*
X1226Y1112D01*
X1228Y1112D01*
X1228Y1110D01*
X1230Y1110D01*
X1230Y1106D01*
X1250Y1106D01*
X1250Y1108D01*
X1252Y1108D01*
X1252Y1110D01*
X1254Y1110D01*
X1254Y1112D01*
X1256Y1112D01*
X1256Y1114D01*
X1258Y1114D01*
X1258Y1116D01*
X1260Y1116D01*
X1260Y1118D01*
X1262Y1118D01*
X1262Y1120D01*
X1264Y1120D01*
X1264Y1122D01*
X1266Y1122D01*
X1266Y1124D01*
X1268Y1124D01*
X1268Y1144D01*
X1266Y1144D01*
X1266Y1146D01*
X1262Y1146D01*
X1262Y1148D01*
X1260Y1148D01*
X1260Y1150D01*
X1258Y1150D01*
X1258Y1152D01*
X1256Y1152D01*
X1256Y1154D01*
X1254Y1154D01*
X1254Y1158D01*
X1252Y1158D01*
X1252Y1160D01*
X1230Y1160D01*
G37*
D02*
G36*
X1146Y1838D02*
X1146Y1836D01*
X1142Y1836D01*
X1142Y1834D01*
X1138Y1834D01*
X1138Y1832D01*
X1134Y1832D01*
X1134Y1830D01*
X1130Y1830D01*
X1130Y1828D01*
X1126Y1828D01*
X1126Y1826D01*
X1122Y1826D01*
X1122Y1824D01*
X1118Y1824D01*
X1118Y1822D01*
X1114Y1822D01*
X1114Y1820D01*
X1112Y1820D01*
X1112Y1818D01*
X1108Y1818D01*
X1108Y1816D01*
X1104Y1816D01*
X1104Y1814D01*
X1100Y1814D01*
X1100Y1812D01*
X1096Y1812D01*
X1096Y1810D01*
X1092Y1810D01*
X1092Y1808D01*
X1088Y1808D01*
X1088Y1806D01*
X1084Y1806D01*
X1084Y1804D01*
X1080Y1804D01*
X1080Y1802D01*
X1076Y1802D01*
X1076Y1800D01*
X1072Y1800D01*
X1072Y1798D01*
X1068Y1798D01*
X1068Y1796D01*
X1064Y1796D01*
X1064Y1794D01*
X1060Y1794D01*
X1060Y1792D01*
X1056Y1792D01*
X1056Y1790D01*
X1052Y1790D01*
X1052Y1788D01*
X1048Y1788D01*
X1048Y1786D01*
X1044Y1786D01*
X1044Y1784D01*
X1040Y1784D01*
X1040Y1782D01*
X1036Y1782D01*
X1036Y1780D01*
X1032Y1780D01*
X1032Y1778D01*
X1028Y1778D01*
X1028Y1776D01*
X1024Y1776D01*
X1024Y1774D01*
X1020Y1774D01*
X1020Y1772D01*
X1016Y1772D01*
X1016Y1770D01*
X1012Y1770D01*
X1012Y1768D01*
X1008Y1768D01*
X1008Y1766D01*
X1004Y1766D01*
X1004Y1764D01*
X1000Y1764D01*
X1000Y1762D01*
X996Y1762D01*
X996Y1760D01*
X992Y1760D01*
X992Y1758D01*
X988Y1758D01*
X988Y1756D01*
X984Y1756D01*
X984Y1754D01*
X980Y1754D01*
X980Y1752D01*
X976Y1752D01*
X976Y1750D01*
X972Y1750D01*
X972Y1748D01*
X968Y1748D01*
X968Y1746D01*
X964Y1746D01*
X964Y1744D01*
X960Y1744D01*
X960Y1742D01*
X956Y1742D01*
X956Y1740D01*
X952Y1740D01*
X952Y1738D01*
X948Y1738D01*
X948Y1736D01*
X944Y1736D01*
X944Y1734D01*
X940Y1734D01*
X940Y1732D01*
X936Y1732D01*
X936Y1730D01*
X932Y1730D01*
X932Y1728D01*
X928Y1728D01*
X928Y1726D01*
X924Y1726D01*
X924Y1724D01*
X920Y1724D01*
X920Y1722D01*
X916Y1722D01*
X916Y1720D01*
X912Y1720D01*
X912Y1718D01*
X908Y1718D01*
X908Y1716D01*
X904Y1716D01*
X904Y1714D01*
X900Y1714D01*
X900Y1712D01*
X896Y1712D01*
X896Y1710D01*
X892Y1710D01*
X892Y1708D01*
X888Y1708D01*
X888Y1706D01*
X884Y1706D01*
X884Y1704D01*
X880Y1704D01*
X880Y1702D01*
X876Y1702D01*
X876Y1700D01*
X872Y1700D01*
X872Y1698D01*
X868Y1698D01*
X868Y1696D01*
X864Y1696D01*
X864Y1694D01*
X860Y1694D01*
X860Y1692D01*
X856Y1692D01*
X856Y1690D01*
X852Y1690D01*
X852Y1688D01*
X848Y1688D01*
X848Y1686D01*
X844Y1686D01*
X844Y1684D01*
X840Y1684D01*
X840Y1682D01*
X836Y1682D01*
X836Y1680D01*
X832Y1680D01*
X832Y1678D01*
X828Y1678D01*
X828Y1676D01*
X824Y1676D01*
X824Y1674D01*
X820Y1674D01*
X820Y1672D01*
X816Y1672D01*
X816Y1670D01*
X814Y1670D01*
X814Y1632D01*
X994Y1632D01*
X994Y1630D01*
X1004Y1630D01*
X1004Y1628D01*
X1008Y1628D01*
X1008Y1626D01*
X1012Y1626D01*
X1012Y1624D01*
X1016Y1624D01*
X1016Y1622D01*
X1018Y1622D01*
X1018Y1620D01*
X1020Y1620D01*
X1020Y1618D01*
X1022Y1618D01*
X1022Y1616D01*
X1024Y1616D01*
X1024Y1614D01*
X1026Y1614D01*
X1026Y1612D01*
X1028Y1612D01*
X1028Y1610D01*
X1030Y1610D01*
X1030Y1606D01*
X1032Y1606D01*
X1032Y1604D01*
X1034Y1604D01*
X1034Y1600D01*
X1036Y1600D01*
X1036Y1594D01*
X1038Y1594D01*
X1038Y1574D01*
X1036Y1574D01*
X1036Y1568D01*
X1034Y1568D01*
X1034Y1564D01*
X1032Y1564D01*
X1032Y1560D01*
X1030Y1560D01*
X1030Y1558D01*
X1028Y1558D01*
X1028Y1556D01*
X1026Y1556D01*
X1026Y1552D01*
X1024Y1552D01*
X1024Y1550D01*
X1022Y1550D01*
X1022Y1548D01*
X1018Y1548D01*
X1018Y1546D01*
X1016Y1546D01*
X1016Y1544D01*
X1014Y1544D01*
X1014Y1524D01*
X1016Y1524D01*
X1016Y1522D01*
X1018Y1522D01*
X1018Y1520D01*
X1020Y1520D01*
X1020Y1518D01*
X1022Y1518D01*
X1022Y1516D01*
X1024Y1516D01*
X1024Y1514D01*
X1026Y1514D01*
X1026Y1512D01*
X1028Y1512D01*
X1028Y1510D01*
X1030Y1510D01*
X1030Y1506D01*
X1032Y1506D01*
X1032Y1504D01*
X1034Y1504D01*
X1034Y1500D01*
X1036Y1500D01*
X1036Y1494D01*
X1038Y1494D01*
X1038Y1474D01*
X1036Y1474D01*
X1036Y1468D01*
X1034Y1468D01*
X1034Y1464D01*
X1032Y1464D01*
X1032Y1460D01*
X1030Y1460D01*
X1030Y1458D01*
X1028Y1458D01*
X1028Y1456D01*
X1026Y1456D01*
X1026Y1452D01*
X1024Y1452D01*
X1024Y1450D01*
X1022Y1450D01*
X1022Y1448D01*
X1018Y1448D01*
X1018Y1446D01*
X1016Y1446D01*
X1016Y1444D01*
X1014Y1444D01*
X1014Y1424D01*
X1016Y1424D01*
X1016Y1422D01*
X1018Y1422D01*
X1018Y1420D01*
X1020Y1420D01*
X1020Y1418D01*
X1022Y1418D01*
X1022Y1416D01*
X1024Y1416D01*
X1024Y1414D01*
X1026Y1414D01*
X1026Y1412D01*
X1028Y1412D01*
X1028Y1410D01*
X1030Y1410D01*
X1030Y1406D01*
X1032Y1406D01*
X1032Y1404D01*
X1034Y1404D01*
X1034Y1400D01*
X1036Y1400D01*
X1036Y1394D01*
X1038Y1394D01*
X1038Y1374D01*
X1036Y1374D01*
X1036Y1368D01*
X1034Y1368D01*
X1034Y1364D01*
X1032Y1364D01*
X1032Y1360D01*
X1030Y1360D01*
X1030Y1358D01*
X1028Y1358D01*
X1028Y1356D01*
X1026Y1356D01*
X1026Y1352D01*
X1024Y1352D01*
X1024Y1350D01*
X1022Y1350D01*
X1022Y1348D01*
X1018Y1348D01*
X1018Y1346D01*
X1016Y1346D01*
X1016Y1344D01*
X1014Y1344D01*
X1014Y1324D01*
X1016Y1324D01*
X1016Y1322D01*
X1018Y1322D01*
X1018Y1320D01*
X1020Y1320D01*
X1020Y1318D01*
X1022Y1318D01*
X1022Y1316D01*
X1024Y1316D01*
X1024Y1314D01*
X1026Y1314D01*
X1026Y1312D01*
X1028Y1312D01*
X1028Y1310D01*
X1030Y1310D01*
X1030Y1306D01*
X1032Y1306D01*
X1032Y1304D01*
X1034Y1304D01*
X1034Y1300D01*
X1036Y1300D01*
X1036Y1294D01*
X1038Y1294D01*
X1038Y1274D01*
X1036Y1274D01*
X1036Y1268D01*
X1034Y1268D01*
X1034Y1264D01*
X1032Y1264D01*
X1032Y1260D01*
X1030Y1260D01*
X1030Y1258D01*
X1028Y1258D01*
X1028Y1256D01*
X1026Y1256D01*
X1026Y1252D01*
X1024Y1252D01*
X1024Y1250D01*
X1022Y1250D01*
X1022Y1248D01*
X1018Y1248D01*
X1018Y1246D01*
X1016Y1246D01*
X1016Y1244D01*
X1014Y1244D01*
X1014Y1224D01*
X1016Y1224D01*
X1016Y1222D01*
X1018Y1222D01*
X1018Y1220D01*
X1020Y1220D01*
X1020Y1218D01*
X1022Y1218D01*
X1022Y1216D01*
X1024Y1216D01*
X1024Y1214D01*
X1026Y1214D01*
X1026Y1212D01*
X1028Y1212D01*
X1028Y1210D01*
X1030Y1210D01*
X1030Y1206D01*
X1032Y1206D01*
X1032Y1204D01*
X1034Y1204D01*
X1034Y1200D01*
X1036Y1200D01*
X1036Y1194D01*
X1038Y1194D01*
X1038Y1174D01*
X1036Y1174D01*
X1036Y1168D01*
X1034Y1168D01*
X1034Y1164D01*
X1032Y1164D01*
X1032Y1160D01*
X1030Y1160D01*
X1030Y1158D01*
X1028Y1158D01*
X1028Y1156D01*
X1026Y1156D01*
X1026Y1152D01*
X1024Y1152D01*
X1024Y1150D01*
X1022Y1150D01*
X1022Y1148D01*
X1018Y1148D01*
X1018Y1146D01*
X1016Y1146D01*
X1016Y1144D01*
X1014Y1144D01*
X1014Y1124D01*
X1016Y1124D01*
X1016Y1122D01*
X1018Y1122D01*
X1018Y1120D01*
X1020Y1120D01*
X1020Y1118D01*
X1022Y1118D01*
X1022Y1116D01*
X1024Y1116D01*
X1024Y1114D01*
X1026Y1114D01*
X1026Y1112D01*
X1028Y1112D01*
X1028Y1110D01*
X1030Y1110D01*
X1030Y1106D01*
X1032Y1106D01*
X1032Y1104D01*
X1034Y1104D01*
X1034Y1100D01*
X1036Y1100D01*
X1036Y1094D01*
X1038Y1094D01*
X1038Y1074D01*
X1036Y1074D01*
X1036Y1068D01*
X1034Y1068D01*
X1034Y1064D01*
X1032Y1064D01*
X1032Y1060D01*
X1030Y1060D01*
X1030Y1058D01*
X1028Y1058D01*
X1028Y1056D01*
X1026Y1056D01*
X1026Y1052D01*
X1024Y1052D01*
X1024Y1050D01*
X1022Y1050D01*
X1022Y1048D01*
X1018Y1048D01*
X1018Y1046D01*
X1016Y1046D01*
X1016Y1044D01*
X1014Y1044D01*
X1014Y1042D01*
X1010Y1042D01*
X1010Y1040D01*
X1006Y1040D01*
X1006Y1038D01*
X998Y1038D01*
X998Y1036D01*
X1168Y1036D01*
X1168Y1044D01*
X1166Y1044D01*
X1166Y1046D01*
X1162Y1046D01*
X1162Y1048D01*
X1160Y1048D01*
X1160Y1050D01*
X1158Y1050D01*
X1158Y1052D01*
X1156Y1052D01*
X1156Y1054D01*
X1154Y1054D01*
X1154Y1058D01*
X1152Y1058D01*
X1152Y1060D01*
X1150Y1060D01*
X1150Y1064D01*
X1148Y1064D01*
X1148Y1068D01*
X1146Y1068D01*
X1146Y1072D01*
X1144Y1072D01*
X1144Y1094D01*
X1146Y1094D01*
X1146Y1100D01*
X1148Y1100D01*
X1148Y1104D01*
X1150Y1104D01*
X1150Y1108D01*
X1152Y1108D01*
X1152Y1110D01*
X1154Y1110D01*
X1154Y1112D01*
X1156Y1112D01*
X1156Y1114D01*
X1158Y1114D01*
X1158Y1116D01*
X1160Y1116D01*
X1160Y1118D01*
X1162Y1118D01*
X1162Y1120D01*
X1164Y1120D01*
X1164Y1122D01*
X1166Y1122D01*
X1166Y1124D01*
X1168Y1124D01*
X1168Y1144D01*
X1166Y1144D01*
X1166Y1146D01*
X1162Y1146D01*
X1162Y1148D01*
X1160Y1148D01*
X1160Y1150D01*
X1158Y1150D01*
X1158Y1152D01*
X1156Y1152D01*
X1156Y1154D01*
X1154Y1154D01*
X1154Y1158D01*
X1152Y1158D01*
X1152Y1160D01*
X1150Y1160D01*
X1150Y1164D01*
X1148Y1164D01*
X1148Y1168D01*
X1146Y1168D01*
X1146Y1172D01*
X1144Y1172D01*
X1144Y1194D01*
X1146Y1194D01*
X1146Y1200D01*
X1148Y1200D01*
X1148Y1204D01*
X1150Y1204D01*
X1150Y1208D01*
X1152Y1208D01*
X1152Y1210D01*
X1154Y1210D01*
X1154Y1212D01*
X1156Y1212D01*
X1156Y1214D01*
X1158Y1214D01*
X1158Y1216D01*
X1160Y1216D01*
X1160Y1218D01*
X1162Y1218D01*
X1162Y1220D01*
X1164Y1220D01*
X1164Y1222D01*
X1166Y1222D01*
X1166Y1224D01*
X1168Y1224D01*
X1168Y1244D01*
X1166Y1244D01*
X1166Y1246D01*
X1162Y1246D01*
X1162Y1248D01*
X1160Y1248D01*
X1160Y1250D01*
X1158Y1250D01*
X1158Y1252D01*
X1156Y1252D01*
X1156Y1254D01*
X1154Y1254D01*
X1154Y1258D01*
X1152Y1258D01*
X1152Y1260D01*
X1150Y1260D01*
X1150Y1264D01*
X1148Y1264D01*
X1148Y1268D01*
X1146Y1268D01*
X1146Y1272D01*
X1144Y1272D01*
X1144Y1294D01*
X1146Y1294D01*
X1146Y1300D01*
X1148Y1300D01*
X1148Y1304D01*
X1150Y1304D01*
X1150Y1308D01*
X1152Y1308D01*
X1152Y1310D01*
X1154Y1310D01*
X1154Y1312D01*
X1156Y1312D01*
X1156Y1314D01*
X1158Y1314D01*
X1158Y1316D01*
X1160Y1316D01*
X1160Y1318D01*
X1162Y1318D01*
X1162Y1320D01*
X1164Y1320D01*
X1164Y1322D01*
X1166Y1322D01*
X1166Y1324D01*
X1168Y1324D01*
X1168Y1344D01*
X1166Y1344D01*
X1166Y1346D01*
X1162Y1346D01*
X1162Y1348D01*
X1160Y1348D01*
X1160Y1350D01*
X1158Y1350D01*
X1158Y1352D01*
X1156Y1352D01*
X1156Y1354D01*
X1154Y1354D01*
X1154Y1358D01*
X1152Y1358D01*
X1152Y1360D01*
X1150Y1360D01*
X1150Y1364D01*
X1148Y1364D01*
X1148Y1368D01*
X1146Y1368D01*
X1146Y1372D01*
X1144Y1372D01*
X1144Y1394D01*
X1146Y1394D01*
X1146Y1400D01*
X1148Y1400D01*
X1148Y1404D01*
X1150Y1404D01*
X1150Y1408D01*
X1152Y1408D01*
X1152Y1410D01*
X1154Y1410D01*
X1154Y1412D01*
X1156Y1412D01*
X1156Y1414D01*
X1158Y1414D01*
X1158Y1416D01*
X1160Y1416D01*
X1160Y1418D01*
X1162Y1418D01*
X1162Y1420D01*
X1164Y1420D01*
X1164Y1422D01*
X1166Y1422D01*
X1166Y1424D01*
X1168Y1424D01*
X1168Y1444D01*
X1166Y1444D01*
X1166Y1446D01*
X1162Y1446D01*
X1162Y1448D01*
X1160Y1448D01*
X1160Y1450D01*
X1158Y1450D01*
X1158Y1452D01*
X1156Y1452D01*
X1156Y1454D01*
X1154Y1454D01*
X1154Y1458D01*
X1152Y1458D01*
X1152Y1460D01*
X1150Y1460D01*
X1150Y1464D01*
X1148Y1464D01*
X1148Y1468D01*
X1146Y1468D01*
X1146Y1472D01*
X1144Y1472D01*
X1144Y1494D01*
X1146Y1494D01*
X1146Y1500D01*
X1148Y1500D01*
X1148Y1504D01*
X1150Y1504D01*
X1150Y1508D01*
X1152Y1508D01*
X1152Y1510D01*
X1154Y1510D01*
X1154Y1512D01*
X1156Y1512D01*
X1156Y1514D01*
X1158Y1514D01*
X1158Y1516D01*
X1160Y1516D01*
X1160Y1518D01*
X1162Y1518D01*
X1162Y1520D01*
X1164Y1520D01*
X1164Y1522D01*
X1166Y1522D01*
X1166Y1524D01*
X1168Y1524D01*
X1168Y1544D01*
X1166Y1544D01*
X1166Y1546D01*
X1162Y1546D01*
X1162Y1548D01*
X1160Y1548D01*
X1160Y1550D01*
X1158Y1550D01*
X1158Y1552D01*
X1156Y1552D01*
X1156Y1554D01*
X1154Y1554D01*
X1154Y1558D01*
X1152Y1558D01*
X1152Y1560D01*
X1150Y1560D01*
X1150Y1564D01*
X1148Y1564D01*
X1148Y1568D01*
X1146Y1568D01*
X1146Y1572D01*
X1144Y1572D01*
X1144Y1594D01*
X1146Y1594D01*
X1146Y1600D01*
X1148Y1600D01*
X1148Y1604D01*
X1150Y1604D01*
X1150Y1608D01*
X1152Y1608D01*
X1152Y1610D01*
X1154Y1610D01*
X1154Y1612D01*
X1156Y1612D01*
X1156Y1614D01*
X1158Y1614D01*
X1158Y1616D01*
X1160Y1616D01*
X1160Y1618D01*
X1162Y1618D01*
X1162Y1620D01*
X1164Y1620D01*
X1164Y1622D01*
X1166Y1622D01*
X1166Y1624D01*
X1168Y1624D01*
X1168Y1644D01*
X1166Y1644D01*
X1166Y1646D01*
X1162Y1646D01*
X1162Y1648D01*
X1160Y1648D01*
X1160Y1650D01*
X1158Y1650D01*
X1158Y1652D01*
X1156Y1652D01*
X1156Y1654D01*
X1154Y1654D01*
X1154Y1658D01*
X1152Y1658D01*
X1152Y1660D01*
X1150Y1660D01*
X1150Y1664D01*
X1148Y1664D01*
X1148Y1668D01*
X1146Y1668D01*
X1146Y1672D01*
X1144Y1672D01*
X1144Y1694D01*
X1146Y1694D01*
X1146Y1700D01*
X1148Y1700D01*
X1148Y1704D01*
X1150Y1704D01*
X1150Y1708D01*
X1152Y1708D01*
X1152Y1710D01*
X1154Y1710D01*
X1154Y1712D01*
X1156Y1712D01*
X1156Y1714D01*
X1158Y1714D01*
X1158Y1716D01*
X1160Y1716D01*
X1160Y1718D01*
X1162Y1718D01*
X1162Y1720D01*
X1164Y1720D01*
X1164Y1722D01*
X1166Y1722D01*
X1166Y1724D01*
X1168Y1724D01*
X1168Y1744D01*
X1166Y1744D01*
X1166Y1746D01*
X1162Y1746D01*
X1162Y1748D01*
X1160Y1748D01*
X1160Y1750D01*
X1158Y1750D01*
X1158Y1752D01*
X1156Y1752D01*
X1156Y1754D01*
X1154Y1754D01*
X1154Y1758D01*
X1152Y1758D01*
X1152Y1760D01*
X1150Y1760D01*
X1150Y1764D01*
X1148Y1764D01*
X1148Y1768D01*
X1146Y1768D01*
X1146Y1772D01*
X1144Y1772D01*
X1144Y1794D01*
X1146Y1794D01*
X1146Y1800D01*
X1148Y1800D01*
X1148Y1804D01*
X1150Y1804D01*
X1150Y1808D01*
X1152Y1808D01*
X1152Y1810D01*
X1154Y1810D01*
X1154Y1812D01*
X1156Y1812D01*
X1156Y1814D01*
X1158Y1814D01*
X1158Y1816D01*
X1160Y1816D01*
X1160Y1818D01*
X1162Y1818D01*
X1162Y1820D01*
X1164Y1820D01*
X1164Y1822D01*
X1166Y1822D01*
X1166Y1824D01*
X1168Y1824D01*
X1168Y1838D01*
X1146Y1838D01*
G37*
D02*
G36*
X814Y1632D02*
X814Y1406D01*
X850Y1406D01*
X850Y1408D01*
X852Y1408D01*
X852Y1410D01*
X854Y1410D01*
X854Y1412D01*
X856Y1412D01*
X856Y1414D01*
X858Y1414D01*
X858Y1416D01*
X860Y1416D01*
X860Y1418D01*
X862Y1418D01*
X862Y1420D01*
X864Y1420D01*
X864Y1422D01*
X866Y1422D01*
X866Y1424D01*
X868Y1424D01*
X868Y1444D01*
X866Y1444D01*
X866Y1446D01*
X862Y1446D01*
X862Y1448D01*
X860Y1448D01*
X860Y1450D01*
X858Y1450D01*
X858Y1452D01*
X856Y1452D01*
X856Y1454D01*
X854Y1454D01*
X854Y1458D01*
X852Y1458D01*
X852Y1460D01*
X850Y1460D01*
X850Y1464D01*
X848Y1464D01*
X848Y1468D01*
X846Y1468D01*
X846Y1472D01*
X844Y1472D01*
X844Y1494D01*
X846Y1494D01*
X846Y1500D01*
X848Y1500D01*
X848Y1504D01*
X850Y1504D01*
X850Y1508D01*
X852Y1508D01*
X852Y1510D01*
X854Y1510D01*
X854Y1512D01*
X856Y1512D01*
X856Y1514D01*
X858Y1514D01*
X858Y1516D01*
X860Y1516D01*
X860Y1536D01*
X844Y1536D01*
X844Y1632D01*
X814Y1632D01*
G37*
D02*
G36*
X938Y1632D02*
X938Y1614D01*
X958Y1614D01*
X958Y1616D01*
X960Y1616D01*
X960Y1618D01*
X962Y1618D01*
X962Y1620D01*
X964Y1620D01*
X964Y1622D01*
X966Y1622D01*
X966Y1624D01*
X970Y1624D01*
X970Y1626D01*
X974Y1626D01*
X974Y1628D01*
X978Y1628D01*
X978Y1630D01*
X988Y1630D01*
X988Y1632D01*
X938Y1632D01*
G37*
D02*
G36*
X612Y1062D02*
X612Y1036D01*
X884Y1036D01*
X884Y1038D01*
X876Y1038D01*
X876Y1040D01*
X872Y1040D01*
X872Y1042D01*
X868Y1042D01*
X868Y1044D01*
X866Y1044D01*
X866Y1046D01*
X862Y1046D01*
X862Y1048D01*
X860Y1048D01*
X860Y1050D01*
X858Y1050D01*
X858Y1052D01*
X856Y1052D01*
X856Y1054D01*
X854Y1054D01*
X854Y1058D01*
X852Y1058D01*
X852Y1060D01*
X850Y1060D01*
X850Y1062D01*
X612Y1062D01*
G37*
D02*
G36*
X930Y1060D02*
X930Y1058D01*
X928Y1058D01*
X928Y1056D01*
X926Y1056D01*
X926Y1052D01*
X924Y1052D01*
X924Y1050D01*
X922Y1050D01*
X922Y1048D01*
X918Y1048D01*
X918Y1046D01*
X916Y1046D01*
X916Y1044D01*
X914Y1044D01*
X914Y1042D01*
X910Y1042D01*
X910Y1040D01*
X906Y1040D01*
X906Y1038D01*
X898Y1038D01*
X898Y1036D01*
X984Y1036D01*
X984Y1038D01*
X976Y1038D01*
X976Y1040D01*
X972Y1040D01*
X972Y1042D01*
X968Y1042D01*
X968Y1044D01*
X966Y1044D01*
X966Y1046D01*
X962Y1046D01*
X962Y1048D01*
X960Y1048D01*
X960Y1050D01*
X958Y1050D01*
X958Y1052D01*
X956Y1052D01*
X956Y1054D01*
X954Y1054D01*
X954Y1058D01*
X952Y1058D01*
X952Y1060D01*
X930Y1060D01*
G37*
D02*
G36*
X612Y1036D02*
X612Y1034D01*
X1168Y1034D01*
X1168Y1036D01*
X612Y1036D01*
G37*
D02*
G36*
X612Y1036D02*
X612Y1034D01*
X1168Y1034D01*
X1168Y1036D01*
X612Y1036D01*
G37*
D02*
G36*
X612Y1036D02*
X612Y1034D01*
X1168Y1034D01*
X1168Y1036D01*
X612Y1036D01*
G37*
D02*
G36*
X612Y1034D02*
X612Y732D01*
X938Y732D01*
X938Y714D01*
X958Y714D01*
X958Y716D01*
X960Y716D01*
X960Y718D01*
X962Y718D01*
X962Y720D01*
X964Y720D01*
X964Y722D01*
X966Y722D01*
X966Y724D01*
X970Y724D01*
X970Y726D01*
X974Y726D01*
X974Y728D01*
X978Y728D01*
X978Y730D01*
X988Y730D01*
X988Y732D01*
X1010Y732D01*
X1010Y734D01*
X1012Y734D01*
X1012Y736D01*
X1014Y736D01*
X1014Y738D01*
X1016Y738D01*
X1016Y740D01*
X1018Y740D01*
X1018Y742D01*
X1020Y742D01*
X1020Y744D01*
X1022Y744D01*
X1022Y746D01*
X1024Y746D01*
X1024Y748D01*
X1026Y748D01*
X1026Y750D01*
X1028Y750D01*
X1028Y752D01*
X1030Y752D01*
X1030Y754D01*
X1032Y754D01*
X1032Y756D01*
X1034Y756D01*
X1034Y758D01*
X1036Y758D01*
X1036Y760D01*
X1038Y760D01*
X1038Y762D01*
X1040Y762D01*
X1040Y764D01*
X1042Y764D01*
X1042Y766D01*
X1044Y766D01*
X1044Y768D01*
X1046Y768D01*
X1046Y770D01*
X1048Y770D01*
X1048Y772D01*
X1050Y772D01*
X1050Y774D01*
X1052Y774D01*
X1052Y776D01*
X1054Y776D01*
X1054Y778D01*
X1056Y778D01*
X1056Y780D01*
X1058Y780D01*
X1058Y782D01*
X1060Y782D01*
X1060Y784D01*
X1062Y784D01*
X1062Y786D01*
X1064Y786D01*
X1064Y788D01*
X1066Y788D01*
X1066Y790D01*
X1068Y790D01*
X1068Y792D01*
X1070Y792D01*
X1070Y794D01*
X1072Y794D01*
X1072Y796D01*
X1074Y796D01*
X1074Y798D01*
X1076Y798D01*
X1076Y800D01*
X1078Y800D01*
X1078Y802D01*
X1080Y802D01*
X1080Y804D01*
X1082Y804D01*
X1082Y806D01*
X1084Y806D01*
X1084Y808D01*
X1086Y808D01*
X1086Y810D01*
X1088Y810D01*
X1088Y812D01*
X1090Y812D01*
X1090Y814D01*
X1092Y814D01*
X1092Y816D01*
X1094Y816D01*
X1094Y818D01*
X1096Y818D01*
X1096Y820D01*
X1098Y820D01*
X1098Y822D01*
X1100Y822D01*
X1100Y824D01*
X1102Y824D01*
X1102Y826D01*
X1104Y826D01*
X1104Y828D01*
X1106Y828D01*
X1106Y830D01*
X1108Y830D01*
X1108Y832D01*
X1110Y832D01*
X1110Y834D01*
X1112Y834D01*
X1112Y836D01*
X1114Y836D01*
X1114Y838D01*
X1116Y838D01*
X1116Y840D01*
X1118Y840D01*
X1118Y842D01*
X1120Y842D01*
X1120Y844D01*
X1122Y844D01*
X1122Y846D01*
X1124Y846D01*
X1124Y848D01*
X1126Y848D01*
X1126Y850D01*
X1128Y850D01*
X1128Y852D01*
X1130Y852D01*
X1130Y854D01*
X1132Y854D01*
X1132Y856D01*
X1134Y856D01*
X1134Y858D01*
X1136Y858D01*
X1136Y860D01*
X1138Y860D01*
X1138Y862D01*
X1140Y862D01*
X1140Y864D01*
X1142Y864D01*
X1142Y866D01*
X1144Y866D01*
X1144Y894D01*
X1146Y894D01*
X1146Y900D01*
X1148Y900D01*
X1148Y904D01*
X1150Y904D01*
X1150Y908D01*
X1152Y908D01*
X1152Y910D01*
X1154Y910D01*
X1154Y912D01*
X1156Y912D01*
X1156Y914D01*
X1158Y914D01*
X1158Y916D01*
X1160Y916D01*
X1160Y918D01*
X1162Y918D01*
X1162Y920D01*
X1164Y920D01*
X1164Y922D01*
X1166Y922D01*
X1166Y924D01*
X1168Y924D01*
X1168Y944D01*
X1166Y944D01*
X1166Y946D01*
X1162Y946D01*
X1162Y948D01*
X1160Y948D01*
X1160Y950D01*
X1158Y950D01*
X1158Y952D01*
X1156Y952D01*
X1156Y954D01*
X1154Y954D01*
X1154Y958D01*
X1152Y958D01*
X1152Y960D01*
X1150Y960D01*
X1150Y964D01*
X1148Y964D01*
X1148Y968D01*
X1146Y968D01*
X1146Y972D01*
X1144Y972D01*
X1144Y994D01*
X1146Y994D01*
X1146Y1000D01*
X1148Y1000D01*
X1148Y1004D01*
X1150Y1004D01*
X1150Y1008D01*
X1152Y1008D01*
X1152Y1010D01*
X1154Y1010D01*
X1154Y1012D01*
X1156Y1012D01*
X1156Y1014D01*
X1158Y1014D01*
X1158Y1016D01*
X1160Y1016D01*
X1160Y1018D01*
X1162Y1018D01*
X1162Y1020D01*
X1164Y1020D01*
X1164Y1022D01*
X1166Y1022D01*
X1166Y1024D01*
X1168Y1024D01*
X1168Y1034D01*
X612Y1034D01*
G37*
D02*
G36*
X612Y732D02*
X612Y262D01*
X886Y262D01*
X886Y264D01*
X880Y264D01*
X880Y266D01*
X876Y266D01*
X876Y268D01*
X874Y268D01*
X874Y270D01*
X872Y270D01*
X872Y274D01*
X870Y274D01*
X870Y278D01*
X868Y278D01*
X868Y344D01*
X866Y344D01*
X866Y346D01*
X862Y346D01*
X862Y348D01*
X860Y348D01*
X860Y350D01*
X858Y350D01*
X858Y352D01*
X856Y352D01*
X856Y354D01*
X854Y354D01*
X854Y358D01*
X852Y358D01*
X852Y360D01*
X850Y360D01*
X850Y364D01*
X848Y364D01*
X848Y368D01*
X846Y368D01*
X846Y372D01*
X844Y372D01*
X844Y394D01*
X846Y394D01*
X846Y400D01*
X848Y400D01*
X848Y404D01*
X850Y404D01*
X850Y408D01*
X852Y408D01*
X852Y410D01*
X854Y410D01*
X854Y412D01*
X856Y412D01*
X856Y414D01*
X858Y414D01*
X858Y416D01*
X860Y416D01*
X860Y418D01*
X862Y418D01*
X862Y420D01*
X864Y420D01*
X864Y422D01*
X866Y422D01*
X866Y424D01*
X868Y424D01*
X868Y444D01*
X866Y444D01*
X866Y446D01*
X862Y446D01*
X862Y448D01*
X860Y448D01*
X860Y450D01*
X858Y450D01*
X858Y452D01*
X856Y452D01*
X856Y454D01*
X854Y454D01*
X854Y458D01*
X852Y458D01*
X852Y460D01*
X850Y460D01*
X850Y464D01*
X848Y464D01*
X848Y468D01*
X846Y468D01*
X846Y472D01*
X844Y472D01*
X844Y494D01*
X846Y494D01*
X846Y500D01*
X848Y500D01*
X848Y504D01*
X850Y504D01*
X850Y508D01*
X852Y508D01*
X852Y510D01*
X854Y510D01*
X854Y512D01*
X856Y512D01*
X856Y514D01*
X858Y514D01*
X858Y516D01*
X860Y516D01*
X860Y518D01*
X862Y518D01*
X862Y520D01*
X864Y520D01*
X864Y522D01*
X866Y522D01*
X866Y524D01*
X868Y524D01*
X868Y544D01*
X866Y544D01*
X866Y546D01*
X862Y546D01*
X862Y548D01*
X860Y548D01*
X860Y550D01*
X858Y550D01*
X858Y552D01*
X856Y552D01*
X856Y554D01*
X854Y554D01*
X854Y558D01*
X852Y558D01*
X852Y560D01*
X850Y560D01*
X850Y564D01*
X848Y564D01*
X848Y568D01*
X846Y568D01*
X846Y572D01*
X844Y572D01*
X844Y594D01*
X846Y594D01*
X846Y600D01*
X848Y600D01*
X848Y604D01*
X850Y604D01*
X850Y608D01*
X852Y608D01*
X852Y610D01*
X854Y610D01*
X854Y612D01*
X856Y612D01*
X856Y614D01*
X858Y614D01*
X858Y616D01*
X860Y616D01*
X860Y636D01*
X844Y636D01*
X844Y732D01*
X612Y732D01*
G37*
D02*
G36*
X1332Y362D02*
X1332Y360D01*
X1330Y360D01*
X1330Y358D01*
X1328Y358D01*
X1328Y356D01*
X1326Y356D01*
X1326Y352D01*
X1324Y352D01*
X1324Y350D01*
X1322Y350D01*
X1322Y348D01*
X1318Y348D01*
X1318Y346D01*
X1316Y346D01*
X1316Y344D01*
X1314Y344D01*
X1314Y324D01*
X1316Y324D01*
X1316Y322D01*
X1318Y322D01*
X1318Y320D01*
X1320Y320D01*
X1320Y318D01*
X1322Y318D01*
X1322Y316D01*
X1324Y316D01*
X1324Y314D01*
X1326Y314D01*
X1326Y312D01*
X1328Y312D01*
X1328Y310D01*
X1330Y310D01*
X1330Y306D01*
X1332Y306D01*
X1332Y304D01*
X1334Y304D01*
X1334Y300D01*
X1336Y300D01*
X1336Y294D01*
X1338Y294D01*
X1338Y274D01*
X1336Y274D01*
X1336Y268D01*
X1334Y268D01*
X1334Y264D01*
X1332Y264D01*
X1332Y260D01*
X1330Y260D01*
X1330Y258D01*
X1328Y258D01*
X1328Y256D01*
X1326Y256D01*
X1326Y252D01*
X1324Y252D01*
X1324Y250D01*
X1322Y250D01*
X1322Y248D01*
X1318Y248D01*
X1318Y246D01*
X1316Y246D01*
X1316Y244D01*
X1314Y244D01*
X1314Y242D01*
X1310Y242D01*
X1310Y240D01*
X1306Y240D01*
X1306Y238D01*
X1298Y238D01*
X1298Y236D01*
X1370Y236D01*
X1370Y362D01*
X1332Y362D01*
G37*
D02*
G36*
X1124Y286D02*
X1124Y284D01*
X1122Y284D01*
X1122Y282D01*
X1120Y282D01*
X1120Y280D01*
X1118Y280D01*
X1118Y278D01*
X1116Y278D01*
X1116Y276D01*
X1112Y276D01*
X1112Y274D01*
X1110Y274D01*
X1110Y272D01*
X1108Y272D01*
X1108Y270D01*
X1106Y270D01*
X1106Y268D01*
X1104Y268D01*
X1104Y266D01*
X1102Y266D01*
X1102Y264D01*
X1096Y264D01*
X1096Y262D01*
X1150Y262D01*
X1150Y264D01*
X1148Y264D01*
X1148Y268D01*
X1146Y268D01*
X1146Y272D01*
X1144Y272D01*
X1144Y286D01*
X1124Y286D01*
G37*
D02*
G36*
X612Y262D02*
X612Y260D01*
X1150Y260D01*
X1150Y262D01*
X612Y262D01*
G37*
D02*
G36*
X612Y262D02*
X612Y260D01*
X1150Y260D01*
X1150Y262D01*
X612Y262D01*
G37*
D02*
G36*
X612Y260D02*
X612Y236D01*
X1184Y236D01*
X1184Y238D01*
X1176Y238D01*
X1176Y240D01*
X1172Y240D01*
X1172Y242D01*
X1168Y242D01*
X1168Y244D01*
X1166Y244D01*
X1166Y246D01*
X1162Y246D01*
X1162Y248D01*
X1160Y248D01*
X1160Y250D01*
X1158Y250D01*
X1158Y252D01*
X1156Y252D01*
X1156Y254D01*
X1154Y254D01*
X1154Y258D01*
X1152Y258D01*
X1152Y260D01*
X612Y260D01*
G37*
D02*
G36*
X1230Y260D02*
X1230Y258D01*
X1228Y258D01*
X1228Y256D01*
X1226Y256D01*
X1226Y252D01*
X1224Y252D01*
X1224Y250D01*
X1222Y250D01*
X1222Y248D01*
X1218Y248D01*
X1218Y246D01*
X1216Y246D01*
X1216Y244D01*
X1214Y244D01*
X1214Y242D01*
X1210Y242D01*
X1210Y240D01*
X1206Y240D01*
X1206Y238D01*
X1198Y238D01*
X1198Y236D01*
X1284Y236D01*
X1284Y238D01*
X1276Y238D01*
X1276Y240D01*
X1272Y240D01*
X1272Y242D01*
X1268Y242D01*
X1268Y244D01*
X1266Y244D01*
X1266Y246D01*
X1262Y246D01*
X1262Y248D01*
X1260Y248D01*
X1260Y250D01*
X1258Y250D01*
X1258Y252D01*
X1256Y252D01*
X1256Y254D01*
X1254Y254D01*
X1254Y258D01*
X1252Y258D01*
X1252Y260D01*
X1230Y260D01*
G37*
D02*
G36*
X612Y236D02*
X612Y234D01*
X1370Y234D01*
X1370Y236D01*
X612Y236D01*
G37*
D02*
G36*
X612Y236D02*
X612Y234D01*
X1370Y234D01*
X1370Y236D01*
X612Y236D01*
G37*
D02*
G36*
X612Y236D02*
X612Y234D01*
X1370Y234D01*
X1370Y236D01*
X612Y236D01*
G37*
D02*
G36*
X612Y234D02*
X612Y206D01*
X1370Y206D01*
X1370Y234D01*
X612Y234D01*
G37*
D02*
G36*
X1230Y1060D02*
X1230Y1058D01*
X1228Y1058D01*
X1228Y1056D01*
X1226Y1056D01*
X1226Y1052D01*
X1224Y1052D01*
X1224Y1050D01*
X1222Y1050D01*
X1222Y1048D01*
X1218Y1048D01*
X1218Y1046D01*
X1216Y1046D01*
X1216Y1044D01*
X1214Y1044D01*
X1214Y1024D01*
X1216Y1024D01*
X1216Y1022D01*
X1218Y1022D01*
X1218Y1020D01*
X1220Y1020D01*
X1220Y1018D01*
X1222Y1018D01*
X1222Y1016D01*
X1224Y1016D01*
X1224Y1014D01*
X1226Y1014D01*
X1226Y1012D01*
X1228Y1012D01*
X1228Y1010D01*
X1230Y1010D01*
X1230Y1006D01*
X1250Y1006D01*
X1250Y1008D01*
X1252Y1008D01*
X1252Y1010D01*
X1254Y1010D01*
X1254Y1012D01*
X1256Y1012D01*
X1256Y1014D01*
X1258Y1014D01*
X1258Y1016D01*
X1260Y1016D01*
X1260Y1018D01*
X1262Y1018D01*
X1262Y1020D01*
X1264Y1020D01*
X1264Y1022D01*
X1266Y1022D01*
X1266Y1024D01*
X1268Y1024D01*
X1268Y1044D01*
X1266Y1044D01*
X1266Y1046D01*
X1262Y1046D01*
X1262Y1048D01*
X1260Y1048D01*
X1260Y1050D01*
X1258Y1050D01*
X1258Y1052D01*
X1256Y1052D01*
X1256Y1054D01*
X1254Y1054D01*
X1254Y1058D01*
X1252Y1058D01*
X1252Y1060D01*
X1230Y1060D01*
G37*
D02*
G36*
X1230Y960D02*
X1230Y958D01*
X1228Y958D01*
X1228Y956D01*
X1226Y956D01*
X1226Y952D01*
X1224Y952D01*
X1224Y950D01*
X1222Y950D01*
X1222Y948D01*
X1218Y948D01*
X1218Y946D01*
X1216Y946D01*
X1216Y944D01*
X1214Y944D01*
X1214Y924D01*
X1216Y924D01*
X1216Y922D01*
X1218Y922D01*
X1218Y920D01*
X1220Y920D01*
X1220Y918D01*
X1222Y918D01*
X1222Y916D01*
X1224Y916D01*
X1224Y914D01*
X1226Y914D01*
X1226Y912D01*
X1228Y912D01*
X1228Y910D01*
X1230Y910D01*
X1230Y906D01*
X1250Y906D01*
X1250Y908D01*
X1252Y908D01*
X1252Y910D01*
X1254Y910D01*
X1254Y912D01*
X1256Y912D01*
X1256Y914D01*
X1258Y914D01*
X1258Y916D01*
X1260Y916D01*
X1260Y918D01*
X1262Y918D01*
X1262Y920D01*
X1264Y920D01*
X1264Y922D01*
X1266Y922D01*
X1266Y924D01*
X1268Y924D01*
X1268Y944D01*
X1266Y944D01*
X1266Y946D01*
X1262Y946D01*
X1262Y948D01*
X1260Y948D01*
X1260Y950D01*
X1258Y950D01*
X1258Y952D01*
X1256Y952D01*
X1256Y954D01*
X1254Y954D01*
X1254Y958D01*
X1252Y958D01*
X1252Y960D01*
X1230Y960D01*
G37*
D02*
G36*
X1230Y860D02*
X1230Y858D01*
X1228Y858D01*
X1228Y856D01*
X1226Y856D01*
X1226Y852D01*
X1224Y852D01*
X1224Y850D01*
X1222Y850D01*
X1222Y848D01*
X1218Y848D01*
X1218Y846D01*
X1216Y846D01*
X1216Y844D01*
X1214Y844D01*
X1214Y824D01*
X1216Y824D01*
X1216Y822D01*
X1218Y822D01*
X1218Y820D01*
X1220Y820D01*
X1220Y818D01*
X1222Y818D01*
X1222Y816D01*
X1224Y816D01*
X1224Y814D01*
X1226Y814D01*
X1226Y812D01*
X1228Y812D01*
X1228Y810D01*
X1230Y810D01*
X1230Y806D01*
X1250Y806D01*
X1250Y808D01*
X1252Y808D01*
X1252Y810D01*
X1254Y810D01*
X1254Y812D01*
X1256Y812D01*
X1256Y814D01*
X1258Y814D01*
X1258Y816D01*
X1260Y816D01*
X1260Y818D01*
X1262Y818D01*
X1262Y820D01*
X1264Y820D01*
X1264Y822D01*
X1266Y822D01*
X1266Y824D01*
X1268Y824D01*
X1268Y844D01*
X1266Y844D01*
X1266Y846D01*
X1262Y846D01*
X1262Y848D01*
X1260Y848D01*
X1260Y850D01*
X1258Y850D01*
X1258Y852D01*
X1256Y852D01*
X1256Y854D01*
X1254Y854D01*
X1254Y858D01*
X1252Y858D01*
X1252Y860D01*
X1230Y860D01*
G37*
D02*
G36*
X40Y2100D02*
X40Y1232D01*
X102Y1232D01*
X102Y1230D01*
X108Y1230D01*
X108Y1228D01*
X112Y1228D01*
X112Y1226D01*
X114Y1226D01*
X114Y1224D01*
X118Y1224D01*
X118Y1222D01*
X120Y1222D01*
X120Y1220D01*
X122Y1220D01*
X122Y1218D01*
X124Y1218D01*
X124Y1216D01*
X126Y1216D01*
X126Y1214D01*
X128Y1214D01*
X128Y1212D01*
X130Y1212D01*
X130Y1210D01*
X132Y1210D01*
X132Y1206D01*
X134Y1206D01*
X134Y1202D01*
X136Y1202D01*
X136Y1198D01*
X138Y1198D01*
X138Y1192D01*
X140Y1192D01*
X140Y1176D01*
X138Y1176D01*
X138Y1170D01*
X136Y1170D01*
X136Y1164D01*
X134Y1164D01*
X134Y1160D01*
X132Y1160D01*
X132Y1158D01*
X130Y1158D01*
X130Y1156D01*
X128Y1156D01*
X128Y1152D01*
X126Y1152D01*
X126Y1150D01*
X124Y1150D01*
X124Y1148D01*
X122Y1148D01*
X122Y1146D01*
X118Y1146D01*
X118Y1144D01*
X116Y1144D01*
X116Y1142D01*
X112Y1142D01*
X112Y1140D01*
X108Y1140D01*
X108Y1138D01*
X104Y1138D01*
X104Y1136D01*
X96Y1136D01*
X96Y1134D01*
X268Y1134D01*
X268Y1362D01*
X182Y1362D01*
X182Y1364D01*
X180Y1364D01*
X180Y1366D01*
X176Y1366D01*
X176Y1368D01*
X174Y1368D01*
X174Y1372D01*
X172Y1372D01*
X172Y1376D01*
X170Y1376D01*
X170Y1792D01*
X172Y1792D01*
X172Y1796D01*
X174Y1796D01*
X174Y1798D01*
X176Y1798D01*
X176Y1800D01*
X178Y1800D01*
X178Y1802D01*
X180Y1802D01*
X180Y1804D01*
X184Y1804D01*
X184Y1806D01*
X242Y1806D01*
X242Y1832D01*
X284Y1832D01*
X284Y1836D01*
X286Y1836D01*
X286Y1842D01*
X288Y1842D01*
X288Y1848D01*
X290Y1848D01*
X290Y1854D01*
X292Y1854D01*
X292Y1860D01*
X294Y1860D01*
X294Y1866D01*
X296Y1866D01*
X296Y1872D01*
X298Y1872D01*
X298Y1878D01*
X300Y1878D01*
X300Y1884D01*
X302Y1884D01*
X302Y1890D01*
X304Y1890D01*
X304Y1896D01*
X306Y1896D01*
X306Y1902D01*
X308Y1902D01*
X308Y1908D01*
X310Y1908D01*
X310Y1914D01*
X312Y1914D01*
X312Y1920D01*
X314Y1920D01*
X314Y1926D01*
X316Y1926D01*
X316Y1932D01*
X318Y1932D01*
X318Y1938D01*
X320Y1938D01*
X320Y1944D01*
X322Y1944D01*
X322Y1950D01*
X324Y1950D01*
X324Y1956D01*
X326Y1956D01*
X326Y1964D01*
X328Y1964D01*
X328Y1970D01*
X330Y1970D01*
X330Y1976D01*
X332Y1976D01*
X332Y1982D01*
X334Y1982D01*
X334Y1988D01*
X336Y1988D01*
X336Y1994D01*
X338Y1994D01*
X338Y2000D01*
X340Y2000D01*
X340Y2006D01*
X342Y2006D01*
X342Y2012D01*
X344Y2012D01*
X344Y2018D01*
X346Y2018D01*
X346Y2024D01*
X348Y2024D01*
X348Y2030D01*
X350Y2030D01*
X350Y2036D01*
X352Y2036D01*
X352Y2042D01*
X354Y2042D01*
X354Y2048D01*
X356Y2048D01*
X356Y2054D01*
X358Y2054D01*
X358Y2060D01*
X360Y2060D01*
X360Y2066D01*
X362Y2066D01*
X362Y2072D01*
X364Y2072D01*
X364Y2078D01*
X366Y2078D01*
X366Y2100D01*
X40Y2100D01*
G37*
D02*
G36*
X40Y1232D02*
X40Y1218D01*
X60Y1218D01*
X60Y1220D01*
X62Y1220D01*
X62Y1222D01*
X64Y1222D01*
X64Y1224D01*
X66Y1224D01*
X66Y1226D01*
X70Y1226D01*
X70Y1228D01*
X74Y1228D01*
X74Y1230D01*
X80Y1230D01*
X80Y1232D01*
X40Y1232D01*
G37*
D02*
G36*
X40Y1148D02*
X40Y1134D01*
X86Y1134D01*
X86Y1136D01*
X78Y1136D01*
X78Y1138D01*
X72Y1138D01*
X72Y1140D01*
X68Y1140D01*
X68Y1142D01*
X66Y1142D01*
X66Y1144D01*
X64Y1144D01*
X64Y1146D01*
X60Y1146D01*
X60Y1148D01*
X40Y1148D01*
G37*
D02*
G36*
X40Y1134D02*
X40Y1132D01*
X268Y1132D01*
X268Y1134D01*
X40Y1134D01*
G37*
D02*
G36*
X40Y1134D02*
X40Y1132D01*
X268Y1132D01*
X268Y1134D01*
X40Y1134D01*
G37*
D02*
G36*
X40Y1132D02*
X40Y1032D01*
X140Y1032D01*
X140Y934D01*
X126Y934D01*
X126Y914D01*
X128Y914D01*
X128Y912D01*
X130Y912D01*
X130Y910D01*
X132Y910D01*
X132Y906D01*
X134Y906D01*
X134Y902D01*
X136Y902D01*
X136Y898D01*
X138Y898D01*
X138Y892D01*
X140Y892D01*
X140Y876D01*
X138Y876D01*
X138Y870D01*
X136Y870D01*
X136Y864D01*
X134Y864D01*
X134Y860D01*
X132Y860D01*
X132Y858D01*
X130Y858D01*
X130Y856D01*
X128Y856D01*
X128Y852D01*
X126Y852D01*
X126Y850D01*
X124Y850D01*
X124Y848D01*
X122Y848D01*
X122Y846D01*
X118Y846D01*
X118Y844D01*
X116Y844D01*
X116Y842D01*
X112Y842D01*
X112Y840D01*
X108Y840D01*
X108Y838D01*
X104Y838D01*
X104Y836D01*
X96Y836D01*
X96Y834D01*
X268Y834D01*
X268Y1132D01*
X40Y1132D01*
G37*
D02*
G36*
X40Y848D02*
X40Y834D01*
X86Y834D01*
X86Y836D01*
X78Y836D01*
X78Y838D01*
X72Y838D01*
X72Y840D01*
X68Y840D01*
X68Y842D01*
X66Y842D01*
X66Y844D01*
X64Y844D01*
X64Y846D01*
X60Y846D01*
X60Y848D01*
X40Y848D01*
G37*
D02*
G36*
X40Y834D02*
X40Y832D01*
X268Y832D01*
X268Y834D01*
X40Y834D01*
G37*
D02*
G36*
X40Y834D02*
X40Y832D01*
X268Y832D01*
X268Y834D01*
X40Y834D01*
G37*
D02*
G36*
X40Y832D02*
X40Y732D01*
X94Y732D01*
X94Y730D01*
X104Y730D01*
X104Y728D01*
X108Y728D01*
X108Y726D01*
X112Y726D01*
X112Y724D01*
X116Y724D01*
X116Y722D01*
X118Y722D01*
X118Y720D01*
X120Y720D01*
X120Y718D01*
X122Y718D01*
X122Y716D01*
X124Y716D01*
X124Y714D01*
X126Y714D01*
X126Y712D01*
X128Y712D01*
X128Y710D01*
X130Y710D01*
X130Y706D01*
X198Y706D01*
X198Y704D01*
X202Y704D01*
X202Y702D01*
X206Y702D01*
X206Y700D01*
X208Y700D01*
X208Y696D01*
X210Y696D01*
X210Y694D01*
X212Y694D01*
X212Y234D01*
X242Y234D01*
X242Y332D01*
X268Y332D01*
X268Y434D01*
X242Y434D01*
X242Y532D01*
X268Y532D01*
X268Y832D01*
X40Y832D01*
G37*
D02*
G36*
X40Y732D02*
X40Y716D01*
X60Y716D01*
X60Y718D01*
X62Y718D01*
X62Y720D01*
X64Y720D01*
X64Y722D01*
X66Y722D01*
X66Y724D01*
X70Y724D01*
X70Y726D01*
X74Y726D01*
X74Y728D01*
X78Y728D01*
X78Y730D01*
X88Y730D01*
X88Y732D01*
X40Y732D01*
G37*
D02*
G36*
X340Y248D02*
X340Y234D01*
X386Y234D01*
X386Y236D01*
X378Y236D01*
X378Y238D01*
X372Y238D01*
X372Y240D01*
X368Y240D01*
X368Y242D01*
X366Y242D01*
X366Y244D01*
X364Y244D01*
X364Y246D01*
X360Y246D01*
X360Y248D01*
X340Y248D01*
G37*
D02*
G36*
X212Y234D02*
X212Y232D01*
X410Y232D01*
X410Y234D01*
X212Y234D01*
G37*
D02*
G36*
X212Y234D02*
X212Y232D01*
X410Y232D01*
X410Y234D01*
X212Y234D01*
G37*
D02*
G36*
X212Y232D02*
X212Y132D01*
X440Y132D01*
X440Y118D01*
X460Y118D01*
X460Y120D01*
X462Y120D01*
X462Y122D01*
X464Y122D01*
X464Y124D01*
X466Y124D01*
X466Y126D01*
X470Y126D01*
X470Y128D01*
X474Y128D01*
X474Y130D01*
X480Y130D01*
X480Y132D01*
X492Y132D01*
X492Y152D01*
X490Y152D01*
X490Y154D01*
X488Y154D01*
X488Y156D01*
X486Y156D01*
X486Y158D01*
X484Y158D01*
X484Y160D01*
X482Y160D01*
X482Y162D01*
X480Y162D01*
X480Y164D01*
X478Y164D01*
X478Y166D01*
X476Y166D01*
X476Y168D01*
X474Y168D01*
X474Y170D01*
X472Y170D01*
X472Y172D01*
X470Y172D01*
X470Y174D01*
X468Y174D01*
X468Y176D01*
X466Y176D01*
X466Y178D01*
X464Y178D01*
X464Y180D01*
X462Y180D01*
X462Y182D01*
X460Y182D01*
X460Y184D01*
X458Y184D01*
X458Y186D01*
X456Y186D01*
X456Y188D01*
X454Y188D01*
X454Y190D01*
X452Y190D01*
X452Y192D01*
X450Y192D01*
X450Y194D01*
X448Y194D01*
X448Y196D01*
X446Y196D01*
X446Y198D01*
X444Y198D01*
X444Y200D01*
X442Y200D01*
X442Y202D01*
X440Y202D01*
X440Y204D01*
X438Y204D01*
X438Y206D01*
X436Y206D01*
X436Y208D01*
X434Y208D01*
X434Y210D01*
X432Y210D01*
X432Y212D01*
X430Y212D01*
X430Y214D01*
X428Y214D01*
X428Y216D01*
X426Y216D01*
X426Y218D01*
X424Y218D01*
X424Y220D01*
X422Y220D01*
X422Y222D01*
X420Y222D01*
X420Y224D01*
X418Y224D01*
X418Y226D01*
X416Y226D01*
X416Y228D01*
X414Y228D01*
X414Y230D01*
X412Y230D01*
X412Y232D01*
X212Y232D01*
G37*
D02*
G36*
X212Y132D02*
X212Y106D01*
X342Y106D01*
X342Y132D01*
X212Y132D01*
G37*
D02*
G36*
X1124Y786D02*
X1124Y784D01*
X1122Y784D01*
X1122Y782D01*
X1120Y782D01*
X1120Y780D01*
X1118Y780D01*
X1118Y778D01*
X1116Y778D01*
X1116Y776D01*
X1114Y776D01*
X1114Y774D01*
X1112Y774D01*
X1112Y772D01*
X1110Y772D01*
X1110Y770D01*
X1108Y770D01*
X1108Y768D01*
X1106Y768D01*
X1106Y766D01*
X1104Y766D01*
X1104Y764D01*
X1102Y764D01*
X1102Y762D01*
X1100Y762D01*
X1100Y760D01*
X1098Y760D01*
X1098Y758D01*
X1096Y758D01*
X1096Y756D01*
X1094Y756D01*
X1094Y754D01*
X1092Y754D01*
X1092Y752D01*
X1090Y752D01*
X1090Y750D01*
X1088Y750D01*
X1088Y748D01*
X1086Y748D01*
X1086Y746D01*
X1084Y746D01*
X1084Y744D01*
X1082Y744D01*
X1082Y742D01*
X1080Y742D01*
X1080Y740D01*
X1078Y740D01*
X1078Y738D01*
X1076Y738D01*
X1076Y736D01*
X1074Y736D01*
X1074Y734D01*
X1072Y734D01*
X1072Y732D01*
X1070Y732D01*
X1070Y730D01*
X1068Y730D01*
X1068Y728D01*
X1066Y728D01*
X1066Y726D01*
X1064Y726D01*
X1064Y724D01*
X1062Y724D01*
X1062Y722D01*
X1060Y722D01*
X1060Y720D01*
X1058Y720D01*
X1058Y718D01*
X1056Y718D01*
X1056Y716D01*
X1054Y716D01*
X1054Y714D01*
X1052Y714D01*
X1052Y712D01*
X1050Y712D01*
X1050Y710D01*
X1048Y710D01*
X1048Y708D01*
X1046Y708D01*
X1046Y706D01*
X1044Y706D01*
X1044Y704D01*
X1042Y704D01*
X1042Y702D01*
X1040Y702D01*
X1040Y700D01*
X1038Y700D01*
X1038Y680D01*
X1058Y680D01*
X1058Y682D01*
X1060Y682D01*
X1060Y684D01*
X1062Y684D01*
X1062Y686D01*
X1064Y686D01*
X1064Y688D01*
X1066Y688D01*
X1066Y690D01*
X1068Y690D01*
X1068Y692D01*
X1070Y692D01*
X1070Y694D01*
X1072Y694D01*
X1072Y696D01*
X1074Y696D01*
X1074Y698D01*
X1076Y698D01*
X1076Y700D01*
X1078Y700D01*
X1078Y702D01*
X1080Y702D01*
X1080Y704D01*
X1082Y704D01*
X1082Y706D01*
X1084Y706D01*
X1084Y708D01*
X1086Y708D01*
X1086Y710D01*
X1088Y710D01*
X1088Y712D01*
X1090Y712D01*
X1090Y714D01*
X1092Y714D01*
X1092Y716D01*
X1094Y716D01*
X1094Y718D01*
X1096Y718D01*
X1096Y720D01*
X1098Y720D01*
X1098Y722D01*
X1100Y722D01*
X1100Y724D01*
X1102Y724D01*
X1102Y726D01*
X1104Y726D01*
X1104Y728D01*
X1106Y728D01*
X1106Y730D01*
X1108Y730D01*
X1108Y732D01*
X1110Y732D01*
X1110Y734D01*
X1112Y734D01*
X1112Y736D01*
X1114Y736D01*
X1114Y738D01*
X1116Y738D01*
X1116Y740D01*
X1118Y740D01*
X1118Y742D01*
X1120Y742D01*
X1120Y744D01*
X1122Y744D01*
X1122Y746D01*
X1124Y746D01*
X1124Y748D01*
X1126Y748D01*
X1126Y750D01*
X1128Y750D01*
X1128Y752D01*
X1130Y752D01*
X1130Y754D01*
X1132Y754D01*
X1132Y756D01*
X1134Y756D01*
X1134Y758D01*
X1136Y758D01*
X1136Y760D01*
X1138Y760D01*
X1138Y762D01*
X1140Y762D01*
X1140Y764D01*
X1142Y764D01*
X1142Y766D01*
X1144Y766D01*
X1144Y786D01*
X1124Y786D01*
G37*
D02*
G36*
X1230Y760D02*
X1230Y758D01*
X1228Y758D01*
X1228Y756D01*
X1226Y756D01*
X1226Y752D01*
X1224Y752D01*
X1224Y750D01*
X1222Y750D01*
X1222Y748D01*
X1218Y748D01*
X1218Y746D01*
X1216Y746D01*
X1216Y744D01*
X1214Y744D01*
X1214Y724D01*
X1216Y724D01*
X1216Y722D01*
X1218Y722D01*
X1218Y720D01*
X1220Y720D01*
X1220Y718D01*
X1222Y718D01*
X1222Y716D01*
X1224Y716D01*
X1224Y714D01*
X1226Y714D01*
X1226Y712D01*
X1228Y712D01*
X1228Y710D01*
X1230Y710D01*
X1230Y706D01*
X1250Y706D01*
X1250Y708D01*
X1252Y708D01*
X1252Y710D01*
X1254Y710D01*
X1254Y712D01*
X1256Y712D01*
X1256Y714D01*
X1258Y714D01*
X1258Y716D01*
X1260Y716D01*
X1260Y718D01*
X1262Y718D01*
X1262Y720D01*
X1264Y720D01*
X1264Y722D01*
X1266Y722D01*
X1266Y724D01*
X1268Y724D01*
X1268Y744D01*
X1266Y744D01*
X1266Y746D01*
X1262Y746D01*
X1262Y748D01*
X1260Y748D01*
X1260Y750D01*
X1258Y750D01*
X1258Y752D01*
X1256Y752D01*
X1256Y754D01*
X1254Y754D01*
X1254Y758D01*
X1252Y758D01*
X1252Y760D01*
X1230Y760D01*
G37*
D02*
G36*
X1124Y686D02*
X1124Y684D01*
X1122Y684D01*
X1122Y682D01*
X1120Y682D01*
X1120Y680D01*
X1118Y680D01*
X1118Y678D01*
X1116Y678D01*
X1116Y676D01*
X1114Y676D01*
X1114Y674D01*
X1112Y674D01*
X1112Y672D01*
X1110Y672D01*
X1110Y670D01*
X1108Y670D01*
X1108Y668D01*
X1106Y668D01*
X1106Y666D01*
X1104Y666D01*
X1104Y664D01*
X1102Y664D01*
X1102Y662D01*
X1100Y662D01*
X1100Y660D01*
X1098Y660D01*
X1098Y658D01*
X1096Y658D01*
X1096Y656D01*
X1094Y656D01*
X1094Y654D01*
X1092Y654D01*
X1092Y652D01*
X1090Y652D01*
X1090Y650D01*
X1088Y650D01*
X1088Y648D01*
X1086Y648D01*
X1086Y646D01*
X1084Y646D01*
X1084Y644D01*
X1082Y644D01*
X1082Y642D01*
X1080Y642D01*
X1080Y640D01*
X1078Y640D01*
X1078Y638D01*
X1076Y638D01*
X1076Y636D01*
X1074Y636D01*
X1074Y634D01*
X1072Y634D01*
X1072Y632D01*
X1070Y632D01*
X1070Y630D01*
X1068Y630D01*
X1068Y628D01*
X1066Y628D01*
X1066Y626D01*
X1064Y626D01*
X1064Y624D01*
X1062Y624D01*
X1062Y622D01*
X1060Y622D01*
X1060Y620D01*
X1058Y620D01*
X1058Y618D01*
X1056Y618D01*
X1056Y616D01*
X1054Y616D01*
X1054Y614D01*
X1052Y614D01*
X1052Y612D01*
X1050Y612D01*
X1050Y610D01*
X1048Y610D01*
X1048Y608D01*
X1046Y608D01*
X1046Y606D01*
X1044Y606D01*
X1044Y604D01*
X1042Y604D01*
X1042Y602D01*
X1040Y602D01*
X1040Y600D01*
X1038Y600D01*
X1038Y580D01*
X1058Y580D01*
X1058Y582D01*
X1060Y582D01*
X1060Y584D01*
X1062Y584D01*
X1062Y586D01*
X1064Y586D01*
X1064Y588D01*
X1066Y588D01*
X1066Y590D01*
X1068Y590D01*
X1068Y592D01*
X1070Y592D01*
X1070Y594D01*
X1072Y594D01*
X1072Y596D01*
X1074Y596D01*
X1074Y598D01*
X1076Y598D01*
X1076Y600D01*
X1078Y600D01*
X1078Y602D01*
X1080Y602D01*
X1080Y604D01*
X1082Y604D01*
X1082Y606D01*
X1084Y606D01*
X1084Y608D01*
X1086Y608D01*
X1086Y610D01*
X1088Y610D01*
X1088Y612D01*
X1090Y612D01*
X1090Y614D01*
X1092Y614D01*
X1092Y616D01*
X1094Y616D01*
X1094Y618D01*
X1096Y618D01*
X1096Y620D01*
X1098Y620D01*
X1098Y622D01*
X1100Y622D01*
X1100Y624D01*
X1102Y624D01*
X1102Y626D01*
X1104Y626D01*
X1104Y628D01*
X1106Y628D01*
X1106Y630D01*
X1108Y630D01*
X1108Y632D01*
X1110Y632D01*
X1110Y634D01*
X1112Y634D01*
X1112Y636D01*
X1114Y636D01*
X1114Y638D01*
X1116Y638D01*
X1116Y640D01*
X1118Y640D01*
X1118Y642D01*
X1120Y642D01*
X1120Y644D01*
X1122Y644D01*
X1122Y646D01*
X1124Y646D01*
X1124Y648D01*
X1126Y648D01*
X1126Y650D01*
X1128Y650D01*
X1128Y652D01*
X1130Y652D01*
X1130Y654D01*
X1132Y654D01*
X1132Y656D01*
X1134Y656D01*
X1134Y658D01*
X1136Y658D01*
X1136Y660D01*
X1138Y660D01*
X1138Y662D01*
X1140Y662D01*
X1140Y664D01*
X1142Y664D01*
X1142Y666D01*
X1144Y666D01*
X1144Y686D01*
X1124Y686D01*
G37*
D02*
G36*
X1230Y660D02*
X1230Y658D01*
X1228Y658D01*
X1228Y656D01*
X1226Y656D01*
X1226Y652D01*
X1224Y652D01*
X1224Y650D01*
X1222Y650D01*
X1222Y648D01*
X1218Y648D01*
X1218Y646D01*
X1216Y646D01*
X1216Y644D01*
X1214Y644D01*
X1214Y624D01*
X1216Y624D01*
X1216Y622D01*
X1218Y622D01*
X1218Y620D01*
X1220Y620D01*
X1220Y618D01*
X1222Y618D01*
X1222Y616D01*
X1224Y616D01*
X1224Y614D01*
X1226Y614D01*
X1226Y612D01*
X1228Y612D01*
X1228Y610D01*
X1230Y610D01*
X1230Y606D01*
X1250Y606D01*
X1250Y608D01*
X1252Y608D01*
X1252Y610D01*
X1254Y610D01*
X1254Y612D01*
X1256Y612D01*
X1256Y614D01*
X1258Y614D01*
X1258Y616D01*
X1260Y616D01*
X1260Y618D01*
X1262Y618D01*
X1262Y620D01*
X1264Y620D01*
X1264Y622D01*
X1266Y622D01*
X1266Y624D01*
X1268Y624D01*
X1268Y644D01*
X1266Y644D01*
X1266Y646D01*
X1262Y646D01*
X1262Y648D01*
X1260Y648D01*
X1260Y650D01*
X1258Y650D01*
X1258Y652D01*
X1256Y652D01*
X1256Y654D01*
X1254Y654D01*
X1254Y658D01*
X1252Y658D01*
X1252Y660D01*
X1230Y660D01*
G37*
D02*
G36*
X132Y662D02*
X132Y660D01*
X130Y660D01*
X130Y658D01*
X128Y658D01*
X128Y656D01*
X126Y656D01*
X126Y652D01*
X124Y652D01*
X124Y650D01*
X122Y650D01*
X122Y648D01*
X118Y648D01*
X118Y646D01*
X116Y646D01*
X116Y644D01*
X114Y644D01*
X114Y642D01*
X110Y642D01*
X110Y640D01*
X106Y640D01*
X106Y638D01*
X98Y638D01*
X98Y636D01*
X168Y636D01*
X168Y662D01*
X132Y662D01*
G37*
D02*
G36*
X40Y650D02*
X40Y636D01*
X84Y636D01*
X84Y638D01*
X76Y638D01*
X76Y640D01*
X72Y640D01*
X72Y642D01*
X68Y642D01*
X68Y644D01*
X66Y644D01*
X66Y646D01*
X62Y646D01*
X62Y648D01*
X60Y648D01*
X60Y650D01*
X40Y650D01*
G37*
D02*
G36*
X40Y636D02*
X40Y634D01*
X168Y634D01*
X168Y636D01*
X40Y636D01*
G37*
D02*
G36*
X40Y636D02*
X40Y634D01*
X168Y634D01*
X168Y636D01*
X40Y636D01*
G37*
D02*
G36*
X40Y634D02*
X40Y532D01*
X102Y532D01*
X102Y530D01*
X108Y530D01*
X108Y528D01*
X112Y528D01*
X112Y526D01*
X114Y526D01*
X114Y524D01*
X118Y524D01*
X118Y522D01*
X120Y522D01*
X120Y520D01*
X122Y520D01*
X122Y518D01*
X124Y518D01*
X124Y516D01*
X126Y516D01*
X126Y514D01*
X128Y514D01*
X128Y512D01*
X130Y512D01*
X130Y510D01*
X132Y510D01*
X132Y506D01*
X134Y506D01*
X134Y502D01*
X136Y502D01*
X136Y498D01*
X138Y498D01*
X138Y492D01*
X140Y492D01*
X140Y476D01*
X138Y476D01*
X138Y470D01*
X136Y470D01*
X136Y464D01*
X134Y464D01*
X134Y460D01*
X132Y460D01*
X132Y458D01*
X130Y458D01*
X130Y456D01*
X128Y456D01*
X128Y452D01*
X126Y452D01*
X126Y450D01*
X124Y450D01*
X124Y448D01*
X122Y448D01*
X122Y446D01*
X118Y446D01*
X118Y444D01*
X116Y444D01*
X116Y424D01*
X118Y424D01*
X118Y422D01*
X120Y422D01*
X120Y420D01*
X122Y420D01*
X122Y418D01*
X124Y418D01*
X124Y416D01*
X126Y416D01*
X126Y414D01*
X128Y414D01*
X128Y412D01*
X130Y412D01*
X130Y410D01*
X132Y410D01*
X132Y406D01*
X168Y406D01*
X168Y634D01*
X40Y634D01*
G37*
D02*
G36*
X40Y532D02*
X40Y518D01*
X60Y518D01*
X60Y520D01*
X62Y520D01*
X62Y522D01*
X64Y522D01*
X64Y524D01*
X66Y524D01*
X66Y526D01*
X70Y526D01*
X70Y528D01*
X74Y528D01*
X74Y530D01*
X80Y530D01*
X80Y532D01*
X40Y532D01*
G37*
D02*
G36*
X1124Y586D02*
X1124Y584D01*
X1122Y584D01*
X1122Y582D01*
X1120Y582D01*
X1120Y580D01*
X1118Y580D01*
X1118Y578D01*
X1116Y578D01*
X1116Y576D01*
X1114Y576D01*
X1114Y574D01*
X1112Y574D01*
X1112Y572D01*
X1110Y572D01*
X1110Y570D01*
X1108Y570D01*
X1108Y568D01*
X1106Y568D01*
X1106Y566D01*
X1104Y566D01*
X1104Y564D01*
X1102Y564D01*
X1102Y562D01*
X1100Y562D01*
X1100Y560D01*
X1098Y560D01*
X1098Y558D01*
X1096Y558D01*
X1096Y556D01*
X1094Y556D01*
X1094Y554D01*
X1092Y554D01*
X1092Y552D01*
X1090Y552D01*
X1090Y550D01*
X1088Y550D01*
X1088Y548D01*
X1086Y548D01*
X1086Y546D01*
X1084Y546D01*
X1084Y544D01*
X1082Y544D01*
X1082Y542D01*
X1080Y542D01*
X1080Y540D01*
X1078Y540D01*
X1078Y538D01*
X1076Y538D01*
X1076Y536D01*
X1074Y536D01*
X1074Y534D01*
X1072Y534D01*
X1072Y532D01*
X1070Y532D01*
X1070Y530D01*
X1068Y530D01*
X1068Y528D01*
X1066Y528D01*
X1066Y526D01*
X1064Y526D01*
X1064Y524D01*
X1062Y524D01*
X1062Y522D01*
X1060Y522D01*
X1060Y520D01*
X1058Y520D01*
X1058Y518D01*
X1056Y518D01*
X1056Y516D01*
X1054Y516D01*
X1054Y514D01*
X1052Y514D01*
X1052Y512D01*
X1050Y512D01*
X1050Y510D01*
X1048Y510D01*
X1048Y508D01*
X1046Y508D01*
X1046Y506D01*
X1044Y506D01*
X1044Y504D01*
X1042Y504D01*
X1042Y502D01*
X1040Y502D01*
X1040Y500D01*
X1038Y500D01*
X1038Y480D01*
X1058Y480D01*
X1058Y482D01*
X1060Y482D01*
X1060Y484D01*
X1062Y484D01*
X1062Y486D01*
X1064Y486D01*
X1064Y488D01*
X1066Y488D01*
X1066Y490D01*
X1068Y490D01*
X1068Y492D01*
X1070Y492D01*
X1070Y494D01*
X1072Y494D01*
X1072Y496D01*
X1074Y496D01*
X1074Y498D01*
X1076Y498D01*
X1076Y500D01*
X1078Y500D01*
X1078Y502D01*
X1080Y502D01*
X1080Y504D01*
X1082Y504D01*
X1082Y506D01*
X1084Y506D01*
X1084Y508D01*
X1086Y508D01*
X1086Y510D01*
X1088Y510D01*
X1088Y512D01*
X1090Y512D01*
X1090Y514D01*
X1092Y514D01*
X1092Y516D01*
X1094Y516D01*
X1094Y518D01*
X1096Y518D01*
X1096Y520D01*
X1098Y520D01*
X1098Y522D01*
X1100Y522D01*
X1100Y524D01*
X1102Y524D01*
X1102Y526D01*
X1104Y526D01*
X1104Y528D01*
X1106Y528D01*
X1106Y530D01*
X1108Y530D01*
X1108Y532D01*
X1110Y532D01*
X1110Y534D01*
X1112Y534D01*
X1112Y536D01*
X1114Y536D01*
X1114Y538D01*
X1116Y538D01*
X1116Y540D01*
X1118Y540D01*
X1118Y542D01*
X1120Y542D01*
X1120Y544D01*
X1122Y544D01*
X1122Y546D01*
X1124Y546D01*
X1124Y548D01*
X1126Y548D01*
X1126Y550D01*
X1128Y550D01*
X1128Y552D01*
X1130Y552D01*
X1130Y554D01*
X1132Y554D01*
X1132Y556D01*
X1134Y556D01*
X1134Y558D01*
X1136Y558D01*
X1136Y560D01*
X1138Y560D01*
X1138Y562D01*
X1140Y562D01*
X1140Y564D01*
X1142Y564D01*
X1142Y566D01*
X1144Y566D01*
X1144Y586D01*
X1124Y586D01*
G37*
D02*
G36*
X930Y560D02*
X930Y558D01*
X928Y558D01*
X928Y556D01*
X926Y556D01*
X926Y552D01*
X924Y552D01*
X924Y550D01*
X922Y550D01*
X922Y548D01*
X918Y548D01*
X918Y546D01*
X916Y546D01*
X916Y544D01*
X914Y544D01*
X914Y524D01*
X916Y524D01*
X916Y522D01*
X918Y522D01*
X918Y520D01*
X920Y520D01*
X920Y518D01*
X922Y518D01*
X922Y516D01*
X924Y516D01*
X924Y514D01*
X926Y514D01*
X926Y512D01*
X928Y512D01*
X928Y510D01*
X930Y510D01*
X930Y506D01*
X950Y506D01*
X950Y508D01*
X952Y508D01*
X952Y510D01*
X954Y510D01*
X954Y512D01*
X956Y512D01*
X956Y514D01*
X958Y514D01*
X958Y516D01*
X960Y516D01*
X960Y518D01*
X962Y518D01*
X962Y520D01*
X964Y520D01*
X964Y522D01*
X966Y522D01*
X966Y524D01*
X968Y524D01*
X968Y544D01*
X966Y544D01*
X966Y546D01*
X962Y546D01*
X962Y548D01*
X960Y548D01*
X960Y550D01*
X958Y550D01*
X958Y552D01*
X956Y552D01*
X956Y554D01*
X954Y554D01*
X954Y558D01*
X952Y558D01*
X952Y560D01*
X930Y560D01*
G37*
D02*
G36*
X1230Y560D02*
X1230Y558D01*
X1228Y558D01*
X1228Y556D01*
X1226Y556D01*
X1226Y552D01*
X1224Y552D01*
X1224Y550D01*
X1222Y550D01*
X1222Y548D01*
X1218Y548D01*
X1218Y546D01*
X1216Y546D01*
X1216Y544D01*
X1214Y544D01*
X1214Y524D01*
X1216Y524D01*
X1216Y522D01*
X1218Y522D01*
X1218Y520D01*
X1220Y520D01*
X1220Y518D01*
X1222Y518D01*
X1222Y516D01*
X1224Y516D01*
X1224Y514D01*
X1226Y514D01*
X1226Y512D01*
X1228Y512D01*
X1228Y510D01*
X1230Y510D01*
X1230Y506D01*
X1250Y506D01*
X1250Y508D01*
X1252Y508D01*
X1252Y510D01*
X1254Y510D01*
X1254Y512D01*
X1256Y512D01*
X1256Y514D01*
X1258Y514D01*
X1258Y516D01*
X1260Y516D01*
X1260Y518D01*
X1262Y518D01*
X1262Y520D01*
X1264Y520D01*
X1264Y522D01*
X1266Y522D01*
X1266Y524D01*
X1268Y524D01*
X1268Y544D01*
X1266Y544D01*
X1266Y546D01*
X1262Y546D01*
X1262Y548D01*
X1260Y548D01*
X1260Y550D01*
X1258Y550D01*
X1258Y552D01*
X1256Y552D01*
X1256Y554D01*
X1254Y554D01*
X1254Y558D01*
X1252Y558D01*
X1252Y560D01*
X1230Y560D01*
G37*
D02*
G36*
X930Y460D02*
X930Y458D01*
X928Y458D01*
X928Y456D01*
X926Y456D01*
X926Y452D01*
X924Y452D01*
X924Y450D01*
X922Y450D01*
X922Y448D01*
X918Y448D01*
X918Y446D01*
X916Y446D01*
X916Y444D01*
X914Y444D01*
X914Y424D01*
X916Y424D01*
X916Y422D01*
X918Y422D01*
X918Y420D01*
X920Y420D01*
X920Y418D01*
X922Y418D01*
X922Y416D01*
X924Y416D01*
X924Y414D01*
X926Y414D01*
X926Y412D01*
X928Y412D01*
X928Y410D01*
X930Y410D01*
X930Y406D01*
X950Y406D01*
X950Y408D01*
X952Y408D01*
X952Y410D01*
X954Y410D01*
X954Y412D01*
X956Y412D01*
X956Y414D01*
X958Y414D01*
X958Y416D01*
X960Y416D01*
X960Y418D01*
X962Y418D01*
X962Y420D01*
X964Y420D01*
X964Y422D01*
X966Y422D01*
X966Y424D01*
X968Y424D01*
X968Y444D01*
X966Y444D01*
X966Y446D01*
X962Y446D01*
X962Y448D01*
X960Y448D01*
X960Y450D01*
X958Y450D01*
X958Y452D01*
X956Y452D01*
X956Y454D01*
X954Y454D01*
X954Y458D01*
X952Y458D01*
X952Y460D01*
X930Y460D01*
G37*
D02*
G36*
X1230Y460D02*
X1230Y458D01*
X1228Y458D01*
X1228Y456D01*
X1226Y456D01*
X1226Y452D01*
X1224Y452D01*
X1224Y450D01*
X1222Y450D01*
X1222Y448D01*
X1218Y448D01*
X1218Y446D01*
X1216Y446D01*
X1216Y444D01*
X1214Y444D01*
X1214Y424D01*
X1216Y424D01*
X1216Y422D01*
X1218Y422D01*
X1218Y420D01*
X1220Y420D01*
X1220Y418D01*
X1222Y418D01*
X1222Y416D01*
X1224Y416D01*
X1224Y414D01*
X1226Y414D01*
X1226Y412D01*
X1228Y412D01*
X1228Y410D01*
X1230Y410D01*
X1230Y406D01*
X1250Y406D01*
X1250Y408D01*
X1252Y408D01*
X1252Y410D01*
X1254Y410D01*
X1254Y412D01*
X1256Y412D01*
X1256Y414D01*
X1258Y414D01*
X1258Y416D01*
X1260Y416D01*
X1260Y418D01*
X1262Y418D01*
X1262Y420D01*
X1264Y420D01*
X1264Y422D01*
X1266Y422D01*
X1266Y424D01*
X1268Y424D01*
X1268Y444D01*
X1266Y444D01*
X1266Y446D01*
X1262Y446D01*
X1262Y448D01*
X1260Y448D01*
X1260Y450D01*
X1258Y450D01*
X1258Y452D01*
X1256Y452D01*
X1256Y454D01*
X1254Y454D01*
X1254Y458D01*
X1252Y458D01*
X1252Y460D01*
X1230Y460D01*
G37*
D02*
G36*
X1212Y2100D02*
X1212Y2032D01*
X1294Y2032D01*
X1294Y2030D01*
X1304Y2030D01*
X1304Y2028D01*
X1308Y2028D01*
X1308Y2026D01*
X1312Y2026D01*
X1312Y2024D01*
X1316Y2024D01*
X1316Y2022D01*
X1318Y2022D01*
X1318Y2020D01*
X1320Y2020D01*
X1320Y2018D01*
X1322Y2018D01*
X1322Y2016D01*
X1324Y2016D01*
X1324Y2014D01*
X1326Y2014D01*
X1326Y2012D01*
X1328Y2012D01*
X1328Y2010D01*
X1330Y2010D01*
X1330Y2006D01*
X1332Y2006D01*
X1332Y2004D01*
X1334Y2004D01*
X1334Y2000D01*
X1336Y2000D01*
X1336Y1994D01*
X1338Y1994D01*
X1338Y1974D01*
X1336Y1974D01*
X1336Y1968D01*
X1334Y1968D01*
X1334Y1964D01*
X1332Y1964D01*
X1332Y1960D01*
X1330Y1960D01*
X1330Y1958D01*
X1328Y1958D01*
X1328Y1956D01*
X1326Y1956D01*
X1326Y1952D01*
X1324Y1952D01*
X1324Y1950D01*
X1322Y1950D01*
X1322Y1948D01*
X1318Y1948D01*
X1318Y1946D01*
X1316Y1946D01*
X1316Y1944D01*
X1314Y1944D01*
X1314Y1924D01*
X1316Y1924D01*
X1316Y1922D01*
X1318Y1922D01*
X1318Y1920D01*
X1320Y1920D01*
X1320Y1918D01*
X1322Y1918D01*
X1322Y1916D01*
X1324Y1916D01*
X1324Y1914D01*
X1326Y1914D01*
X1326Y1912D01*
X1328Y1912D01*
X1328Y1910D01*
X1330Y1910D01*
X1330Y1906D01*
X1332Y1906D01*
X1332Y1904D01*
X1334Y1904D01*
X1334Y1900D01*
X1336Y1900D01*
X1336Y1894D01*
X1338Y1894D01*
X1338Y1874D01*
X1336Y1874D01*
X1336Y1868D01*
X1334Y1868D01*
X1334Y1864D01*
X1332Y1864D01*
X1332Y1860D01*
X1330Y1860D01*
X1330Y1858D01*
X1328Y1858D01*
X1328Y1856D01*
X1326Y1856D01*
X1326Y1852D01*
X1324Y1852D01*
X1324Y1850D01*
X1322Y1850D01*
X1322Y1848D01*
X1318Y1848D01*
X1318Y1846D01*
X1316Y1846D01*
X1316Y1844D01*
X1314Y1844D01*
X1314Y1824D01*
X1316Y1824D01*
X1316Y1822D01*
X1318Y1822D01*
X1318Y1820D01*
X1320Y1820D01*
X1320Y1818D01*
X1322Y1818D01*
X1322Y1816D01*
X1324Y1816D01*
X1324Y1814D01*
X1326Y1814D01*
X1326Y1812D01*
X1328Y1812D01*
X1328Y1810D01*
X1330Y1810D01*
X1330Y1806D01*
X1332Y1806D01*
X1332Y1804D01*
X1334Y1804D01*
X1334Y1800D01*
X1336Y1800D01*
X1336Y1794D01*
X1338Y1794D01*
X1338Y1774D01*
X1336Y1774D01*
X1336Y1768D01*
X1334Y1768D01*
X1334Y1764D01*
X1332Y1764D01*
X1332Y1760D01*
X1330Y1760D01*
X1330Y1758D01*
X1328Y1758D01*
X1328Y1756D01*
X1326Y1756D01*
X1326Y1752D01*
X1324Y1752D01*
X1324Y1750D01*
X1322Y1750D01*
X1322Y1748D01*
X1318Y1748D01*
X1318Y1746D01*
X1316Y1746D01*
X1316Y1744D01*
X1314Y1744D01*
X1314Y1724D01*
X1316Y1724D01*
X1316Y1722D01*
X1318Y1722D01*
X1318Y1720D01*
X1320Y1720D01*
X1320Y1718D01*
X1322Y1718D01*
X1322Y1716D01*
X1324Y1716D01*
X1324Y1714D01*
X1326Y1714D01*
X1326Y1712D01*
X1328Y1712D01*
X1328Y1710D01*
X1330Y1710D01*
X1330Y1706D01*
X1332Y1706D01*
X1332Y1704D01*
X1334Y1704D01*
X1334Y1700D01*
X1336Y1700D01*
X1336Y1694D01*
X1338Y1694D01*
X1338Y1674D01*
X1336Y1674D01*
X1336Y1668D01*
X1334Y1668D01*
X1334Y1664D01*
X1332Y1664D01*
X1332Y1660D01*
X1330Y1660D01*
X1330Y1658D01*
X1328Y1658D01*
X1328Y1656D01*
X1326Y1656D01*
X1326Y1652D01*
X1324Y1652D01*
X1324Y1650D01*
X1322Y1650D01*
X1322Y1648D01*
X1318Y1648D01*
X1318Y1646D01*
X1316Y1646D01*
X1316Y1644D01*
X1314Y1644D01*
X1314Y1624D01*
X1316Y1624D01*
X1316Y1622D01*
X1318Y1622D01*
X1318Y1620D01*
X1320Y1620D01*
X1320Y1618D01*
X1322Y1618D01*
X1322Y1616D01*
X1324Y1616D01*
X1324Y1614D01*
X1326Y1614D01*
X1326Y1612D01*
X1328Y1612D01*
X1328Y1610D01*
X1330Y1610D01*
X1330Y1606D01*
X1332Y1606D01*
X1332Y1604D01*
X1334Y1604D01*
X1334Y1600D01*
X1336Y1600D01*
X1336Y1594D01*
X1338Y1594D01*
X1338Y1574D01*
X1336Y1574D01*
X1336Y1568D01*
X1334Y1568D01*
X1334Y1564D01*
X1332Y1564D01*
X1332Y1560D01*
X1330Y1560D01*
X1330Y1558D01*
X1328Y1558D01*
X1328Y1556D01*
X1326Y1556D01*
X1326Y1552D01*
X1324Y1552D01*
X1324Y1550D01*
X1322Y1550D01*
X1322Y1548D01*
X1318Y1548D01*
X1318Y1546D01*
X1316Y1546D01*
X1316Y1544D01*
X1314Y1544D01*
X1314Y1524D01*
X1316Y1524D01*
X1316Y1522D01*
X1318Y1522D01*
X1318Y1520D01*
X1320Y1520D01*
X1320Y1518D01*
X1322Y1518D01*
X1322Y1516D01*
X1324Y1516D01*
X1324Y1514D01*
X1326Y1514D01*
X1326Y1512D01*
X1328Y1512D01*
X1328Y1510D01*
X1330Y1510D01*
X1330Y1506D01*
X1332Y1506D01*
X1332Y1504D01*
X1334Y1504D01*
X1334Y1500D01*
X1336Y1500D01*
X1336Y1494D01*
X1338Y1494D01*
X1338Y1474D01*
X1336Y1474D01*
X1336Y1468D01*
X1334Y1468D01*
X1334Y1464D01*
X1332Y1464D01*
X1332Y1460D01*
X1330Y1460D01*
X1330Y1458D01*
X1328Y1458D01*
X1328Y1456D01*
X1326Y1456D01*
X1326Y1452D01*
X1324Y1452D01*
X1324Y1450D01*
X1322Y1450D01*
X1322Y1448D01*
X1318Y1448D01*
X1318Y1446D01*
X1316Y1446D01*
X1316Y1444D01*
X1314Y1444D01*
X1314Y1432D01*
X1502Y1432D01*
X1502Y1430D01*
X1508Y1430D01*
X1508Y1428D01*
X1512Y1428D01*
X1512Y1426D01*
X1514Y1426D01*
X1514Y1424D01*
X1518Y1424D01*
X1518Y1422D01*
X1520Y1422D01*
X1520Y1420D01*
X1522Y1420D01*
X1522Y1418D01*
X1524Y1418D01*
X1524Y1416D01*
X1526Y1416D01*
X1526Y1414D01*
X1528Y1414D01*
X1528Y1412D01*
X1530Y1412D01*
X1530Y1410D01*
X1532Y1410D01*
X1532Y1406D01*
X1534Y1406D01*
X1534Y1402D01*
X1536Y1402D01*
X1536Y1398D01*
X1538Y1398D01*
X1538Y1392D01*
X1540Y1392D01*
X1540Y1376D01*
X1538Y1376D01*
X1538Y1370D01*
X1536Y1370D01*
X1536Y1364D01*
X1534Y1364D01*
X1534Y1360D01*
X1532Y1360D01*
X1532Y1358D01*
X1530Y1358D01*
X1530Y1356D01*
X1528Y1356D01*
X1528Y1352D01*
X1526Y1352D01*
X1526Y1350D01*
X1524Y1350D01*
X1524Y1348D01*
X1522Y1348D01*
X1522Y1346D01*
X1518Y1346D01*
X1518Y1344D01*
X1516Y1344D01*
X1516Y1324D01*
X1518Y1324D01*
X1518Y1322D01*
X1520Y1322D01*
X1520Y1320D01*
X1522Y1320D01*
X1522Y1318D01*
X1524Y1318D01*
X1524Y1316D01*
X1526Y1316D01*
X1526Y1314D01*
X1528Y1314D01*
X1528Y1312D01*
X1530Y1312D01*
X1530Y1310D01*
X1532Y1310D01*
X1532Y1306D01*
X1534Y1306D01*
X1534Y1302D01*
X1536Y1302D01*
X1536Y1298D01*
X1538Y1298D01*
X1538Y1292D01*
X1540Y1292D01*
X1540Y1276D01*
X1538Y1276D01*
X1538Y1270D01*
X1536Y1270D01*
X1536Y1264D01*
X1534Y1264D01*
X1534Y1260D01*
X1532Y1260D01*
X1532Y1258D01*
X1530Y1258D01*
X1530Y1256D01*
X1528Y1256D01*
X1528Y1252D01*
X1526Y1252D01*
X1526Y1250D01*
X1524Y1250D01*
X1524Y1248D01*
X1522Y1248D01*
X1522Y1246D01*
X1518Y1246D01*
X1518Y1244D01*
X1516Y1244D01*
X1516Y1242D01*
X1512Y1242D01*
X1512Y1240D01*
X1508Y1240D01*
X1508Y1238D01*
X1504Y1238D01*
X1504Y1236D01*
X1496Y1236D01*
X1496Y1234D01*
X1608Y1234D01*
X1608Y2100D01*
X1212Y2100D01*
G37*
D02*
G36*
X406Y2062D02*
X406Y2058D01*
X404Y2058D01*
X404Y2052D01*
X402Y2052D01*
X402Y2046D01*
X400Y2046D01*
X400Y2040D01*
X398Y2040D01*
X398Y2034D01*
X396Y2034D01*
X396Y2032D01*
X902Y2032D01*
X902Y2030D01*
X908Y2030D01*
X908Y2028D01*
X912Y2028D01*
X912Y2026D01*
X914Y2026D01*
X914Y2024D01*
X918Y2024D01*
X918Y2022D01*
X920Y2022D01*
X920Y2020D01*
X922Y2020D01*
X922Y2018D01*
X924Y2018D01*
X924Y2016D01*
X926Y2016D01*
X926Y2014D01*
X928Y2014D01*
X928Y2012D01*
X930Y2012D01*
X930Y2010D01*
X932Y2010D01*
X932Y2006D01*
X934Y2006D01*
X934Y2002D01*
X936Y2002D01*
X936Y1998D01*
X938Y1998D01*
X938Y1992D01*
X940Y1992D01*
X940Y1976D01*
X938Y1976D01*
X938Y1970D01*
X936Y1970D01*
X936Y1964D01*
X934Y1964D01*
X934Y1960D01*
X932Y1960D01*
X932Y1958D01*
X930Y1958D01*
X930Y1956D01*
X928Y1956D01*
X928Y1952D01*
X926Y1952D01*
X926Y1950D01*
X924Y1950D01*
X924Y1948D01*
X922Y1948D01*
X922Y1946D01*
X918Y1946D01*
X918Y1944D01*
X916Y1944D01*
X916Y1942D01*
X912Y1942D01*
X912Y1940D01*
X908Y1940D01*
X908Y1938D01*
X904Y1938D01*
X904Y1936D01*
X896Y1936D01*
X896Y1934D01*
X884Y1934D01*
X884Y1932D01*
X882Y1932D01*
X882Y1930D01*
X880Y1930D01*
X880Y1926D01*
X878Y1926D01*
X878Y1924D01*
X876Y1924D01*
X876Y1920D01*
X874Y1920D01*
X874Y1918D01*
X872Y1918D01*
X872Y1914D01*
X870Y1914D01*
X870Y1912D01*
X868Y1912D01*
X868Y1908D01*
X866Y1908D01*
X866Y1906D01*
X864Y1906D01*
X864Y1902D01*
X862Y1902D01*
X862Y1900D01*
X860Y1900D01*
X860Y1896D01*
X858Y1896D01*
X858Y1894D01*
X856Y1894D01*
X856Y1890D01*
X854Y1890D01*
X854Y1888D01*
X852Y1888D01*
X852Y1884D01*
X850Y1884D01*
X850Y1882D01*
X848Y1882D01*
X848Y1878D01*
X846Y1878D01*
X846Y1876D01*
X844Y1876D01*
X844Y1872D01*
X842Y1872D01*
X842Y1870D01*
X840Y1870D01*
X840Y1866D01*
X838Y1866D01*
X838Y1864D01*
X836Y1864D01*
X836Y1860D01*
X834Y1860D01*
X834Y1858D01*
X832Y1858D01*
X832Y1854D01*
X830Y1854D01*
X830Y1852D01*
X828Y1852D01*
X828Y1848D01*
X826Y1848D01*
X826Y1846D01*
X824Y1846D01*
X824Y1842D01*
X822Y1842D01*
X822Y1840D01*
X820Y1840D01*
X820Y1836D01*
X818Y1836D01*
X818Y1834D01*
X816Y1834D01*
X816Y1830D01*
X814Y1830D01*
X814Y1828D01*
X812Y1828D01*
X812Y1824D01*
X810Y1824D01*
X810Y1822D01*
X808Y1822D01*
X808Y1818D01*
X806Y1818D01*
X806Y1816D01*
X804Y1816D01*
X804Y1812D01*
X802Y1812D01*
X802Y1810D01*
X800Y1810D01*
X800Y1806D01*
X798Y1806D01*
X798Y1802D01*
X796Y1802D01*
X796Y1800D01*
X794Y1800D01*
X794Y1796D01*
X792Y1796D01*
X792Y1794D01*
X790Y1794D01*
X790Y1790D01*
X788Y1790D01*
X788Y1788D01*
X786Y1788D01*
X786Y1784D01*
X784Y1784D01*
X784Y1782D01*
X782Y1782D01*
X782Y1778D01*
X780Y1778D01*
X780Y1776D01*
X778Y1776D01*
X778Y1772D01*
X776Y1772D01*
X776Y1770D01*
X774Y1770D01*
X774Y1766D01*
X772Y1766D01*
X772Y1764D01*
X770Y1764D01*
X770Y1760D01*
X768Y1760D01*
X768Y1758D01*
X766Y1758D01*
X766Y1754D01*
X764Y1754D01*
X764Y1752D01*
X762Y1752D01*
X762Y1748D01*
X760Y1748D01*
X760Y1746D01*
X758Y1746D01*
X758Y1742D01*
X756Y1742D01*
X756Y1740D01*
X754Y1740D01*
X754Y1736D01*
X752Y1736D01*
X752Y1734D01*
X750Y1734D01*
X750Y1730D01*
X748Y1730D01*
X748Y1728D01*
X746Y1728D01*
X746Y1724D01*
X744Y1724D01*
X744Y1722D01*
X742Y1722D01*
X742Y1718D01*
X740Y1718D01*
X740Y1716D01*
X738Y1716D01*
X738Y1712D01*
X736Y1712D01*
X736Y1710D01*
X734Y1710D01*
X734Y1706D01*
X732Y1706D01*
X732Y1704D01*
X730Y1704D01*
X730Y1700D01*
X728Y1700D01*
X728Y1698D01*
X726Y1698D01*
X726Y1694D01*
X724Y1694D01*
X724Y1692D01*
X722Y1692D01*
X722Y1688D01*
X720Y1688D01*
X720Y1686D01*
X718Y1686D01*
X718Y1682D01*
X716Y1682D01*
X716Y1680D01*
X714Y1680D01*
X714Y1382D01*
X712Y1382D01*
X712Y1376D01*
X710Y1376D01*
X710Y1372D01*
X708Y1372D01*
X708Y1370D01*
X706Y1370D01*
X706Y1368D01*
X704Y1368D01*
X704Y1366D01*
X700Y1366D01*
X700Y1364D01*
X694Y1364D01*
X694Y1362D01*
X540Y1362D01*
X540Y1360D01*
X790Y1360D01*
X790Y1362D01*
X782Y1362D01*
X782Y1364D01*
X780Y1364D01*
X780Y1366D01*
X776Y1366D01*
X776Y1368D01*
X774Y1368D01*
X774Y1372D01*
X772Y1372D01*
X772Y1376D01*
X770Y1376D01*
X770Y1690D01*
X772Y1690D01*
X772Y1694D01*
X774Y1694D01*
X774Y1698D01*
X776Y1698D01*
X776Y1700D01*
X778Y1700D01*
X778Y1702D01*
X782Y1702D01*
X782Y1704D01*
X786Y1704D01*
X786Y1706D01*
X790Y1706D01*
X790Y1708D01*
X794Y1708D01*
X794Y1710D01*
X798Y1710D01*
X798Y1712D01*
X802Y1712D01*
X802Y1714D01*
X806Y1714D01*
X806Y1716D01*
X810Y1716D01*
X810Y1718D01*
X814Y1718D01*
X814Y1720D01*
X818Y1720D01*
X818Y1722D01*
X822Y1722D01*
X822Y1724D01*
X826Y1724D01*
X826Y1726D01*
X830Y1726D01*
X830Y1728D01*
X834Y1728D01*
X834Y1730D01*
X838Y1730D01*
X838Y1732D01*
X842Y1732D01*
X842Y1734D01*
X846Y1734D01*
X846Y1736D01*
X850Y1736D01*
X850Y1738D01*
X854Y1738D01*
X854Y1740D01*
X858Y1740D01*
X858Y1742D01*
X862Y1742D01*
X862Y1744D01*
X866Y1744D01*
X866Y1746D01*
X870Y1746D01*
X870Y1748D01*
X874Y1748D01*
X874Y1750D01*
X878Y1750D01*
X878Y1752D01*
X882Y1752D01*
X882Y1754D01*
X886Y1754D01*
X886Y1756D01*
X890Y1756D01*
X890Y1758D01*
X894Y1758D01*
X894Y1760D01*
X898Y1760D01*
X898Y1762D01*
X902Y1762D01*
X902Y1764D01*
X906Y1764D01*
X906Y1766D01*
X910Y1766D01*
X910Y1768D01*
X914Y1768D01*
X914Y1770D01*
X918Y1770D01*
X918Y1772D01*
X922Y1772D01*
X922Y1774D01*
X926Y1774D01*
X926Y1776D01*
X930Y1776D01*
X930Y1778D01*
X934Y1778D01*
X934Y1780D01*
X938Y1780D01*
X938Y1782D01*
X940Y1782D01*
X940Y1784D01*
X944Y1784D01*
X944Y1786D01*
X948Y1786D01*
X948Y1788D01*
X952Y1788D01*
X952Y1790D01*
X956Y1790D01*
X956Y1792D01*
X960Y1792D01*
X960Y1794D01*
X964Y1794D01*
X964Y1796D01*
X968Y1796D01*
X968Y1798D01*
X972Y1798D01*
X972Y1800D01*
X976Y1800D01*
X976Y1802D01*
X980Y1802D01*
X980Y1804D01*
X984Y1804D01*
X984Y1806D01*
X988Y1806D01*
X988Y1808D01*
X992Y1808D01*
X992Y1810D01*
X996Y1810D01*
X996Y1812D01*
X1000Y1812D01*
X1000Y1814D01*
X1004Y1814D01*
X1004Y1816D01*
X1008Y1816D01*
X1008Y1818D01*
X1012Y1818D01*
X1012Y1820D01*
X1016Y1820D01*
X1016Y1822D01*
X1020Y1822D01*
X1020Y1824D01*
X1024Y1824D01*
X1024Y1826D01*
X1028Y1826D01*
X1028Y1828D01*
X1032Y1828D01*
X1032Y1830D01*
X1036Y1830D01*
X1036Y1832D01*
X1040Y1832D01*
X1040Y1834D01*
X1044Y1834D01*
X1044Y1836D01*
X1048Y1836D01*
X1048Y1838D01*
X1052Y1838D01*
X1052Y1840D01*
X1056Y1840D01*
X1056Y1842D01*
X1060Y1842D01*
X1060Y1844D01*
X1064Y1844D01*
X1064Y1846D01*
X1068Y1846D01*
X1068Y1848D01*
X1072Y1848D01*
X1072Y1850D01*
X1076Y1850D01*
X1076Y1852D01*
X1080Y1852D01*
X1080Y1854D01*
X1084Y1854D01*
X1084Y1856D01*
X1088Y1856D01*
X1088Y1858D01*
X1092Y1858D01*
X1092Y1860D01*
X1096Y1860D01*
X1096Y1862D01*
X1100Y1862D01*
X1100Y1864D01*
X1104Y1864D01*
X1104Y1866D01*
X1108Y1866D01*
X1108Y1868D01*
X1112Y1868D01*
X1112Y1870D01*
X1116Y1870D01*
X1116Y1872D01*
X1120Y1872D01*
X1120Y1874D01*
X1124Y1874D01*
X1124Y1876D01*
X1128Y1876D01*
X1128Y1878D01*
X1132Y1878D01*
X1132Y1880D01*
X1136Y1880D01*
X1136Y1882D01*
X1140Y1882D01*
X1140Y1884D01*
X1144Y1884D01*
X1144Y1894D01*
X1146Y1894D01*
X1146Y1900D01*
X1148Y1900D01*
X1148Y1904D01*
X1150Y1904D01*
X1150Y1908D01*
X1152Y1908D01*
X1152Y1910D01*
X1154Y1910D01*
X1154Y1912D01*
X1156Y1912D01*
X1156Y1914D01*
X1158Y1914D01*
X1158Y1916D01*
X1160Y1916D01*
X1160Y1936D01*
X1144Y1936D01*
X1144Y2032D01*
X1168Y2032D01*
X1168Y2062D01*
X406Y2062D01*
G37*
D02*
G36*
X396Y2032D02*
X396Y2028D01*
X394Y2028D01*
X394Y2022D01*
X392Y2022D01*
X392Y2016D01*
X390Y2016D01*
X390Y2010D01*
X388Y2010D01*
X388Y2004D01*
X386Y2004D01*
X386Y1998D01*
X384Y1998D01*
X384Y1992D01*
X382Y1992D01*
X382Y1986D01*
X380Y1986D01*
X380Y1980D01*
X378Y1980D01*
X378Y1974D01*
X376Y1974D01*
X376Y1968D01*
X374Y1968D01*
X374Y1962D01*
X372Y1962D01*
X372Y1956D01*
X370Y1956D01*
X370Y1950D01*
X368Y1950D01*
X368Y1944D01*
X366Y1944D01*
X366Y1938D01*
X364Y1938D01*
X364Y1934D01*
X542Y1934D01*
X542Y2032D01*
X396Y2032D01*
G37*
D02*
G36*
X640Y2032D02*
X640Y2018D01*
X660Y2018D01*
X660Y2020D01*
X662Y2020D01*
X662Y2022D01*
X664Y2022D01*
X664Y2024D01*
X666Y2024D01*
X666Y2026D01*
X670Y2026D01*
X670Y2028D01*
X674Y2028D01*
X674Y2030D01*
X680Y2030D01*
X680Y2032D01*
X640Y2032D01*
G37*
D02*
G36*
X702Y2032D02*
X702Y2030D01*
X708Y2030D01*
X708Y2028D01*
X712Y2028D01*
X712Y2026D01*
X714Y2026D01*
X714Y2024D01*
X718Y2024D01*
X718Y2022D01*
X720Y2022D01*
X720Y2020D01*
X722Y2020D01*
X722Y2018D01*
X724Y2018D01*
X724Y2016D01*
X726Y2016D01*
X726Y2014D01*
X728Y2014D01*
X728Y2012D01*
X730Y2012D01*
X730Y2010D01*
X752Y2010D01*
X752Y2012D01*
X754Y2012D01*
X754Y2014D01*
X756Y2014D01*
X756Y2018D01*
X760Y2018D01*
X760Y2020D01*
X762Y2020D01*
X762Y2022D01*
X764Y2022D01*
X764Y2024D01*
X766Y2024D01*
X766Y2026D01*
X770Y2026D01*
X770Y2028D01*
X774Y2028D01*
X774Y2030D01*
X780Y2030D01*
X780Y2032D01*
X702Y2032D01*
G37*
D02*
G36*
X802Y2032D02*
X802Y2030D01*
X808Y2030D01*
X808Y2028D01*
X812Y2028D01*
X812Y2026D01*
X814Y2026D01*
X814Y2024D01*
X818Y2024D01*
X818Y2022D01*
X820Y2022D01*
X820Y2020D01*
X822Y2020D01*
X822Y2018D01*
X824Y2018D01*
X824Y2016D01*
X826Y2016D01*
X826Y2014D01*
X828Y2014D01*
X828Y2012D01*
X830Y2012D01*
X830Y2010D01*
X852Y2010D01*
X852Y2012D01*
X854Y2012D01*
X854Y2014D01*
X856Y2014D01*
X856Y2018D01*
X860Y2018D01*
X860Y2020D01*
X862Y2020D01*
X862Y2022D01*
X864Y2022D01*
X864Y2024D01*
X866Y2024D01*
X866Y2026D01*
X870Y2026D01*
X870Y2028D01*
X874Y2028D01*
X874Y2030D01*
X880Y2030D01*
X880Y2032D01*
X802Y2032D01*
G37*
D02*
G36*
X1238Y2032D02*
X1238Y2014D01*
X1258Y2014D01*
X1258Y2016D01*
X1260Y2016D01*
X1260Y2018D01*
X1262Y2018D01*
X1262Y2020D01*
X1264Y2020D01*
X1264Y2022D01*
X1266Y2022D01*
X1266Y2024D01*
X1270Y2024D01*
X1270Y2026D01*
X1274Y2026D01*
X1274Y2028D01*
X1278Y2028D01*
X1278Y2030D01*
X1288Y2030D01*
X1288Y2032D01*
X1238Y2032D01*
G37*
D02*
G36*
X640Y1948D02*
X640Y1934D01*
X686Y1934D01*
X686Y1936D01*
X678Y1936D01*
X678Y1938D01*
X672Y1938D01*
X672Y1940D01*
X668Y1940D01*
X668Y1942D01*
X666Y1942D01*
X666Y1944D01*
X664Y1944D01*
X664Y1946D01*
X660Y1946D01*
X660Y1948D01*
X640Y1948D01*
G37*
D02*
G36*
X718Y1946D02*
X718Y1944D01*
X716Y1944D01*
X716Y1942D01*
X712Y1942D01*
X712Y1940D01*
X708Y1940D01*
X708Y1938D01*
X704Y1938D01*
X704Y1936D01*
X696Y1936D01*
X696Y1934D01*
X732Y1934D01*
X732Y1936D01*
X734Y1936D01*
X734Y1940D01*
X736Y1940D01*
X736Y1942D01*
X738Y1942D01*
X738Y1946D01*
X718Y1946D01*
G37*
D02*
G36*
X364Y1934D02*
X364Y1932D01*
X730Y1932D01*
X730Y1934D01*
X364Y1934D01*
G37*
D02*
G36*
X364Y1934D02*
X364Y1932D01*
X730Y1932D01*
X730Y1934D01*
X364Y1934D01*
G37*
D02*
G36*
X364Y1934D02*
X364Y1932D01*
X730Y1932D01*
X730Y1934D01*
X364Y1934D01*
G37*
D02*
G36*
X362Y1932D02*
X362Y1926D01*
X360Y1926D01*
X360Y1920D01*
X358Y1920D01*
X358Y1914D01*
X356Y1914D01*
X356Y1908D01*
X354Y1908D01*
X354Y1902D01*
X352Y1902D01*
X352Y1896D01*
X350Y1896D01*
X350Y1890D01*
X348Y1890D01*
X348Y1884D01*
X346Y1884D01*
X346Y1878D01*
X344Y1878D01*
X344Y1872D01*
X342Y1872D01*
X342Y1866D01*
X340Y1866D01*
X340Y1860D01*
X338Y1860D01*
X338Y1854D01*
X336Y1854D01*
X336Y1832D01*
X502Y1832D01*
X502Y1830D01*
X508Y1830D01*
X508Y1828D01*
X512Y1828D01*
X512Y1826D01*
X514Y1826D01*
X514Y1824D01*
X518Y1824D01*
X518Y1822D01*
X520Y1822D01*
X520Y1820D01*
X522Y1820D01*
X522Y1818D01*
X524Y1818D01*
X524Y1816D01*
X526Y1816D01*
X526Y1814D01*
X528Y1814D01*
X528Y1812D01*
X530Y1812D01*
X530Y1810D01*
X532Y1810D01*
X532Y1806D01*
X534Y1806D01*
X534Y1802D01*
X536Y1802D01*
X536Y1798D01*
X538Y1798D01*
X538Y1792D01*
X540Y1792D01*
X540Y1776D01*
X538Y1776D01*
X538Y1770D01*
X536Y1770D01*
X536Y1764D01*
X534Y1764D01*
X534Y1760D01*
X532Y1760D01*
X532Y1758D01*
X530Y1758D01*
X530Y1756D01*
X528Y1756D01*
X528Y1752D01*
X526Y1752D01*
X526Y1750D01*
X524Y1750D01*
X524Y1748D01*
X522Y1748D01*
X522Y1746D01*
X518Y1746D01*
X518Y1744D01*
X516Y1744D01*
X516Y1724D01*
X518Y1724D01*
X518Y1722D01*
X520Y1722D01*
X520Y1720D01*
X522Y1720D01*
X522Y1718D01*
X524Y1718D01*
X524Y1716D01*
X526Y1716D01*
X526Y1714D01*
X528Y1714D01*
X528Y1712D01*
X530Y1712D01*
X530Y1710D01*
X532Y1710D01*
X532Y1706D01*
X534Y1706D01*
X534Y1702D01*
X536Y1702D01*
X536Y1698D01*
X538Y1698D01*
X538Y1692D01*
X540Y1692D01*
X540Y1676D01*
X538Y1676D01*
X538Y1670D01*
X536Y1670D01*
X536Y1664D01*
X534Y1664D01*
X534Y1660D01*
X532Y1660D01*
X532Y1658D01*
X530Y1658D01*
X530Y1656D01*
X528Y1656D01*
X528Y1652D01*
X526Y1652D01*
X526Y1650D01*
X524Y1650D01*
X524Y1648D01*
X522Y1648D01*
X522Y1646D01*
X518Y1646D01*
X518Y1644D01*
X516Y1644D01*
X516Y1624D01*
X518Y1624D01*
X518Y1622D01*
X520Y1622D01*
X520Y1620D01*
X522Y1620D01*
X522Y1618D01*
X524Y1618D01*
X524Y1616D01*
X526Y1616D01*
X526Y1614D01*
X528Y1614D01*
X528Y1612D01*
X530Y1612D01*
X530Y1610D01*
X532Y1610D01*
X532Y1606D01*
X534Y1606D01*
X534Y1602D01*
X536Y1602D01*
X536Y1598D01*
X538Y1598D01*
X538Y1592D01*
X540Y1592D01*
X540Y1576D01*
X538Y1576D01*
X538Y1570D01*
X536Y1570D01*
X536Y1564D01*
X534Y1564D01*
X534Y1560D01*
X532Y1560D01*
X532Y1558D01*
X530Y1558D01*
X530Y1556D01*
X528Y1556D01*
X528Y1552D01*
X526Y1552D01*
X526Y1550D01*
X524Y1550D01*
X524Y1548D01*
X522Y1548D01*
X522Y1546D01*
X518Y1546D01*
X518Y1544D01*
X516Y1544D01*
X516Y1524D01*
X518Y1524D01*
X518Y1522D01*
X520Y1522D01*
X520Y1520D01*
X522Y1520D01*
X522Y1518D01*
X524Y1518D01*
X524Y1516D01*
X526Y1516D01*
X526Y1514D01*
X528Y1514D01*
X528Y1512D01*
X530Y1512D01*
X530Y1510D01*
X532Y1510D01*
X532Y1506D01*
X568Y1506D01*
X568Y1688D01*
X570Y1688D01*
X570Y1694D01*
X572Y1694D01*
X572Y1696D01*
X574Y1696D01*
X574Y1700D01*
X576Y1700D01*
X576Y1702D01*
X578Y1702D01*
X578Y1706D01*
X580Y1706D01*
X580Y1708D01*
X582Y1708D01*
X582Y1712D01*
X584Y1712D01*
X584Y1714D01*
X586Y1714D01*
X586Y1718D01*
X588Y1718D01*
X588Y1720D01*
X590Y1720D01*
X590Y1724D01*
X592Y1724D01*
X592Y1726D01*
X594Y1726D01*
X594Y1730D01*
X596Y1730D01*
X596Y1732D01*
X598Y1732D01*
X598Y1736D01*
X600Y1736D01*
X600Y1738D01*
X602Y1738D01*
X602Y1742D01*
X604Y1742D01*
X604Y1744D01*
X606Y1744D01*
X606Y1748D01*
X608Y1748D01*
X608Y1750D01*
X610Y1750D01*
X610Y1754D01*
X612Y1754D01*
X612Y1756D01*
X614Y1756D01*
X614Y1760D01*
X616Y1760D01*
X616Y1762D01*
X618Y1762D01*
X618Y1766D01*
X620Y1766D01*
X620Y1768D01*
X622Y1768D01*
X622Y1772D01*
X624Y1772D01*
X624Y1774D01*
X626Y1774D01*
X626Y1778D01*
X628Y1778D01*
X628Y1780D01*
X630Y1780D01*
X630Y1784D01*
X632Y1784D01*
X632Y1786D01*
X634Y1786D01*
X634Y1790D01*
X636Y1790D01*
X636Y1792D01*
X638Y1792D01*
X638Y1796D01*
X640Y1796D01*
X640Y1798D01*
X642Y1798D01*
X642Y1802D01*
X644Y1802D01*
X644Y1804D01*
X646Y1804D01*
X646Y1808D01*
X648Y1808D01*
X648Y1810D01*
X650Y1810D01*
X650Y1814D01*
X652Y1814D01*
X652Y1816D01*
X654Y1816D01*
X654Y1820D01*
X656Y1820D01*
X656Y1822D01*
X658Y1822D01*
X658Y1826D01*
X660Y1826D01*
X660Y1828D01*
X662Y1828D01*
X662Y1832D01*
X664Y1832D01*
X664Y1834D01*
X666Y1834D01*
X666Y1838D01*
X668Y1838D01*
X668Y1840D01*
X670Y1840D01*
X670Y1844D01*
X672Y1844D01*
X672Y1846D01*
X674Y1846D01*
X674Y1850D01*
X676Y1850D01*
X676Y1852D01*
X678Y1852D01*
X678Y1856D01*
X680Y1856D01*
X680Y1858D01*
X682Y1858D01*
X682Y1862D01*
X684Y1862D01*
X684Y1864D01*
X686Y1864D01*
X686Y1868D01*
X688Y1868D01*
X688Y1870D01*
X690Y1870D01*
X690Y1874D01*
X692Y1874D01*
X692Y1876D01*
X694Y1876D01*
X694Y1880D01*
X696Y1880D01*
X696Y1882D01*
X698Y1882D01*
X698Y1886D01*
X700Y1886D01*
X700Y1888D01*
X702Y1888D01*
X702Y1892D01*
X704Y1892D01*
X704Y1894D01*
X706Y1894D01*
X706Y1898D01*
X708Y1898D01*
X708Y1900D01*
X710Y1900D01*
X710Y1904D01*
X712Y1904D01*
X712Y1906D01*
X714Y1906D01*
X714Y1910D01*
X716Y1910D01*
X716Y1912D01*
X718Y1912D01*
X718Y1916D01*
X720Y1916D01*
X720Y1918D01*
X722Y1918D01*
X722Y1922D01*
X724Y1922D01*
X724Y1924D01*
X726Y1924D01*
X726Y1928D01*
X728Y1928D01*
X728Y1930D01*
X730Y1930D01*
X730Y1932D01*
X362Y1932D01*
G37*
D02*
G36*
X340Y1832D02*
X340Y1784D01*
X342Y1784D01*
X342Y1782D01*
X346Y1782D01*
X346Y1780D01*
X350Y1780D01*
X350Y1778D01*
X354Y1778D01*
X354Y1776D01*
X358Y1776D01*
X358Y1774D01*
X362Y1774D01*
X362Y1772D01*
X366Y1772D01*
X366Y1770D01*
X370Y1770D01*
X370Y1768D01*
X374Y1768D01*
X374Y1766D01*
X378Y1766D01*
X378Y1764D01*
X382Y1764D01*
X382Y1762D01*
X386Y1762D01*
X386Y1760D01*
X390Y1760D01*
X390Y1758D01*
X394Y1758D01*
X394Y1756D01*
X398Y1756D01*
X398Y1754D01*
X402Y1754D01*
X402Y1752D01*
X406Y1752D01*
X406Y1750D01*
X410Y1750D01*
X410Y1748D01*
X414Y1748D01*
X414Y1746D01*
X418Y1746D01*
X418Y1744D01*
X422Y1744D01*
X422Y1742D01*
X426Y1742D01*
X426Y1740D01*
X430Y1740D01*
X430Y1738D01*
X434Y1738D01*
X434Y1736D01*
X438Y1736D01*
X438Y1734D01*
X442Y1734D01*
X442Y1732D01*
X446Y1732D01*
X446Y1730D01*
X466Y1730D01*
X466Y1744D01*
X464Y1744D01*
X464Y1746D01*
X460Y1746D01*
X460Y1748D01*
X458Y1748D01*
X458Y1750D01*
X456Y1750D01*
X456Y1752D01*
X454Y1752D01*
X454Y1754D01*
X452Y1754D01*
X452Y1758D01*
X450Y1758D01*
X450Y1760D01*
X448Y1760D01*
X448Y1764D01*
X446Y1764D01*
X446Y1768D01*
X444Y1768D01*
X444Y1774D01*
X442Y1774D01*
X442Y1792D01*
X444Y1792D01*
X444Y1800D01*
X446Y1800D01*
X446Y1804D01*
X448Y1804D01*
X448Y1806D01*
X450Y1806D01*
X450Y1810D01*
X452Y1810D01*
X452Y1812D01*
X454Y1812D01*
X454Y1814D01*
X456Y1814D01*
X456Y1818D01*
X460Y1818D01*
X460Y1820D01*
X462Y1820D01*
X462Y1822D01*
X464Y1822D01*
X464Y1824D01*
X466Y1824D01*
X466Y1826D01*
X470Y1826D01*
X470Y1828D01*
X474Y1828D01*
X474Y1830D01*
X480Y1830D01*
X480Y1832D01*
X340Y1832D01*
G37*
D02*
G36*
X214Y1762D02*
X214Y1434D01*
X286Y1434D01*
X286Y1436D01*
X278Y1436D01*
X278Y1438D01*
X272Y1438D01*
X272Y1440D01*
X268Y1440D01*
X268Y1442D01*
X266Y1442D01*
X266Y1444D01*
X264Y1444D01*
X264Y1446D01*
X260Y1446D01*
X260Y1448D01*
X258Y1448D01*
X258Y1450D01*
X256Y1450D01*
X256Y1452D01*
X254Y1452D01*
X254Y1454D01*
X252Y1454D01*
X252Y1458D01*
X250Y1458D01*
X250Y1460D01*
X248Y1460D01*
X248Y1464D01*
X246Y1464D01*
X246Y1468D01*
X244Y1468D01*
X244Y1474D01*
X242Y1474D01*
X242Y1492D01*
X244Y1492D01*
X244Y1500D01*
X246Y1500D01*
X246Y1504D01*
X248Y1504D01*
X248Y1506D01*
X250Y1506D01*
X250Y1510D01*
X252Y1510D01*
X252Y1512D01*
X254Y1512D01*
X254Y1514D01*
X256Y1514D01*
X256Y1518D01*
X260Y1518D01*
X260Y1520D01*
X262Y1520D01*
X262Y1522D01*
X264Y1522D01*
X264Y1524D01*
X266Y1524D01*
X266Y1544D01*
X264Y1544D01*
X264Y1546D01*
X260Y1546D01*
X260Y1548D01*
X258Y1548D01*
X258Y1550D01*
X256Y1550D01*
X256Y1552D01*
X254Y1552D01*
X254Y1554D01*
X252Y1554D01*
X252Y1558D01*
X250Y1558D01*
X250Y1560D01*
X248Y1560D01*
X248Y1564D01*
X246Y1564D01*
X246Y1568D01*
X244Y1568D01*
X244Y1574D01*
X242Y1574D01*
X242Y1592D01*
X244Y1592D01*
X244Y1600D01*
X246Y1600D01*
X246Y1604D01*
X248Y1604D01*
X248Y1606D01*
X250Y1606D01*
X250Y1610D01*
X252Y1610D01*
X252Y1612D01*
X254Y1612D01*
X254Y1614D01*
X256Y1614D01*
X256Y1618D01*
X260Y1618D01*
X260Y1620D01*
X262Y1620D01*
X262Y1622D01*
X264Y1622D01*
X264Y1624D01*
X266Y1624D01*
X266Y1644D01*
X264Y1644D01*
X264Y1646D01*
X260Y1646D01*
X260Y1648D01*
X258Y1648D01*
X258Y1650D01*
X256Y1650D01*
X256Y1652D01*
X254Y1652D01*
X254Y1654D01*
X252Y1654D01*
X252Y1658D01*
X250Y1658D01*
X250Y1660D01*
X248Y1660D01*
X248Y1664D01*
X246Y1664D01*
X246Y1668D01*
X244Y1668D01*
X244Y1674D01*
X242Y1674D01*
X242Y1692D01*
X244Y1692D01*
X244Y1700D01*
X246Y1700D01*
X246Y1704D01*
X248Y1704D01*
X248Y1706D01*
X250Y1706D01*
X250Y1710D01*
X252Y1710D01*
X252Y1712D01*
X254Y1712D01*
X254Y1714D01*
X256Y1714D01*
X256Y1734D01*
X242Y1734D01*
X242Y1762D01*
X214Y1762D01*
G37*
D02*
G36*
X326Y1732D02*
X326Y1714D01*
X328Y1714D01*
X328Y1712D01*
X330Y1712D01*
X330Y1710D01*
X332Y1710D01*
X332Y1706D01*
X334Y1706D01*
X334Y1702D01*
X336Y1702D01*
X336Y1698D01*
X338Y1698D01*
X338Y1692D01*
X340Y1692D01*
X340Y1676D01*
X338Y1676D01*
X338Y1670D01*
X336Y1670D01*
X336Y1664D01*
X334Y1664D01*
X334Y1660D01*
X332Y1660D01*
X332Y1658D01*
X330Y1658D01*
X330Y1656D01*
X328Y1656D01*
X328Y1652D01*
X326Y1652D01*
X326Y1650D01*
X324Y1650D01*
X324Y1648D01*
X322Y1648D01*
X322Y1646D01*
X318Y1646D01*
X318Y1644D01*
X316Y1644D01*
X316Y1624D01*
X318Y1624D01*
X318Y1622D01*
X320Y1622D01*
X320Y1620D01*
X322Y1620D01*
X322Y1618D01*
X324Y1618D01*
X324Y1616D01*
X326Y1616D01*
X326Y1614D01*
X328Y1614D01*
X328Y1612D01*
X330Y1612D01*
X330Y1610D01*
X332Y1610D01*
X332Y1606D01*
X334Y1606D01*
X334Y1602D01*
X336Y1602D01*
X336Y1598D01*
X338Y1598D01*
X338Y1592D01*
X340Y1592D01*
X340Y1576D01*
X338Y1576D01*
X338Y1570D01*
X336Y1570D01*
X336Y1564D01*
X334Y1564D01*
X334Y1560D01*
X332Y1560D01*
X332Y1558D01*
X330Y1558D01*
X330Y1556D01*
X328Y1556D01*
X328Y1552D01*
X326Y1552D01*
X326Y1550D01*
X324Y1550D01*
X324Y1548D01*
X322Y1548D01*
X322Y1546D01*
X318Y1546D01*
X318Y1544D01*
X316Y1544D01*
X316Y1524D01*
X318Y1524D01*
X318Y1522D01*
X320Y1522D01*
X320Y1520D01*
X322Y1520D01*
X322Y1518D01*
X324Y1518D01*
X324Y1516D01*
X326Y1516D01*
X326Y1514D01*
X328Y1514D01*
X328Y1512D01*
X330Y1512D01*
X330Y1510D01*
X332Y1510D01*
X332Y1506D01*
X334Y1506D01*
X334Y1502D01*
X336Y1502D01*
X336Y1498D01*
X338Y1498D01*
X338Y1492D01*
X340Y1492D01*
X340Y1476D01*
X338Y1476D01*
X338Y1470D01*
X336Y1470D01*
X336Y1464D01*
X334Y1464D01*
X334Y1460D01*
X332Y1460D01*
X332Y1458D01*
X330Y1458D01*
X330Y1456D01*
X328Y1456D01*
X328Y1452D01*
X326Y1452D01*
X326Y1450D01*
X324Y1450D01*
X324Y1448D01*
X322Y1448D01*
X322Y1446D01*
X318Y1446D01*
X318Y1444D01*
X316Y1444D01*
X316Y1442D01*
X312Y1442D01*
X312Y1440D01*
X308Y1440D01*
X308Y1438D01*
X304Y1438D01*
X304Y1436D01*
X296Y1436D01*
X296Y1434D01*
X456Y1434D01*
X456Y1452D01*
X454Y1452D01*
X454Y1454D01*
X452Y1454D01*
X452Y1458D01*
X450Y1458D01*
X450Y1460D01*
X448Y1460D01*
X448Y1464D01*
X446Y1464D01*
X446Y1468D01*
X444Y1468D01*
X444Y1474D01*
X442Y1474D01*
X442Y1492D01*
X444Y1492D01*
X444Y1500D01*
X446Y1500D01*
X446Y1504D01*
X448Y1504D01*
X448Y1506D01*
X450Y1506D01*
X450Y1510D01*
X452Y1510D01*
X452Y1512D01*
X454Y1512D01*
X454Y1514D01*
X456Y1514D01*
X456Y1518D01*
X460Y1518D01*
X460Y1520D01*
X462Y1520D01*
X462Y1522D01*
X464Y1522D01*
X464Y1524D01*
X466Y1524D01*
X466Y1544D01*
X464Y1544D01*
X464Y1546D01*
X460Y1546D01*
X460Y1548D01*
X458Y1548D01*
X458Y1550D01*
X456Y1550D01*
X456Y1552D01*
X454Y1552D01*
X454Y1554D01*
X452Y1554D01*
X452Y1558D01*
X450Y1558D01*
X450Y1560D01*
X448Y1560D01*
X448Y1564D01*
X446Y1564D01*
X446Y1568D01*
X444Y1568D01*
X444Y1574D01*
X442Y1574D01*
X442Y1592D01*
X444Y1592D01*
X444Y1600D01*
X446Y1600D01*
X446Y1604D01*
X448Y1604D01*
X448Y1606D01*
X450Y1606D01*
X450Y1610D01*
X452Y1610D01*
X452Y1612D01*
X454Y1612D01*
X454Y1614D01*
X456Y1614D01*
X456Y1618D01*
X460Y1618D01*
X460Y1620D01*
X462Y1620D01*
X462Y1622D01*
X464Y1622D01*
X464Y1624D01*
X466Y1624D01*
X466Y1644D01*
X464Y1644D01*
X464Y1646D01*
X460Y1646D01*
X460Y1648D01*
X458Y1648D01*
X458Y1650D01*
X456Y1650D01*
X456Y1652D01*
X454Y1652D01*
X454Y1654D01*
X452Y1654D01*
X452Y1658D01*
X450Y1658D01*
X450Y1660D01*
X448Y1660D01*
X448Y1664D01*
X446Y1664D01*
X446Y1668D01*
X444Y1668D01*
X444Y1674D01*
X442Y1674D01*
X442Y1684D01*
X438Y1684D01*
X438Y1686D01*
X434Y1686D01*
X434Y1688D01*
X430Y1688D01*
X430Y1690D01*
X426Y1690D01*
X426Y1692D01*
X422Y1692D01*
X422Y1694D01*
X418Y1694D01*
X418Y1696D01*
X414Y1696D01*
X414Y1698D01*
X410Y1698D01*
X410Y1700D01*
X406Y1700D01*
X406Y1702D01*
X402Y1702D01*
X402Y1704D01*
X398Y1704D01*
X398Y1706D01*
X394Y1706D01*
X394Y1708D01*
X390Y1708D01*
X390Y1710D01*
X386Y1710D01*
X386Y1712D01*
X382Y1712D01*
X382Y1714D01*
X378Y1714D01*
X378Y1716D01*
X374Y1716D01*
X374Y1718D01*
X370Y1718D01*
X370Y1720D01*
X366Y1720D01*
X366Y1722D01*
X364Y1722D01*
X364Y1724D01*
X360Y1724D01*
X360Y1726D01*
X356Y1726D01*
X356Y1728D01*
X352Y1728D01*
X352Y1730D01*
X348Y1730D01*
X348Y1732D01*
X326Y1732D01*
G37*
D02*
G36*
X214Y1434D02*
X214Y1432D01*
X456Y1432D01*
X456Y1434D01*
X214Y1434D01*
G37*
D02*
G36*
X214Y1434D02*
X214Y1432D01*
X456Y1432D01*
X456Y1434D01*
X214Y1434D01*
G37*
D02*
G36*
X214Y1432D02*
X214Y1406D01*
X292Y1406D01*
X292Y1404D01*
X300Y1404D01*
X300Y1402D01*
X304Y1402D01*
X304Y1400D01*
X306Y1400D01*
X306Y1398D01*
X308Y1398D01*
X308Y1396D01*
X310Y1396D01*
X310Y1392D01*
X312Y1392D01*
X312Y1334D01*
X442Y1334D01*
X442Y1432D01*
X214Y1432D01*
G37*
D02*
G36*
X1314Y1432D02*
X1314Y1424D01*
X1316Y1424D01*
X1316Y1422D01*
X1318Y1422D01*
X1318Y1420D01*
X1320Y1420D01*
X1320Y1418D01*
X1322Y1418D01*
X1322Y1416D01*
X1324Y1416D01*
X1324Y1414D01*
X1326Y1414D01*
X1326Y1412D01*
X1328Y1412D01*
X1328Y1410D01*
X1330Y1410D01*
X1330Y1406D01*
X1450Y1406D01*
X1450Y1410D01*
X1452Y1410D01*
X1452Y1412D01*
X1454Y1412D01*
X1454Y1414D01*
X1456Y1414D01*
X1456Y1418D01*
X1460Y1418D01*
X1460Y1420D01*
X1462Y1420D01*
X1462Y1422D01*
X1464Y1422D01*
X1464Y1424D01*
X1466Y1424D01*
X1466Y1426D01*
X1470Y1426D01*
X1470Y1428D01*
X1474Y1428D01*
X1474Y1430D01*
X1480Y1430D01*
X1480Y1432D01*
X1314Y1432D01*
G37*
D02*
G36*
X800Y1362D02*
X800Y1360D01*
X850Y1360D01*
X850Y1362D01*
X800Y1362D01*
G37*
D02*
G36*
X1332Y1362D02*
X1332Y1360D01*
X1330Y1360D01*
X1330Y1358D01*
X1328Y1358D01*
X1328Y1356D01*
X1326Y1356D01*
X1326Y1352D01*
X1324Y1352D01*
X1324Y1350D01*
X1322Y1350D01*
X1322Y1348D01*
X1318Y1348D01*
X1318Y1346D01*
X1316Y1346D01*
X1316Y1344D01*
X1314Y1344D01*
X1314Y1324D01*
X1316Y1324D01*
X1316Y1322D01*
X1318Y1322D01*
X1318Y1320D01*
X1320Y1320D01*
X1320Y1318D01*
X1322Y1318D01*
X1322Y1316D01*
X1324Y1316D01*
X1324Y1314D01*
X1326Y1314D01*
X1326Y1312D01*
X1328Y1312D01*
X1328Y1310D01*
X1330Y1310D01*
X1330Y1306D01*
X1332Y1306D01*
X1332Y1304D01*
X1334Y1304D01*
X1334Y1300D01*
X1336Y1300D01*
X1336Y1294D01*
X1338Y1294D01*
X1338Y1274D01*
X1336Y1274D01*
X1336Y1268D01*
X1334Y1268D01*
X1334Y1264D01*
X1332Y1264D01*
X1332Y1260D01*
X1330Y1260D01*
X1330Y1258D01*
X1328Y1258D01*
X1328Y1256D01*
X1326Y1256D01*
X1326Y1252D01*
X1324Y1252D01*
X1324Y1250D01*
X1322Y1250D01*
X1322Y1248D01*
X1318Y1248D01*
X1318Y1246D01*
X1316Y1246D01*
X1316Y1244D01*
X1314Y1244D01*
X1314Y1234D01*
X1486Y1234D01*
X1486Y1236D01*
X1478Y1236D01*
X1478Y1238D01*
X1472Y1238D01*
X1472Y1240D01*
X1468Y1240D01*
X1468Y1242D01*
X1466Y1242D01*
X1466Y1244D01*
X1464Y1244D01*
X1464Y1246D01*
X1460Y1246D01*
X1460Y1248D01*
X1458Y1248D01*
X1458Y1250D01*
X1456Y1250D01*
X1456Y1252D01*
X1454Y1252D01*
X1454Y1254D01*
X1452Y1254D01*
X1452Y1258D01*
X1450Y1258D01*
X1450Y1260D01*
X1448Y1260D01*
X1448Y1264D01*
X1446Y1264D01*
X1446Y1268D01*
X1444Y1268D01*
X1444Y1274D01*
X1442Y1274D01*
X1442Y1292D01*
X1444Y1292D01*
X1444Y1300D01*
X1446Y1300D01*
X1446Y1304D01*
X1448Y1304D01*
X1448Y1306D01*
X1450Y1306D01*
X1450Y1310D01*
X1452Y1310D01*
X1452Y1312D01*
X1454Y1312D01*
X1454Y1314D01*
X1456Y1314D01*
X1456Y1318D01*
X1460Y1318D01*
X1460Y1320D01*
X1462Y1320D01*
X1462Y1322D01*
X1464Y1322D01*
X1464Y1324D01*
X1466Y1324D01*
X1466Y1344D01*
X1464Y1344D01*
X1464Y1346D01*
X1460Y1346D01*
X1460Y1348D01*
X1458Y1348D01*
X1458Y1350D01*
X1456Y1350D01*
X1456Y1352D01*
X1454Y1352D01*
X1454Y1354D01*
X1452Y1354D01*
X1452Y1358D01*
X1450Y1358D01*
X1450Y1360D01*
X1448Y1360D01*
X1448Y1362D01*
X1332Y1362D01*
G37*
D02*
G36*
X540Y1360D02*
X540Y1358D01*
X852Y1358D01*
X852Y1360D01*
X540Y1360D01*
G37*
D02*
G36*
X540Y1360D02*
X540Y1358D01*
X852Y1358D01*
X852Y1360D01*
X540Y1360D01*
G37*
D02*
G36*
X540Y1358D02*
X540Y1334D01*
X868Y1334D01*
X868Y1344D01*
X866Y1344D01*
X866Y1346D01*
X862Y1346D01*
X862Y1348D01*
X860Y1348D01*
X860Y1350D01*
X858Y1350D01*
X858Y1352D01*
X856Y1352D01*
X856Y1354D01*
X854Y1354D01*
X854Y1358D01*
X540Y1358D01*
G37*
D02*
G36*
X312Y1334D02*
X312Y1332D01*
X868Y1332D01*
X868Y1334D01*
X312Y1334D01*
G37*
D02*
G36*
X312Y1334D02*
X312Y1332D01*
X868Y1332D01*
X868Y1334D01*
X312Y1334D01*
G37*
D02*
G36*
X312Y1332D02*
X312Y1232D01*
X494Y1232D01*
X494Y1230D01*
X504Y1230D01*
X504Y1228D01*
X508Y1228D01*
X508Y1226D01*
X512Y1226D01*
X512Y1224D01*
X516Y1224D01*
X516Y1222D01*
X518Y1222D01*
X518Y1220D01*
X520Y1220D01*
X520Y1218D01*
X522Y1218D01*
X522Y1216D01*
X524Y1216D01*
X524Y1214D01*
X526Y1214D01*
X526Y1212D01*
X528Y1212D01*
X528Y1210D01*
X530Y1210D01*
X530Y1206D01*
X532Y1206D01*
X532Y1204D01*
X534Y1204D01*
X534Y1200D01*
X536Y1200D01*
X536Y1194D01*
X538Y1194D01*
X538Y1174D01*
X536Y1174D01*
X536Y1168D01*
X534Y1168D01*
X534Y1164D01*
X532Y1164D01*
X532Y1160D01*
X530Y1160D01*
X530Y1158D01*
X528Y1158D01*
X528Y1156D01*
X526Y1156D01*
X526Y1152D01*
X524Y1152D01*
X524Y1150D01*
X522Y1150D01*
X522Y1148D01*
X518Y1148D01*
X518Y1146D01*
X516Y1146D01*
X516Y1144D01*
X514Y1144D01*
X514Y1142D01*
X510Y1142D01*
X510Y1140D01*
X506Y1140D01*
X506Y1138D01*
X498Y1138D01*
X498Y1136D01*
X868Y1136D01*
X868Y1144D01*
X866Y1144D01*
X866Y1146D01*
X862Y1146D01*
X862Y1148D01*
X860Y1148D01*
X860Y1150D01*
X858Y1150D01*
X858Y1152D01*
X856Y1152D01*
X856Y1154D01*
X854Y1154D01*
X854Y1158D01*
X852Y1158D01*
X852Y1160D01*
X850Y1160D01*
X850Y1164D01*
X848Y1164D01*
X848Y1168D01*
X846Y1168D01*
X846Y1172D01*
X844Y1172D01*
X844Y1194D01*
X846Y1194D01*
X846Y1200D01*
X848Y1200D01*
X848Y1204D01*
X850Y1204D01*
X850Y1208D01*
X852Y1208D01*
X852Y1210D01*
X854Y1210D01*
X854Y1212D01*
X856Y1212D01*
X856Y1214D01*
X858Y1214D01*
X858Y1216D01*
X860Y1216D01*
X860Y1218D01*
X862Y1218D01*
X862Y1220D01*
X864Y1220D01*
X864Y1222D01*
X866Y1222D01*
X866Y1224D01*
X868Y1224D01*
X868Y1244D01*
X866Y1244D01*
X866Y1246D01*
X862Y1246D01*
X862Y1248D01*
X860Y1248D01*
X860Y1250D01*
X858Y1250D01*
X858Y1252D01*
X856Y1252D01*
X856Y1254D01*
X854Y1254D01*
X854Y1258D01*
X852Y1258D01*
X852Y1260D01*
X850Y1260D01*
X850Y1264D01*
X848Y1264D01*
X848Y1268D01*
X846Y1268D01*
X846Y1272D01*
X844Y1272D01*
X844Y1294D01*
X846Y1294D01*
X846Y1300D01*
X848Y1300D01*
X848Y1304D01*
X850Y1304D01*
X850Y1308D01*
X852Y1308D01*
X852Y1310D01*
X854Y1310D01*
X854Y1312D01*
X856Y1312D01*
X856Y1314D01*
X858Y1314D01*
X858Y1316D01*
X860Y1316D01*
X860Y1318D01*
X862Y1318D01*
X862Y1320D01*
X864Y1320D01*
X864Y1322D01*
X866Y1322D01*
X866Y1324D01*
X868Y1324D01*
X868Y1332D01*
X312Y1332D01*
G37*
D02*
G36*
X1314Y1234D02*
X1314Y1232D01*
X1608Y1232D01*
X1608Y1234D01*
X1314Y1234D01*
G37*
D02*
G36*
X1314Y1234D02*
X1314Y1232D01*
X1608Y1232D01*
X1608Y1234D01*
X1314Y1234D01*
G37*
D02*
G36*
X312Y1232D02*
X312Y934D01*
X386Y934D01*
X386Y936D01*
X378Y936D01*
X378Y938D01*
X372Y938D01*
X372Y940D01*
X368Y940D01*
X368Y942D01*
X366Y942D01*
X366Y944D01*
X364Y944D01*
X364Y946D01*
X360Y946D01*
X360Y948D01*
X358Y948D01*
X358Y950D01*
X356Y950D01*
X356Y952D01*
X354Y952D01*
X354Y954D01*
X352Y954D01*
X352Y958D01*
X350Y958D01*
X350Y960D01*
X348Y960D01*
X348Y964D01*
X346Y964D01*
X346Y968D01*
X344Y968D01*
X344Y974D01*
X342Y974D01*
X342Y992D01*
X344Y992D01*
X344Y1000D01*
X346Y1000D01*
X346Y1004D01*
X348Y1004D01*
X348Y1006D01*
X350Y1006D01*
X350Y1010D01*
X352Y1010D01*
X352Y1012D01*
X354Y1012D01*
X354Y1014D01*
X356Y1014D01*
X356Y1018D01*
X360Y1018D01*
X360Y1020D01*
X362Y1020D01*
X362Y1022D01*
X364Y1022D01*
X364Y1024D01*
X366Y1024D01*
X366Y1044D01*
X364Y1044D01*
X364Y1046D01*
X360Y1046D01*
X360Y1048D01*
X358Y1048D01*
X358Y1050D01*
X356Y1050D01*
X356Y1052D01*
X354Y1052D01*
X354Y1054D01*
X352Y1054D01*
X352Y1058D01*
X350Y1058D01*
X350Y1060D01*
X348Y1060D01*
X348Y1064D01*
X346Y1064D01*
X346Y1068D01*
X344Y1068D01*
X344Y1074D01*
X342Y1074D01*
X342Y1092D01*
X344Y1092D01*
X344Y1100D01*
X346Y1100D01*
X346Y1104D01*
X348Y1104D01*
X348Y1106D01*
X350Y1106D01*
X350Y1110D01*
X352Y1110D01*
X352Y1112D01*
X354Y1112D01*
X354Y1114D01*
X356Y1114D01*
X356Y1134D01*
X342Y1134D01*
X342Y1232D01*
X312Y1232D01*
G37*
D02*
G36*
X440Y1232D02*
X440Y1216D01*
X460Y1216D01*
X460Y1218D01*
X462Y1218D01*
X462Y1220D01*
X464Y1220D01*
X464Y1222D01*
X466Y1222D01*
X466Y1224D01*
X470Y1224D01*
X470Y1226D01*
X474Y1226D01*
X474Y1228D01*
X478Y1228D01*
X478Y1230D01*
X488Y1230D01*
X488Y1232D01*
X440Y1232D01*
G37*
D02*
G36*
X1314Y1232D02*
X1314Y1224D01*
X1316Y1224D01*
X1316Y1222D01*
X1318Y1222D01*
X1318Y1220D01*
X1320Y1220D01*
X1320Y1218D01*
X1322Y1218D01*
X1322Y1216D01*
X1324Y1216D01*
X1324Y1214D01*
X1326Y1214D01*
X1326Y1212D01*
X1328Y1212D01*
X1328Y1210D01*
X1330Y1210D01*
X1330Y1206D01*
X1332Y1206D01*
X1332Y1204D01*
X1334Y1204D01*
X1334Y1200D01*
X1336Y1200D01*
X1336Y1194D01*
X1338Y1194D01*
X1338Y1174D01*
X1336Y1174D01*
X1336Y1168D01*
X1334Y1168D01*
X1334Y1164D01*
X1332Y1164D01*
X1332Y1160D01*
X1330Y1160D01*
X1330Y1158D01*
X1328Y1158D01*
X1328Y1156D01*
X1326Y1156D01*
X1326Y1152D01*
X1324Y1152D01*
X1324Y1150D01*
X1322Y1150D01*
X1322Y1148D01*
X1318Y1148D01*
X1318Y1146D01*
X1316Y1146D01*
X1316Y1144D01*
X1314Y1144D01*
X1314Y1124D01*
X1316Y1124D01*
X1316Y1122D01*
X1318Y1122D01*
X1318Y1120D01*
X1320Y1120D01*
X1320Y1118D01*
X1322Y1118D01*
X1322Y1116D01*
X1324Y1116D01*
X1324Y1114D01*
X1326Y1114D01*
X1326Y1112D01*
X1328Y1112D01*
X1328Y1110D01*
X1330Y1110D01*
X1330Y1106D01*
X1332Y1106D01*
X1332Y1104D01*
X1334Y1104D01*
X1334Y1100D01*
X1336Y1100D01*
X1336Y1094D01*
X1338Y1094D01*
X1338Y1074D01*
X1336Y1074D01*
X1336Y1068D01*
X1334Y1068D01*
X1334Y1064D01*
X1332Y1064D01*
X1332Y1060D01*
X1330Y1060D01*
X1330Y1058D01*
X1328Y1058D01*
X1328Y1056D01*
X1326Y1056D01*
X1326Y1052D01*
X1324Y1052D01*
X1324Y1050D01*
X1322Y1050D01*
X1322Y1048D01*
X1318Y1048D01*
X1318Y1046D01*
X1316Y1046D01*
X1316Y1044D01*
X1314Y1044D01*
X1314Y1024D01*
X1316Y1024D01*
X1316Y1022D01*
X1318Y1022D01*
X1318Y1020D01*
X1320Y1020D01*
X1320Y1018D01*
X1322Y1018D01*
X1322Y1016D01*
X1324Y1016D01*
X1324Y1014D01*
X1326Y1014D01*
X1326Y1012D01*
X1328Y1012D01*
X1328Y1010D01*
X1330Y1010D01*
X1330Y1006D01*
X1332Y1006D01*
X1332Y1004D01*
X1334Y1004D01*
X1334Y1000D01*
X1336Y1000D01*
X1336Y994D01*
X1338Y994D01*
X1338Y974D01*
X1336Y974D01*
X1336Y968D01*
X1334Y968D01*
X1334Y964D01*
X1332Y964D01*
X1332Y960D01*
X1330Y960D01*
X1330Y958D01*
X1328Y958D01*
X1328Y956D01*
X1326Y956D01*
X1326Y952D01*
X1324Y952D01*
X1324Y950D01*
X1322Y950D01*
X1322Y948D01*
X1318Y948D01*
X1318Y946D01*
X1316Y946D01*
X1316Y944D01*
X1314Y944D01*
X1314Y932D01*
X1502Y932D01*
X1502Y930D01*
X1508Y930D01*
X1508Y928D01*
X1512Y928D01*
X1512Y926D01*
X1514Y926D01*
X1514Y924D01*
X1518Y924D01*
X1518Y922D01*
X1520Y922D01*
X1520Y920D01*
X1522Y920D01*
X1522Y918D01*
X1524Y918D01*
X1524Y916D01*
X1526Y916D01*
X1526Y914D01*
X1528Y914D01*
X1528Y912D01*
X1530Y912D01*
X1530Y910D01*
X1532Y910D01*
X1532Y906D01*
X1534Y906D01*
X1534Y902D01*
X1536Y902D01*
X1536Y898D01*
X1538Y898D01*
X1538Y892D01*
X1540Y892D01*
X1540Y876D01*
X1538Y876D01*
X1538Y870D01*
X1536Y870D01*
X1536Y864D01*
X1534Y864D01*
X1534Y860D01*
X1532Y860D01*
X1532Y858D01*
X1530Y858D01*
X1530Y856D01*
X1528Y856D01*
X1528Y852D01*
X1526Y852D01*
X1526Y850D01*
X1524Y850D01*
X1524Y848D01*
X1522Y848D01*
X1522Y846D01*
X1518Y846D01*
X1518Y844D01*
X1516Y844D01*
X1516Y824D01*
X1518Y824D01*
X1518Y822D01*
X1520Y822D01*
X1520Y820D01*
X1522Y820D01*
X1522Y818D01*
X1524Y818D01*
X1524Y816D01*
X1526Y816D01*
X1526Y814D01*
X1528Y814D01*
X1528Y812D01*
X1530Y812D01*
X1530Y810D01*
X1532Y810D01*
X1532Y806D01*
X1534Y806D01*
X1534Y802D01*
X1536Y802D01*
X1536Y798D01*
X1538Y798D01*
X1538Y792D01*
X1540Y792D01*
X1540Y776D01*
X1538Y776D01*
X1538Y770D01*
X1536Y770D01*
X1536Y764D01*
X1534Y764D01*
X1534Y760D01*
X1532Y760D01*
X1532Y758D01*
X1530Y758D01*
X1530Y756D01*
X1528Y756D01*
X1528Y752D01*
X1526Y752D01*
X1526Y750D01*
X1524Y750D01*
X1524Y748D01*
X1522Y748D01*
X1522Y746D01*
X1518Y746D01*
X1518Y744D01*
X1516Y744D01*
X1516Y742D01*
X1512Y742D01*
X1512Y740D01*
X1508Y740D01*
X1508Y738D01*
X1504Y738D01*
X1504Y736D01*
X1496Y736D01*
X1496Y734D01*
X1608Y734D01*
X1608Y1232D01*
X1314Y1232D01*
G37*
D02*
G36*
X440Y1150D02*
X440Y1136D01*
X484Y1136D01*
X484Y1138D01*
X476Y1138D01*
X476Y1140D01*
X472Y1140D01*
X472Y1142D01*
X468Y1142D01*
X468Y1144D01*
X466Y1144D01*
X466Y1146D01*
X462Y1146D01*
X462Y1148D01*
X460Y1148D01*
X460Y1150D01*
X440Y1150D01*
G37*
D02*
G36*
X440Y1136D02*
X440Y1134D01*
X868Y1134D01*
X868Y1136D01*
X440Y1136D01*
G37*
D02*
G36*
X440Y1136D02*
X440Y1134D01*
X868Y1134D01*
X868Y1136D01*
X440Y1136D01*
G37*
D02*
G36*
X426Y1134D02*
X426Y1114D01*
X428Y1114D01*
X428Y1112D01*
X430Y1112D01*
X430Y1110D01*
X432Y1110D01*
X432Y1106D01*
X434Y1106D01*
X434Y1102D01*
X436Y1102D01*
X436Y1098D01*
X438Y1098D01*
X438Y1092D01*
X440Y1092D01*
X440Y1076D01*
X438Y1076D01*
X438Y1070D01*
X436Y1070D01*
X436Y1064D01*
X434Y1064D01*
X434Y1060D01*
X432Y1060D01*
X432Y1058D01*
X430Y1058D01*
X430Y1056D01*
X428Y1056D01*
X428Y1052D01*
X426Y1052D01*
X426Y1050D01*
X424Y1050D01*
X424Y1048D01*
X422Y1048D01*
X422Y1046D01*
X418Y1046D01*
X418Y1044D01*
X416Y1044D01*
X416Y1024D01*
X418Y1024D01*
X418Y1022D01*
X420Y1022D01*
X420Y1020D01*
X422Y1020D01*
X422Y1018D01*
X424Y1018D01*
X424Y1016D01*
X426Y1016D01*
X426Y1014D01*
X428Y1014D01*
X428Y1012D01*
X430Y1012D01*
X430Y1010D01*
X432Y1010D01*
X432Y1006D01*
X434Y1006D01*
X434Y1002D01*
X436Y1002D01*
X436Y998D01*
X438Y998D01*
X438Y992D01*
X440Y992D01*
X440Y976D01*
X438Y976D01*
X438Y970D01*
X436Y970D01*
X436Y964D01*
X434Y964D01*
X434Y960D01*
X432Y960D01*
X432Y958D01*
X430Y958D01*
X430Y956D01*
X428Y956D01*
X428Y952D01*
X426Y952D01*
X426Y950D01*
X424Y950D01*
X424Y948D01*
X422Y948D01*
X422Y946D01*
X418Y946D01*
X418Y944D01*
X416Y944D01*
X416Y942D01*
X412Y942D01*
X412Y940D01*
X408Y940D01*
X408Y938D01*
X404Y938D01*
X404Y936D01*
X396Y936D01*
X396Y934D01*
X568Y934D01*
X568Y1092D01*
X570Y1092D01*
X570Y1096D01*
X572Y1096D01*
X572Y1098D01*
X574Y1098D01*
X574Y1100D01*
X576Y1100D01*
X576Y1102D01*
X578Y1102D01*
X578Y1104D01*
X582Y1104D01*
X582Y1106D01*
X850Y1106D01*
X850Y1108D01*
X852Y1108D01*
X852Y1110D01*
X854Y1110D01*
X854Y1112D01*
X856Y1112D01*
X856Y1114D01*
X858Y1114D01*
X858Y1116D01*
X860Y1116D01*
X860Y1118D01*
X862Y1118D01*
X862Y1120D01*
X864Y1120D01*
X864Y1122D01*
X866Y1122D01*
X866Y1124D01*
X868Y1124D01*
X868Y1134D01*
X426Y1134D01*
G37*
D02*
G36*
X312Y934D02*
X312Y932D01*
X568Y932D01*
X568Y934D01*
X312Y934D01*
G37*
D02*
G36*
X312Y934D02*
X312Y932D01*
X568Y932D01*
X568Y934D01*
X312Y934D01*
G37*
D02*
G36*
X312Y932D02*
X312Y832D01*
X494Y832D01*
X494Y830D01*
X504Y830D01*
X504Y828D01*
X508Y828D01*
X508Y826D01*
X512Y826D01*
X512Y824D01*
X516Y824D01*
X516Y822D01*
X518Y822D01*
X518Y820D01*
X520Y820D01*
X520Y818D01*
X522Y818D01*
X522Y816D01*
X524Y816D01*
X524Y814D01*
X526Y814D01*
X526Y812D01*
X528Y812D01*
X528Y810D01*
X530Y810D01*
X530Y806D01*
X532Y806D01*
X532Y804D01*
X534Y804D01*
X534Y800D01*
X536Y800D01*
X536Y794D01*
X538Y794D01*
X538Y774D01*
X536Y774D01*
X536Y768D01*
X534Y768D01*
X534Y764D01*
X532Y764D01*
X532Y760D01*
X530Y760D01*
X530Y758D01*
X528Y758D01*
X528Y756D01*
X526Y756D01*
X526Y752D01*
X524Y752D01*
X524Y750D01*
X522Y750D01*
X522Y748D01*
X518Y748D01*
X518Y746D01*
X516Y746D01*
X516Y744D01*
X514Y744D01*
X514Y724D01*
X516Y724D01*
X516Y722D01*
X518Y722D01*
X518Y720D01*
X520Y720D01*
X520Y718D01*
X522Y718D01*
X522Y716D01*
X524Y716D01*
X524Y714D01*
X526Y714D01*
X526Y712D01*
X528Y712D01*
X528Y710D01*
X530Y710D01*
X530Y706D01*
X532Y706D01*
X532Y704D01*
X534Y704D01*
X534Y700D01*
X536Y700D01*
X536Y694D01*
X538Y694D01*
X538Y674D01*
X536Y674D01*
X536Y668D01*
X534Y668D01*
X534Y664D01*
X532Y664D01*
X532Y660D01*
X530Y660D01*
X530Y658D01*
X528Y658D01*
X528Y656D01*
X526Y656D01*
X526Y652D01*
X524Y652D01*
X524Y650D01*
X522Y650D01*
X522Y648D01*
X518Y648D01*
X518Y646D01*
X516Y646D01*
X516Y644D01*
X514Y644D01*
X514Y642D01*
X510Y642D01*
X510Y640D01*
X506Y640D01*
X506Y638D01*
X498Y638D01*
X498Y636D01*
X568Y636D01*
X568Y932D01*
X312Y932D01*
G37*
D02*
G36*
X1314Y932D02*
X1314Y924D01*
X1316Y924D01*
X1316Y922D01*
X1318Y922D01*
X1318Y920D01*
X1320Y920D01*
X1320Y918D01*
X1322Y918D01*
X1322Y916D01*
X1324Y916D01*
X1324Y914D01*
X1326Y914D01*
X1326Y912D01*
X1328Y912D01*
X1328Y910D01*
X1330Y910D01*
X1330Y906D01*
X1450Y906D01*
X1450Y910D01*
X1452Y910D01*
X1452Y912D01*
X1454Y912D01*
X1454Y914D01*
X1456Y914D01*
X1456Y918D01*
X1460Y918D01*
X1460Y920D01*
X1462Y920D01*
X1462Y922D01*
X1464Y922D01*
X1464Y924D01*
X1466Y924D01*
X1466Y926D01*
X1470Y926D01*
X1470Y928D01*
X1474Y928D01*
X1474Y930D01*
X1480Y930D01*
X1480Y932D01*
X1314Y932D01*
G37*
D02*
G36*
X1332Y862D02*
X1332Y860D01*
X1330Y860D01*
X1330Y858D01*
X1328Y858D01*
X1328Y856D01*
X1326Y856D01*
X1326Y852D01*
X1324Y852D01*
X1324Y850D01*
X1322Y850D01*
X1322Y848D01*
X1318Y848D01*
X1318Y846D01*
X1316Y846D01*
X1316Y844D01*
X1314Y844D01*
X1314Y824D01*
X1316Y824D01*
X1316Y822D01*
X1318Y822D01*
X1318Y820D01*
X1320Y820D01*
X1320Y818D01*
X1322Y818D01*
X1322Y816D01*
X1324Y816D01*
X1324Y814D01*
X1326Y814D01*
X1326Y812D01*
X1328Y812D01*
X1328Y810D01*
X1330Y810D01*
X1330Y806D01*
X1332Y806D01*
X1332Y804D01*
X1334Y804D01*
X1334Y800D01*
X1336Y800D01*
X1336Y794D01*
X1338Y794D01*
X1338Y774D01*
X1336Y774D01*
X1336Y768D01*
X1334Y768D01*
X1334Y764D01*
X1332Y764D01*
X1332Y760D01*
X1330Y760D01*
X1330Y758D01*
X1328Y758D01*
X1328Y756D01*
X1326Y756D01*
X1326Y752D01*
X1324Y752D01*
X1324Y750D01*
X1322Y750D01*
X1322Y748D01*
X1318Y748D01*
X1318Y746D01*
X1316Y746D01*
X1316Y744D01*
X1314Y744D01*
X1314Y734D01*
X1486Y734D01*
X1486Y736D01*
X1478Y736D01*
X1478Y738D01*
X1472Y738D01*
X1472Y740D01*
X1468Y740D01*
X1468Y742D01*
X1466Y742D01*
X1466Y744D01*
X1464Y744D01*
X1464Y746D01*
X1460Y746D01*
X1460Y748D01*
X1458Y748D01*
X1458Y750D01*
X1456Y750D01*
X1456Y752D01*
X1454Y752D01*
X1454Y754D01*
X1452Y754D01*
X1452Y758D01*
X1450Y758D01*
X1450Y760D01*
X1448Y760D01*
X1448Y764D01*
X1446Y764D01*
X1446Y768D01*
X1444Y768D01*
X1444Y774D01*
X1442Y774D01*
X1442Y792D01*
X1444Y792D01*
X1444Y800D01*
X1446Y800D01*
X1446Y804D01*
X1448Y804D01*
X1448Y806D01*
X1450Y806D01*
X1450Y810D01*
X1452Y810D01*
X1452Y812D01*
X1454Y812D01*
X1454Y814D01*
X1456Y814D01*
X1456Y818D01*
X1460Y818D01*
X1460Y820D01*
X1462Y820D01*
X1462Y822D01*
X1464Y822D01*
X1464Y824D01*
X1466Y824D01*
X1466Y844D01*
X1464Y844D01*
X1464Y846D01*
X1460Y846D01*
X1460Y848D01*
X1458Y848D01*
X1458Y850D01*
X1456Y850D01*
X1456Y852D01*
X1454Y852D01*
X1454Y854D01*
X1452Y854D01*
X1452Y858D01*
X1450Y858D01*
X1450Y860D01*
X1448Y860D01*
X1448Y862D01*
X1332Y862D01*
G37*
D02*
G36*
X312Y832D02*
X312Y636D01*
X484Y636D01*
X484Y638D01*
X476Y638D01*
X476Y640D01*
X472Y640D01*
X472Y642D01*
X468Y642D01*
X468Y644D01*
X466Y644D01*
X466Y646D01*
X462Y646D01*
X462Y648D01*
X460Y648D01*
X460Y650D01*
X458Y650D01*
X458Y652D01*
X456Y652D01*
X456Y654D01*
X454Y654D01*
X454Y658D01*
X452Y658D01*
X452Y660D01*
X450Y660D01*
X450Y664D01*
X448Y664D01*
X448Y668D01*
X446Y668D01*
X446Y672D01*
X444Y672D01*
X444Y694D01*
X446Y694D01*
X446Y700D01*
X448Y700D01*
X448Y704D01*
X450Y704D01*
X450Y708D01*
X452Y708D01*
X452Y710D01*
X454Y710D01*
X454Y712D01*
X456Y712D01*
X456Y714D01*
X458Y714D01*
X458Y716D01*
X460Y716D01*
X460Y718D01*
X462Y718D01*
X462Y720D01*
X464Y720D01*
X464Y722D01*
X466Y722D01*
X466Y724D01*
X468Y724D01*
X468Y744D01*
X466Y744D01*
X466Y746D01*
X462Y746D01*
X462Y748D01*
X460Y748D01*
X460Y750D01*
X458Y750D01*
X458Y752D01*
X456Y752D01*
X456Y754D01*
X454Y754D01*
X454Y758D01*
X452Y758D01*
X452Y760D01*
X450Y760D01*
X450Y764D01*
X448Y764D01*
X448Y768D01*
X446Y768D01*
X446Y772D01*
X444Y772D01*
X444Y794D01*
X446Y794D01*
X446Y800D01*
X448Y800D01*
X448Y804D01*
X450Y804D01*
X450Y808D01*
X452Y808D01*
X452Y810D01*
X454Y810D01*
X454Y812D01*
X456Y812D01*
X456Y814D01*
X458Y814D01*
X458Y816D01*
X460Y816D01*
X460Y818D01*
X462Y818D01*
X462Y820D01*
X464Y820D01*
X464Y822D01*
X466Y822D01*
X466Y824D01*
X470Y824D01*
X470Y826D01*
X474Y826D01*
X474Y828D01*
X478Y828D01*
X478Y830D01*
X488Y830D01*
X488Y832D01*
X312Y832D01*
G37*
D02*
G36*
X1314Y734D02*
X1314Y732D01*
X1608Y732D01*
X1608Y734D01*
X1314Y734D01*
G37*
D02*
G36*
X1314Y734D02*
X1314Y732D01*
X1608Y732D01*
X1608Y734D01*
X1314Y734D01*
G37*
D02*
G36*
X1314Y732D02*
X1314Y724D01*
X1316Y724D01*
X1316Y722D01*
X1318Y722D01*
X1318Y720D01*
X1320Y720D01*
X1320Y718D01*
X1322Y718D01*
X1322Y716D01*
X1324Y716D01*
X1324Y714D01*
X1326Y714D01*
X1326Y712D01*
X1328Y712D01*
X1328Y710D01*
X1330Y710D01*
X1330Y706D01*
X1332Y706D01*
X1332Y704D01*
X1334Y704D01*
X1334Y700D01*
X1336Y700D01*
X1336Y694D01*
X1338Y694D01*
X1338Y674D01*
X1336Y674D01*
X1336Y668D01*
X1334Y668D01*
X1334Y664D01*
X1332Y664D01*
X1332Y660D01*
X1330Y660D01*
X1330Y658D01*
X1328Y658D01*
X1328Y656D01*
X1326Y656D01*
X1326Y652D01*
X1324Y652D01*
X1324Y650D01*
X1322Y650D01*
X1322Y648D01*
X1318Y648D01*
X1318Y646D01*
X1316Y646D01*
X1316Y644D01*
X1314Y644D01*
X1314Y632D01*
X1502Y632D01*
X1502Y630D01*
X1508Y630D01*
X1508Y628D01*
X1512Y628D01*
X1512Y626D01*
X1514Y626D01*
X1514Y624D01*
X1518Y624D01*
X1518Y622D01*
X1520Y622D01*
X1520Y620D01*
X1522Y620D01*
X1522Y618D01*
X1524Y618D01*
X1524Y616D01*
X1526Y616D01*
X1526Y614D01*
X1528Y614D01*
X1528Y612D01*
X1530Y612D01*
X1530Y610D01*
X1532Y610D01*
X1532Y606D01*
X1534Y606D01*
X1534Y602D01*
X1536Y602D01*
X1536Y598D01*
X1538Y598D01*
X1538Y592D01*
X1540Y592D01*
X1540Y576D01*
X1538Y576D01*
X1538Y570D01*
X1536Y570D01*
X1536Y564D01*
X1534Y564D01*
X1534Y560D01*
X1532Y560D01*
X1532Y558D01*
X1530Y558D01*
X1530Y556D01*
X1528Y556D01*
X1528Y552D01*
X1526Y552D01*
X1526Y550D01*
X1524Y550D01*
X1524Y548D01*
X1522Y548D01*
X1522Y546D01*
X1518Y546D01*
X1518Y544D01*
X1516Y544D01*
X1516Y524D01*
X1518Y524D01*
X1518Y522D01*
X1520Y522D01*
X1520Y520D01*
X1522Y520D01*
X1522Y518D01*
X1524Y518D01*
X1524Y516D01*
X1526Y516D01*
X1526Y514D01*
X1528Y514D01*
X1528Y512D01*
X1530Y512D01*
X1530Y510D01*
X1532Y510D01*
X1532Y506D01*
X1534Y506D01*
X1534Y502D01*
X1536Y502D01*
X1536Y498D01*
X1538Y498D01*
X1538Y492D01*
X1540Y492D01*
X1540Y476D01*
X1538Y476D01*
X1538Y470D01*
X1536Y470D01*
X1536Y464D01*
X1534Y464D01*
X1534Y460D01*
X1532Y460D01*
X1532Y458D01*
X1530Y458D01*
X1530Y456D01*
X1528Y456D01*
X1528Y452D01*
X1526Y452D01*
X1526Y450D01*
X1524Y450D01*
X1524Y448D01*
X1522Y448D01*
X1522Y446D01*
X1518Y446D01*
X1518Y444D01*
X1516Y444D01*
X1516Y442D01*
X1512Y442D01*
X1512Y440D01*
X1508Y440D01*
X1508Y438D01*
X1504Y438D01*
X1504Y436D01*
X1496Y436D01*
X1496Y434D01*
X1608Y434D01*
X1608Y732D01*
X1314Y732D01*
G37*
D02*
G36*
X312Y636D02*
X312Y634D01*
X568Y634D01*
X568Y636D01*
X312Y636D01*
G37*
D02*
G36*
X312Y636D02*
X312Y634D01*
X568Y634D01*
X568Y636D01*
X312Y636D01*
G37*
D02*
G36*
X312Y634D02*
X312Y532D01*
X502Y532D01*
X502Y530D01*
X508Y530D01*
X508Y528D01*
X512Y528D01*
X512Y526D01*
X514Y526D01*
X514Y524D01*
X518Y524D01*
X518Y522D01*
X520Y522D01*
X520Y520D01*
X522Y520D01*
X522Y518D01*
X524Y518D01*
X524Y516D01*
X526Y516D01*
X526Y514D01*
X528Y514D01*
X528Y512D01*
X530Y512D01*
X530Y510D01*
X532Y510D01*
X532Y506D01*
X534Y506D01*
X534Y502D01*
X536Y502D01*
X536Y498D01*
X538Y498D01*
X538Y492D01*
X540Y492D01*
X540Y476D01*
X538Y476D01*
X538Y470D01*
X536Y470D01*
X536Y464D01*
X534Y464D01*
X534Y460D01*
X532Y460D01*
X532Y458D01*
X530Y458D01*
X530Y456D01*
X528Y456D01*
X528Y452D01*
X526Y452D01*
X526Y450D01*
X524Y450D01*
X524Y448D01*
X522Y448D01*
X522Y446D01*
X518Y446D01*
X518Y444D01*
X516Y444D01*
X516Y442D01*
X512Y442D01*
X512Y440D01*
X508Y440D01*
X508Y438D01*
X504Y438D01*
X504Y436D01*
X496Y436D01*
X496Y434D01*
X568Y434D01*
X568Y634D01*
X312Y634D01*
G37*
D02*
G36*
X1314Y632D02*
X1314Y624D01*
X1316Y624D01*
X1316Y622D01*
X1318Y622D01*
X1318Y620D01*
X1320Y620D01*
X1320Y618D01*
X1322Y618D01*
X1322Y616D01*
X1324Y616D01*
X1324Y614D01*
X1326Y614D01*
X1326Y612D01*
X1328Y612D01*
X1328Y610D01*
X1330Y610D01*
X1330Y606D01*
X1450Y606D01*
X1450Y610D01*
X1452Y610D01*
X1452Y612D01*
X1454Y612D01*
X1454Y614D01*
X1456Y614D01*
X1456Y618D01*
X1460Y618D01*
X1460Y620D01*
X1462Y620D01*
X1462Y622D01*
X1464Y622D01*
X1464Y624D01*
X1466Y624D01*
X1466Y626D01*
X1470Y626D01*
X1470Y628D01*
X1474Y628D01*
X1474Y630D01*
X1480Y630D01*
X1480Y632D01*
X1314Y632D01*
G37*
D02*
G36*
X1332Y562D02*
X1332Y560D01*
X1330Y560D01*
X1330Y558D01*
X1328Y558D01*
X1328Y556D01*
X1326Y556D01*
X1326Y552D01*
X1324Y552D01*
X1324Y550D01*
X1322Y550D01*
X1322Y548D01*
X1318Y548D01*
X1318Y546D01*
X1316Y546D01*
X1316Y544D01*
X1314Y544D01*
X1314Y524D01*
X1316Y524D01*
X1316Y522D01*
X1318Y522D01*
X1318Y520D01*
X1320Y520D01*
X1320Y518D01*
X1322Y518D01*
X1322Y516D01*
X1324Y516D01*
X1324Y514D01*
X1326Y514D01*
X1326Y512D01*
X1328Y512D01*
X1328Y510D01*
X1330Y510D01*
X1330Y506D01*
X1332Y506D01*
X1332Y504D01*
X1334Y504D01*
X1334Y500D01*
X1336Y500D01*
X1336Y494D01*
X1338Y494D01*
X1338Y474D01*
X1336Y474D01*
X1336Y468D01*
X1334Y468D01*
X1334Y464D01*
X1332Y464D01*
X1332Y460D01*
X1330Y460D01*
X1330Y458D01*
X1328Y458D01*
X1328Y456D01*
X1326Y456D01*
X1326Y452D01*
X1324Y452D01*
X1324Y450D01*
X1322Y450D01*
X1322Y448D01*
X1318Y448D01*
X1318Y446D01*
X1316Y446D01*
X1316Y444D01*
X1314Y444D01*
X1314Y434D01*
X1486Y434D01*
X1486Y436D01*
X1478Y436D01*
X1478Y438D01*
X1472Y438D01*
X1472Y440D01*
X1468Y440D01*
X1468Y442D01*
X1466Y442D01*
X1466Y444D01*
X1464Y444D01*
X1464Y446D01*
X1460Y446D01*
X1460Y448D01*
X1458Y448D01*
X1458Y450D01*
X1456Y450D01*
X1456Y452D01*
X1454Y452D01*
X1454Y454D01*
X1452Y454D01*
X1452Y458D01*
X1450Y458D01*
X1450Y460D01*
X1448Y460D01*
X1448Y464D01*
X1446Y464D01*
X1446Y468D01*
X1444Y468D01*
X1444Y474D01*
X1442Y474D01*
X1442Y492D01*
X1444Y492D01*
X1444Y500D01*
X1446Y500D01*
X1446Y504D01*
X1448Y504D01*
X1448Y506D01*
X1450Y506D01*
X1450Y510D01*
X1452Y510D01*
X1452Y512D01*
X1454Y512D01*
X1454Y514D01*
X1456Y514D01*
X1456Y518D01*
X1460Y518D01*
X1460Y520D01*
X1462Y520D01*
X1462Y522D01*
X1464Y522D01*
X1464Y524D01*
X1466Y524D01*
X1466Y544D01*
X1464Y544D01*
X1464Y546D01*
X1460Y546D01*
X1460Y548D01*
X1458Y548D01*
X1458Y550D01*
X1456Y550D01*
X1456Y552D01*
X1454Y552D01*
X1454Y554D01*
X1452Y554D01*
X1452Y558D01*
X1450Y558D01*
X1450Y560D01*
X1448Y560D01*
X1448Y562D01*
X1332Y562D01*
G37*
D02*
G36*
X340Y532D02*
X340Y518D01*
X360Y518D01*
X360Y520D01*
X362Y520D01*
X362Y522D01*
X364Y522D01*
X364Y524D01*
X366Y524D01*
X366Y526D01*
X370Y526D01*
X370Y528D01*
X374Y528D01*
X374Y530D01*
X380Y530D01*
X380Y532D01*
X340Y532D01*
G37*
D02*
G36*
X402Y532D02*
X402Y530D01*
X408Y530D01*
X408Y528D01*
X412Y528D01*
X412Y526D01*
X414Y526D01*
X414Y524D01*
X418Y524D01*
X418Y522D01*
X420Y522D01*
X420Y520D01*
X422Y520D01*
X422Y518D01*
X424Y518D01*
X424Y516D01*
X426Y516D01*
X426Y514D01*
X428Y514D01*
X428Y512D01*
X430Y512D01*
X430Y510D01*
X452Y510D01*
X452Y512D01*
X454Y512D01*
X454Y514D01*
X456Y514D01*
X456Y518D01*
X460Y518D01*
X460Y520D01*
X462Y520D01*
X462Y522D01*
X464Y522D01*
X464Y524D01*
X466Y524D01*
X466Y526D01*
X470Y526D01*
X470Y528D01*
X474Y528D01*
X474Y530D01*
X480Y530D01*
X480Y532D01*
X402Y532D01*
G37*
D02*
G36*
X430Y458D02*
X430Y456D01*
X428Y456D01*
X428Y452D01*
X426Y452D01*
X426Y450D01*
X424Y450D01*
X424Y448D01*
X422Y448D01*
X422Y446D01*
X418Y446D01*
X418Y444D01*
X416Y444D01*
X416Y442D01*
X412Y442D01*
X412Y440D01*
X408Y440D01*
X408Y438D01*
X404Y438D01*
X404Y436D01*
X396Y436D01*
X396Y434D01*
X486Y434D01*
X486Y436D01*
X478Y436D01*
X478Y438D01*
X472Y438D01*
X472Y440D01*
X468Y440D01*
X468Y442D01*
X466Y442D01*
X466Y444D01*
X464Y444D01*
X464Y446D01*
X460Y446D01*
X460Y448D01*
X458Y448D01*
X458Y450D01*
X456Y450D01*
X456Y452D01*
X454Y452D01*
X454Y454D01*
X452Y454D01*
X452Y458D01*
X430Y458D01*
G37*
D02*
G36*
X340Y448D02*
X340Y434D01*
X386Y434D01*
X386Y436D01*
X378Y436D01*
X378Y438D01*
X372Y438D01*
X372Y440D01*
X368Y440D01*
X368Y442D01*
X366Y442D01*
X366Y444D01*
X364Y444D01*
X364Y446D01*
X360Y446D01*
X360Y448D01*
X340Y448D01*
G37*
D02*
G36*
X312Y434D02*
X312Y432D01*
X568Y432D01*
X568Y434D01*
X312Y434D01*
G37*
D02*
G36*
X312Y434D02*
X312Y432D01*
X568Y432D01*
X568Y434D01*
X312Y434D01*
G37*
D02*
G36*
X312Y434D02*
X312Y432D01*
X568Y432D01*
X568Y434D01*
X312Y434D01*
G37*
D02*
G36*
X1314Y434D02*
X1314Y432D01*
X1608Y432D01*
X1608Y434D01*
X1314Y434D01*
G37*
D02*
G36*
X1314Y434D02*
X1314Y432D01*
X1608Y432D01*
X1608Y434D01*
X1314Y434D01*
G37*
D02*
G36*
X312Y432D02*
X312Y332D01*
X502Y332D01*
X502Y330D01*
X508Y330D01*
X508Y328D01*
X512Y328D01*
X512Y326D01*
X514Y326D01*
X514Y324D01*
X518Y324D01*
X518Y322D01*
X520Y322D01*
X520Y320D01*
X522Y320D01*
X522Y318D01*
X524Y318D01*
X524Y316D01*
X526Y316D01*
X526Y314D01*
X528Y314D01*
X528Y312D01*
X530Y312D01*
X530Y310D01*
X532Y310D01*
X532Y306D01*
X534Y306D01*
X534Y302D01*
X536Y302D01*
X536Y298D01*
X538Y298D01*
X538Y292D01*
X540Y292D01*
X540Y276D01*
X538Y276D01*
X538Y270D01*
X536Y270D01*
X536Y264D01*
X534Y264D01*
X534Y260D01*
X532Y260D01*
X532Y258D01*
X530Y258D01*
X530Y256D01*
X528Y256D01*
X528Y252D01*
X526Y252D01*
X526Y250D01*
X524Y250D01*
X524Y248D01*
X522Y248D01*
X522Y246D01*
X518Y246D01*
X518Y244D01*
X516Y244D01*
X516Y242D01*
X512Y242D01*
X512Y240D01*
X508Y240D01*
X508Y238D01*
X504Y238D01*
X504Y236D01*
X496Y236D01*
X496Y234D01*
X490Y234D01*
X490Y214D01*
X492Y214D01*
X492Y212D01*
X494Y212D01*
X494Y210D01*
X496Y210D01*
X496Y208D01*
X498Y208D01*
X498Y206D01*
X500Y206D01*
X500Y204D01*
X502Y204D01*
X502Y202D01*
X504Y202D01*
X504Y200D01*
X506Y200D01*
X506Y198D01*
X508Y198D01*
X508Y196D01*
X510Y196D01*
X510Y194D01*
X512Y194D01*
X512Y192D01*
X514Y192D01*
X514Y190D01*
X516Y190D01*
X516Y188D01*
X518Y188D01*
X518Y186D01*
X520Y186D01*
X520Y184D01*
X522Y184D01*
X522Y182D01*
X524Y182D01*
X524Y180D01*
X526Y180D01*
X526Y178D01*
X528Y178D01*
X528Y176D01*
X530Y176D01*
X530Y174D01*
X532Y174D01*
X532Y172D01*
X534Y172D01*
X534Y170D01*
X536Y170D01*
X536Y168D01*
X538Y168D01*
X538Y166D01*
X540Y166D01*
X540Y164D01*
X542Y164D01*
X542Y162D01*
X586Y162D01*
X586Y164D01*
X580Y164D01*
X580Y166D01*
X576Y166D01*
X576Y168D01*
X574Y168D01*
X574Y170D01*
X572Y170D01*
X572Y174D01*
X570Y174D01*
X570Y178D01*
X568Y178D01*
X568Y432D01*
X312Y432D01*
G37*
D02*
G36*
X1314Y432D02*
X1314Y424D01*
X1316Y424D01*
X1316Y422D01*
X1318Y422D01*
X1318Y420D01*
X1320Y420D01*
X1320Y418D01*
X1322Y418D01*
X1322Y416D01*
X1324Y416D01*
X1324Y414D01*
X1326Y414D01*
X1326Y412D01*
X1328Y412D01*
X1328Y410D01*
X1330Y410D01*
X1330Y406D01*
X1398Y406D01*
X1398Y404D01*
X1402Y404D01*
X1402Y402D01*
X1406Y402D01*
X1406Y400D01*
X1408Y400D01*
X1408Y398D01*
X1410Y398D01*
X1410Y394D01*
X1412Y394D01*
X1412Y386D01*
X1414Y386D01*
X1414Y182D01*
X1412Y182D01*
X1412Y176D01*
X1410Y176D01*
X1410Y172D01*
X1408Y172D01*
X1408Y170D01*
X1406Y170D01*
X1406Y168D01*
X1404Y168D01*
X1404Y166D01*
X1402Y166D01*
X1402Y164D01*
X1396Y164D01*
X1396Y162D01*
X1608Y162D01*
X1608Y432D01*
X1314Y432D01*
G37*
D02*
G36*
X340Y332D02*
X340Y318D01*
X360Y318D01*
X360Y320D01*
X362Y320D01*
X362Y322D01*
X364Y322D01*
X364Y324D01*
X366Y324D01*
X366Y326D01*
X370Y326D01*
X370Y328D01*
X374Y328D01*
X374Y330D01*
X380Y330D01*
X380Y332D01*
X340Y332D01*
G37*
D02*
G36*
X402Y332D02*
X402Y330D01*
X408Y330D01*
X408Y328D01*
X412Y328D01*
X412Y326D01*
X414Y326D01*
X414Y324D01*
X418Y324D01*
X418Y322D01*
X420Y322D01*
X420Y320D01*
X422Y320D01*
X422Y318D01*
X424Y318D01*
X424Y316D01*
X426Y316D01*
X426Y314D01*
X428Y314D01*
X428Y312D01*
X430Y312D01*
X430Y310D01*
X452Y310D01*
X452Y312D01*
X454Y312D01*
X454Y314D01*
X456Y314D01*
X456Y318D01*
X460Y318D01*
X460Y320D01*
X462Y320D01*
X462Y322D01*
X464Y322D01*
X464Y324D01*
X466Y324D01*
X466Y326D01*
X470Y326D01*
X470Y328D01*
X474Y328D01*
X474Y330D01*
X480Y330D01*
X480Y332D01*
X402Y332D01*
G37*
D02*
G36*
X544Y162D02*
X544Y160D01*
X1608Y160D01*
X1608Y162D01*
X544Y162D01*
G37*
D02*
G36*
X544Y162D02*
X544Y160D01*
X1608Y160D01*
X1608Y162D01*
X544Y162D01*
G37*
D02*
G36*
X546Y160D02*
X546Y158D01*
X548Y158D01*
X548Y156D01*
X550Y156D01*
X550Y154D01*
X552Y154D01*
X552Y152D01*
X554Y152D01*
X554Y150D01*
X556Y150D01*
X556Y148D01*
X558Y148D01*
X558Y146D01*
X560Y146D01*
X560Y144D01*
X562Y144D01*
X562Y142D01*
X564Y142D01*
X564Y140D01*
X566Y140D01*
X566Y138D01*
X568Y138D01*
X568Y136D01*
X570Y136D01*
X570Y134D01*
X572Y134D01*
X572Y132D01*
X602Y132D01*
X602Y130D01*
X608Y130D01*
X608Y128D01*
X612Y128D01*
X612Y126D01*
X614Y126D01*
X614Y124D01*
X618Y124D01*
X618Y122D01*
X620Y122D01*
X620Y120D01*
X622Y120D01*
X622Y118D01*
X624Y118D01*
X624Y116D01*
X626Y116D01*
X626Y114D01*
X628Y114D01*
X628Y112D01*
X630Y112D01*
X630Y110D01*
X632Y110D01*
X632Y106D01*
X634Y106D01*
X634Y102D01*
X636Y102D01*
X636Y98D01*
X638Y98D01*
X638Y92D01*
X640Y92D01*
X640Y76D01*
X638Y76D01*
X638Y70D01*
X636Y70D01*
X636Y64D01*
X634Y64D01*
X634Y42D01*
X1608Y42D01*
X1608Y160D01*
X546Y160D01*
G37*
D02*
G36*
X1124Y486D02*
X1124Y484D01*
X1122Y484D01*
X1122Y482D01*
X1120Y482D01*
X1120Y480D01*
X1118Y480D01*
X1118Y478D01*
X1116Y478D01*
X1116Y476D01*
X1114Y476D01*
X1114Y474D01*
X1112Y474D01*
X1112Y472D01*
X1110Y472D01*
X1110Y470D01*
X1108Y470D01*
X1108Y468D01*
X1106Y468D01*
X1106Y466D01*
X1104Y466D01*
X1104Y464D01*
X1102Y464D01*
X1102Y462D01*
X1100Y462D01*
X1100Y460D01*
X1098Y460D01*
X1098Y458D01*
X1096Y458D01*
X1096Y456D01*
X1094Y456D01*
X1094Y454D01*
X1092Y454D01*
X1092Y452D01*
X1090Y452D01*
X1090Y450D01*
X1088Y450D01*
X1088Y448D01*
X1086Y448D01*
X1086Y446D01*
X1084Y446D01*
X1084Y444D01*
X1082Y444D01*
X1082Y442D01*
X1080Y442D01*
X1080Y440D01*
X1078Y440D01*
X1078Y438D01*
X1076Y438D01*
X1076Y436D01*
X1074Y436D01*
X1074Y434D01*
X1072Y434D01*
X1072Y432D01*
X1070Y432D01*
X1070Y430D01*
X1068Y430D01*
X1068Y428D01*
X1066Y428D01*
X1066Y426D01*
X1064Y426D01*
X1064Y424D01*
X1062Y424D01*
X1062Y422D01*
X1060Y422D01*
X1060Y420D01*
X1058Y420D01*
X1058Y418D01*
X1056Y418D01*
X1056Y416D01*
X1054Y416D01*
X1054Y414D01*
X1052Y414D01*
X1052Y412D01*
X1050Y412D01*
X1050Y410D01*
X1048Y410D01*
X1048Y408D01*
X1046Y408D01*
X1046Y406D01*
X1044Y406D01*
X1044Y404D01*
X1042Y404D01*
X1042Y402D01*
X1040Y402D01*
X1040Y400D01*
X1038Y400D01*
X1038Y374D01*
X1036Y374D01*
X1036Y368D01*
X1034Y368D01*
X1034Y364D01*
X1032Y364D01*
X1032Y360D01*
X1030Y360D01*
X1030Y358D01*
X1028Y358D01*
X1028Y356D01*
X1026Y356D01*
X1026Y352D01*
X1024Y352D01*
X1024Y350D01*
X1022Y350D01*
X1022Y348D01*
X1018Y348D01*
X1018Y346D01*
X1016Y346D01*
X1016Y344D01*
X1014Y344D01*
X1014Y342D01*
X1010Y342D01*
X1010Y340D01*
X1006Y340D01*
X1006Y338D01*
X998Y338D01*
X998Y336D01*
X1112Y336D01*
X1112Y338D01*
X1114Y338D01*
X1114Y340D01*
X1116Y340D01*
X1116Y342D01*
X1118Y342D01*
X1118Y344D01*
X1120Y344D01*
X1120Y346D01*
X1122Y346D01*
X1122Y348D01*
X1124Y348D01*
X1124Y350D01*
X1126Y350D01*
X1126Y352D01*
X1128Y352D01*
X1128Y354D01*
X1130Y354D01*
X1130Y356D01*
X1132Y356D01*
X1132Y358D01*
X1134Y358D01*
X1134Y360D01*
X1136Y360D01*
X1136Y362D01*
X1138Y362D01*
X1138Y364D01*
X1140Y364D01*
X1140Y366D01*
X1142Y366D01*
X1142Y368D01*
X1144Y368D01*
X1144Y394D01*
X1146Y394D01*
X1146Y400D01*
X1148Y400D01*
X1148Y404D01*
X1150Y404D01*
X1150Y408D01*
X1152Y408D01*
X1152Y410D01*
X1154Y410D01*
X1154Y412D01*
X1156Y412D01*
X1156Y414D01*
X1158Y414D01*
X1158Y416D01*
X1160Y416D01*
X1160Y418D01*
X1162Y418D01*
X1162Y420D01*
X1164Y420D01*
X1164Y422D01*
X1166Y422D01*
X1166Y424D01*
X1168Y424D01*
X1168Y444D01*
X1166Y444D01*
X1166Y446D01*
X1162Y446D01*
X1162Y448D01*
X1160Y448D01*
X1160Y450D01*
X1158Y450D01*
X1158Y452D01*
X1156Y452D01*
X1156Y454D01*
X1154Y454D01*
X1154Y458D01*
X1152Y458D01*
X1152Y460D01*
X1150Y460D01*
X1150Y464D01*
X1148Y464D01*
X1148Y468D01*
X1146Y468D01*
X1146Y472D01*
X1144Y472D01*
X1144Y486D01*
X1124Y486D01*
G37*
D02*
G36*
X930Y360D02*
X930Y358D01*
X928Y358D01*
X928Y356D01*
X926Y356D01*
X926Y352D01*
X924Y352D01*
X924Y350D01*
X922Y350D01*
X922Y348D01*
X918Y348D01*
X918Y346D01*
X916Y346D01*
X916Y344D01*
X914Y344D01*
X914Y342D01*
X912Y342D01*
X912Y336D01*
X984Y336D01*
X984Y338D01*
X976Y338D01*
X976Y340D01*
X972Y340D01*
X972Y342D01*
X968Y342D01*
X968Y344D01*
X966Y344D01*
X966Y346D01*
X962Y346D01*
X962Y348D01*
X960Y348D01*
X960Y350D01*
X958Y350D01*
X958Y352D01*
X956Y352D01*
X956Y354D01*
X954Y354D01*
X954Y358D01*
X952Y358D01*
X952Y360D01*
X930Y360D01*
G37*
D02*
G36*
X912Y336D02*
X912Y334D01*
X1110Y334D01*
X1110Y336D01*
X912Y336D01*
G37*
D02*
G36*
X912Y336D02*
X912Y334D01*
X1110Y334D01*
X1110Y336D01*
X912Y336D01*
G37*
D02*
G36*
X912Y334D02*
X912Y306D01*
X1082Y306D01*
X1082Y308D01*
X1084Y308D01*
X1084Y310D01*
X1086Y310D01*
X1086Y312D01*
X1088Y312D01*
X1088Y314D01*
X1090Y314D01*
X1090Y316D01*
X1092Y316D01*
X1092Y318D01*
X1094Y318D01*
X1094Y320D01*
X1096Y320D01*
X1096Y322D01*
X1098Y322D01*
X1098Y324D01*
X1100Y324D01*
X1100Y326D01*
X1102Y326D01*
X1102Y328D01*
X1104Y328D01*
X1104Y330D01*
X1106Y330D01*
X1106Y332D01*
X1108Y332D01*
X1108Y334D01*
X912Y334D01*
G37*
D02*
G36*
X1230Y360D02*
X1230Y358D01*
X1228Y358D01*
X1228Y356D01*
X1226Y356D01*
X1226Y352D01*
X1224Y352D01*
X1224Y350D01*
X1222Y350D01*
X1222Y348D01*
X1218Y348D01*
X1218Y346D01*
X1216Y346D01*
X1216Y344D01*
X1214Y344D01*
X1214Y324D01*
X1216Y324D01*
X1216Y322D01*
X1218Y322D01*
X1218Y320D01*
X1220Y320D01*
X1220Y318D01*
X1222Y318D01*
X1222Y316D01*
X1224Y316D01*
X1224Y314D01*
X1226Y314D01*
X1226Y312D01*
X1228Y312D01*
X1228Y310D01*
X1230Y310D01*
X1230Y306D01*
X1250Y306D01*
X1250Y308D01*
X1252Y308D01*
X1252Y310D01*
X1254Y310D01*
X1254Y312D01*
X1256Y312D01*
X1256Y314D01*
X1258Y314D01*
X1258Y316D01*
X1260Y316D01*
X1260Y318D01*
X1262Y318D01*
X1262Y320D01*
X1264Y320D01*
X1264Y322D01*
X1266Y322D01*
X1266Y324D01*
X1268Y324D01*
X1268Y344D01*
X1266Y344D01*
X1266Y346D01*
X1262Y346D01*
X1262Y348D01*
X1260Y348D01*
X1260Y350D01*
X1258Y350D01*
X1258Y352D01*
X1256Y352D01*
X1256Y354D01*
X1254Y354D01*
X1254Y358D01*
X1252Y358D01*
X1252Y360D01*
X1230Y360D01*
G37*
D02*
G36*
X134Y362D02*
X134Y360D01*
X132Y360D01*
X132Y358D01*
X130Y358D01*
X130Y356D01*
X128Y356D01*
X128Y352D01*
X126Y352D01*
X126Y350D01*
X124Y350D01*
X124Y348D01*
X122Y348D01*
X122Y346D01*
X118Y346D01*
X118Y344D01*
X116Y344D01*
X116Y342D01*
X112Y342D01*
X112Y340D01*
X108Y340D01*
X108Y338D01*
X104Y338D01*
X104Y336D01*
X96Y336D01*
X96Y334D01*
X168Y334D01*
X168Y362D01*
X134Y362D01*
G37*
D02*
G36*
X40Y348D02*
X40Y334D01*
X86Y334D01*
X86Y336D01*
X78Y336D01*
X78Y338D01*
X72Y338D01*
X72Y340D01*
X68Y340D01*
X68Y342D01*
X66Y342D01*
X66Y344D01*
X64Y344D01*
X64Y346D01*
X60Y346D01*
X60Y348D01*
X40Y348D01*
G37*
D02*
G36*
X40Y334D02*
X40Y332D01*
X168Y332D01*
X168Y334D01*
X40Y334D01*
G37*
D02*
G36*
X40Y334D02*
X40Y332D01*
X168Y332D01*
X168Y334D01*
X40Y334D01*
G37*
D02*
G36*
X40Y332D02*
X40Y42D01*
X342Y42D01*
X342Y62D01*
X184Y62D01*
X184Y64D01*
X180Y64D01*
X180Y66D01*
X176Y66D01*
X176Y68D01*
X174Y68D01*
X174Y72D01*
X172Y72D01*
X172Y74D01*
X170Y74D01*
X170Y82D01*
X168Y82D01*
X168Y332D01*
X40Y332D01*
G37*
D02*
G36*
X871Y736D02*
X908Y736D01*
X908Y704D01*
X871Y704D01*
X871Y736D01*
G37*
D02*
G36*
X840Y705D02*
X872Y705D01*
X872Y668D01*
X840Y668D01*
X840Y705D01*
G37*
D02*
G36*
X408Y1006D02*
X440Y1006D01*
X440Y967D01*
X408Y967D01*
X408Y1006D01*
G37*
D02*
G36*
X70Y868D02*
X109Y868D01*
X109Y834D01*
X70Y834D01*
X70Y868D01*
G37*
D02*
G36*
X38Y906D02*
X70Y906D01*
X70Y867D01*
X38Y867D01*
X38Y906D01*
G37*
D02*
G36*
X108Y906D02*
X140Y906D01*
X140Y867D01*
X108Y867D01*
X108Y906D01*
G37*
D02*
G36*
X1470Y468D02*
X1509Y468D01*
X1509Y434D01*
X1470Y434D01*
X1470Y468D01*
G37*
D02*
G36*
X1438Y506D02*
X1470Y506D01*
X1470Y467D01*
X1438Y467D01*
X1438Y506D01*
G37*
D02*
G36*
X1508Y506D02*
X1540Y506D01*
X1540Y467D01*
X1508Y467D01*
X1508Y506D01*
G37*
D02*
G36*
X1470Y768D02*
X1509Y768D01*
X1509Y734D01*
X1470Y734D01*
X1470Y768D01*
G37*
D02*
G36*
X1438Y806D02*
X1470Y806D01*
X1470Y767D01*
X1438Y767D01*
X1438Y806D01*
G37*
D02*
G36*
X1508Y806D02*
X1540Y806D01*
X1540Y767D01*
X1508Y767D01*
X1508Y806D01*
G37*
D02*
G36*
X1470Y1268D02*
X1509Y1268D01*
X1509Y1234D01*
X1470Y1234D01*
X1470Y1268D01*
G37*
D02*
G36*
X1438Y1306D02*
X1470Y1306D01*
X1470Y1267D01*
X1438Y1267D01*
X1438Y1306D01*
G37*
D02*
G36*
X1508Y1306D02*
X1540Y1306D01*
X1540Y1267D01*
X1508Y1267D01*
X1508Y1306D01*
G37*
D02*
G04 End of Copper1*
M02*