G04 MADE WITH FRITZING*
G04 WWW.FRITZING.ORG*
G04 DOUBLE SIDED*
G04 HOLES PLATED*
G04 CONTOUR ON CENTER OF CONTOUR VECTOR*
%ASAXBY*%
%FSLAX23Y23*%
%MOIN*%
%OFA0B0*%
%SFA1.0B1.0*%
%ADD10C,0.088000*%
%ADD11C,0.085000*%
%ADD12R,0.085000X0.085000*%
%ADD13R,0.088000X0.088000*%
%LNMASK1*%
G90*
G70*
G54D10*
X1491Y884D03*
X1491Y784D03*
X91Y1184D03*
X1491Y1384D03*
X1491Y1284D03*
X1491Y584D03*
X1491Y484D03*
X91Y484D03*
X91Y384D03*
G54D11*
X491Y684D03*
X91Y684D03*
X491Y1184D03*
X491Y784D03*
X891Y1584D03*
X991Y1584D03*
X891Y1484D03*
X991Y1484D03*
X891Y1384D03*
X991Y1384D03*
X891Y1284D03*
X991Y1284D03*
X891Y1184D03*
X991Y1184D03*
X891Y1084D03*
X991Y1084D03*
G54D10*
X391Y84D03*
X491Y84D03*
X591Y84D03*
X591Y1984D03*
X691Y1984D03*
X791Y1984D03*
X891Y1984D03*
G54D11*
X1191Y1984D03*
X1291Y1984D03*
X1191Y1884D03*
X1291Y1884D03*
X1191Y1784D03*
X1291Y1784D03*
X1191Y1684D03*
X1291Y1684D03*
X1191Y1584D03*
X1291Y1584D03*
X1191Y1484D03*
X1291Y1484D03*
X1191Y1384D03*
X1291Y1384D03*
X1191Y1284D03*
X1291Y1284D03*
X1191Y1184D03*
X1291Y1184D03*
X1191Y1084D03*
X1291Y1084D03*
X1191Y984D03*
X1291Y984D03*
X1191Y884D03*
X1291Y884D03*
X1191Y784D03*
X1291Y784D03*
X1191Y684D03*
X1291Y684D03*
X1191Y584D03*
X1291Y584D03*
X1191Y484D03*
X1291Y484D03*
X1191Y384D03*
X1291Y384D03*
X1191Y284D03*
X1291Y284D03*
X891Y684D03*
X991Y684D03*
X891Y584D03*
X991Y584D03*
X891Y484D03*
X991Y484D03*
X891Y384D03*
X991Y384D03*
G54D10*
X491Y1384D03*
X491Y1484D03*
X491Y1584D03*
X491Y1684D03*
X491Y1784D03*
X291Y1784D03*
X291Y1684D03*
X291Y1584D03*
X291Y1484D03*
X91Y984D03*
X91Y884D03*
X291Y284D03*
X391Y284D03*
X491Y284D03*
X391Y1184D03*
X391Y1084D03*
X391Y984D03*
X291Y484D03*
X391Y484D03*
X491Y484D03*
G54D12*
X891Y1584D03*
G54D13*
X391Y84D03*
X591Y1984D03*
G54D12*
X1191Y1984D03*
X891Y684D03*
G54D13*
X491Y1384D03*
X291Y1784D03*
X91Y984D03*
X291Y284D03*
X391Y1184D03*
X291Y484D03*
G04 End of Mask1*
M02*