; NON-PLATED HOLES START AT T1
; THROUGH (PLATED) HOLES START AT T100
M48
INCH
T100C0.038000
T101C0.035000
%
T100
X002908Y017835
X002908Y004835
X003908Y011835
X014908Y005835
X004908Y000835
X004908Y016835
X004908Y013835
X004908Y004835
X003908Y002835
X000908Y003835
X002908Y016835
X003908Y010835
X003908Y009835
X007908Y019835
X014908Y008835
X004908Y015835
X000908Y011835
X005908Y019835
X002908Y015835
X002908Y002835
X014908Y013835
X014908Y004835
X000908Y009835
X014908Y007835
X004908Y002835
X003908Y000835
X003908Y004835
X014908Y012835
X000908Y008835
X004908Y014835
X008908Y019835
X004908Y017835
X005908Y000835
X000908Y004835
X002908Y014835
X006908Y019835
T101
X011908Y007835
X011908Y016835
X011908Y013835
X008908Y005835
X012908Y011835
X012908Y018835
X009908Y004835
X008908Y010835
X004908Y007835
X000908Y006835
X012908Y008835
X011908Y006835
X011908Y003835
X011908Y012835
X008908Y014835
X012908Y010835
X009908Y013835
X011908Y015835
X012908Y014835
X011908Y019835
X004908Y006835
X012908Y017835
X012908Y004835
X011908Y002835
X009908Y006835
X009908Y003835
X012908Y007835
X009908Y012835
X011908Y005835
X011908Y011835
X008908Y013835
X008908Y004835
X009908Y015835
X011908Y009835
X011908Y018835
X004908Y011835
X012908Y016835
X012908Y013835
X012908Y006835
X012908Y003835
X009908Y005835
X011908Y010835
X008908Y012835
X009908Y011835
X011908Y008835
X011908Y014835
X008908Y015835
X008908Y006835
X008908Y003835
X012908Y012835
X011908Y017835
X012908Y015835
X012908Y002835
X012908Y019835
X012908Y005835
X009908Y010835
X011908Y004835
X008908Y011835
X012908Y009835
X009908Y014835
T00
M30
