G04 MADE WITH FRITZING*
G04 WWW.FRITZING.ORG*
G04 DOUBLE SIDED*
G04 HOLES PLATED*
G04 CONTOUR ON CENTER OF CONTOUR VECTOR*
%ASAXBY*%
%FSLAX23Y23*%
%MOIN*%
%OFA0B0*%
%SFA1.0B1.0*%
%ADD10C,0.075000*%
%ADD11C,0.078000*%
%ADD12R,0.075000X0.075000*%
%ADD13R,0.078000X0.078000*%
%ADD14C,0.024000*%
%LNCOPPER0*%
G90*
G70*
G54D10*
X1092Y1885D03*
X987Y2035D03*
X117Y265D03*
G54D11*
X1491Y884D03*
X1491Y784D03*
X91Y1184D03*
X1491Y1384D03*
X1491Y1284D03*
X1491Y584D03*
X1491Y484D03*
X91Y484D03*
X91Y384D03*
G54D10*
X491Y684D03*
X91Y684D03*
X491Y1184D03*
X491Y784D03*
X891Y1584D03*
X991Y1584D03*
X891Y1484D03*
X991Y1484D03*
X891Y1384D03*
X991Y1384D03*
X891Y1284D03*
X991Y1284D03*
X891Y1184D03*
X991Y1184D03*
X891Y1084D03*
X991Y1084D03*
G54D11*
X391Y84D03*
X491Y84D03*
X591Y84D03*
X591Y1984D03*
X691Y1984D03*
X791Y1984D03*
X891Y1984D03*
G54D10*
X1191Y1984D03*
X1291Y1984D03*
X1191Y1884D03*
X1291Y1884D03*
X1191Y1784D03*
X1291Y1784D03*
X1191Y1684D03*
X1291Y1684D03*
X1191Y1584D03*
X1291Y1584D03*
X1191Y1484D03*
X1291Y1484D03*
X1191Y1384D03*
X1291Y1384D03*
X1191Y1284D03*
X1291Y1284D03*
X1191Y1184D03*
X1291Y1184D03*
X1191Y1084D03*
X1291Y1084D03*
X1191Y984D03*
X1291Y984D03*
X1191Y884D03*
X1291Y884D03*
X1191Y784D03*
X1291Y784D03*
X1191Y684D03*
X1291Y684D03*
X1191Y584D03*
X1291Y584D03*
X1191Y484D03*
X1291Y484D03*
X1191Y384D03*
X1291Y384D03*
X1191Y284D03*
X1291Y284D03*
X891Y684D03*
X991Y684D03*
X891Y584D03*
X991Y584D03*
X891Y484D03*
X991Y484D03*
X891Y384D03*
X991Y384D03*
G54D11*
X491Y1384D03*
X491Y1484D03*
X491Y1584D03*
X491Y1684D03*
X491Y1784D03*
X291Y1784D03*
X291Y1684D03*
X291Y1584D03*
X291Y1484D03*
X91Y984D03*
X91Y884D03*
X291Y284D03*
X391Y284D03*
X491Y284D03*
X391Y1184D03*
X391Y1084D03*
X391Y984D03*
X291Y484D03*
X391Y484D03*
X491Y484D03*
G54D12*
X891Y1584D03*
G54D13*
X391Y84D03*
X591Y1984D03*
G54D12*
X1191Y1984D03*
X891Y684D03*
G54D13*
X491Y1384D03*
X291Y1784D03*
X91Y984D03*
X291Y284D03*
X391Y1184D03*
X291Y484D03*
G54D14*
X791Y983D02*
X791Y1184D01*
D02*
X791Y1184D02*
X862Y1184D01*
D02*
X1162Y984D02*
X791Y983D01*
D02*
X791Y483D02*
X791Y284D01*
D02*
X791Y284D02*
X1091Y284D01*
D02*
X1091Y284D02*
X1091Y384D01*
D02*
X1091Y384D02*
X1171Y463D01*
D02*
X862Y483D02*
X791Y483D01*
D02*
X519Y684D02*
X862Y684D01*
D02*
X1020Y1084D02*
X1162Y1084D01*
D02*
X1020Y1184D02*
X1162Y1184D01*
D02*
X1020Y1284D02*
X1162Y1284D01*
D02*
X1020Y1384D02*
X1162Y1384D01*
D02*
X1020Y1484D02*
X1162Y1484D01*
D02*
X1020Y1584D02*
X1162Y1584D01*
D02*
X992Y1684D02*
X1162Y1684D01*
D02*
X911Y1604D02*
X992Y1684D01*
D02*
X792Y1684D02*
X1163Y1777D01*
D02*
X792Y1484D02*
X792Y1684D01*
D02*
X862Y1484D02*
X792Y1484D01*
D02*
X862Y1284D02*
X691Y1284D01*
D02*
X691Y1284D02*
X691Y1684D01*
D02*
X691Y1684D02*
X1090Y1984D01*
D02*
X1090Y1984D02*
X1090Y2083D01*
D02*
X1090Y2083D02*
X1391Y2083D01*
D02*
X1391Y2083D02*
X1391Y1883D01*
D02*
X1391Y1883D02*
X1320Y1883D01*
D02*
X592Y182D02*
X1191Y182D01*
D02*
X1191Y182D02*
X1191Y255D01*
D02*
X592Y284D02*
X592Y182D01*
D02*
X592Y1083D02*
X592Y284D01*
D02*
X321Y1484D02*
X392Y1484D01*
D02*
X390Y1583D02*
X321Y1583D01*
D02*
X691Y1884D02*
X390Y1884D01*
D02*
X390Y1884D02*
X390Y1583D01*
D02*
X691Y1953D02*
X691Y1884D01*
D02*
X191Y1684D02*
X261Y1684D01*
D02*
X291Y1983D02*
X190Y1784D01*
D02*
X561Y1984D02*
X291Y1983D01*
D02*
X1392Y483D02*
X1392Y285D01*
D02*
X1461Y483D02*
X1392Y483D01*
D02*
X1392Y285D02*
X1320Y284D01*
D02*
X1392Y483D02*
X1461Y483D01*
D02*
X1392Y784D02*
X1392Y483D01*
D02*
X1461Y784D02*
X1392Y784D01*
D02*
X1392Y1284D02*
X1392Y784D01*
D02*
X1392Y784D02*
X1461Y784D01*
D02*
X1461Y1284D02*
X1392Y1284D01*
D02*
X592Y182D02*
X512Y262D01*
D02*
X1191Y182D02*
X592Y182D01*
D02*
X1191Y255D02*
X1191Y182D01*
D02*
X490Y184D02*
X191Y184D01*
D02*
X191Y184D02*
X191Y383D01*
D02*
X191Y383D02*
X390Y383D01*
D02*
X390Y383D02*
X391Y453D01*
D02*
X491Y114D02*
X490Y184D01*
D02*
X261Y484D02*
X121Y484D01*
D02*
X591Y1283D02*
X592Y1083D01*
D02*
X392Y1283D02*
X591Y1283D01*
D02*
X392Y1484D02*
X392Y1283D01*
D02*
X90Y983D02*
X62Y975D01*
D02*
X465Y796D02*
X90Y983D01*
D02*
X490Y683D02*
X463Y676D01*
D02*
X118Y870D02*
X490Y683D01*
D02*
X90Y1185D02*
X361Y1184D01*
D02*
X69Y1204D02*
X90Y1185D01*
D02*
X490Y1084D02*
X421Y1084D01*
D02*
X490Y1185D02*
X490Y1084D01*
D02*
X477Y1208D02*
X490Y1185D01*
D02*
X190Y1784D02*
X191Y1684D01*
G36*
X1112Y2062D02*
X1112Y2032D01*
X1294Y2032D01*
X1294Y2030D01*
X1304Y2030D01*
X1304Y2028D01*
X1308Y2028D01*
X1308Y2026D01*
X1312Y2026D01*
X1312Y2024D01*
X1316Y2024D01*
X1316Y2022D01*
X1318Y2022D01*
X1318Y2020D01*
X1320Y2020D01*
X1320Y2018D01*
X1322Y2018D01*
X1322Y2016D01*
X1324Y2016D01*
X1324Y2014D01*
X1326Y2014D01*
X1326Y2012D01*
X1328Y2012D01*
X1328Y2010D01*
X1330Y2010D01*
X1330Y2006D01*
X1332Y2006D01*
X1332Y2004D01*
X1334Y2004D01*
X1334Y2000D01*
X1336Y2000D01*
X1336Y1994D01*
X1338Y1994D01*
X1338Y1974D01*
X1336Y1974D01*
X1336Y1968D01*
X1334Y1968D01*
X1334Y1964D01*
X1332Y1964D01*
X1332Y1960D01*
X1330Y1960D01*
X1330Y1958D01*
X1328Y1958D01*
X1328Y1956D01*
X1326Y1956D01*
X1326Y1952D01*
X1324Y1952D01*
X1324Y1950D01*
X1322Y1950D01*
X1322Y1948D01*
X1318Y1948D01*
X1318Y1946D01*
X1316Y1946D01*
X1316Y1944D01*
X1314Y1944D01*
X1314Y1924D01*
X1316Y1924D01*
X1316Y1922D01*
X1318Y1922D01*
X1318Y1920D01*
X1320Y1920D01*
X1320Y1918D01*
X1322Y1918D01*
X1322Y1916D01*
X1324Y1916D01*
X1324Y1914D01*
X1326Y1914D01*
X1326Y1912D01*
X1328Y1912D01*
X1328Y1910D01*
X1330Y1910D01*
X1330Y1906D01*
X1370Y1906D01*
X1370Y2062D01*
X1112Y2062D01*
G37*
D02*
G36*
X1112Y2032D02*
X1112Y1976D01*
X1110Y1976D01*
X1110Y1972D01*
X1108Y1972D01*
X1108Y1970D01*
X1106Y1970D01*
X1106Y1968D01*
X1104Y1968D01*
X1104Y1966D01*
X1102Y1966D01*
X1102Y1964D01*
X1098Y1964D01*
X1098Y1962D01*
X1096Y1962D01*
X1096Y1960D01*
X1094Y1960D01*
X1094Y1958D01*
X1090Y1958D01*
X1090Y1956D01*
X1088Y1956D01*
X1088Y1954D01*
X1086Y1954D01*
X1086Y1952D01*
X1082Y1952D01*
X1082Y1950D01*
X1080Y1950D01*
X1080Y1948D01*
X1078Y1948D01*
X1078Y1946D01*
X1074Y1946D01*
X1074Y1944D01*
X1072Y1944D01*
X1072Y1942D01*
X1070Y1942D01*
X1070Y1940D01*
X1066Y1940D01*
X1066Y1938D01*
X1064Y1938D01*
X1064Y1936D01*
X1062Y1936D01*
X1062Y1934D01*
X1058Y1934D01*
X1058Y1932D01*
X1056Y1932D01*
X1056Y1930D01*
X1054Y1930D01*
X1054Y1928D01*
X1050Y1928D01*
X1050Y1926D01*
X1048Y1926D01*
X1048Y1924D01*
X1046Y1924D01*
X1046Y1922D01*
X1042Y1922D01*
X1042Y1920D01*
X1040Y1920D01*
X1040Y1918D01*
X1038Y1918D01*
X1038Y1916D01*
X1034Y1916D01*
X1034Y1914D01*
X1032Y1914D01*
X1032Y1912D01*
X1030Y1912D01*
X1030Y1910D01*
X1026Y1910D01*
X1026Y1908D01*
X1024Y1908D01*
X1024Y1906D01*
X1022Y1906D01*
X1022Y1904D01*
X1018Y1904D01*
X1018Y1902D01*
X1016Y1902D01*
X1016Y1900D01*
X1014Y1900D01*
X1014Y1898D01*
X1010Y1898D01*
X1010Y1896D01*
X1008Y1896D01*
X1008Y1894D01*
X1006Y1894D01*
X1006Y1892D01*
X1002Y1892D01*
X1002Y1890D01*
X1000Y1890D01*
X1000Y1888D01*
X998Y1888D01*
X998Y1886D01*
X994Y1886D01*
X994Y1884D01*
X992Y1884D01*
X992Y1882D01*
X990Y1882D01*
X990Y1880D01*
X986Y1880D01*
X986Y1878D01*
X984Y1878D01*
X984Y1876D01*
X982Y1876D01*
X982Y1874D01*
X980Y1874D01*
X980Y1872D01*
X976Y1872D01*
X976Y1870D01*
X974Y1870D01*
X974Y1868D01*
X972Y1868D01*
X972Y1866D01*
X968Y1866D01*
X968Y1864D01*
X966Y1864D01*
X966Y1862D01*
X964Y1862D01*
X964Y1860D01*
X960Y1860D01*
X960Y1858D01*
X958Y1858D01*
X958Y1856D01*
X956Y1856D01*
X956Y1854D01*
X952Y1854D01*
X952Y1852D01*
X950Y1852D01*
X950Y1850D01*
X948Y1850D01*
X948Y1848D01*
X944Y1848D01*
X944Y1846D01*
X942Y1846D01*
X942Y1844D01*
X940Y1844D01*
X940Y1842D01*
X936Y1842D01*
X936Y1840D01*
X934Y1840D01*
X934Y1838D01*
X932Y1838D01*
X932Y1836D01*
X928Y1836D01*
X928Y1834D01*
X926Y1834D01*
X926Y1832D01*
X924Y1832D01*
X924Y1830D01*
X920Y1830D01*
X920Y1828D01*
X918Y1828D01*
X918Y1826D01*
X916Y1826D01*
X916Y1824D01*
X912Y1824D01*
X912Y1822D01*
X910Y1822D01*
X910Y1820D01*
X908Y1820D01*
X908Y1818D01*
X904Y1818D01*
X904Y1816D01*
X902Y1816D01*
X902Y1814D01*
X900Y1814D01*
X900Y1812D01*
X896Y1812D01*
X896Y1810D01*
X894Y1810D01*
X894Y1808D01*
X892Y1808D01*
X892Y1806D01*
X888Y1806D01*
X888Y1804D01*
X886Y1804D01*
X886Y1802D01*
X884Y1802D01*
X884Y1800D01*
X880Y1800D01*
X880Y1798D01*
X878Y1798D01*
X878Y1796D01*
X876Y1796D01*
X876Y1794D01*
X872Y1794D01*
X872Y1792D01*
X870Y1792D01*
X870Y1790D01*
X868Y1790D01*
X868Y1788D01*
X864Y1788D01*
X864Y1786D01*
X862Y1786D01*
X862Y1784D01*
X860Y1784D01*
X860Y1782D01*
X856Y1782D01*
X856Y1780D01*
X854Y1780D01*
X854Y1778D01*
X852Y1778D01*
X852Y1776D01*
X848Y1776D01*
X848Y1774D01*
X846Y1774D01*
X846Y1772D01*
X844Y1772D01*
X844Y1770D01*
X840Y1770D01*
X840Y1768D01*
X838Y1768D01*
X838Y1766D01*
X836Y1766D01*
X836Y1764D01*
X832Y1764D01*
X832Y1762D01*
X830Y1762D01*
X830Y1760D01*
X828Y1760D01*
X828Y1758D01*
X824Y1758D01*
X824Y1756D01*
X822Y1756D01*
X822Y1754D01*
X820Y1754D01*
X820Y1752D01*
X816Y1752D01*
X816Y1750D01*
X814Y1750D01*
X814Y1748D01*
X812Y1748D01*
X812Y1746D01*
X808Y1746D01*
X808Y1744D01*
X806Y1744D01*
X806Y1742D01*
X804Y1742D01*
X804Y1740D01*
X802Y1740D01*
X802Y1738D01*
X798Y1738D01*
X798Y1736D01*
X796Y1736D01*
X796Y1734D01*
X794Y1734D01*
X794Y1732D01*
X790Y1732D01*
X790Y1730D01*
X788Y1730D01*
X788Y1728D01*
X786Y1728D01*
X786Y1726D01*
X782Y1726D01*
X782Y1724D01*
X780Y1724D01*
X780Y1722D01*
X778Y1722D01*
X778Y1720D01*
X774Y1720D01*
X774Y1718D01*
X772Y1718D01*
X772Y1716D01*
X770Y1716D01*
X770Y1714D01*
X766Y1714D01*
X766Y1712D01*
X764Y1712D01*
X764Y1710D01*
X762Y1710D01*
X762Y1708D01*
X758Y1708D01*
X758Y1706D01*
X756Y1706D01*
X756Y1704D01*
X754Y1704D01*
X754Y1702D01*
X750Y1702D01*
X750Y1700D01*
X748Y1700D01*
X748Y1698D01*
X746Y1698D01*
X746Y1696D01*
X742Y1696D01*
X742Y1694D01*
X740Y1694D01*
X740Y1692D01*
X738Y1692D01*
X738Y1690D01*
X734Y1690D01*
X734Y1688D01*
X732Y1688D01*
X732Y1686D01*
X730Y1686D01*
X730Y1684D01*
X726Y1684D01*
X726Y1682D01*
X724Y1682D01*
X724Y1680D01*
X722Y1680D01*
X722Y1678D01*
X718Y1678D01*
X718Y1676D01*
X716Y1676D01*
X716Y1674D01*
X714Y1674D01*
X714Y1672D01*
X712Y1672D01*
X712Y1306D01*
X850Y1306D01*
X850Y1308D01*
X852Y1308D01*
X852Y1310D01*
X854Y1310D01*
X854Y1312D01*
X856Y1312D01*
X856Y1314D01*
X858Y1314D01*
X858Y1316D01*
X860Y1316D01*
X860Y1318D01*
X862Y1318D01*
X862Y1320D01*
X864Y1320D01*
X864Y1322D01*
X866Y1322D01*
X866Y1324D01*
X868Y1324D01*
X868Y1344D01*
X866Y1344D01*
X866Y1346D01*
X862Y1346D01*
X862Y1348D01*
X860Y1348D01*
X860Y1350D01*
X858Y1350D01*
X858Y1352D01*
X856Y1352D01*
X856Y1354D01*
X854Y1354D01*
X854Y1358D01*
X852Y1358D01*
X852Y1360D01*
X850Y1360D01*
X850Y1364D01*
X848Y1364D01*
X848Y1368D01*
X846Y1368D01*
X846Y1372D01*
X844Y1372D01*
X844Y1394D01*
X846Y1394D01*
X846Y1400D01*
X848Y1400D01*
X848Y1404D01*
X850Y1404D01*
X850Y1408D01*
X852Y1408D01*
X852Y1410D01*
X854Y1410D01*
X854Y1412D01*
X856Y1412D01*
X856Y1414D01*
X858Y1414D01*
X858Y1416D01*
X860Y1416D01*
X860Y1418D01*
X862Y1418D01*
X862Y1420D01*
X864Y1420D01*
X864Y1422D01*
X866Y1422D01*
X866Y1424D01*
X868Y1424D01*
X868Y1444D01*
X866Y1444D01*
X866Y1446D01*
X862Y1446D01*
X862Y1448D01*
X860Y1448D01*
X860Y1450D01*
X858Y1450D01*
X858Y1452D01*
X856Y1452D01*
X856Y1454D01*
X854Y1454D01*
X854Y1458D01*
X852Y1458D01*
X852Y1460D01*
X850Y1460D01*
X850Y1462D01*
X786Y1462D01*
X786Y1464D01*
X780Y1464D01*
X780Y1466D01*
X778Y1466D01*
X778Y1468D01*
X776Y1468D01*
X776Y1470D01*
X774Y1470D01*
X774Y1472D01*
X772Y1472D01*
X772Y1478D01*
X770Y1478D01*
X770Y1690D01*
X772Y1690D01*
X772Y1694D01*
X774Y1694D01*
X774Y1698D01*
X776Y1698D01*
X776Y1700D01*
X778Y1700D01*
X778Y1702D01*
X782Y1702D01*
X782Y1704D01*
X786Y1704D01*
X786Y1706D01*
X794Y1706D01*
X794Y1708D01*
X802Y1708D01*
X802Y1710D01*
X810Y1710D01*
X810Y1712D01*
X818Y1712D01*
X818Y1714D01*
X826Y1714D01*
X826Y1716D01*
X834Y1716D01*
X834Y1718D01*
X842Y1718D01*
X842Y1720D01*
X850Y1720D01*
X850Y1722D01*
X858Y1722D01*
X858Y1724D01*
X866Y1724D01*
X866Y1726D01*
X874Y1726D01*
X874Y1728D01*
X882Y1728D01*
X882Y1730D01*
X890Y1730D01*
X890Y1732D01*
X898Y1732D01*
X898Y1734D01*
X906Y1734D01*
X906Y1736D01*
X914Y1736D01*
X914Y1738D01*
X922Y1738D01*
X922Y1740D01*
X930Y1740D01*
X930Y1742D01*
X938Y1742D01*
X938Y1744D01*
X946Y1744D01*
X946Y1746D01*
X954Y1746D01*
X954Y1748D01*
X962Y1748D01*
X962Y1750D01*
X970Y1750D01*
X970Y1752D01*
X978Y1752D01*
X978Y1754D01*
X986Y1754D01*
X986Y1756D01*
X994Y1756D01*
X994Y1758D01*
X1002Y1758D01*
X1002Y1760D01*
X1010Y1760D01*
X1010Y1762D01*
X1018Y1762D01*
X1018Y1764D01*
X1026Y1764D01*
X1026Y1766D01*
X1034Y1766D01*
X1034Y1768D01*
X1042Y1768D01*
X1042Y1770D01*
X1050Y1770D01*
X1050Y1772D01*
X1058Y1772D01*
X1058Y1774D01*
X1066Y1774D01*
X1066Y1776D01*
X1074Y1776D01*
X1074Y1778D01*
X1082Y1778D01*
X1082Y1780D01*
X1090Y1780D01*
X1090Y1782D01*
X1098Y1782D01*
X1098Y1784D01*
X1106Y1784D01*
X1106Y1786D01*
X1114Y1786D01*
X1114Y1788D01*
X1122Y1788D01*
X1122Y1790D01*
X1130Y1790D01*
X1130Y1792D01*
X1138Y1792D01*
X1138Y1794D01*
X1146Y1794D01*
X1146Y1800D01*
X1148Y1800D01*
X1148Y1804D01*
X1150Y1804D01*
X1150Y1808D01*
X1152Y1808D01*
X1152Y1810D01*
X1154Y1810D01*
X1154Y1812D01*
X1156Y1812D01*
X1156Y1814D01*
X1158Y1814D01*
X1158Y1816D01*
X1160Y1816D01*
X1160Y1818D01*
X1162Y1818D01*
X1162Y1820D01*
X1164Y1820D01*
X1164Y1822D01*
X1166Y1822D01*
X1166Y1824D01*
X1168Y1824D01*
X1168Y1844D01*
X1166Y1844D01*
X1166Y1846D01*
X1162Y1846D01*
X1162Y1848D01*
X1160Y1848D01*
X1160Y1850D01*
X1158Y1850D01*
X1158Y1852D01*
X1156Y1852D01*
X1156Y1854D01*
X1154Y1854D01*
X1154Y1858D01*
X1152Y1858D01*
X1152Y1860D01*
X1150Y1860D01*
X1150Y1864D01*
X1148Y1864D01*
X1148Y1868D01*
X1146Y1868D01*
X1146Y1872D01*
X1144Y1872D01*
X1144Y1894D01*
X1146Y1894D01*
X1146Y1900D01*
X1148Y1900D01*
X1148Y1904D01*
X1150Y1904D01*
X1150Y1908D01*
X1152Y1908D01*
X1152Y1910D01*
X1154Y1910D01*
X1154Y1912D01*
X1156Y1912D01*
X1156Y1914D01*
X1158Y1914D01*
X1158Y1916D01*
X1160Y1916D01*
X1160Y1936D01*
X1144Y1936D01*
X1144Y2032D01*
X1112Y2032D01*
G37*
D02*
G36*
X1238Y2032D02*
X1238Y2014D01*
X1258Y2014D01*
X1258Y2016D01*
X1260Y2016D01*
X1260Y2018D01*
X1262Y2018D01*
X1262Y2020D01*
X1264Y2020D01*
X1264Y2022D01*
X1266Y2022D01*
X1266Y2024D01*
X1270Y2024D01*
X1270Y2026D01*
X1274Y2026D01*
X1274Y2028D01*
X1278Y2028D01*
X1278Y2030D01*
X1288Y2030D01*
X1288Y2032D01*
X1238Y2032D01*
G37*
D02*
G36*
X304Y1962D02*
X304Y1958D01*
X302Y1958D01*
X302Y1954D01*
X300Y1954D01*
X300Y1950D01*
X298Y1950D01*
X298Y1946D01*
X296Y1946D01*
X296Y1942D01*
X294Y1942D01*
X294Y1938D01*
X292Y1938D01*
X292Y1934D01*
X542Y1934D01*
X542Y1962D01*
X304Y1962D01*
G37*
D02*
G36*
X640Y1948D02*
X640Y1934D01*
X668Y1934D01*
X668Y1942D01*
X666Y1942D01*
X666Y1944D01*
X664Y1944D01*
X664Y1946D01*
X660Y1946D01*
X660Y1948D01*
X640Y1948D01*
G37*
D02*
G36*
X290Y1934D02*
X290Y1932D01*
X668Y1932D01*
X668Y1934D01*
X290Y1934D01*
G37*
D02*
G36*
X290Y1934D02*
X290Y1932D01*
X668Y1932D01*
X668Y1934D01*
X290Y1934D01*
G37*
D02*
G36*
X290Y1932D02*
X290Y1930D01*
X288Y1930D01*
X288Y1926D01*
X286Y1926D01*
X286Y1922D01*
X284Y1922D01*
X284Y1918D01*
X282Y1918D01*
X282Y1914D01*
X280Y1914D01*
X280Y1910D01*
X278Y1910D01*
X278Y1906D01*
X276Y1906D01*
X276Y1902D01*
X274Y1902D01*
X274Y1898D01*
X272Y1898D01*
X272Y1894D01*
X270Y1894D01*
X270Y1890D01*
X268Y1890D01*
X268Y1888D01*
X266Y1888D01*
X266Y1884D01*
X264Y1884D01*
X264Y1880D01*
X262Y1880D01*
X262Y1876D01*
X260Y1876D01*
X260Y1872D01*
X258Y1872D01*
X258Y1868D01*
X256Y1868D01*
X256Y1864D01*
X254Y1864D01*
X254Y1860D01*
X252Y1860D01*
X252Y1856D01*
X250Y1856D01*
X250Y1852D01*
X248Y1852D01*
X248Y1832D01*
X340Y1832D01*
X340Y1734D01*
X326Y1734D01*
X326Y1714D01*
X328Y1714D01*
X328Y1712D01*
X330Y1712D01*
X330Y1710D01*
X332Y1710D01*
X332Y1706D01*
X334Y1706D01*
X334Y1702D01*
X336Y1702D01*
X336Y1698D01*
X338Y1698D01*
X338Y1692D01*
X340Y1692D01*
X340Y1676D01*
X338Y1676D01*
X338Y1670D01*
X336Y1670D01*
X336Y1664D01*
X334Y1664D01*
X334Y1660D01*
X332Y1660D01*
X332Y1658D01*
X330Y1658D01*
X330Y1656D01*
X328Y1656D01*
X328Y1652D01*
X326Y1652D01*
X326Y1650D01*
X324Y1650D01*
X324Y1648D01*
X322Y1648D01*
X322Y1646D01*
X318Y1646D01*
X318Y1644D01*
X316Y1644D01*
X316Y1624D01*
X318Y1624D01*
X318Y1622D01*
X320Y1622D01*
X320Y1620D01*
X322Y1620D01*
X322Y1618D01*
X324Y1618D01*
X324Y1616D01*
X326Y1616D01*
X326Y1614D01*
X328Y1614D01*
X328Y1612D01*
X330Y1612D01*
X330Y1610D01*
X332Y1610D01*
X332Y1606D01*
X368Y1606D01*
X368Y1892D01*
X370Y1892D01*
X370Y1896D01*
X372Y1896D01*
X372Y1898D01*
X374Y1898D01*
X374Y1900D01*
X376Y1900D01*
X376Y1902D01*
X378Y1902D01*
X378Y1904D01*
X382Y1904D01*
X382Y1906D01*
X668Y1906D01*
X668Y1932D01*
X290Y1932D01*
G37*
D02*
G36*
X1230Y1860D02*
X1230Y1858D01*
X1228Y1858D01*
X1228Y1856D01*
X1226Y1856D01*
X1226Y1852D01*
X1224Y1852D01*
X1224Y1850D01*
X1222Y1850D01*
X1222Y1848D01*
X1218Y1848D01*
X1218Y1846D01*
X1216Y1846D01*
X1216Y1844D01*
X1214Y1844D01*
X1214Y1824D01*
X1216Y1824D01*
X1216Y1822D01*
X1218Y1822D01*
X1218Y1820D01*
X1220Y1820D01*
X1220Y1818D01*
X1222Y1818D01*
X1222Y1816D01*
X1224Y1816D01*
X1224Y1814D01*
X1226Y1814D01*
X1226Y1812D01*
X1228Y1812D01*
X1228Y1810D01*
X1230Y1810D01*
X1230Y1806D01*
X1250Y1806D01*
X1250Y1808D01*
X1252Y1808D01*
X1252Y1810D01*
X1254Y1810D01*
X1254Y1812D01*
X1256Y1812D01*
X1256Y1814D01*
X1258Y1814D01*
X1258Y1816D01*
X1260Y1816D01*
X1260Y1818D01*
X1262Y1818D01*
X1262Y1820D01*
X1264Y1820D01*
X1264Y1822D01*
X1266Y1822D01*
X1266Y1824D01*
X1268Y1824D01*
X1268Y1844D01*
X1266Y1844D01*
X1266Y1846D01*
X1262Y1846D01*
X1262Y1848D01*
X1260Y1848D01*
X1260Y1850D01*
X1258Y1850D01*
X1258Y1852D01*
X1256Y1852D01*
X1256Y1854D01*
X1254Y1854D01*
X1254Y1858D01*
X1252Y1858D01*
X1252Y1860D01*
X1230Y1860D01*
G37*
D02*
G36*
X222Y1800D02*
X222Y1796D01*
X220Y1796D01*
X220Y1792D01*
X218Y1792D01*
X218Y1788D01*
X216Y1788D01*
X216Y1784D01*
X214Y1784D01*
X214Y1780D01*
X212Y1780D01*
X212Y1714D01*
X214Y1714D01*
X214Y1706D01*
X250Y1706D01*
X250Y1710D01*
X252Y1710D01*
X252Y1712D01*
X254Y1712D01*
X254Y1714D01*
X256Y1714D01*
X256Y1734D01*
X242Y1734D01*
X242Y1800D01*
X222Y1800D01*
G37*
D02*
G36*
X1230Y1760D02*
X1230Y1758D01*
X1228Y1758D01*
X1228Y1756D01*
X1226Y1756D01*
X1226Y1752D01*
X1224Y1752D01*
X1224Y1750D01*
X1222Y1750D01*
X1222Y1748D01*
X1218Y1748D01*
X1218Y1746D01*
X1216Y1746D01*
X1216Y1744D01*
X1214Y1744D01*
X1214Y1724D01*
X1216Y1724D01*
X1216Y1722D01*
X1218Y1722D01*
X1218Y1720D01*
X1220Y1720D01*
X1220Y1718D01*
X1222Y1718D01*
X1222Y1716D01*
X1224Y1716D01*
X1224Y1714D01*
X1226Y1714D01*
X1226Y1712D01*
X1228Y1712D01*
X1228Y1710D01*
X1230Y1710D01*
X1230Y1706D01*
X1250Y1706D01*
X1250Y1708D01*
X1252Y1708D01*
X1252Y1710D01*
X1254Y1710D01*
X1254Y1712D01*
X1256Y1712D01*
X1256Y1714D01*
X1258Y1714D01*
X1258Y1716D01*
X1260Y1716D01*
X1260Y1718D01*
X1262Y1718D01*
X1262Y1720D01*
X1264Y1720D01*
X1264Y1722D01*
X1266Y1722D01*
X1266Y1724D01*
X1268Y1724D01*
X1268Y1744D01*
X1266Y1744D01*
X1266Y1746D01*
X1262Y1746D01*
X1262Y1748D01*
X1260Y1748D01*
X1260Y1750D01*
X1258Y1750D01*
X1258Y1752D01*
X1256Y1752D01*
X1256Y1754D01*
X1254Y1754D01*
X1254Y1758D01*
X1252Y1758D01*
X1252Y1760D01*
X1230Y1760D01*
G37*
D02*
G36*
X1136Y1748D02*
X1136Y1746D01*
X1128Y1746D01*
X1128Y1744D01*
X1120Y1744D01*
X1120Y1742D01*
X1112Y1742D01*
X1112Y1740D01*
X1104Y1740D01*
X1104Y1738D01*
X1096Y1738D01*
X1096Y1736D01*
X1088Y1736D01*
X1088Y1734D01*
X1080Y1734D01*
X1080Y1732D01*
X1072Y1732D01*
X1072Y1730D01*
X1064Y1730D01*
X1064Y1728D01*
X1056Y1728D01*
X1056Y1726D01*
X1048Y1726D01*
X1048Y1706D01*
X1150Y1706D01*
X1150Y1708D01*
X1152Y1708D01*
X1152Y1710D01*
X1154Y1710D01*
X1154Y1712D01*
X1156Y1712D01*
X1156Y1714D01*
X1158Y1714D01*
X1158Y1716D01*
X1160Y1716D01*
X1160Y1718D01*
X1162Y1718D01*
X1162Y1720D01*
X1164Y1720D01*
X1164Y1722D01*
X1166Y1722D01*
X1166Y1724D01*
X1168Y1724D01*
X1168Y1744D01*
X1166Y1744D01*
X1166Y1746D01*
X1162Y1746D01*
X1162Y1748D01*
X1136Y1748D01*
G37*
D02*
G36*
X936Y1698D02*
X936Y1696D01*
X928Y1696D01*
X928Y1694D01*
X920Y1694D01*
X920Y1692D01*
X912Y1692D01*
X912Y1690D01*
X904Y1690D01*
X904Y1688D01*
X896Y1688D01*
X896Y1686D01*
X888Y1686D01*
X888Y1684D01*
X880Y1684D01*
X880Y1682D01*
X872Y1682D01*
X872Y1680D01*
X864Y1680D01*
X864Y1678D01*
X856Y1678D01*
X856Y1676D01*
X848Y1676D01*
X848Y1674D01*
X840Y1674D01*
X840Y1672D01*
X832Y1672D01*
X832Y1670D01*
X824Y1670D01*
X824Y1668D01*
X816Y1668D01*
X816Y1666D01*
X814Y1666D01*
X814Y1506D01*
X850Y1506D01*
X850Y1508D01*
X852Y1508D01*
X852Y1510D01*
X854Y1510D01*
X854Y1512D01*
X856Y1512D01*
X856Y1514D01*
X858Y1514D01*
X858Y1516D01*
X860Y1516D01*
X860Y1536D01*
X844Y1536D01*
X844Y1632D01*
X910Y1632D01*
X910Y1634D01*
X912Y1634D01*
X912Y1636D01*
X914Y1636D01*
X914Y1638D01*
X916Y1638D01*
X916Y1640D01*
X918Y1640D01*
X918Y1642D01*
X920Y1642D01*
X920Y1644D01*
X922Y1644D01*
X922Y1646D01*
X924Y1646D01*
X924Y1648D01*
X926Y1648D01*
X926Y1650D01*
X928Y1650D01*
X928Y1652D01*
X930Y1652D01*
X930Y1654D01*
X932Y1654D01*
X932Y1656D01*
X934Y1656D01*
X934Y1658D01*
X936Y1658D01*
X936Y1660D01*
X938Y1660D01*
X938Y1662D01*
X940Y1662D01*
X940Y1664D01*
X942Y1664D01*
X942Y1666D01*
X944Y1666D01*
X944Y1668D01*
X946Y1668D01*
X946Y1670D01*
X948Y1670D01*
X948Y1672D01*
X950Y1672D01*
X950Y1674D01*
X952Y1674D01*
X952Y1676D01*
X954Y1676D01*
X954Y1678D01*
X956Y1678D01*
X956Y1680D01*
X958Y1680D01*
X958Y1682D01*
X960Y1682D01*
X960Y1684D01*
X962Y1684D01*
X962Y1698D01*
X936Y1698D01*
G37*
D02*
G36*
X1000Y1662D02*
X1000Y1660D01*
X998Y1660D01*
X998Y1658D01*
X996Y1658D01*
X996Y1656D01*
X994Y1656D01*
X994Y1654D01*
X992Y1654D01*
X992Y1652D01*
X990Y1652D01*
X990Y1632D01*
X994Y1632D01*
X994Y1630D01*
X1004Y1630D01*
X1004Y1628D01*
X1008Y1628D01*
X1008Y1626D01*
X1012Y1626D01*
X1012Y1624D01*
X1016Y1624D01*
X1016Y1622D01*
X1018Y1622D01*
X1018Y1620D01*
X1020Y1620D01*
X1020Y1618D01*
X1022Y1618D01*
X1022Y1616D01*
X1024Y1616D01*
X1024Y1614D01*
X1026Y1614D01*
X1026Y1612D01*
X1028Y1612D01*
X1028Y1610D01*
X1030Y1610D01*
X1030Y1606D01*
X1150Y1606D01*
X1150Y1608D01*
X1152Y1608D01*
X1152Y1610D01*
X1154Y1610D01*
X1154Y1612D01*
X1156Y1612D01*
X1156Y1614D01*
X1158Y1614D01*
X1158Y1616D01*
X1160Y1616D01*
X1160Y1618D01*
X1162Y1618D01*
X1162Y1620D01*
X1164Y1620D01*
X1164Y1622D01*
X1166Y1622D01*
X1166Y1624D01*
X1168Y1624D01*
X1168Y1644D01*
X1166Y1644D01*
X1166Y1646D01*
X1162Y1646D01*
X1162Y1648D01*
X1160Y1648D01*
X1160Y1650D01*
X1158Y1650D01*
X1158Y1652D01*
X1156Y1652D01*
X1156Y1654D01*
X1154Y1654D01*
X1154Y1658D01*
X1152Y1658D01*
X1152Y1660D01*
X1150Y1660D01*
X1150Y1662D01*
X1000Y1662D01*
G37*
D02*
G36*
X1230Y1660D02*
X1230Y1658D01*
X1228Y1658D01*
X1228Y1656D01*
X1226Y1656D01*
X1226Y1652D01*
X1224Y1652D01*
X1224Y1650D01*
X1222Y1650D01*
X1222Y1648D01*
X1218Y1648D01*
X1218Y1646D01*
X1216Y1646D01*
X1216Y1644D01*
X1214Y1644D01*
X1214Y1624D01*
X1216Y1624D01*
X1216Y1622D01*
X1218Y1622D01*
X1218Y1620D01*
X1220Y1620D01*
X1220Y1618D01*
X1222Y1618D01*
X1222Y1616D01*
X1224Y1616D01*
X1224Y1614D01*
X1226Y1614D01*
X1226Y1612D01*
X1228Y1612D01*
X1228Y1610D01*
X1230Y1610D01*
X1230Y1606D01*
X1250Y1606D01*
X1250Y1608D01*
X1252Y1608D01*
X1252Y1610D01*
X1254Y1610D01*
X1254Y1612D01*
X1256Y1612D01*
X1256Y1614D01*
X1258Y1614D01*
X1258Y1616D01*
X1260Y1616D01*
X1260Y1618D01*
X1262Y1618D01*
X1262Y1620D01*
X1264Y1620D01*
X1264Y1622D01*
X1266Y1622D01*
X1266Y1624D01*
X1268Y1624D01*
X1268Y1644D01*
X1266Y1644D01*
X1266Y1646D01*
X1262Y1646D01*
X1262Y1648D01*
X1260Y1648D01*
X1260Y1650D01*
X1258Y1650D01*
X1258Y1652D01*
X1256Y1652D01*
X1256Y1654D01*
X1254Y1654D01*
X1254Y1658D01*
X1252Y1658D01*
X1252Y1660D01*
X1230Y1660D01*
G37*
D02*
G36*
X1032Y1562D02*
X1032Y1560D01*
X1030Y1560D01*
X1030Y1558D01*
X1028Y1558D01*
X1028Y1556D01*
X1026Y1556D01*
X1026Y1552D01*
X1024Y1552D01*
X1024Y1550D01*
X1022Y1550D01*
X1022Y1548D01*
X1018Y1548D01*
X1018Y1546D01*
X1016Y1546D01*
X1016Y1544D01*
X1014Y1544D01*
X1014Y1524D01*
X1016Y1524D01*
X1016Y1522D01*
X1018Y1522D01*
X1018Y1520D01*
X1020Y1520D01*
X1020Y1518D01*
X1022Y1518D01*
X1022Y1516D01*
X1024Y1516D01*
X1024Y1514D01*
X1026Y1514D01*
X1026Y1512D01*
X1028Y1512D01*
X1028Y1510D01*
X1030Y1510D01*
X1030Y1506D01*
X1150Y1506D01*
X1150Y1508D01*
X1152Y1508D01*
X1152Y1510D01*
X1154Y1510D01*
X1154Y1512D01*
X1156Y1512D01*
X1156Y1514D01*
X1158Y1514D01*
X1158Y1516D01*
X1160Y1516D01*
X1160Y1518D01*
X1162Y1518D01*
X1162Y1520D01*
X1164Y1520D01*
X1164Y1522D01*
X1166Y1522D01*
X1166Y1524D01*
X1168Y1524D01*
X1168Y1544D01*
X1166Y1544D01*
X1166Y1546D01*
X1162Y1546D01*
X1162Y1548D01*
X1160Y1548D01*
X1160Y1550D01*
X1158Y1550D01*
X1158Y1552D01*
X1156Y1552D01*
X1156Y1554D01*
X1154Y1554D01*
X1154Y1558D01*
X1152Y1558D01*
X1152Y1560D01*
X1150Y1560D01*
X1150Y1562D01*
X1032Y1562D01*
G37*
D02*
G36*
X1230Y1560D02*
X1230Y1558D01*
X1228Y1558D01*
X1228Y1556D01*
X1226Y1556D01*
X1226Y1552D01*
X1224Y1552D01*
X1224Y1550D01*
X1222Y1550D01*
X1222Y1548D01*
X1218Y1548D01*
X1218Y1546D01*
X1216Y1546D01*
X1216Y1544D01*
X1214Y1544D01*
X1214Y1524D01*
X1216Y1524D01*
X1216Y1522D01*
X1218Y1522D01*
X1218Y1520D01*
X1220Y1520D01*
X1220Y1518D01*
X1222Y1518D01*
X1222Y1516D01*
X1224Y1516D01*
X1224Y1514D01*
X1226Y1514D01*
X1226Y1512D01*
X1228Y1512D01*
X1228Y1510D01*
X1230Y1510D01*
X1230Y1506D01*
X1250Y1506D01*
X1250Y1508D01*
X1252Y1508D01*
X1252Y1510D01*
X1254Y1510D01*
X1254Y1512D01*
X1256Y1512D01*
X1256Y1514D01*
X1258Y1514D01*
X1258Y1516D01*
X1260Y1516D01*
X1260Y1518D01*
X1262Y1518D01*
X1262Y1520D01*
X1264Y1520D01*
X1264Y1522D01*
X1266Y1522D01*
X1266Y1524D01*
X1268Y1524D01*
X1268Y1544D01*
X1266Y1544D01*
X1266Y1546D01*
X1262Y1546D01*
X1262Y1548D01*
X1260Y1548D01*
X1260Y1550D01*
X1258Y1550D01*
X1258Y1552D01*
X1256Y1552D01*
X1256Y1554D01*
X1254Y1554D01*
X1254Y1558D01*
X1252Y1558D01*
X1252Y1560D01*
X1230Y1560D01*
G37*
D02*
G36*
X1032Y1462D02*
X1032Y1460D01*
X1030Y1460D01*
X1030Y1458D01*
X1028Y1458D01*
X1028Y1456D01*
X1026Y1456D01*
X1026Y1452D01*
X1024Y1452D01*
X1024Y1450D01*
X1022Y1450D01*
X1022Y1448D01*
X1018Y1448D01*
X1018Y1446D01*
X1016Y1446D01*
X1016Y1444D01*
X1014Y1444D01*
X1014Y1424D01*
X1016Y1424D01*
X1016Y1422D01*
X1018Y1422D01*
X1018Y1420D01*
X1020Y1420D01*
X1020Y1418D01*
X1022Y1418D01*
X1022Y1416D01*
X1024Y1416D01*
X1024Y1414D01*
X1026Y1414D01*
X1026Y1412D01*
X1028Y1412D01*
X1028Y1410D01*
X1030Y1410D01*
X1030Y1406D01*
X1150Y1406D01*
X1150Y1408D01*
X1152Y1408D01*
X1152Y1410D01*
X1154Y1410D01*
X1154Y1412D01*
X1156Y1412D01*
X1156Y1414D01*
X1158Y1414D01*
X1158Y1416D01*
X1160Y1416D01*
X1160Y1418D01*
X1162Y1418D01*
X1162Y1420D01*
X1164Y1420D01*
X1164Y1422D01*
X1166Y1422D01*
X1166Y1424D01*
X1168Y1424D01*
X1168Y1444D01*
X1166Y1444D01*
X1166Y1446D01*
X1162Y1446D01*
X1162Y1448D01*
X1160Y1448D01*
X1160Y1450D01*
X1158Y1450D01*
X1158Y1452D01*
X1156Y1452D01*
X1156Y1454D01*
X1154Y1454D01*
X1154Y1458D01*
X1152Y1458D01*
X1152Y1460D01*
X1150Y1460D01*
X1150Y1462D01*
X1032Y1462D01*
G37*
D02*
G36*
X930Y1460D02*
X930Y1458D01*
X928Y1458D01*
X928Y1456D01*
X926Y1456D01*
X926Y1452D01*
X924Y1452D01*
X924Y1450D01*
X922Y1450D01*
X922Y1448D01*
X918Y1448D01*
X918Y1446D01*
X916Y1446D01*
X916Y1444D01*
X914Y1444D01*
X914Y1424D01*
X916Y1424D01*
X916Y1422D01*
X918Y1422D01*
X918Y1420D01*
X920Y1420D01*
X920Y1418D01*
X922Y1418D01*
X922Y1416D01*
X924Y1416D01*
X924Y1414D01*
X926Y1414D01*
X926Y1412D01*
X928Y1412D01*
X928Y1410D01*
X930Y1410D01*
X930Y1406D01*
X950Y1406D01*
X950Y1408D01*
X952Y1408D01*
X952Y1410D01*
X954Y1410D01*
X954Y1412D01*
X956Y1412D01*
X956Y1414D01*
X958Y1414D01*
X958Y1416D01*
X960Y1416D01*
X960Y1418D01*
X962Y1418D01*
X962Y1420D01*
X964Y1420D01*
X964Y1422D01*
X966Y1422D01*
X966Y1424D01*
X968Y1424D01*
X968Y1444D01*
X966Y1444D01*
X966Y1446D01*
X962Y1446D01*
X962Y1448D01*
X960Y1448D01*
X960Y1450D01*
X958Y1450D01*
X958Y1452D01*
X956Y1452D01*
X956Y1454D01*
X954Y1454D01*
X954Y1458D01*
X952Y1458D01*
X952Y1460D01*
X930Y1460D01*
G37*
D02*
G36*
X1230Y1460D02*
X1230Y1458D01*
X1228Y1458D01*
X1228Y1456D01*
X1226Y1456D01*
X1226Y1452D01*
X1224Y1452D01*
X1224Y1450D01*
X1222Y1450D01*
X1222Y1448D01*
X1218Y1448D01*
X1218Y1446D01*
X1216Y1446D01*
X1216Y1444D01*
X1214Y1444D01*
X1214Y1424D01*
X1216Y1424D01*
X1216Y1422D01*
X1218Y1422D01*
X1218Y1420D01*
X1220Y1420D01*
X1220Y1418D01*
X1222Y1418D01*
X1222Y1416D01*
X1224Y1416D01*
X1224Y1414D01*
X1226Y1414D01*
X1226Y1412D01*
X1228Y1412D01*
X1228Y1410D01*
X1230Y1410D01*
X1230Y1406D01*
X1250Y1406D01*
X1250Y1408D01*
X1252Y1408D01*
X1252Y1410D01*
X1254Y1410D01*
X1254Y1412D01*
X1256Y1412D01*
X1256Y1414D01*
X1258Y1414D01*
X1258Y1416D01*
X1260Y1416D01*
X1260Y1418D01*
X1262Y1418D01*
X1262Y1420D01*
X1264Y1420D01*
X1264Y1422D01*
X1266Y1422D01*
X1266Y1424D01*
X1268Y1424D01*
X1268Y1444D01*
X1266Y1444D01*
X1266Y1446D01*
X1262Y1446D01*
X1262Y1448D01*
X1260Y1448D01*
X1260Y1450D01*
X1258Y1450D01*
X1258Y1452D01*
X1256Y1452D01*
X1256Y1454D01*
X1254Y1454D01*
X1254Y1458D01*
X1252Y1458D01*
X1252Y1460D01*
X1230Y1460D01*
G37*
D02*
G36*
X1032Y1362D02*
X1032Y1360D01*
X1030Y1360D01*
X1030Y1358D01*
X1028Y1358D01*
X1028Y1356D01*
X1026Y1356D01*
X1026Y1352D01*
X1024Y1352D01*
X1024Y1350D01*
X1022Y1350D01*
X1022Y1348D01*
X1018Y1348D01*
X1018Y1346D01*
X1016Y1346D01*
X1016Y1344D01*
X1014Y1344D01*
X1014Y1324D01*
X1016Y1324D01*
X1016Y1322D01*
X1018Y1322D01*
X1018Y1320D01*
X1020Y1320D01*
X1020Y1318D01*
X1022Y1318D01*
X1022Y1316D01*
X1024Y1316D01*
X1024Y1314D01*
X1026Y1314D01*
X1026Y1312D01*
X1028Y1312D01*
X1028Y1310D01*
X1030Y1310D01*
X1030Y1306D01*
X1150Y1306D01*
X1150Y1308D01*
X1152Y1308D01*
X1152Y1310D01*
X1154Y1310D01*
X1154Y1312D01*
X1156Y1312D01*
X1156Y1314D01*
X1158Y1314D01*
X1158Y1316D01*
X1160Y1316D01*
X1160Y1318D01*
X1162Y1318D01*
X1162Y1320D01*
X1164Y1320D01*
X1164Y1322D01*
X1166Y1322D01*
X1166Y1324D01*
X1168Y1324D01*
X1168Y1344D01*
X1166Y1344D01*
X1166Y1346D01*
X1162Y1346D01*
X1162Y1348D01*
X1160Y1348D01*
X1160Y1350D01*
X1158Y1350D01*
X1158Y1352D01*
X1156Y1352D01*
X1156Y1354D01*
X1154Y1354D01*
X1154Y1358D01*
X1152Y1358D01*
X1152Y1360D01*
X1150Y1360D01*
X1150Y1362D01*
X1032Y1362D01*
G37*
D02*
G36*
X930Y1360D02*
X930Y1358D01*
X928Y1358D01*
X928Y1356D01*
X926Y1356D01*
X926Y1352D01*
X924Y1352D01*
X924Y1350D01*
X922Y1350D01*
X922Y1348D01*
X918Y1348D01*
X918Y1346D01*
X916Y1346D01*
X916Y1344D01*
X914Y1344D01*
X914Y1324D01*
X916Y1324D01*
X916Y1322D01*
X918Y1322D01*
X918Y1320D01*
X920Y1320D01*
X920Y1318D01*
X922Y1318D01*
X922Y1316D01*
X924Y1316D01*
X924Y1314D01*
X926Y1314D01*
X926Y1312D01*
X928Y1312D01*
X928Y1310D01*
X930Y1310D01*
X930Y1306D01*
X950Y1306D01*
X950Y1308D01*
X952Y1308D01*
X952Y1310D01*
X954Y1310D01*
X954Y1312D01*
X956Y1312D01*
X956Y1314D01*
X958Y1314D01*
X958Y1316D01*
X960Y1316D01*
X960Y1318D01*
X962Y1318D01*
X962Y1320D01*
X964Y1320D01*
X964Y1322D01*
X966Y1322D01*
X966Y1324D01*
X968Y1324D01*
X968Y1344D01*
X966Y1344D01*
X966Y1346D01*
X962Y1346D01*
X962Y1348D01*
X960Y1348D01*
X960Y1350D01*
X958Y1350D01*
X958Y1352D01*
X956Y1352D01*
X956Y1354D01*
X954Y1354D01*
X954Y1358D01*
X952Y1358D01*
X952Y1360D01*
X930Y1360D01*
G37*
D02*
G36*
X1230Y1360D02*
X1230Y1358D01*
X1228Y1358D01*
X1228Y1356D01*
X1226Y1356D01*
X1226Y1352D01*
X1224Y1352D01*
X1224Y1350D01*
X1222Y1350D01*
X1222Y1348D01*
X1218Y1348D01*
X1218Y1346D01*
X1216Y1346D01*
X1216Y1344D01*
X1214Y1344D01*
X1214Y1324D01*
X1216Y1324D01*
X1216Y1322D01*
X1218Y1322D01*
X1218Y1320D01*
X1220Y1320D01*
X1220Y1318D01*
X1222Y1318D01*
X1222Y1316D01*
X1224Y1316D01*
X1224Y1314D01*
X1226Y1314D01*
X1226Y1312D01*
X1228Y1312D01*
X1228Y1310D01*
X1230Y1310D01*
X1230Y1306D01*
X1250Y1306D01*
X1250Y1308D01*
X1252Y1308D01*
X1252Y1310D01*
X1254Y1310D01*
X1254Y1312D01*
X1256Y1312D01*
X1256Y1314D01*
X1258Y1314D01*
X1258Y1316D01*
X1260Y1316D01*
X1260Y1318D01*
X1262Y1318D01*
X1262Y1320D01*
X1264Y1320D01*
X1264Y1322D01*
X1266Y1322D01*
X1266Y1324D01*
X1268Y1324D01*
X1268Y1344D01*
X1266Y1344D01*
X1266Y1346D01*
X1262Y1346D01*
X1262Y1348D01*
X1260Y1348D01*
X1260Y1350D01*
X1258Y1350D01*
X1258Y1352D01*
X1256Y1352D01*
X1256Y1354D01*
X1254Y1354D01*
X1254Y1358D01*
X1252Y1358D01*
X1252Y1360D01*
X1230Y1360D01*
G37*
D02*
G36*
X1032Y1262D02*
X1032Y1260D01*
X1030Y1260D01*
X1030Y1258D01*
X1028Y1258D01*
X1028Y1256D01*
X1026Y1256D01*
X1026Y1252D01*
X1024Y1252D01*
X1024Y1250D01*
X1022Y1250D01*
X1022Y1248D01*
X1018Y1248D01*
X1018Y1246D01*
X1016Y1246D01*
X1016Y1244D01*
X1014Y1244D01*
X1014Y1224D01*
X1016Y1224D01*
X1016Y1222D01*
X1018Y1222D01*
X1018Y1220D01*
X1020Y1220D01*
X1020Y1218D01*
X1022Y1218D01*
X1022Y1216D01*
X1024Y1216D01*
X1024Y1214D01*
X1026Y1214D01*
X1026Y1212D01*
X1028Y1212D01*
X1028Y1210D01*
X1030Y1210D01*
X1030Y1206D01*
X1150Y1206D01*
X1150Y1208D01*
X1152Y1208D01*
X1152Y1210D01*
X1154Y1210D01*
X1154Y1212D01*
X1156Y1212D01*
X1156Y1214D01*
X1158Y1214D01*
X1158Y1216D01*
X1160Y1216D01*
X1160Y1218D01*
X1162Y1218D01*
X1162Y1220D01*
X1164Y1220D01*
X1164Y1222D01*
X1166Y1222D01*
X1166Y1224D01*
X1168Y1224D01*
X1168Y1244D01*
X1166Y1244D01*
X1166Y1246D01*
X1162Y1246D01*
X1162Y1248D01*
X1160Y1248D01*
X1160Y1250D01*
X1158Y1250D01*
X1158Y1252D01*
X1156Y1252D01*
X1156Y1254D01*
X1154Y1254D01*
X1154Y1258D01*
X1152Y1258D01*
X1152Y1260D01*
X1150Y1260D01*
X1150Y1262D01*
X1032Y1262D01*
G37*
D02*
G36*
X930Y1260D02*
X930Y1258D01*
X928Y1258D01*
X928Y1256D01*
X926Y1256D01*
X926Y1252D01*
X924Y1252D01*
X924Y1250D01*
X922Y1250D01*
X922Y1248D01*
X918Y1248D01*
X918Y1246D01*
X916Y1246D01*
X916Y1244D01*
X914Y1244D01*
X914Y1224D01*
X916Y1224D01*
X916Y1222D01*
X918Y1222D01*
X918Y1220D01*
X920Y1220D01*
X920Y1218D01*
X922Y1218D01*
X922Y1216D01*
X924Y1216D01*
X924Y1214D01*
X926Y1214D01*
X926Y1212D01*
X928Y1212D01*
X928Y1210D01*
X930Y1210D01*
X930Y1206D01*
X950Y1206D01*
X950Y1208D01*
X952Y1208D01*
X952Y1210D01*
X954Y1210D01*
X954Y1212D01*
X956Y1212D01*
X956Y1214D01*
X958Y1214D01*
X958Y1216D01*
X960Y1216D01*
X960Y1218D01*
X962Y1218D01*
X962Y1220D01*
X964Y1220D01*
X964Y1222D01*
X966Y1222D01*
X966Y1224D01*
X968Y1224D01*
X968Y1244D01*
X966Y1244D01*
X966Y1246D01*
X962Y1246D01*
X962Y1248D01*
X960Y1248D01*
X960Y1250D01*
X958Y1250D01*
X958Y1252D01*
X956Y1252D01*
X956Y1254D01*
X954Y1254D01*
X954Y1258D01*
X952Y1258D01*
X952Y1260D01*
X930Y1260D01*
G37*
D02*
G36*
X1230Y1260D02*
X1230Y1258D01*
X1228Y1258D01*
X1228Y1256D01*
X1226Y1256D01*
X1226Y1252D01*
X1224Y1252D01*
X1224Y1250D01*
X1222Y1250D01*
X1222Y1248D01*
X1218Y1248D01*
X1218Y1246D01*
X1216Y1246D01*
X1216Y1244D01*
X1214Y1244D01*
X1214Y1224D01*
X1216Y1224D01*
X1216Y1222D01*
X1218Y1222D01*
X1218Y1220D01*
X1220Y1220D01*
X1220Y1218D01*
X1222Y1218D01*
X1222Y1216D01*
X1224Y1216D01*
X1224Y1214D01*
X1226Y1214D01*
X1226Y1212D01*
X1228Y1212D01*
X1228Y1210D01*
X1230Y1210D01*
X1230Y1206D01*
X1250Y1206D01*
X1250Y1208D01*
X1252Y1208D01*
X1252Y1210D01*
X1254Y1210D01*
X1254Y1212D01*
X1256Y1212D01*
X1256Y1214D01*
X1258Y1214D01*
X1258Y1216D01*
X1260Y1216D01*
X1260Y1218D01*
X1262Y1218D01*
X1262Y1220D01*
X1264Y1220D01*
X1264Y1222D01*
X1266Y1222D01*
X1266Y1224D01*
X1268Y1224D01*
X1268Y1244D01*
X1266Y1244D01*
X1266Y1246D01*
X1262Y1246D01*
X1262Y1248D01*
X1260Y1248D01*
X1260Y1250D01*
X1258Y1250D01*
X1258Y1252D01*
X1256Y1252D01*
X1256Y1254D01*
X1254Y1254D01*
X1254Y1258D01*
X1252Y1258D01*
X1252Y1260D01*
X1230Y1260D01*
G37*
D02*
G36*
X812Y1162D02*
X812Y1036D01*
X884Y1036D01*
X884Y1038D01*
X876Y1038D01*
X876Y1040D01*
X872Y1040D01*
X872Y1042D01*
X868Y1042D01*
X868Y1044D01*
X866Y1044D01*
X866Y1046D01*
X862Y1046D01*
X862Y1048D01*
X860Y1048D01*
X860Y1050D01*
X858Y1050D01*
X858Y1052D01*
X856Y1052D01*
X856Y1054D01*
X854Y1054D01*
X854Y1058D01*
X852Y1058D01*
X852Y1060D01*
X850Y1060D01*
X850Y1064D01*
X848Y1064D01*
X848Y1068D01*
X846Y1068D01*
X846Y1072D01*
X844Y1072D01*
X844Y1094D01*
X846Y1094D01*
X846Y1100D01*
X848Y1100D01*
X848Y1104D01*
X850Y1104D01*
X850Y1108D01*
X852Y1108D01*
X852Y1110D01*
X854Y1110D01*
X854Y1112D01*
X856Y1112D01*
X856Y1114D01*
X858Y1114D01*
X858Y1116D01*
X860Y1116D01*
X860Y1118D01*
X862Y1118D01*
X862Y1120D01*
X864Y1120D01*
X864Y1122D01*
X866Y1122D01*
X866Y1124D01*
X868Y1124D01*
X868Y1144D01*
X866Y1144D01*
X866Y1146D01*
X862Y1146D01*
X862Y1148D01*
X860Y1148D01*
X860Y1150D01*
X858Y1150D01*
X858Y1152D01*
X856Y1152D01*
X856Y1154D01*
X854Y1154D01*
X854Y1158D01*
X852Y1158D01*
X852Y1160D01*
X850Y1160D01*
X850Y1162D01*
X812Y1162D01*
G37*
D02*
G36*
X1032Y1062D02*
X1032Y1060D01*
X1030Y1060D01*
X1030Y1058D01*
X1028Y1058D01*
X1028Y1056D01*
X1026Y1056D01*
X1026Y1052D01*
X1024Y1052D01*
X1024Y1050D01*
X1022Y1050D01*
X1022Y1048D01*
X1018Y1048D01*
X1018Y1046D01*
X1016Y1046D01*
X1016Y1044D01*
X1014Y1044D01*
X1014Y1042D01*
X1010Y1042D01*
X1010Y1040D01*
X1006Y1040D01*
X1006Y1038D01*
X998Y1038D01*
X998Y1036D01*
X1168Y1036D01*
X1168Y1044D01*
X1166Y1044D01*
X1166Y1046D01*
X1162Y1046D01*
X1162Y1048D01*
X1160Y1048D01*
X1160Y1050D01*
X1158Y1050D01*
X1158Y1052D01*
X1156Y1052D01*
X1156Y1054D01*
X1154Y1054D01*
X1154Y1058D01*
X1152Y1058D01*
X1152Y1060D01*
X1150Y1060D01*
X1150Y1062D01*
X1032Y1062D01*
G37*
D02*
G36*
X930Y1060D02*
X930Y1058D01*
X928Y1058D01*
X928Y1056D01*
X926Y1056D01*
X926Y1052D01*
X924Y1052D01*
X924Y1050D01*
X922Y1050D01*
X922Y1048D01*
X918Y1048D01*
X918Y1046D01*
X916Y1046D01*
X916Y1044D01*
X914Y1044D01*
X914Y1042D01*
X910Y1042D01*
X910Y1040D01*
X906Y1040D01*
X906Y1038D01*
X898Y1038D01*
X898Y1036D01*
X984Y1036D01*
X984Y1038D01*
X976Y1038D01*
X976Y1040D01*
X972Y1040D01*
X972Y1042D01*
X968Y1042D01*
X968Y1044D01*
X966Y1044D01*
X966Y1046D01*
X962Y1046D01*
X962Y1048D01*
X960Y1048D01*
X960Y1050D01*
X958Y1050D01*
X958Y1052D01*
X956Y1052D01*
X956Y1054D01*
X954Y1054D01*
X954Y1058D01*
X952Y1058D01*
X952Y1060D01*
X930Y1060D01*
G37*
D02*
G36*
X812Y1036D02*
X812Y1034D01*
X1168Y1034D01*
X1168Y1036D01*
X812Y1036D01*
G37*
D02*
G36*
X812Y1036D02*
X812Y1034D01*
X1168Y1034D01*
X1168Y1036D01*
X812Y1036D01*
G37*
D02*
G36*
X812Y1036D02*
X812Y1034D01*
X1168Y1034D01*
X1168Y1036D01*
X812Y1036D01*
G37*
D02*
G36*
X812Y1034D02*
X812Y1004D01*
X906Y1004D01*
X906Y1006D01*
X1150Y1006D01*
X1150Y1008D01*
X1152Y1008D01*
X1152Y1010D01*
X1154Y1010D01*
X1154Y1012D01*
X1156Y1012D01*
X1156Y1014D01*
X1158Y1014D01*
X1158Y1016D01*
X1160Y1016D01*
X1160Y1018D01*
X1162Y1018D01*
X1162Y1020D01*
X1164Y1020D01*
X1164Y1022D01*
X1166Y1022D01*
X1166Y1024D01*
X1168Y1024D01*
X1168Y1034D01*
X812Y1034D01*
G37*
D02*
G36*
X1032Y1162D02*
X1032Y1160D01*
X1030Y1160D01*
X1030Y1158D01*
X1028Y1158D01*
X1028Y1156D01*
X1026Y1156D01*
X1026Y1152D01*
X1024Y1152D01*
X1024Y1150D01*
X1022Y1150D01*
X1022Y1148D01*
X1018Y1148D01*
X1018Y1146D01*
X1016Y1146D01*
X1016Y1144D01*
X1014Y1144D01*
X1014Y1124D01*
X1016Y1124D01*
X1016Y1122D01*
X1018Y1122D01*
X1018Y1120D01*
X1020Y1120D01*
X1020Y1118D01*
X1022Y1118D01*
X1022Y1116D01*
X1024Y1116D01*
X1024Y1114D01*
X1026Y1114D01*
X1026Y1112D01*
X1028Y1112D01*
X1028Y1110D01*
X1030Y1110D01*
X1030Y1106D01*
X1150Y1106D01*
X1150Y1108D01*
X1152Y1108D01*
X1152Y1110D01*
X1154Y1110D01*
X1154Y1112D01*
X1156Y1112D01*
X1156Y1114D01*
X1158Y1114D01*
X1158Y1116D01*
X1160Y1116D01*
X1160Y1118D01*
X1162Y1118D01*
X1162Y1120D01*
X1164Y1120D01*
X1164Y1122D01*
X1166Y1122D01*
X1166Y1124D01*
X1168Y1124D01*
X1168Y1144D01*
X1166Y1144D01*
X1166Y1146D01*
X1162Y1146D01*
X1162Y1148D01*
X1160Y1148D01*
X1160Y1150D01*
X1158Y1150D01*
X1158Y1152D01*
X1156Y1152D01*
X1156Y1154D01*
X1154Y1154D01*
X1154Y1158D01*
X1152Y1158D01*
X1152Y1160D01*
X1150Y1160D01*
X1150Y1162D01*
X1032Y1162D01*
G37*
D02*
G36*
X930Y1160D02*
X930Y1158D01*
X928Y1158D01*
X928Y1156D01*
X926Y1156D01*
X926Y1152D01*
X924Y1152D01*
X924Y1150D01*
X922Y1150D01*
X922Y1148D01*
X918Y1148D01*
X918Y1146D01*
X916Y1146D01*
X916Y1144D01*
X914Y1144D01*
X914Y1124D01*
X916Y1124D01*
X916Y1122D01*
X918Y1122D01*
X918Y1120D01*
X920Y1120D01*
X920Y1118D01*
X922Y1118D01*
X922Y1116D01*
X924Y1116D01*
X924Y1114D01*
X926Y1114D01*
X926Y1112D01*
X928Y1112D01*
X928Y1110D01*
X930Y1110D01*
X930Y1106D01*
X950Y1106D01*
X950Y1108D01*
X952Y1108D01*
X952Y1110D01*
X954Y1110D01*
X954Y1112D01*
X956Y1112D01*
X956Y1114D01*
X958Y1114D01*
X958Y1116D01*
X960Y1116D01*
X960Y1118D01*
X962Y1118D01*
X962Y1120D01*
X964Y1120D01*
X964Y1122D01*
X966Y1122D01*
X966Y1124D01*
X968Y1124D01*
X968Y1144D01*
X966Y1144D01*
X966Y1146D01*
X962Y1146D01*
X962Y1148D01*
X960Y1148D01*
X960Y1150D01*
X958Y1150D01*
X958Y1152D01*
X956Y1152D01*
X956Y1154D01*
X954Y1154D01*
X954Y1158D01*
X952Y1158D01*
X952Y1160D01*
X930Y1160D01*
G37*
D02*
G36*
X1230Y1160D02*
X1230Y1158D01*
X1228Y1158D01*
X1228Y1156D01*
X1226Y1156D01*
X1226Y1152D01*
X1224Y1152D01*
X1224Y1150D01*
X1222Y1150D01*
X1222Y1148D01*
X1218Y1148D01*
X1218Y1146D01*
X1216Y1146D01*
X1216Y1144D01*
X1214Y1144D01*
X1214Y1124D01*
X1216Y1124D01*
X1216Y1122D01*
X1218Y1122D01*
X1218Y1120D01*
X1220Y1120D01*
X1220Y1118D01*
X1222Y1118D01*
X1222Y1116D01*
X1224Y1116D01*
X1224Y1114D01*
X1226Y1114D01*
X1226Y1112D01*
X1228Y1112D01*
X1228Y1110D01*
X1230Y1110D01*
X1230Y1106D01*
X1250Y1106D01*
X1250Y1108D01*
X1252Y1108D01*
X1252Y1110D01*
X1254Y1110D01*
X1254Y1112D01*
X1256Y1112D01*
X1256Y1114D01*
X1258Y1114D01*
X1258Y1116D01*
X1260Y1116D01*
X1260Y1118D01*
X1262Y1118D01*
X1262Y1120D01*
X1264Y1120D01*
X1264Y1122D01*
X1266Y1122D01*
X1266Y1124D01*
X1268Y1124D01*
X1268Y1144D01*
X1266Y1144D01*
X1266Y1146D01*
X1262Y1146D01*
X1262Y1148D01*
X1260Y1148D01*
X1260Y1150D01*
X1258Y1150D01*
X1258Y1152D01*
X1256Y1152D01*
X1256Y1154D01*
X1254Y1154D01*
X1254Y1158D01*
X1252Y1158D01*
X1252Y1160D01*
X1230Y1160D01*
G37*
D02*
G36*
X1230Y1060D02*
X1230Y1058D01*
X1228Y1058D01*
X1228Y1056D01*
X1226Y1056D01*
X1226Y1052D01*
X1224Y1052D01*
X1224Y1050D01*
X1222Y1050D01*
X1222Y1048D01*
X1218Y1048D01*
X1218Y1046D01*
X1216Y1046D01*
X1216Y1044D01*
X1214Y1044D01*
X1214Y1024D01*
X1216Y1024D01*
X1216Y1022D01*
X1218Y1022D01*
X1218Y1020D01*
X1220Y1020D01*
X1220Y1018D01*
X1222Y1018D01*
X1222Y1016D01*
X1224Y1016D01*
X1224Y1014D01*
X1226Y1014D01*
X1226Y1012D01*
X1228Y1012D01*
X1228Y1010D01*
X1230Y1010D01*
X1230Y1006D01*
X1250Y1006D01*
X1250Y1008D01*
X1252Y1008D01*
X1252Y1010D01*
X1254Y1010D01*
X1254Y1012D01*
X1256Y1012D01*
X1256Y1014D01*
X1258Y1014D01*
X1258Y1016D01*
X1260Y1016D01*
X1260Y1018D01*
X1262Y1018D01*
X1262Y1020D01*
X1264Y1020D01*
X1264Y1022D01*
X1266Y1022D01*
X1266Y1024D01*
X1268Y1024D01*
X1268Y1044D01*
X1266Y1044D01*
X1266Y1046D01*
X1262Y1046D01*
X1262Y1048D01*
X1260Y1048D01*
X1260Y1050D01*
X1258Y1050D01*
X1258Y1052D01*
X1256Y1052D01*
X1256Y1054D01*
X1254Y1054D01*
X1254Y1058D01*
X1252Y1058D01*
X1252Y1060D01*
X1230Y1060D01*
G37*
D02*
G36*
X1230Y960D02*
X1230Y958D01*
X1228Y958D01*
X1228Y956D01*
X1226Y956D01*
X1226Y952D01*
X1224Y952D01*
X1224Y950D01*
X1222Y950D01*
X1222Y948D01*
X1218Y948D01*
X1218Y946D01*
X1216Y946D01*
X1216Y944D01*
X1214Y944D01*
X1214Y924D01*
X1216Y924D01*
X1216Y922D01*
X1218Y922D01*
X1218Y920D01*
X1220Y920D01*
X1220Y918D01*
X1222Y918D01*
X1222Y916D01*
X1224Y916D01*
X1224Y914D01*
X1226Y914D01*
X1226Y912D01*
X1228Y912D01*
X1228Y910D01*
X1230Y910D01*
X1230Y906D01*
X1250Y906D01*
X1250Y908D01*
X1252Y908D01*
X1252Y910D01*
X1254Y910D01*
X1254Y912D01*
X1256Y912D01*
X1256Y914D01*
X1258Y914D01*
X1258Y916D01*
X1260Y916D01*
X1260Y918D01*
X1262Y918D01*
X1262Y920D01*
X1264Y920D01*
X1264Y922D01*
X1266Y922D01*
X1266Y924D01*
X1268Y924D01*
X1268Y944D01*
X1266Y944D01*
X1266Y946D01*
X1262Y946D01*
X1262Y948D01*
X1260Y948D01*
X1260Y950D01*
X1258Y950D01*
X1258Y952D01*
X1256Y952D01*
X1256Y954D01*
X1254Y954D01*
X1254Y958D01*
X1252Y958D01*
X1252Y960D01*
X1230Y960D01*
G37*
D02*
G36*
X1230Y860D02*
X1230Y858D01*
X1228Y858D01*
X1228Y856D01*
X1226Y856D01*
X1226Y852D01*
X1224Y852D01*
X1224Y850D01*
X1222Y850D01*
X1222Y848D01*
X1218Y848D01*
X1218Y846D01*
X1216Y846D01*
X1216Y844D01*
X1214Y844D01*
X1214Y824D01*
X1216Y824D01*
X1216Y822D01*
X1218Y822D01*
X1218Y820D01*
X1220Y820D01*
X1220Y818D01*
X1222Y818D01*
X1222Y816D01*
X1224Y816D01*
X1224Y814D01*
X1226Y814D01*
X1226Y812D01*
X1228Y812D01*
X1228Y810D01*
X1230Y810D01*
X1230Y806D01*
X1250Y806D01*
X1250Y808D01*
X1252Y808D01*
X1252Y810D01*
X1254Y810D01*
X1254Y812D01*
X1256Y812D01*
X1256Y814D01*
X1258Y814D01*
X1258Y816D01*
X1260Y816D01*
X1260Y818D01*
X1262Y818D01*
X1262Y820D01*
X1264Y820D01*
X1264Y822D01*
X1266Y822D01*
X1266Y824D01*
X1268Y824D01*
X1268Y844D01*
X1266Y844D01*
X1266Y846D01*
X1262Y846D01*
X1262Y848D01*
X1260Y848D01*
X1260Y850D01*
X1258Y850D01*
X1258Y852D01*
X1256Y852D01*
X1256Y854D01*
X1254Y854D01*
X1254Y858D01*
X1252Y858D01*
X1252Y860D01*
X1230Y860D01*
G37*
D02*
G36*
X1230Y760D02*
X1230Y758D01*
X1228Y758D01*
X1228Y756D01*
X1226Y756D01*
X1226Y752D01*
X1224Y752D01*
X1224Y750D01*
X1222Y750D01*
X1222Y748D01*
X1218Y748D01*
X1218Y746D01*
X1216Y746D01*
X1216Y744D01*
X1214Y744D01*
X1214Y724D01*
X1216Y724D01*
X1216Y722D01*
X1218Y722D01*
X1218Y720D01*
X1220Y720D01*
X1220Y718D01*
X1222Y718D01*
X1222Y716D01*
X1224Y716D01*
X1224Y714D01*
X1226Y714D01*
X1226Y712D01*
X1228Y712D01*
X1228Y710D01*
X1230Y710D01*
X1230Y706D01*
X1250Y706D01*
X1250Y708D01*
X1252Y708D01*
X1252Y710D01*
X1254Y710D01*
X1254Y712D01*
X1256Y712D01*
X1256Y714D01*
X1258Y714D01*
X1258Y716D01*
X1260Y716D01*
X1260Y718D01*
X1262Y718D01*
X1262Y720D01*
X1264Y720D01*
X1264Y722D01*
X1266Y722D01*
X1266Y724D01*
X1268Y724D01*
X1268Y744D01*
X1266Y744D01*
X1266Y746D01*
X1262Y746D01*
X1262Y748D01*
X1260Y748D01*
X1260Y750D01*
X1258Y750D01*
X1258Y752D01*
X1256Y752D01*
X1256Y754D01*
X1254Y754D01*
X1254Y758D01*
X1252Y758D01*
X1252Y760D01*
X1230Y760D01*
G37*
D02*
G36*
X1230Y660D02*
X1230Y658D01*
X1228Y658D01*
X1228Y656D01*
X1226Y656D01*
X1226Y652D01*
X1224Y652D01*
X1224Y650D01*
X1222Y650D01*
X1222Y648D01*
X1218Y648D01*
X1218Y646D01*
X1216Y646D01*
X1216Y644D01*
X1214Y644D01*
X1214Y624D01*
X1216Y624D01*
X1216Y622D01*
X1218Y622D01*
X1218Y620D01*
X1220Y620D01*
X1220Y618D01*
X1222Y618D01*
X1222Y616D01*
X1224Y616D01*
X1224Y614D01*
X1226Y614D01*
X1226Y612D01*
X1228Y612D01*
X1228Y610D01*
X1230Y610D01*
X1230Y606D01*
X1250Y606D01*
X1250Y608D01*
X1252Y608D01*
X1252Y610D01*
X1254Y610D01*
X1254Y612D01*
X1256Y612D01*
X1256Y614D01*
X1258Y614D01*
X1258Y616D01*
X1260Y616D01*
X1260Y618D01*
X1262Y618D01*
X1262Y620D01*
X1264Y620D01*
X1264Y622D01*
X1266Y622D01*
X1266Y624D01*
X1268Y624D01*
X1268Y644D01*
X1266Y644D01*
X1266Y646D01*
X1262Y646D01*
X1262Y648D01*
X1260Y648D01*
X1260Y650D01*
X1258Y650D01*
X1258Y652D01*
X1256Y652D01*
X1256Y654D01*
X1254Y654D01*
X1254Y658D01*
X1252Y658D01*
X1252Y660D01*
X1230Y660D01*
G37*
D02*
G36*
X930Y560D02*
X930Y558D01*
X928Y558D01*
X928Y556D01*
X926Y556D01*
X926Y552D01*
X924Y552D01*
X924Y550D01*
X922Y550D01*
X922Y548D01*
X918Y548D01*
X918Y546D01*
X916Y546D01*
X916Y544D01*
X914Y544D01*
X914Y524D01*
X916Y524D01*
X916Y522D01*
X918Y522D01*
X918Y520D01*
X920Y520D01*
X920Y518D01*
X922Y518D01*
X922Y516D01*
X924Y516D01*
X924Y514D01*
X926Y514D01*
X926Y512D01*
X928Y512D01*
X928Y510D01*
X930Y510D01*
X930Y506D01*
X950Y506D01*
X950Y508D01*
X952Y508D01*
X952Y510D01*
X954Y510D01*
X954Y512D01*
X956Y512D01*
X956Y514D01*
X958Y514D01*
X958Y516D01*
X960Y516D01*
X960Y518D01*
X962Y518D01*
X962Y520D01*
X964Y520D01*
X964Y522D01*
X966Y522D01*
X966Y524D01*
X968Y524D01*
X968Y544D01*
X966Y544D01*
X966Y546D01*
X962Y546D01*
X962Y548D01*
X960Y548D01*
X960Y550D01*
X958Y550D01*
X958Y552D01*
X956Y552D01*
X956Y554D01*
X954Y554D01*
X954Y558D01*
X952Y558D01*
X952Y560D01*
X930Y560D01*
G37*
D02*
G36*
X1230Y560D02*
X1230Y558D01*
X1228Y558D01*
X1228Y556D01*
X1226Y556D01*
X1226Y552D01*
X1224Y552D01*
X1224Y550D01*
X1222Y550D01*
X1222Y548D01*
X1218Y548D01*
X1218Y546D01*
X1216Y546D01*
X1216Y544D01*
X1214Y544D01*
X1214Y524D01*
X1216Y524D01*
X1216Y522D01*
X1218Y522D01*
X1218Y520D01*
X1220Y520D01*
X1220Y518D01*
X1222Y518D01*
X1222Y516D01*
X1224Y516D01*
X1224Y514D01*
X1226Y514D01*
X1226Y512D01*
X1228Y512D01*
X1228Y510D01*
X1230Y510D01*
X1230Y506D01*
X1250Y506D01*
X1250Y508D01*
X1252Y508D01*
X1252Y510D01*
X1254Y510D01*
X1254Y512D01*
X1256Y512D01*
X1256Y514D01*
X1258Y514D01*
X1258Y516D01*
X1260Y516D01*
X1260Y518D01*
X1262Y518D01*
X1262Y520D01*
X1264Y520D01*
X1264Y522D01*
X1266Y522D01*
X1266Y524D01*
X1268Y524D01*
X1268Y544D01*
X1266Y544D01*
X1266Y546D01*
X1262Y546D01*
X1262Y548D01*
X1260Y548D01*
X1260Y550D01*
X1258Y550D01*
X1258Y552D01*
X1256Y552D01*
X1256Y554D01*
X1254Y554D01*
X1254Y558D01*
X1252Y558D01*
X1252Y560D01*
X1230Y560D01*
G37*
D02*
G36*
X40Y2100D02*
X40Y2032D01*
X902Y2032D01*
X902Y2030D01*
X908Y2030D01*
X908Y2028D01*
X912Y2028D01*
X912Y2026D01*
X914Y2026D01*
X914Y2024D01*
X918Y2024D01*
X918Y2022D01*
X920Y2022D01*
X920Y2020D01*
X922Y2020D01*
X922Y2018D01*
X924Y2018D01*
X924Y2016D01*
X926Y2016D01*
X926Y2014D01*
X928Y2014D01*
X928Y2012D01*
X930Y2012D01*
X930Y2010D01*
X932Y2010D01*
X932Y2006D01*
X934Y2006D01*
X934Y2002D01*
X936Y2002D01*
X936Y1998D01*
X938Y1998D01*
X938Y1992D01*
X940Y1992D01*
X940Y1976D01*
X938Y1976D01*
X938Y1970D01*
X936Y1970D01*
X936Y1964D01*
X934Y1964D01*
X934Y1960D01*
X932Y1960D01*
X932Y1958D01*
X930Y1958D01*
X930Y1956D01*
X928Y1956D01*
X928Y1952D01*
X926Y1952D01*
X926Y1950D01*
X924Y1950D01*
X924Y1948D01*
X922Y1948D01*
X922Y1946D01*
X918Y1946D01*
X918Y1944D01*
X916Y1944D01*
X916Y1942D01*
X912Y1942D01*
X912Y1940D01*
X908Y1940D01*
X908Y1938D01*
X904Y1938D01*
X904Y1936D01*
X896Y1936D01*
X896Y1934D01*
X988Y1934D01*
X988Y1936D01*
X990Y1936D01*
X990Y1938D01*
X994Y1938D01*
X994Y1940D01*
X996Y1940D01*
X996Y1942D01*
X998Y1942D01*
X998Y1944D01*
X1002Y1944D01*
X1002Y1946D01*
X1004Y1946D01*
X1004Y1948D01*
X1006Y1948D01*
X1006Y1950D01*
X1010Y1950D01*
X1010Y1952D01*
X1012Y1952D01*
X1012Y1954D01*
X1014Y1954D01*
X1014Y1956D01*
X1018Y1956D01*
X1018Y1958D01*
X1020Y1958D01*
X1020Y1960D01*
X1022Y1960D01*
X1022Y1962D01*
X1026Y1962D01*
X1026Y1964D01*
X1028Y1964D01*
X1028Y1966D01*
X1030Y1966D01*
X1030Y1968D01*
X1034Y1968D01*
X1034Y1970D01*
X1036Y1970D01*
X1036Y1972D01*
X1038Y1972D01*
X1038Y1974D01*
X1042Y1974D01*
X1042Y1976D01*
X1044Y1976D01*
X1044Y1978D01*
X1046Y1978D01*
X1046Y1980D01*
X1050Y1980D01*
X1050Y1982D01*
X1052Y1982D01*
X1052Y1984D01*
X1054Y1984D01*
X1054Y1986D01*
X1058Y1986D01*
X1058Y1988D01*
X1060Y1988D01*
X1060Y1990D01*
X1062Y1990D01*
X1062Y1992D01*
X1066Y1992D01*
X1066Y1994D01*
X1068Y1994D01*
X1068Y2100D01*
X40Y2100D01*
G37*
D02*
G36*
X1414Y2100D02*
X1414Y1882D01*
X1412Y1882D01*
X1412Y1874D01*
X1410Y1874D01*
X1410Y1870D01*
X1408Y1870D01*
X1408Y1868D01*
X1406Y1868D01*
X1406Y1866D01*
X1404Y1866D01*
X1404Y1864D01*
X1400Y1864D01*
X1400Y1862D01*
X1332Y1862D01*
X1332Y1860D01*
X1330Y1860D01*
X1330Y1858D01*
X1328Y1858D01*
X1328Y1856D01*
X1326Y1856D01*
X1326Y1852D01*
X1324Y1852D01*
X1324Y1850D01*
X1322Y1850D01*
X1322Y1848D01*
X1318Y1848D01*
X1318Y1846D01*
X1316Y1846D01*
X1316Y1844D01*
X1314Y1844D01*
X1314Y1824D01*
X1316Y1824D01*
X1316Y1822D01*
X1318Y1822D01*
X1318Y1820D01*
X1320Y1820D01*
X1320Y1818D01*
X1322Y1818D01*
X1322Y1816D01*
X1324Y1816D01*
X1324Y1814D01*
X1326Y1814D01*
X1326Y1812D01*
X1328Y1812D01*
X1328Y1810D01*
X1330Y1810D01*
X1330Y1806D01*
X1332Y1806D01*
X1332Y1804D01*
X1334Y1804D01*
X1334Y1800D01*
X1336Y1800D01*
X1336Y1794D01*
X1338Y1794D01*
X1338Y1774D01*
X1336Y1774D01*
X1336Y1768D01*
X1334Y1768D01*
X1334Y1764D01*
X1332Y1764D01*
X1332Y1760D01*
X1330Y1760D01*
X1330Y1758D01*
X1328Y1758D01*
X1328Y1756D01*
X1326Y1756D01*
X1326Y1752D01*
X1324Y1752D01*
X1324Y1750D01*
X1322Y1750D01*
X1322Y1748D01*
X1318Y1748D01*
X1318Y1746D01*
X1316Y1746D01*
X1316Y1744D01*
X1314Y1744D01*
X1314Y1724D01*
X1316Y1724D01*
X1316Y1722D01*
X1318Y1722D01*
X1318Y1720D01*
X1320Y1720D01*
X1320Y1718D01*
X1322Y1718D01*
X1322Y1716D01*
X1324Y1716D01*
X1324Y1714D01*
X1326Y1714D01*
X1326Y1712D01*
X1328Y1712D01*
X1328Y1710D01*
X1330Y1710D01*
X1330Y1706D01*
X1332Y1706D01*
X1332Y1704D01*
X1334Y1704D01*
X1334Y1700D01*
X1336Y1700D01*
X1336Y1694D01*
X1338Y1694D01*
X1338Y1674D01*
X1336Y1674D01*
X1336Y1668D01*
X1334Y1668D01*
X1334Y1664D01*
X1332Y1664D01*
X1332Y1660D01*
X1330Y1660D01*
X1330Y1658D01*
X1328Y1658D01*
X1328Y1656D01*
X1326Y1656D01*
X1326Y1652D01*
X1324Y1652D01*
X1324Y1650D01*
X1322Y1650D01*
X1322Y1648D01*
X1318Y1648D01*
X1318Y1646D01*
X1316Y1646D01*
X1316Y1644D01*
X1314Y1644D01*
X1314Y1624D01*
X1316Y1624D01*
X1316Y1622D01*
X1318Y1622D01*
X1318Y1620D01*
X1320Y1620D01*
X1320Y1618D01*
X1322Y1618D01*
X1322Y1616D01*
X1324Y1616D01*
X1324Y1614D01*
X1326Y1614D01*
X1326Y1612D01*
X1328Y1612D01*
X1328Y1610D01*
X1330Y1610D01*
X1330Y1606D01*
X1332Y1606D01*
X1332Y1604D01*
X1334Y1604D01*
X1334Y1600D01*
X1336Y1600D01*
X1336Y1594D01*
X1338Y1594D01*
X1338Y1574D01*
X1336Y1574D01*
X1336Y1568D01*
X1334Y1568D01*
X1334Y1564D01*
X1332Y1564D01*
X1332Y1560D01*
X1330Y1560D01*
X1330Y1558D01*
X1328Y1558D01*
X1328Y1556D01*
X1326Y1556D01*
X1326Y1552D01*
X1324Y1552D01*
X1324Y1550D01*
X1322Y1550D01*
X1322Y1548D01*
X1318Y1548D01*
X1318Y1546D01*
X1316Y1546D01*
X1316Y1544D01*
X1314Y1544D01*
X1314Y1524D01*
X1316Y1524D01*
X1316Y1522D01*
X1318Y1522D01*
X1318Y1520D01*
X1320Y1520D01*
X1320Y1518D01*
X1322Y1518D01*
X1322Y1516D01*
X1324Y1516D01*
X1324Y1514D01*
X1326Y1514D01*
X1326Y1512D01*
X1328Y1512D01*
X1328Y1510D01*
X1330Y1510D01*
X1330Y1506D01*
X1332Y1506D01*
X1332Y1504D01*
X1334Y1504D01*
X1334Y1500D01*
X1336Y1500D01*
X1336Y1494D01*
X1338Y1494D01*
X1338Y1474D01*
X1336Y1474D01*
X1336Y1468D01*
X1334Y1468D01*
X1334Y1464D01*
X1332Y1464D01*
X1332Y1460D01*
X1330Y1460D01*
X1330Y1458D01*
X1328Y1458D01*
X1328Y1456D01*
X1326Y1456D01*
X1326Y1452D01*
X1324Y1452D01*
X1324Y1450D01*
X1322Y1450D01*
X1322Y1448D01*
X1318Y1448D01*
X1318Y1446D01*
X1316Y1446D01*
X1316Y1444D01*
X1314Y1444D01*
X1314Y1432D01*
X1502Y1432D01*
X1502Y1430D01*
X1508Y1430D01*
X1508Y1428D01*
X1512Y1428D01*
X1512Y1426D01*
X1514Y1426D01*
X1514Y1424D01*
X1518Y1424D01*
X1518Y1422D01*
X1520Y1422D01*
X1520Y1420D01*
X1522Y1420D01*
X1522Y1418D01*
X1524Y1418D01*
X1524Y1416D01*
X1526Y1416D01*
X1526Y1414D01*
X1528Y1414D01*
X1528Y1412D01*
X1530Y1412D01*
X1530Y1410D01*
X1532Y1410D01*
X1532Y1406D01*
X1534Y1406D01*
X1534Y1402D01*
X1536Y1402D01*
X1536Y1398D01*
X1538Y1398D01*
X1538Y1392D01*
X1540Y1392D01*
X1540Y1376D01*
X1538Y1376D01*
X1538Y1370D01*
X1536Y1370D01*
X1536Y1364D01*
X1534Y1364D01*
X1534Y1360D01*
X1532Y1360D01*
X1532Y1358D01*
X1530Y1358D01*
X1530Y1356D01*
X1528Y1356D01*
X1528Y1352D01*
X1526Y1352D01*
X1526Y1350D01*
X1524Y1350D01*
X1524Y1348D01*
X1522Y1348D01*
X1522Y1346D01*
X1518Y1346D01*
X1518Y1344D01*
X1516Y1344D01*
X1516Y1324D01*
X1518Y1324D01*
X1518Y1322D01*
X1520Y1322D01*
X1520Y1320D01*
X1522Y1320D01*
X1522Y1318D01*
X1524Y1318D01*
X1524Y1316D01*
X1526Y1316D01*
X1526Y1314D01*
X1528Y1314D01*
X1528Y1312D01*
X1530Y1312D01*
X1530Y1310D01*
X1532Y1310D01*
X1532Y1306D01*
X1534Y1306D01*
X1534Y1302D01*
X1536Y1302D01*
X1536Y1298D01*
X1538Y1298D01*
X1538Y1292D01*
X1540Y1292D01*
X1540Y1276D01*
X1538Y1276D01*
X1538Y1270D01*
X1536Y1270D01*
X1536Y1264D01*
X1534Y1264D01*
X1534Y1260D01*
X1532Y1260D01*
X1532Y1258D01*
X1530Y1258D01*
X1530Y1256D01*
X1528Y1256D01*
X1528Y1252D01*
X1526Y1252D01*
X1526Y1250D01*
X1524Y1250D01*
X1524Y1248D01*
X1522Y1248D01*
X1522Y1246D01*
X1518Y1246D01*
X1518Y1244D01*
X1516Y1244D01*
X1516Y1242D01*
X1512Y1242D01*
X1512Y1240D01*
X1508Y1240D01*
X1508Y1238D01*
X1504Y1238D01*
X1504Y1236D01*
X1496Y1236D01*
X1496Y1234D01*
X1608Y1234D01*
X1608Y2100D01*
X1414Y2100D01*
G37*
D02*
G36*
X40Y2032D02*
X40Y1434D01*
X286Y1434D01*
X286Y1436D01*
X278Y1436D01*
X278Y1438D01*
X272Y1438D01*
X272Y1440D01*
X268Y1440D01*
X268Y1442D01*
X266Y1442D01*
X266Y1444D01*
X264Y1444D01*
X264Y1446D01*
X260Y1446D01*
X260Y1448D01*
X258Y1448D01*
X258Y1450D01*
X256Y1450D01*
X256Y1452D01*
X254Y1452D01*
X254Y1454D01*
X252Y1454D01*
X252Y1458D01*
X250Y1458D01*
X250Y1460D01*
X248Y1460D01*
X248Y1464D01*
X246Y1464D01*
X246Y1468D01*
X244Y1468D01*
X244Y1474D01*
X242Y1474D01*
X242Y1492D01*
X244Y1492D01*
X244Y1500D01*
X246Y1500D01*
X246Y1504D01*
X248Y1504D01*
X248Y1506D01*
X250Y1506D01*
X250Y1510D01*
X252Y1510D01*
X252Y1512D01*
X254Y1512D01*
X254Y1514D01*
X256Y1514D01*
X256Y1518D01*
X260Y1518D01*
X260Y1520D01*
X262Y1520D01*
X262Y1522D01*
X264Y1522D01*
X264Y1524D01*
X266Y1524D01*
X266Y1544D01*
X264Y1544D01*
X264Y1546D01*
X260Y1546D01*
X260Y1548D01*
X258Y1548D01*
X258Y1550D01*
X256Y1550D01*
X256Y1552D01*
X254Y1552D01*
X254Y1554D01*
X252Y1554D01*
X252Y1558D01*
X250Y1558D01*
X250Y1560D01*
X248Y1560D01*
X248Y1564D01*
X246Y1564D01*
X246Y1568D01*
X244Y1568D01*
X244Y1574D01*
X242Y1574D01*
X242Y1592D01*
X244Y1592D01*
X244Y1600D01*
X246Y1600D01*
X246Y1604D01*
X248Y1604D01*
X248Y1606D01*
X250Y1606D01*
X250Y1610D01*
X252Y1610D01*
X252Y1612D01*
X254Y1612D01*
X254Y1614D01*
X256Y1614D01*
X256Y1618D01*
X260Y1618D01*
X260Y1620D01*
X262Y1620D01*
X262Y1622D01*
X264Y1622D01*
X264Y1624D01*
X266Y1624D01*
X266Y1644D01*
X264Y1644D01*
X264Y1646D01*
X260Y1646D01*
X260Y1648D01*
X258Y1648D01*
X258Y1650D01*
X256Y1650D01*
X256Y1652D01*
X254Y1652D01*
X254Y1654D01*
X252Y1654D01*
X252Y1658D01*
X250Y1658D01*
X250Y1660D01*
X248Y1660D01*
X248Y1662D01*
X184Y1662D01*
X184Y1664D01*
X180Y1664D01*
X180Y1666D01*
X176Y1666D01*
X176Y1668D01*
X174Y1668D01*
X174Y1672D01*
X172Y1672D01*
X172Y1676D01*
X170Y1676D01*
X170Y1712D01*
X168Y1712D01*
X168Y1790D01*
X170Y1790D01*
X170Y1796D01*
X172Y1796D01*
X172Y1800D01*
X174Y1800D01*
X174Y1802D01*
X176Y1802D01*
X176Y1806D01*
X178Y1806D01*
X178Y1810D01*
X180Y1810D01*
X180Y1814D01*
X182Y1814D01*
X182Y1818D01*
X184Y1818D01*
X184Y1822D01*
X186Y1822D01*
X186Y1826D01*
X188Y1826D01*
X188Y1830D01*
X190Y1830D01*
X190Y1834D01*
X192Y1834D01*
X192Y1838D01*
X194Y1838D01*
X194Y1842D01*
X196Y1842D01*
X196Y1846D01*
X198Y1846D01*
X198Y1850D01*
X200Y1850D01*
X200Y1854D01*
X202Y1854D01*
X202Y1858D01*
X204Y1858D01*
X204Y1862D01*
X206Y1862D01*
X206Y1866D01*
X208Y1866D01*
X208Y1870D01*
X210Y1870D01*
X210Y1874D01*
X212Y1874D01*
X212Y1878D01*
X214Y1878D01*
X214Y1882D01*
X216Y1882D01*
X216Y1886D01*
X218Y1886D01*
X218Y1890D01*
X220Y1890D01*
X220Y1894D01*
X222Y1894D01*
X222Y1898D01*
X224Y1898D01*
X224Y1902D01*
X226Y1902D01*
X226Y1906D01*
X228Y1906D01*
X228Y1910D01*
X230Y1910D01*
X230Y1914D01*
X232Y1914D01*
X232Y1918D01*
X234Y1918D01*
X234Y1922D01*
X236Y1922D01*
X236Y1926D01*
X238Y1926D01*
X238Y1930D01*
X240Y1930D01*
X240Y1934D01*
X242Y1934D01*
X242Y1938D01*
X244Y1938D01*
X244Y1940D01*
X246Y1940D01*
X246Y1944D01*
X248Y1944D01*
X248Y1948D01*
X250Y1948D01*
X250Y1952D01*
X252Y1952D01*
X252Y1956D01*
X254Y1956D01*
X254Y1960D01*
X256Y1960D01*
X256Y1964D01*
X258Y1964D01*
X258Y1968D01*
X260Y1968D01*
X260Y1972D01*
X262Y1972D01*
X262Y1976D01*
X264Y1976D01*
X264Y1980D01*
X266Y1980D01*
X266Y1984D01*
X268Y1984D01*
X268Y1988D01*
X270Y1988D01*
X270Y1992D01*
X272Y1992D01*
X272Y1996D01*
X274Y1996D01*
X274Y1998D01*
X276Y1998D01*
X276Y2000D01*
X278Y2000D01*
X278Y2002D01*
X282Y2002D01*
X282Y2004D01*
X286Y2004D01*
X286Y2006D01*
X542Y2006D01*
X542Y2032D01*
X40Y2032D01*
G37*
D02*
G36*
X640Y2032D02*
X640Y2018D01*
X660Y2018D01*
X660Y2020D01*
X662Y2020D01*
X662Y2022D01*
X664Y2022D01*
X664Y2024D01*
X666Y2024D01*
X666Y2026D01*
X670Y2026D01*
X670Y2028D01*
X674Y2028D01*
X674Y2030D01*
X680Y2030D01*
X680Y2032D01*
X640Y2032D01*
G37*
D02*
G36*
X702Y2032D02*
X702Y2030D01*
X708Y2030D01*
X708Y2028D01*
X712Y2028D01*
X712Y2026D01*
X714Y2026D01*
X714Y2024D01*
X718Y2024D01*
X718Y2022D01*
X720Y2022D01*
X720Y2020D01*
X722Y2020D01*
X722Y2018D01*
X724Y2018D01*
X724Y2016D01*
X726Y2016D01*
X726Y2014D01*
X728Y2014D01*
X728Y2012D01*
X730Y2012D01*
X730Y2010D01*
X752Y2010D01*
X752Y2012D01*
X754Y2012D01*
X754Y2014D01*
X756Y2014D01*
X756Y2018D01*
X760Y2018D01*
X760Y2020D01*
X762Y2020D01*
X762Y2022D01*
X764Y2022D01*
X764Y2024D01*
X766Y2024D01*
X766Y2026D01*
X770Y2026D01*
X770Y2028D01*
X774Y2028D01*
X774Y2030D01*
X780Y2030D01*
X780Y2032D01*
X702Y2032D01*
G37*
D02*
G36*
X802Y2032D02*
X802Y2030D01*
X808Y2030D01*
X808Y2028D01*
X812Y2028D01*
X812Y2026D01*
X814Y2026D01*
X814Y2024D01*
X818Y2024D01*
X818Y2022D01*
X820Y2022D01*
X820Y2020D01*
X822Y2020D01*
X822Y2018D01*
X824Y2018D01*
X824Y2016D01*
X826Y2016D01*
X826Y2014D01*
X828Y2014D01*
X828Y2012D01*
X830Y2012D01*
X830Y2010D01*
X852Y2010D01*
X852Y2012D01*
X854Y2012D01*
X854Y2014D01*
X856Y2014D01*
X856Y2018D01*
X860Y2018D01*
X860Y2020D01*
X862Y2020D01*
X862Y2022D01*
X864Y2022D01*
X864Y2024D01*
X866Y2024D01*
X866Y2026D01*
X870Y2026D01*
X870Y2028D01*
X874Y2028D01*
X874Y2030D01*
X880Y2030D01*
X880Y2032D01*
X802Y2032D01*
G37*
D02*
G36*
X730Y1958D02*
X730Y1956D01*
X728Y1956D01*
X728Y1952D01*
X726Y1952D01*
X726Y1950D01*
X724Y1950D01*
X724Y1948D01*
X722Y1948D01*
X722Y1946D01*
X718Y1946D01*
X718Y1944D01*
X716Y1944D01*
X716Y1942D01*
X714Y1942D01*
X714Y1934D01*
X786Y1934D01*
X786Y1936D01*
X778Y1936D01*
X778Y1938D01*
X772Y1938D01*
X772Y1940D01*
X768Y1940D01*
X768Y1942D01*
X766Y1942D01*
X766Y1944D01*
X764Y1944D01*
X764Y1946D01*
X760Y1946D01*
X760Y1948D01*
X758Y1948D01*
X758Y1950D01*
X756Y1950D01*
X756Y1952D01*
X754Y1952D01*
X754Y1954D01*
X752Y1954D01*
X752Y1958D01*
X730Y1958D01*
G37*
D02*
G36*
X830Y1958D02*
X830Y1956D01*
X828Y1956D01*
X828Y1952D01*
X826Y1952D01*
X826Y1950D01*
X824Y1950D01*
X824Y1948D01*
X822Y1948D01*
X822Y1946D01*
X818Y1946D01*
X818Y1944D01*
X816Y1944D01*
X816Y1942D01*
X812Y1942D01*
X812Y1940D01*
X808Y1940D01*
X808Y1938D01*
X804Y1938D01*
X804Y1936D01*
X796Y1936D01*
X796Y1934D01*
X886Y1934D01*
X886Y1936D01*
X878Y1936D01*
X878Y1938D01*
X872Y1938D01*
X872Y1940D01*
X868Y1940D01*
X868Y1942D01*
X866Y1942D01*
X866Y1944D01*
X864Y1944D01*
X864Y1946D01*
X860Y1946D01*
X860Y1948D01*
X858Y1948D01*
X858Y1950D01*
X856Y1950D01*
X856Y1952D01*
X854Y1952D01*
X854Y1954D01*
X852Y1954D01*
X852Y1958D01*
X830Y1958D01*
G37*
D02*
G36*
X714Y1934D02*
X714Y1932D01*
X986Y1932D01*
X986Y1934D01*
X714Y1934D01*
G37*
D02*
G36*
X714Y1934D02*
X714Y1932D01*
X986Y1932D01*
X986Y1934D01*
X714Y1934D01*
G37*
D02*
G36*
X714Y1934D02*
X714Y1932D01*
X986Y1932D01*
X986Y1934D01*
X714Y1934D01*
G37*
D02*
G36*
X714Y1932D02*
X714Y1882D01*
X712Y1882D01*
X712Y1876D01*
X710Y1876D01*
X710Y1872D01*
X708Y1872D01*
X708Y1870D01*
X706Y1870D01*
X706Y1868D01*
X704Y1868D01*
X704Y1866D01*
X702Y1866D01*
X702Y1864D01*
X696Y1864D01*
X696Y1862D01*
X412Y1862D01*
X412Y1832D01*
X502Y1832D01*
X502Y1830D01*
X508Y1830D01*
X508Y1828D01*
X512Y1828D01*
X512Y1826D01*
X514Y1826D01*
X514Y1824D01*
X518Y1824D01*
X518Y1822D01*
X520Y1822D01*
X520Y1820D01*
X522Y1820D01*
X522Y1818D01*
X524Y1818D01*
X524Y1816D01*
X526Y1816D01*
X526Y1814D01*
X528Y1814D01*
X528Y1812D01*
X530Y1812D01*
X530Y1810D01*
X532Y1810D01*
X532Y1806D01*
X534Y1806D01*
X534Y1802D01*
X536Y1802D01*
X536Y1798D01*
X538Y1798D01*
X538Y1792D01*
X540Y1792D01*
X540Y1776D01*
X538Y1776D01*
X538Y1770D01*
X536Y1770D01*
X536Y1764D01*
X534Y1764D01*
X534Y1760D01*
X532Y1760D01*
X532Y1758D01*
X530Y1758D01*
X530Y1756D01*
X528Y1756D01*
X528Y1752D01*
X526Y1752D01*
X526Y1750D01*
X524Y1750D01*
X524Y1748D01*
X522Y1748D01*
X522Y1746D01*
X518Y1746D01*
X518Y1744D01*
X516Y1744D01*
X516Y1724D01*
X518Y1724D01*
X518Y1722D01*
X520Y1722D01*
X520Y1720D01*
X522Y1720D01*
X522Y1718D01*
X524Y1718D01*
X524Y1716D01*
X526Y1716D01*
X526Y1714D01*
X528Y1714D01*
X528Y1712D01*
X530Y1712D01*
X530Y1710D01*
X532Y1710D01*
X532Y1706D01*
X534Y1706D01*
X534Y1702D01*
X536Y1702D01*
X536Y1698D01*
X538Y1698D01*
X538Y1692D01*
X540Y1692D01*
X540Y1676D01*
X538Y1676D01*
X538Y1670D01*
X536Y1670D01*
X536Y1664D01*
X534Y1664D01*
X534Y1660D01*
X532Y1660D01*
X532Y1658D01*
X530Y1658D01*
X530Y1656D01*
X528Y1656D01*
X528Y1652D01*
X526Y1652D01*
X526Y1650D01*
X524Y1650D01*
X524Y1648D01*
X522Y1648D01*
X522Y1646D01*
X518Y1646D01*
X518Y1644D01*
X516Y1644D01*
X516Y1624D01*
X518Y1624D01*
X518Y1622D01*
X520Y1622D01*
X520Y1620D01*
X522Y1620D01*
X522Y1618D01*
X524Y1618D01*
X524Y1616D01*
X526Y1616D01*
X526Y1614D01*
X528Y1614D01*
X528Y1612D01*
X530Y1612D01*
X530Y1610D01*
X532Y1610D01*
X532Y1606D01*
X534Y1606D01*
X534Y1602D01*
X536Y1602D01*
X536Y1598D01*
X538Y1598D01*
X538Y1592D01*
X540Y1592D01*
X540Y1576D01*
X538Y1576D01*
X538Y1570D01*
X536Y1570D01*
X536Y1564D01*
X534Y1564D01*
X534Y1560D01*
X532Y1560D01*
X532Y1558D01*
X530Y1558D01*
X530Y1556D01*
X528Y1556D01*
X528Y1552D01*
X526Y1552D01*
X526Y1550D01*
X524Y1550D01*
X524Y1548D01*
X522Y1548D01*
X522Y1546D01*
X518Y1546D01*
X518Y1544D01*
X516Y1544D01*
X516Y1524D01*
X518Y1524D01*
X518Y1522D01*
X520Y1522D01*
X520Y1520D01*
X522Y1520D01*
X522Y1518D01*
X524Y1518D01*
X524Y1516D01*
X526Y1516D01*
X526Y1514D01*
X528Y1514D01*
X528Y1512D01*
X530Y1512D01*
X530Y1510D01*
X532Y1510D01*
X532Y1506D01*
X534Y1506D01*
X534Y1502D01*
X536Y1502D01*
X536Y1498D01*
X538Y1498D01*
X538Y1492D01*
X540Y1492D01*
X540Y1476D01*
X538Y1476D01*
X538Y1470D01*
X536Y1470D01*
X536Y1464D01*
X534Y1464D01*
X534Y1460D01*
X532Y1460D01*
X532Y1458D01*
X530Y1458D01*
X530Y1456D01*
X528Y1456D01*
X528Y1452D01*
X526Y1452D01*
X526Y1432D01*
X540Y1432D01*
X540Y1334D01*
X668Y1334D01*
X668Y1686D01*
X670Y1686D01*
X670Y1694D01*
X672Y1694D01*
X672Y1696D01*
X674Y1696D01*
X674Y1698D01*
X676Y1698D01*
X676Y1700D01*
X678Y1700D01*
X678Y1702D01*
X680Y1702D01*
X680Y1704D01*
X682Y1704D01*
X682Y1706D01*
X686Y1706D01*
X686Y1708D01*
X688Y1708D01*
X688Y1710D01*
X690Y1710D01*
X690Y1712D01*
X694Y1712D01*
X694Y1714D01*
X696Y1714D01*
X696Y1716D01*
X698Y1716D01*
X698Y1718D01*
X702Y1718D01*
X702Y1720D01*
X704Y1720D01*
X704Y1722D01*
X706Y1722D01*
X706Y1724D01*
X710Y1724D01*
X710Y1726D01*
X712Y1726D01*
X712Y1728D01*
X714Y1728D01*
X714Y1730D01*
X718Y1730D01*
X718Y1732D01*
X720Y1732D01*
X720Y1734D01*
X722Y1734D01*
X722Y1736D01*
X726Y1736D01*
X726Y1738D01*
X728Y1738D01*
X728Y1740D01*
X730Y1740D01*
X730Y1742D01*
X734Y1742D01*
X734Y1744D01*
X736Y1744D01*
X736Y1746D01*
X738Y1746D01*
X738Y1748D01*
X742Y1748D01*
X742Y1750D01*
X744Y1750D01*
X744Y1752D01*
X746Y1752D01*
X746Y1754D01*
X750Y1754D01*
X750Y1756D01*
X752Y1756D01*
X752Y1758D01*
X754Y1758D01*
X754Y1760D01*
X758Y1760D01*
X758Y1762D01*
X760Y1762D01*
X760Y1764D01*
X762Y1764D01*
X762Y1766D01*
X766Y1766D01*
X766Y1768D01*
X768Y1768D01*
X768Y1770D01*
X770Y1770D01*
X770Y1772D01*
X774Y1772D01*
X774Y1774D01*
X776Y1774D01*
X776Y1776D01*
X778Y1776D01*
X778Y1778D01*
X780Y1778D01*
X780Y1780D01*
X784Y1780D01*
X784Y1782D01*
X786Y1782D01*
X786Y1784D01*
X788Y1784D01*
X788Y1786D01*
X792Y1786D01*
X792Y1788D01*
X794Y1788D01*
X794Y1790D01*
X796Y1790D01*
X796Y1792D01*
X800Y1792D01*
X800Y1794D01*
X802Y1794D01*
X802Y1796D01*
X804Y1796D01*
X804Y1798D01*
X808Y1798D01*
X808Y1800D01*
X810Y1800D01*
X810Y1802D01*
X812Y1802D01*
X812Y1804D01*
X816Y1804D01*
X816Y1806D01*
X818Y1806D01*
X818Y1808D01*
X820Y1808D01*
X820Y1810D01*
X824Y1810D01*
X824Y1812D01*
X826Y1812D01*
X826Y1814D01*
X828Y1814D01*
X828Y1816D01*
X832Y1816D01*
X832Y1818D01*
X834Y1818D01*
X834Y1820D01*
X836Y1820D01*
X836Y1822D01*
X840Y1822D01*
X840Y1824D01*
X842Y1824D01*
X842Y1826D01*
X844Y1826D01*
X844Y1828D01*
X848Y1828D01*
X848Y1830D01*
X850Y1830D01*
X850Y1832D01*
X852Y1832D01*
X852Y1834D01*
X856Y1834D01*
X856Y1836D01*
X858Y1836D01*
X858Y1838D01*
X860Y1838D01*
X860Y1840D01*
X864Y1840D01*
X864Y1842D01*
X866Y1842D01*
X866Y1844D01*
X868Y1844D01*
X868Y1846D01*
X872Y1846D01*
X872Y1848D01*
X874Y1848D01*
X874Y1850D01*
X876Y1850D01*
X876Y1852D01*
X880Y1852D01*
X880Y1854D01*
X882Y1854D01*
X882Y1856D01*
X884Y1856D01*
X884Y1858D01*
X888Y1858D01*
X888Y1860D01*
X890Y1860D01*
X890Y1862D01*
X892Y1862D01*
X892Y1864D01*
X896Y1864D01*
X896Y1866D01*
X898Y1866D01*
X898Y1868D01*
X900Y1868D01*
X900Y1870D01*
X904Y1870D01*
X904Y1872D01*
X906Y1872D01*
X906Y1874D01*
X908Y1874D01*
X908Y1876D01*
X912Y1876D01*
X912Y1878D01*
X914Y1878D01*
X914Y1880D01*
X916Y1880D01*
X916Y1882D01*
X920Y1882D01*
X920Y1884D01*
X922Y1884D01*
X922Y1886D01*
X924Y1886D01*
X924Y1888D01*
X928Y1888D01*
X928Y1890D01*
X930Y1890D01*
X930Y1892D01*
X932Y1892D01*
X932Y1894D01*
X936Y1894D01*
X936Y1896D01*
X938Y1896D01*
X938Y1898D01*
X940Y1898D01*
X940Y1900D01*
X944Y1900D01*
X944Y1902D01*
X946Y1902D01*
X946Y1904D01*
X948Y1904D01*
X948Y1906D01*
X952Y1906D01*
X952Y1908D01*
X954Y1908D01*
X954Y1910D01*
X956Y1910D01*
X956Y1912D01*
X958Y1912D01*
X958Y1914D01*
X962Y1914D01*
X962Y1916D01*
X964Y1916D01*
X964Y1918D01*
X966Y1918D01*
X966Y1920D01*
X970Y1920D01*
X970Y1922D01*
X972Y1922D01*
X972Y1924D01*
X974Y1924D01*
X974Y1926D01*
X978Y1926D01*
X978Y1928D01*
X980Y1928D01*
X980Y1930D01*
X982Y1930D01*
X982Y1932D01*
X714Y1932D01*
G37*
D02*
G36*
X412Y1832D02*
X412Y1578D01*
X410Y1578D01*
X410Y1572D01*
X408Y1572D01*
X408Y1570D01*
X406Y1570D01*
X406Y1568D01*
X404Y1568D01*
X404Y1566D01*
X402Y1566D01*
X402Y1564D01*
X398Y1564D01*
X398Y1562D01*
X334Y1562D01*
X334Y1560D01*
X332Y1560D01*
X332Y1558D01*
X330Y1558D01*
X330Y1556D01*
X328Y1556D01*
X328Y1552D01*
X326Y1552D01*
X326Y1550D01*
X324Y1550D01*
X324Y1548D01*
X322Y1548D01*
X322Y1546D01*
X318Y1546D01*
X318Y1544D01*
X316Y1544D01*
X316Y1524D01*
X318Y1524D01*
X318Y1522D01*
X320Y1522D01*
X320Y1520D01*
X322Y1520D01*
X322Y1518D01*
X324Y1518D01*
X324Y1516D01*
X326Y1516D01*
X326Y1514D01*
X328Y1514D01*
X328Y1512D01*
X330Y1512D01*
X330Y1510D01*
X332Y1510D01*
X332Y1506D01*
X334Y1506D01*
X334Y1502D01*
X336Y1502D01*
X336Y1498D01*
X338Y1498D01*
X338Y1492D01*
X340Y1492D01*
X340Y1476D01*
X338Y1476D01*
X338Y1470D01*
X336Y1470D01*
X336Y1464D01*
X334Y1464D01*
X334Y1460D01*
X332Y1460D01*
X332Y1458D01*
X330Y1458D01*
X330Y1456D01*
X328Y1456D01*
X328Y1452D01*
X326Y1452D01*
X326Y1450D01*
X324Y1450D01*
X324Y1448D01*
X322Y1448D01*
X322Y1446D01*
X318Y1446D01*
X318Y1444D01*
X316Y1444D01*
X316Y1442D01*
X312Y1442D01*
X312Y1440D01*
X308Y1440D01*
X308Y1438D01*
X304Y1438D01*
X304Y1436D01*
X296Y1436D01*
X296Y1434D01*
X456Y1434D01*
X456Y1452D01*
X454Y1452D01*
X454Y1454D01*
X452Y1454D01*
X452Y1458D01*
X450Y1458D01*
X450Y1460D01*
X448Y1460D01*
X448Y1464D01*
X446Y1464D01*
X446Y1468D01*
X444Y1468D01*
X444Y1474D01*
X442Y1474D01*
X442Y1492D01*
X444Y1492D01*
X444Y1500D01*
X446Y1500D01*
X446Y1504D01*
X448Y1504D01*
X448Y1506D01*
X450Y1506D01*
X450Y1510D01*
X452Y1510D01*
X452Y1512D01*
X454Y1512D01*
X454Y1514D01*
X456Y1514D01*
X456Y1518D01*
X460Y1518D01*
X460Y1520D01*
X462Y1520D01*
X462Y1522D01*
X464Y1522D01*
X464Y1524D01*
X466Y1524D01*
X466Y1544D01*
X464Y1544D01*
X464Y1546D01*
X460Y1546D01*
X460Y1548D01*
X458Y1548D01*
X458Y1550D01*
X456Y1550D01*
X456Y1552D01*
X454Y1552D01*
X454Y1554D01*
X452Y1554D01*
X452Y1558D01*
X450Y1558D01*
X450Y1560D01*
X448Y1560D01*
X448Y1564D01*
X446Y1564D01*
X446Y1568D01*
X444Y1568D01*
X444Y1574D01*
X442Y1574D01*
X442Y1592D01*
X444Y1592D01*
X444Y1600D01*
X446Y1600D01*
X446Y1604D01*
X448Y1604D01*
X448Y1606D01*
X450Y1606D01*
X450Y1610D01*
X452Y1610D01*
X452Y1612D01*
X454Y1612D01*
X454Y1614D01*
X456Y1614D01*
X456Y1618D01*
X460Y1618D01*
X460Y1620D01*
X462Y1620D01*
X462Y1622D01*
X464Y1622D01*
X464Y1624D01*
X466Y1624D01*
X466Y1644D01*
X464Y1644D01*
X464Y1646D01*
X460Y1646D01*
X460Y1648D01*
X458Y1648D01*
X458Y1650D01*
X456Y1650D01*
X456Y1652D01*
X454Y1652D01*
X454Y1654D01*
X452Y1654D01*
X452Y1658D01*
X450Y1658D01*
X450Y1660D01*
X448Y1660D01*
X448Y1664D01*
X446Y1664D01*
X446Y1668D01*
X444Y1668D01*
X444Y1674D01*
X442Y1674D01*
X442Y1692D01*
X444Y1692D01*
X444Y1700D01*
X446Y1700D01*
X446Y1704D01*
X448Y1704D01*
X448Y1706D01*
X450Y1706D01*
X450Y1710D01*
X452Y1710D01*
X452Y1712D01*
X454Y1712D01*
X454Y1714D01*
X456Y1714D01*
X456Y1718D01*
X460Y1718D01*
X460Y1720D01*
X462Y1720D01*
X462Y1722D01*
X464Y1722D01*
X464Y1724D01*
X466Y1724D01*
X466Y1744D01*
X464Y1744D01*
X464Y1746D01*
X460Y1746D01*
X460Y1748D01*
X458Y1748D01*
X458Y1750D01*
X456Y1750D01*
X456Y1752D01*
X454Y1752D01*
X454Y1754D01*
X452Y1754D01*
X452Y1758D01*
X450Y1758D01*
X450Y1760D01*
X448Y1760D01*
X448Y1764D01*
X446Y1764D01*
X446Y1768D01*
X444Y1768D01*
X444Y1774D01*
X442Y1774D01*
X442Y1792D01*
X444Y1792D01*
X444Y1800D01*
X446Y1800D01*
X446Y1804D01*
X448Y1804D01*
X448Y1806D01*
X450Y1806D01*
X450Y1810D01*
X452Y1810D01*
X452Y1812D01*
X454Y1812D01*
X454Y1814D01*
X456Y1814D01*
X456Y1818D01*
X460Y1818D01*
X460Y1820D01*
X462Y1820D01*
X462Y1822D01*
X464Y1822D01*
X464Y1824D01*
X466Y1824D01*
X466Y1826D01*
X470Y1826D01*
X470Y1828D01*
X474Y1828D01*
X474Y1830D01*
X480Y1830D01*
X480Y1832D01*
X412Y1832D01*
G37*
D02*
G36*
X40Y1434D02*
X40Y1432D01*
X456Y1432D01*
X456Y1434D01*
X40Y1434D01*
G37*
D02*
G36*
X40Y1434D02*
X40Y1432D01*
X456Y1432D01*
X456Y1434D01*
X40Y1434D01*
G37*
D02*
G36*
X40Y1432D02*
X40Y1334D01*
X442Y1334D01*
X442Y1432D01*
X40Y1432D01*
G37*
D02*
G36*
X1314Y1432D02*
X1314Y1424D01*
X1316Y1424D01*
X1316Y1422D01*
X1318Y1422D01*
X1318Y1420D01*
X1320Y1420D01*
X1320Y1418D01*
X1322Y1418D01*
X1322Y1416D01*
X1324Y1416D01*
X1324Y1414D01*
X1326Y1414D01*
X1326Y1412D01*
X1328Y1412D01*
X1328Y1410D01*
X1330Y1410D01*
X1330Y1406D01*
X1332Y1406D01*
X1332Y1404D01*
X1334Y1404D01*
X1334Y1400D01*
X1336Y1400D01*
X1336Y1394D01*
X1338Y1394D01*
X1338Y1374D01*
X1336Y1374D01*
X1336Y1368D01*
X1334Y1368D01*
X1334Y1364D01*
X1332Y1364D01*
X1332Y1360D01*
X1330Y1360D01*
X1330Y1358D01*
X1328Y1358D01*
X1328Y1356D01*
X1326Y1356D01*
X1326Y1352D01*
X1324Y1352D01*
X1324Y1350D01*
X1322Y1350D01*
X1322Y1348D01*
X1318Y1348D01*
X1318Y1346D01*
X1316Y1346D01*
X1316Y1344D01*
X1314Y1344D01*
X1314Y1324D01*
X1316Y1324D01*
X1316Y1322D01*
X1318Y1322D01*
X1318Y1320D01*
X1320Y1320D01*
X1320Y1318D01*
X1322Y1318D01*
X1322Y1316D01*
X1324Y1316D01*
X1324Y1314D01*
X1326Y1314D01*
X1326Y1312D01*
X1328Y1312D01*
X1328Y1310D01*
X1330Y1310D01*
X1330Y1306D01*
X1332Y1306D01*
X1332Y1304D01*
X1334Y1304D01*
X1334Y1300D01*
X1336Y1300D01*
X1336Y1294D01*
X1338Y1294D01*
X1338Y1274D01*
X1336Y1274D01*
X1336Y1268D01*
X1334Y1268D01*
X1334Y1264D01*
X1332Y1264D01*
X1332Y1260D01*
X1330Y1260D01*
X1330Y1258D01*
X1328Y1258D01*
X1328Y1256D01*
X1326Y1256D01*
X1326Y1252D01*
X1324Y1252D01*
X1324Y1250D01*
X1322Y1250D01*
X1322Y1248D01*
X1318Y1248D01*
X1318Y1246D01*
X1316Y1246D01*
X1316Y1244D01*
X1314Y1244D01*
X1314Y1234D01*
X1486Y1234D01*
X1486Y1236D01*
X1478Y1236D01*
X1478Y1238D01*
X1472Y1238D01*
X1472Y1240D01*
X1468Y1240D01*
X1468Y1242D01*
X1466Y1242D01*
X1466Y1244D01*
X1464Y1244D01*
X1464Y1246D01*
X1460Y1246D01*
X1460Y1248D01*
X1458Y1248D01*
X1458Y1250D01*
X1456Y1250D01*
X1456Y1252D01*
X1454Y1252D01*
X1454Y1254D01*
X1452Y1254D01*
X1452Y1258D01*
X1450Y1258D01*
X1450Y1260D01*
X1448Y1260D01*
X1448Y1264D01*
X1446Y1264D01*
X1446Y1268D01*
X1444Y1268D01*
X1444Y1274D01*
X1442Y1274D01*
X1442Y1292D01*
X1444Y1292D01*
X1444Y1300D01*
X1446Y1300D01*
X1446Y1304D01*
X1448Y1304D01*
X1448Y1306D01*
X1450Y1306D01*
X1450Y1310D01*
X1452Y1310D01*
X1452Y1312D01*
X1454Y1312D01*
X1454Y1314D01*
X1456Y1314D01*
X1456Y1318D01*
X1460Y1318D01*
X1460Y1320D01*
X1462Y1320D01*
X1462Y1322D01*
X1464Y1322D01*
X1464Y1324D01*
X1466Y1324D01*
X1466Y1344D01*
X1464Y1344D01*
X1464Y1346D01*
X1460Y1346D01*
X1460Y1348D01*
X1458Y1348D01*
X1458Y1350D01*
X1456Y1350D01*
X1456Y1352D01*
X1454Y1352D01*
X1454Y1354D01*
X1452Y1354D01*
X1452Y1358D01*
X1450Y1358D01*
X1450Y1360D01*
X1448Y1360D01*
X1448Y1364D01*
X1446Y1364D01*
X1446Y1368D01*
X1444Y1368D01*
X1444Y1374D01*
X1442Y1374D01*
X1442Y1392D01*
X1444Y1392D01*
X1444Y1400D01*
X1446Y1400D01*
X1446Y1404D01*
X1448Y1404D01*
X1448Y1406D01*
X1450Y1406D01*
X1450Y1410D01*
X1452Y1410D01*
X1452Y1412D01*
X1454Y1412D01*
X1454Y1414D01*
X1456Y1414D01*
X1456Y1418D01*
X1460Y1418D01*
X1460Y1420D01*
X1462Y1420D01*
X1462Y1422D01*
X1464Y1422D01*
X1464Y1424D01*
X1466Y1424D01*
X1466Y1426D01*
X1470Y1426D01*
X1470Y1428D01*
X1474Y1428D01*
X1474Y1430D01*
X1480Y1430D01*
X1480Y1432D01*
X1314Y1432D01*
G37*
D02*
G36*
X40Y1334D02*
X40Y1332D01*
X668Y1332D01*
X668Y1334D01*
X40Y1334D01*
G37*
D02*
G36*
X40Y1334D02*
X40Y1332D01*
X668Y1332D01*
X668Y1334D01*
X40Y1334D01*
G37*
D02*
G36*
X40Y1332D02*
X40Y1232D01*
X494Y1232D01*
X494Y1230D01*
X504Y1230D01*
X504Y1228D01*
X508Y1228D01*
X508Y1226D01*
X512Y1226D01*
X512Y1224D01*
X516Y1224D01*
X516Y1222D01*
X518Y1222D01*
X518Y1220D01*
X520Y1220D01*
X520Y1218D01*
X522Y1218D01*
X522Y1216D01*
X524Y1216D01*
X524Y1214D01*
X526Y1214D01*
X526Y1212D01*
X528Y1212D01*
X528Y1210D01*
X530Y1210D01*
X530Y1206D01*
X532Y1206D01*
X532Y1204D01*
X534Y1204D01*
X534Y1200D01*
X536Y1200D01*
X536Y1194D01*
X538Y1194D01*
X538Y1174D01*
X536Y1174D01*
X536Y1168D01*
X534Y1168D01*
X534Y1164D01*
X532Y1164D01*
X532Y1160D01*
X530Y1160D01*
X530Y1158D01*
X528Y1158D01*
X528Y1156D01*
X526Y1156D01*
X526Y1152D01*
X524Y1152D01*
X524Y1150D01*
X522Y1150D01*
X522Y1148D01*
X518Y1148D01*
X518Y1146D01*
X516Y1146D01*
X516Y1144D01*
X514Y1144D01*
X514Y1142D01*
X512Y1142D01*
X512Y1076D01*
X510Y1076D01*
X510Y1072D01*
X508Y1072D01*
X508Y1070D01*
X506Y1070D01*
X506Y1068D01*
X504Y1068D01*
X504Y1066D01*
X502Y1066D01*
X502Y1064D01*
X496Y1064D01*
X496Y1062D01*
X434Y1062D01*
X434Y1060D01*
X432Y1060D01*
X432Y1058D01*
X430Y1058D01*
X430Y1056D01*
X428Y1056D01*
X428Y1052D01*
X426Y1052D01*
X426Y1050D01*
X424Y1050D01*
X424Y1048D01*
X422Y1048D01*
X422Y1046D01*
X418Y1046D01*
X418Y1044D01*
X416Y1044D01*
X416Y1024D01*
X418Y1024D01*
X418Y1022D01*
X420Y1022D01*
X420Y1020D01*
X422Y1020D01*
X422Y1018D01*
X424Y1018D01*
X424Y1016D01*
X426Y1016D01*
X426Y1014D01*
X428Y1014D01*
X428Y1012D01*
X430Y1012D01*
X430Y1010D01*
X432Y1010D01*
X432Y1006D01*
X434Y1006D01*
X434Y1002D01*
X436Y1002D01*
X436Y998D01*
X438Y998D01*
X438Y992D01*
X440Y992D01*
X440Y976D01*
X438Y976D01*
X438Y970D01*
X436Y970D01*
X436Y964D01*
X434Y964D01*
X434Y960D01*
X788Y960D01*
X788Y962D01*
X780Y962D01*
X780Y964D01*
X778Y964D01*
X778Y966D01*
X776Y966D01*
X776Y968D01*
X774Y968D01*
X774Y970D01*
X772Y970D01*
X772Y972D01*
X770Y972D01*
X770Y978D01*
X768Y978D01*
X768Y1188D01*
X770Y1188D01*
X770Y1194D01*
X772Y1194D01*
X772Y1198D01*
X774Y1198D01*
X774Y1200D01*
X776Y1200D01*
X776Y1202D01*
X780Y1202D01*
X780Y1204D01*
X784Y1204D01*
X784Y1206D01*
X850Y1206D01*
X850Y1208D01*
X852Y1208D01*
X852Y1210D01*
X854Y1210D01*
X854Y1212D01*
X856Y1212D01*
X856Y1214D01*
X858Y1214D01*
X858Y1216D01*
X860Y1216D01*
X860Y1218D01*
X862Y1218D01*
X862Y1220D01*
X864Y1220D01*
X864Y1222D01*
X866Y1222D01*
X866Y1224D01*
X868Y1224D01*
X868Y1244D01*
X866Y1244D01*
X866Y1246D01*
X862Y1246D01*
X862Y1248D01*
X860Y1248D01*
X860Y1250D01*
X858Y1250D01*
X858Y1252D01*
X856Y1252D01*
X856Y1254D01*
X854Y1254D01*
X854Y1258D01*
X852Y1258D01*
X852Y1260D01*
X850Y1260D01*
X850Y1262D01*
X686Y1262D01*
X686Y1264D01*
X680Y1264D01*
X680Y1266D01*
X678Y1266D01*
X678Y1268D01*
X676Y1268D01*
X676Y1270D01*
X674Y1270D01*
X674Y1272D01*
X672Y1272D01*
X672Y1274D01*
X670Y1274D01*
X670Y1282D01*
X668Y1282D01*
X668Y1332D01*
X40Y1332D01*
G37*
D02*
G36*
X1314Y1234D02*
X1314Y1232D01*
X1608Y1232D01*
X1608Y1234D01*
X1314Y1234D01*
G37*
D02*
G36*
X1314Y1234D02*
X1314Y1232D01*
X1608Y1232D01*
X1608Y1234D01*
X1314Y1234D01*
G37*
D02*
G36*
X40Y1232D02*
X40Y1224D01*
X62Y1224D01*
X62Y1226D01*
X70Y1226D01*
X70Y1228D01*
X74Y1228D01*
X74Y1230D01*
X80Y1230D01*
X80Y1232D01*
X40Y1232D01*
G37*
D02*
G36*
X102Y1232D02*
X102Y1230D01*
X108Y1230D01*
X108Y1228D01*
X112Y1228D01*
X112Y1226D01*
X114Y1226D01*
X114Y1224D01*
X118Y1224D01*
X118Y1222D01*
X120Y1222D01*
X120Y1220D01*
X122Y1220D01*
X122Y1218D01*
X124Y1218D01*
X124Y1216D01*
X126Y1216D01*
X126Y1214D01*
X128Y1214D01*
X128Y1212D01*
X130Y1212D01*
X130Y1210D01*
X132Y1210D01*
X132Y1206D01*
X342Y1206D01*
X342Y1232D01*
X102Y1232D01*
G37*
D02*
G36*
X440Y1232D02*
X440Y1222D01*
X460Y1222D01*
X460Y1224D01*
X462Y1224D01*
X462Y1226D01*
X464Y1226D01*
X464Y1228D01*
X468Y1228D01*
X468Y1230D01*
X488Y1230D01*
X488Y1232D01*
X440Y1232D01*
G37*
D02*
G36*
X1314Y1232D02*
X1314Y1224D01*
X1316Y1224D01*
X1316Y1222D01*
X1318Y1222D01*
X1318Y1220D01*
X1320Y1220D01*
X1320Y1218D01*
X1322Y1218D01*
X1322Y1216D01*
X1324Y1216D01*
X1324Y1214D01*
X1326Y1214D01*
X1326Y1212D01*
X1328Y1212D01*
X1328Y1210D01*
X1330Y1210D01*
X1330Y1206D01*
X1332Y1206D01*
X1332Y1204D01*
X1334Y1204D01*
X1334Y1200D01*
X1336Y1200D01*
X1336Y1194D01*
X1338Y1194D01*
X1338Y1174D01*
X1336Y1174D01*
X1336Y1168D01*
X1334Y1168D01*
X1334Y1164D01*
X1332Y1164D01*
X1332Y1160D01*
X1330Y1160D01*
X1330Y1158D01*
X1328Y1158D01*
X1328Y1156D01*
X1326Y1156D01*
X1326Y1152D01*
X1324Y1152D01*
X1324Y1150D01*
X1322Y1150D01*
X1322Y1148D01*
X1318Y1148D01*
X1318Y1146D01*
X1316Y1146D01*
X1316Y1144D01*
X1314Y1144D01*
X1314Y1124D01*
X1316Y1124D01*
X1316Y1122D01*
X1318Y1122D01*
X1318Y1120D01*
X1320Y1120D01*
X1320Y1118D01*
X1322Y1118D01*
X1322Y1116D01*
X1324Y1116D01*
X1324Y1114D01*
X1326Y1114D01*
X1326Y1112D01*
X1328Y1112D01*
X1328Y1110D01*
X1330Y1110D01*
X1330Y1106D01*
X1332Y1106D01*
X1332Y1104D01*
X1334Y1104D01*
X1334Y1100D01*
X1336Y1100D01*
X1336Y1094D01*
X1338Y1094D01*
X1338Y1074D01*
X1336Y1074D01*
X1336Y1068D01*
X1334Y1068D01*
X1334Y1064D01*
X1332Y1064D01*
X1332Y1060D01*
X1330Y1060D01*
X1330Y1058D01*
X1328Y1058D01*
X1328Y1056D01*
X1326Y1056D01*
X1326Y1052D01*
X1324Y1052D01*
X1324Y1050D01*
X1322Y1050D01*
X1322Y1048D01*
X1318Y1048D01*
X1318Y1046D01*
X1316Y1046D01*
X1316Y1044D01*
X1314Y1044D01*
X1314Y1024D01*
X1316Y1024D01*
X1316Y1022D01*
X1318Y1022D01*
X1318Y1020D01*
X1320Y1020D01*
X1320Y1018D01*
X1322Y1018D01*
X1322Y1016D01*
X1324Y1016D01*
X1324Y1014D01*
X1326Y1014D01*
X1326Y1012D01*
X1328Y1012D01*
X1328Y1010D01*
X1330Y1010D01*
X1330Y1006D01*
X1332Y1006D01*
X1332Y1004D01*
X1334Y1004D01*
X1334Y1000D01*
X1336Y1000D01*
X1336Y994D01*
X1338Y994D01*
X1338Y974D01*
X1336Y974D01*
X1336Y968D01*
X1334Y968D01*
X1334Y964D01*
X1332Y964D01*
X1332Y960D01*
X1330Y960D01*
X1330Y958D01*
X1328Y958D01*
X1328Y956D01*
X1326Y956D01*
X1326Y952D01*
X1324Y952D01*
X1324Y950D01*
X1322Y950D01*
X1322Y948D01*
X1318Y948D01*
X1318Y946D01*
X1316Y946D01*
X1316Y944D01*
X1314Y944D01*
X1314Y932D01*
X1502Y932D01*
X1502Y930D01*
X1508Y930D01*
X1508Y928D01*
X1512Y928D01*
X1512Y926D01*
X1514Y926D01*
X1514Y924D01*
X1518Y924D01*
X1518Y922D01*
X1520Y922D01*
X1520Y920D01*
X1522Y920D01*
X1522Y918D01*
X1524Y918D01*
X1524Y916D01*
X1526Y916D01*
X1526Y914D01*
X1528Y914D01*
X1528Y912D01*
X1530Y912D01*
X1530Y910D01*
X1532Y910D01*
X1532Y906D01*
X1534Y906D01*
X1534Y902D01*
X1536Y902D01*
X1536Y898D01*
X1538Y898D01*
X1538Y892D01*
X1540Y892D01*
X1540Y876D01*
X1538Y876D01*
X1538Y870D01*
X1536Y870D01*
X1536Y864D01*
X1534Y864D01*
X1534Y860D01*
X1532Y860D01*
X1532Y858D01*
X1530Y858D01*
X1530Y856D01*
X1528Y856D01*
X1528Y852D01*
X1526Y852D01*
X1526Y850D01*
X1524Y850D01*
X1524Y848D01*
X1522Y848D01*
X1522Y846D01*
X1518Y846D01*
X1518Y844D01*
X1516Y844D01*
X1516Y824D01*
X1518Y824D01*
X1518Y822D01*
X1520Y822D01*
X1520Y820D01*
X1522Y820D01*
X1522Y818D01*
X1524Y818D01*
X1524Y816D01*
X1526Y816D01*
X1526Y814D01*
X1528Y814D01*
X1528Y812D01*
X1530Y812D01*
X1530Y810D01*
X1532Y810D01*
X1532Y806D01*
X1534Y806D01*
X1534Y802D01*
X1536Y802D01*
X1536Y798D01*
X1538Y798D01*
X1538Y792D01*
X1540Y792D01*
X1540Y776D01*
X1538Y776D01*
X1538Y770D01*
X1536Y770D01*
X1536Y764D01*
X1534Y764D01*
X1534Y760D01*
X1532Y760D01*
X1532Y758D01*
X1530Y758D01*
X1530Y756D01*
X1528Y756D01*
X1528Y752D01*
X1526Y752D01*
X1526Y750D01*
X1524Y750D01*
X1524Y748D01*
X1522Y748D01*
X1522Y746D01*
X1518Y746D01*
X1518Y744D01*
X1516Y744D01*
X1516Y742D01*
X1512Y742D01*
X1512Y740D01*
X1508Y740D01*
X1508Y738D01*
X1504Y738D01*
X1504Y736D01*
X1496Y736D01*
X1496Y734D01*
X1608Y734D01*
X1608Y1232D01*
X1314Y1232D01*
G37*
D02*
G36*
X134Y1162D02*
X134Y1160D01*
X132Y1160D01*
X132Y1158D01*
X130Y1158D01*
X130Y1156D01*
X128Y1156D01*
X128Y1152D01*
X126Y1152D01*
X126Y1150D01*
X124Y1150D01*
X124Y1148D01*
X122Y1148D01*
X122Y1146D01*
X118Y1146D01*
X118Y1144D01*
X116Y1144D01*
X116Y1142D01*
X112Y1142D01*
X112Y1140D01*
X108Y1140D01*
X108Y1138D01*
X104Y1138D01*
X104Y1136D01*
X96Y1136D01*
X96Y1134D01*
X342Y1134D01*
X342Y1162D01*
X134Y1162D01*
G37*
D02*
G36*
X40Y1148D02*
X40Y1134D01*
X86Y1134D01*
X86Y1136D01*
X78Y1136D01*
X78Y1138D01*
X72Y1138D01*
X72Y1140D01*
X68Y1140D01*
X68Y1142D01*
X66Y1142D01*
X66Y1144D01*
X64Y1144D01*
X64Y1146D01*
X60Y1146D01*
X60Y1148D01*
X40Y1148D01*
G37*
D02*
G36*
X40Y1134D02*
X40Y1132D01*
X356Y1132D01*
X356Y1134D01*
X40Y1134D01*
G37*
D02*
G36*
X40Y1134D02*
X40Y1132D01*
X356Y1132D01*
X356Y1134D01*
X40Y1134D01*
G37*
D02*
G36*
X40Y1132D02*
X40Y1032D01*
X140Y1032D01*
X140Y982D01*
X144Y982D01*
X144Y980D01*
X148Y980D01*
X148Y978D01*
X152Y978D01*
X152Y976D01*
X156Y976D01*
X156Y974D01*
X160Y974D01*
X160Y972D01*
X164Y972D01*
X164Y970D01*
X168Y970D01*
X168Y968D01*
X172Y968D01*
X172Y966D01*
X176Y966D01*
X176Y964D01*
X180Y964D01*
X180Y962D01*
X184Y962D01*
X184Y960D01*
X188Y960D01*
X188Y958D01*
X192Y958D01*
X192Y956D01*
X196Y956D01*
X196Y954D01*
X200Y954D01*
X200Y952D01*
X204Y952D01*
X204Y950D01*
X208Y950D01*
X208Y948D01*
X212Y948D01*
X212Y946D01*
X216Y946D01*
X216Y944D01*
X220Y944D01*
X220Y942D01*
X224Y942D01*
X224Y940D01*
X228Y940D01*
X228Y938D01*
X232Y938D01*
X232Y936D01*
X236Y936D01*
X236Y934D01*
X386Y934D01*
X386Y936D01*
X378Y936D01*
X378Y938D01*
X372Y938D01*
X372Y940D01*
X368Y940D01*
X368Y942D01*
X366Y942D01*
X366Y944D01*
X364Y944D01*
X364Y946D01*
X360Y946D01*
X360Y948D01*
X358Y948D01*
X358Y950D01*
X356Y950D01*
X356Y952D01*
X354Y952D01*
X354Y954D01*
X352Y954D01*
X352Y958D01*
X350Y958D01*
X350Y960D01*
X348Y960D01*
X348Y964D01*
X346Y964D01*
X346Y968D01*
X344Y968D01*
X344Y974D01*
X342Y974D01*
X342Y992D01*
X344Y992D01*
X344Y1000D01*
X346Y1000D01*
X346Y1004D01*
X348Y1004D01*
X348Y1006D01*
X350Y1006D01*
X350Y1010D01*
X352Y1010D01*
X352Y1012D01*
X354Y1012D01*
X354Y1014D01*
X356Y1014D01*
X356Y1018D01*
X360Y1018D01*
X360Y1020D01*
X362Y1020D01*
X362Y1022D01*
X364Y1022D01*
X364Y1024D01*
X366Y1024D01*
X366Y1044D01*
X364Y1044D01*
X364Y1046D01*
X360Y1046D01*
X360Y1048D01*
X358Y1048D01*
X358Y1050D01*
X356Y1050D01*
X356Y1052D01*
X354Y1052D01*
X354Y1054D01*
X352Y1054D01*
X352Y1058D01*
X350Y1058D01*
X350Y1060D01*
X348Y1060D01*
X348Y1064D01*
X346Y1064D01*
X346Y1068D01*
X344Y1068D01*
X344Y1074D01*
X342Y1074D01*
X342Y1092D01*
X344Y1092D01*
X344Y1100D01*
X346Y1100D01*
X346Y1104D01*
X348Y1104D01*
X348Y1106D01*
X350Y1106D01*
X350Y1110D01*
X352Y1110D01*
X352Y1112D01*
X354Y1112D01*
X354Y1114D01*
X356Y1114D01*
X356Y1132D01*
X40Y1132D01*
G37*
D02*
G36*
X912Y962D02*
X912Y960D01*
X1150Y960D01*
X1150Y962D01*
X912Y962D01*
G37*
D02*
G36*
X432Y960D02*
X432Y958D01*
X1152Y958D01*
X1152Y960D01*
X432Y960D01*
G37*
D02*
G36*
X432Y960D02*
X432Y958D01*
X1152Y958D01*
X1152Y960D01*
X432Y960D01*
G37*
D02*
G36*
X430Y958D02*
X430Y956D01*
X428Y956D01*
X428Y952D01*
X426Y952D01*
X426Y950D01*
X424Y950D01*
X424Y948D01*
X422Y948D01*
X422Y946D01*
X418Y946D01*
X418Y944D01*
X416Y944D01*
X416Y942D01*
X412Y942D01*
X412Y940D01*
X408Y940D01*
X408Y938D01*
X404Y938D01*
X404Y936D01*
X396Y936D01*
X396Y934D01*
X1168Y934D01*
X1168Y944D01*
X1166Y944D01*
X1166Y946D01*
X1162Y946D01*
X1162Y948D01*
X1160Y948D01*
X1160Y950D01*
X1158Y950D01*
X1158Y952D01*
X1156Y952D01*
X1156Y954D01*
X1154Y954D01*
X1154Y958D01*
X430Y958D01*
G37*
D02*
G36*
X240Y934D02*
X240Y932D01*
X1168Y932D01*
X1168Y934D01*
X240Y934D01*
G37*
D02*
G36*
X240Y934D02*
X240Y932D01*
X1168Y932D01*
X1168Y934D01*
X240Y934D01*
G37*
D02*
G36*
X126Y932D02*
X126Y914D01*
X128Y914D01*
X128Y912D01*
X130Y912D01*
X130Y910D01*
X132Y910D01*
X132Y906D01*
X134Y906D01*
X134Y902D01*
X136Y902D01*
X136Y898D01*
X138Y898D01*
X138Y892D01*
X140Y892D01*
X140Y876D01*
X138Y876D01*
X138Y870D01*
X136Y870D01*
X136Y864D01*
X134Y864D01*
X134Y860D01*
X132Y860D01*
X132Y858D01*
X130Y858D01*
X130Y856D01*
X128Y856D01*
X128Y852D01*
X126Y852D01*
X126Y850D01*
X124Y850D01*
X124Y848D01*
X122Y848D01*
X122Y846D01*
X118Y846D01*
X118Y844D01*
X116Y844D01*
X116Y842D01*
X112Y842D01*
X112Y840D01*
X108Y840D01*
X108Y838D01*
X104Y838D01*
X104Y836D01*
X96Y836D01*
X96Y834D01*
X338Y834D01*
X338Y836D01*
X334Y836D01*
X334Y838D01*
X330Y838D01*
X330Y840D01*
X326Y840D01*
X326Y842D01*
X322Y842D01*
X322Y844D01*
X318Y844D01*
X318Y846D01*
X314Y846D01*
X314Y848D01*
X310Y848D01*
X310Y850D01*
X306Y850D01*
X306Y852D01*
X302Y852D01*
X302Y854D01*
X298Y854D01*
X298Y856D01*
X294Y856D01*
X294Y858D01*
X290Y858D01*
X290Y860D01*
X286Y860D01*
X286Y862D01*
X282Y862D01*
X282Y864D01*
X278Y864D01*
X278Y866D01*
X274Y866D01*
X274Y868D01*
X270Y868D01*
X270Y870D01*
X266Y870D01*
X266Y872D01*
X262Y872D01*
X262Y874D01*
X258Y874D01*
X258Y876D01*
X254Y876D01*
X254Y878D01*
X250Y878D01*
X250Y880D01*
X246Y880D01*
X246Y882D01*
X242Y882D01*
X242Y884D01*
X238Y884D01*
X238Y886D01*
X234Y886D01*
X234Y888D01*
X230Y888D01*
X230Y890D01*
X226Y890D01*
X226Y892D01*
X222Y892D01*
X222Y894D01*
X218Y894D01*
X218Y896D01*
X214Y896D01*
X214Y898D01*
X210Y898D01*
X210Y900D01*
X206Y900D01*
X206Y902D01*
X202Y902D01*
X202Y904D01*
X198Y904D01*
X198Y906D01*
X194Y906D01*
X194Y908D01*
X190Y908D01*
X190Y910D01*
X186Y910D01*
X186Y912D01*
X182Y912D01*
X182Y914D01*
X178Y914D01*
X178Y916D01*
X174Y916D01*
X174Y918D01*
X170Y918D01*
X170Y920D01*
X166Y920D01*
X166Y922D01*
X162Y922D01*
X162Y924D01*
X158Y924D01*
X158Y926D01*
X154Y926D01*
X154Y928D01*
X150Y928D01*
X150Y930D01*
X146Y930D01*
X146Y932D01*
X126Y932D01*
G37*
D02*
G36*
X244Y932D02*
X244Y930D01*
X248Y930D01*
X248Y928D01*
X252Y928D01*
X252Y926D01*
X256Y926D01*
X256Y924D01*
X260Y924D01*
X260Y922D01*
X264Y922D01*
X264Y920D01*
X268Y920D01*
X268Y918D01*
X272Y918D01*
X272Y916D01*
X276Y916D01*
X276Y914D01*
X280Y914D01*
X280Y912D01*
X284Y912D01*
X284Y910D01*
X288Y910D01*
X288Y908D01*
X292Y908D01*
X292Y906D01*
X296Y906D01*
X296Y904D01*
X300Y904D01*
X300Y902D01*
X304Y902D01*
X304Y900D01*
X308Y900D01*
X308Y898D01*
X312Y898D01*
X312Y896D01*
X316Y896D01*
X316Y894D01*
X320Y894D01*
X320Y892D01*
X324Y892D01*
X324Y890D01*
X328Y890D01*
X328Y888D01*
X332Y888D01*
X332Y886D01*
X336Y886D01*
X336Y884D01*
X340Y884D01*
X340Y882D01*
X344Y882D01*
X344Y880D01*
X348Y880D01*
X348Y878D01*
X352Y878D01*
X352Y876D01*
X356Y876D01*
X356Y874D01*
X360Y874D01*
X360Y872D01*
X364Y872D01*
X364Y870D01*
X368Y870D01*
X368Y868D01*
X372Y868D01*
X372Y866D01*
X376Y866D01*
X376Y864D01*
X380Y864D01*
X380Y862D01*
X384Y862D01*
X384Y860D01*
X388Y860D01*
X388Y858D01*
X392Y858D01*
X392Y856D01*
X396Y856D01*
X396Y854D01*
X400Y854D01*
X400Y852D01*
X404Y852D01*
X404Y850D01*
X408Y850D01*
X408Y848D01*
X412Y848D01*
X412Y846D01*
X418Y846D01*
X418Y844D01*
X422Y844D01*
X422Y842D01*
X426Y842D01*
X426Y840D01*
X430Y840D01*
X430Y838D01*
X434Y838D01*
X434Y836D01*
X438Y836D01*
X438Y834D01*
X442Y834D01*
X442Y832D01*
X494Y832D01*
X494Y830D01*
X504Y830D01*
X504Y828D01*
X508Y828D01*
X508Y826D01*
X512Y826D01*
X512Y824D01*
X516Y824D01*
X516Y822D01*
X518Y822D01*
X518Y820D01*
X520Y820D01*
X520Y818D01*
X522Y818D01*
X522Y816D01*
X524Y816D01*
X524Y814D01*
X526Y814D01*
X526Y812D01*
X528Y812D01*
X528Y810D01*
X530Y810D01*
X530Y806D01*
X532Y806D01*
X532Y804D01*
X534Y804D01*
X534Y800D01*
X536Y800D01*
X536Y794D01*
X538Y794D01*
X538Y774D01*
X536Y774D01*
X536Y768D01*
X534Y768D01*
X534Y764D01*
X532Y764D01*
X532Y760D01*
X530Y760D01*
X530Y758D01*
X528Y758D01*
X528Y756D01*
X526Y756D01*
X526Y752D01*
X524Y752D01*
X524Y750D01*
X522Y750D01*
X522Y748D01*
X518Y748D01*
X518Y746D01*
X516Y746D01*
X516Y744D01*
X514Y744D01*
X514Y732D01*
X994Y732D01*
X994Y730D01*
X1004Y730D01*
X1004Y728D01*
X1008Y728D01*
X1008Y726D01*
X1012Y726D01*
X1012Y724D01*
X1016Y724D01*
X1016Y722D01*
X1018Y722D01*
X1018Y720D01*
X1020Y720D01*
X1020Y718D01*
X1022Y718D01*
X1022Y716D01*
X1024Y716D01*
X1024Y714D01*
X1026Y714D01*
X1026Y712D01*
X1028Y712D01*
X1028Y710D01*
X1030Y710D01*
X1030Y706D01*
X1032Y706D01*
X1032Y704D01*
X1034Y704D01*
X1034Y700D01*
X1036Y700D01*
X1036Y694D01*
X1038Y694D01*
X1038Y674D01*
X1036Y674D01*
X1036Y668D01*
X1034Y668D01*
X1034Y664D01*
X1032Y664D01*
X1032Y660D01*
X1030Y660D01*
X1030Y658D01*
X1028Y658D01*
X1028Y656D01*
X1026Y656D01*
X1026Y652D01*
X1024Y652D01*
X1024Y650D01*
X1022Y650D01*
X1022Y648D01*
X1018Y648D01*
X1018Y646D01*
X1016Y646D01*
X1016Y644D01*
X1014Y644D01*
X1014Y624D01*
X1016Y624D01*
X1016Y622D01*
X1018Y622D01*
X1018Y620D01*
X1020Y620D01*
X1020Y618D01*
X1022Y618D01*
X1022Y616D01*
X1024Y616D01*
X1024Y614D01*
X1026Y614D01*
X1026Y612D01*
X1028Y612D01*
X1028Y610D01*
X1030Y610D01*
X1030Y606D01*
X1032Y606D01*
X1032Y604D01*
X1034Y604D01*
X1034Y600D01*
X1036Y600D01*
X1036Y594D01*
X1038Y594D01*
X1038Y574D01*
X1036Y574D01*
X1036Y568D01*
X1034Y568D01*
X1034Y564D01*
X1032Y564D01*
X1032Y560D01*
X1030Y560D01*
X1030Y558D01*
X1028Y558D01*
X1028Y556D01*
X1026Y556D01*
X1026Y552D01*
X1024Y552D01*
X1024Y550D01*
X1022Y550D01*
X1022Y548D01*
X1018Y548D01*
X1018Y546D01*
X1016Y546D01*
X1016Y544D01*
X1014Y544D01*
X1014Y524D01*
X1016Y524D01*
X1016Y522D01*
X1018Y522D01*
X1018Y520D01*
X1020Y520D01*
X1020Y518D01*
X1022Y518D01*
X1022Y516D01*
X1024Y516D01*
X1024Y514D01*
X1026Y514D01*
X1026Y512D01*
X1028Y512D01*
X1028Y510D01*
X1030Y510D01*
X1030Y506D01*
X1032Y506D01*
X1032Y504D01*
X1034Y504D01*
X1034Y500D01*
X1036Y500D01*
X1036Y494D01*
X1038Y494D01*
X1038Y474D01*
X1036Y474D01*
X1036Y468D01*
X1034Y468D01*
X1034Y464D01*
X1032Y464D01*
X1032Y460D01*
X1030Y460D01*
X1030Y458D01*
X1028Y458D01*
X1028Y456D01*
X1026Y456D01*
X1026Y452D01*
X1024Y452D01*
X1024Y450D01*
X1022Y450D01*
X1022Y448D01*
X1018Y448D01*
X1018Y446D01*
X1016Y446D01*
X1016Y444D01*
X1014Y444D01*
X1014Y424D01*
X1016Y424D01*
X1016Y422D01*
X1018Y422D01*
X1018Y420D01*
X1020Y420D01*
X1020Y418D01*
X1022Y418D01*
X1022Y416D01*
X1024Y416D01*
X1024Y414D01*
X1026Y414D01*
X1026Y412D01*
X1028Y412D01*
X1028Y410D01*
X1030Y410D01*
X1030Y406D01*
X1032Y406D01*
X1032Y404D01*
X1034Y404D01*
X1034Y400D01*
X1036Y400D01*
X1036Y394D01*
X1038Y394D01*
X1038Y374D01*
X1036Y374D01*
X1036Y368D01*
X1034Y368D01*
X1034Y364D01*
X1032Y364D01*
X1032Y360D01*
X1030Y360D01*
X1030Y358D01*
X1028Y358D01*
X1028Y356D01*
X1026Y356D01*
X1026Y352D01*
X1024Y352D01*
X1024Y350D01*
X1022Y350D01*
X1022Y348D01*
X1018Y348D01*
X1018Y346D01*
X1016Y346D01*
X1016Y344D01*
X1014Y344D01*
X1014Y342D01*
X1010Y342D01*
X1010Y340D01*
X1006Y340D01*
X1006Y338D01*
X998Y338D01*
X998Y336D01*
X1070Y336D01*
X1070Y392D01*
X1072Y392D01*
X1072Y396D01*
X1074Y396D01*
X1074Y398D01*
X1076Y398D01*
X1076Y400D01*
X1078Y400D01*
X1078Y402D01*
X1080Y402D01*
X1080Y404D01*
X1082Y404D01*
X1082Y406D01*
X1084Y406D01*
X1084Y408D01*
X1086Y408D01*
X1086Y410D01*
X1088Y410D01*
X1088Y412D01*
X1090Y412D01*
X1090Y414D01*
X1092Y414D01*
X1092Y416D01*
X1094Y416D01*
X1094Y418D01*
X1096Y418D01*
X1096Y420D01*
X1098Y420D01*
X1098Y422D01*
X1100Y422D01*
X1100Y424D01*
X1102Y424D01*
X1102Y426D01*
X1104Y426D01*
X1104Y428D01*
X1106Y428D01*
X1106Y430D01*
X1108Y430D01*
X1108Y432D01*
X1110Y432D01*
X1110Y434D01*
X1112Y434D01*
X1112Y436D01*
X1114Y436D01*
X1114Y438D01*
X1116Y438D01*
X1116Y440D01*
X1118Y440D01*
X1118Y442D01*
X1120Y442D01*
X1120Y444D01*
X1122Y444D01*
X1122Y446D01*
X1124Y446D01*
X1124Y448D01*
X1126Y448D01*
X1126Y450D01*
X1128Y450D01*
X1128Y452D01*
X1130Y452D01*
X1130Y454D01*
X1132Y454D01*
X1132Y456D01*
X1134Y456D01*
X1134Y458D01*
X1136Y458D01*
X1136Y460D01*
X1138Y460D01*
X1138Y462D01*
X1140Y462D01*
X1140Y464D01*
X1142Y464D01*
X1142Y466D01*
X1144Y466D01*
X1144Y494D01*
X1146Y494D01*
X1146Y500D01*
X1148Y500D01*
X1148Y504D01*
X1150Y504D01*
X1150Y508D01*
X1152Y508D01*
X1152Y510D01*
X1154Y510D01*
X1154Y512D01*
X1156Y512D01*
X1156Y514D01*
X1158Y514D01*
X1158Y516D01*
X1160Y516D01*
X1160Y518D01*
X1162Y518D01*
X1162Y520D01*
X1164Y520D01*
X1164Y522D01*
X1166Y522D01*
X1166Y524D01*
X1168Y524D01*
X1168Y544D01*
X1166Y544D01*
X1166Y546D01*
X1162Y546D01*
X1162Y548D01*
X1160Y548D01*
X1160Y550D01*
X1158Y550D01*
X1158Y552D01*
X1156Y552D01*
X1156Y554D01*
X1154Y554D01*
X1154Y558D01*
X1152Y558D01*
X1152Y560D01*
X1150Y560D01*
X1150Y564D01*
X1148Y564D01*
X1148Y568D01*
X1146Y568D01*
X1146Y572D01*
X1144Y572D01*
X1144Y594D01*
X1146Y594D01*
X1146Y600D01*
X1148Y600D01*
X1148Y604D01*
X1150Y604D01*
X1150Y608D01*
X1152Y608D01*
X1152Y610D01*
X1154Y610D01*
X1154Y612D01*
X1156Y612D01*
X1156Y614D01*
X1158Y614D01*
X1158Y616D01*
X1160Y616D01*
X1160Y618D01*
X1162Y618D01*
X1162Y620D01*
X1164Y620D01*
X1164Y622D01*
X1166Y622D01*
X1166Y624D01*
X1168Y624D01*
X1168Y644D01*
X1166Y644D01*
X1166Y646D01*
X1162Y646D01*
X1162Y648D01*
X1160Y648D01*
X1160Y650D01*
X1158Y650D01*
X1158Y652D01*
X1156Y652D01*
X1156Y654D01*
X1154Y654D01*
X1154Y658D01*
X1152Y658D01*
X1152Y660D01*
X1150Y660D01*
X1150Y664D01*
X1148Y664D01*
X1148Y668D01*
X1146Y668D01*
X1146Y672D01*
X1144Y672D01*
X1144Y694D01*
X1146Y694D01*
X1146Y700D01*
X1148Y700D01*
X1148Y704D01*
X1150Y704D01*
X1150Y708D01*
X1152Y708D01*
X1152Y710D01*
X1154Y710D01*
X1154Y712D01*
X1156Y712D01*
X1156Y714D01*
X1158Y714D01*
X1158Y716D01*
X1160Y716D01*
X1160Y718D01*
X1162Y718D01*
X1162Y720D01*
X1164Y720D01*
X1164Y722D01*
X1166Y722D01*
X1166Y724D01*
X1168Y724D01*
X1168Y744D01*
X1166Y744D01*
X1166Y746D01*
X1162Y746D01*
X1162Y748D01*
X1160Y748D01*
X1160Y750D01*
X1158Y750D01*
X1158Y752D01*
X1156Y752D01*
X1156Y754D01*
X1154Y754D01*
X1154Y758D01*
X1152Y758D01*
X1152Y760D01*
X1150Y760D01*
X1150Y764D01*
X1148Y764D01*
X1148Y768D01*
X1146Y768D01*
X1146Y772D01*
X1144Y772D01*
X1144Y794D01*
X1146Y794D01*
X1146Y800D01*
X1148Y800D01*
X1148Y804D01*
X1150Y804D01*
X1150Y808D01*
X1152Y808D01*
X1152Y810D01*
X1154Y810D01*
X1154Y812D01*
X1156Y812D01*
X1156Y814D01*
X1158Y814D01*
X1158Y816D01*
X1160Y816D01*
X1160Y818D01*
X1162Y818D01*
X1162Y820D01*
X1164Y820D01*
X1164Y822D01*
X1166Y822D01*
X1166Y824D01*
X1168Y824D01*
X1168Y844D01*
X1166Y844D01*
X1166Y846D01*
X1162Y846D01*
X1162Y848D01*
X1160Y848D01*
X1160Y850D01*
X1158Y850D01*
X1158Y852D01*
X1156Y852D01*
X1156Y854D01*
X1154Y854D01*
X1154Y858D01*
X1152Y858D01*
X1152Y860D01*
X1150Y860D01*
X1150Y864D01*
X1148Y864D01*
X1148Y868D01*
X1146Y868D01*
X1146Y872D01*
X1144Y872D01*
X1144Y894D01*
X1146Y894D01*
X1146Y900D01*
X1148Y900D01*
X1148Y904D01*
X1150Y904D01*
X1150Y908D01*
X1152Y908D01*
X1152Y910D01*
X1154Y910D01*
X1154Y912D01*
X1156Y912D01*
X1156Y914D01*
X1158Y914D01*
X1158Y916D01*
X1160Y916D01*
X1160Y918D01*
X1162Y918D01*
X1162Y920D01*
X1164Y920D01*
X1164Y922D01*
X1166Y922D01*
X1166Y924D01*
X1168Y924D01*
X1168Y932D01*
X244Y932D01*
G37*
D02*
G36*
X1314Y932D02*
X1314Y924D01*
X1316Y924D01*
X1316Y922D01*
X1318Y922D01*
X1318Y920D01*
X1320Y920D01*
X1320Y918D01*
X1322Y918D01*
X1322Y916D01*
X1324Y916D01*
X1324Y914D01*
X1326Y914D01*
X1326Y912D01*
X1328Y912D01*
X1328Y910D01*
X1330Y910D01*
X1330Y906D01*
X1332Y906D01*
X1332Y904D01*
X1334Y904D01*
X1334Y900D01*
X1336Y900D01*
X1336Y894D01*
X1338Y894D01*
X1338Y874D01*
X1336Y874D01*
X1336Y868D01*
X1334Y868D01*
X1334Y864D01*
X1332Y864D01*
X1332Y860D01*
X1330Y860D01*
X1330Y858D01*
X1328Y858D01*
X1328Y856D01*
X1326Y856D01*
X1326Y852D01*
X1324Y852D01*
X1324Y850D01*
X1322Y850D01*
X1322Y848D01*
X1318Y848D01*
X1318Y846D01*
X1316Y846D01*
X1316Y844D01*
X1314Y844D01*
X1314Y824D01*
X1316Y824D01*
X1316Y822D01*
X1318Y822D01*
X1318Y820D01*
X1320Y820D01*
X1320Y818D01*
X1322Y818D01*
X1322Y816D01*
X1324Y816D01*
X1324Y814D01*
X1326Y814D01*
X1326Y812D01*
X1328Y812D01*
X1328Y810D01*
X1330Y810D01*
X1330Y806D01*
X1332Y806D01*
X1332Y804D01*
X1334Y804D01*
X1334Y800D01*
X1336Y800D01*
X1336Y794D01*
X1338Y794D01*
X1338Y774D01*
X1336Y774D01*
X1336Y768D01*
X1334Y768D01*
X1334Y764D01*
X1332Y764D01*
X1332Y760D01*
X1330Y760D01*
X1330Y758D01*
X1328Y758D01*
X1328Y756D01*
X1326Y756D01*
X1326Y752D01*
X1324Y752D01*
X1324Y750D01*
X1322Y750D01*
X1322Y748D01*
X1318Y748D01*
X1318Y746D01*
X1316Y746D01*
X1316Y744D01*
X1314Y744D01*
X1314Y734D01*
X1486Y734D01*
X1486Y736D01*
X1478Y736D01*
X1478Y738D01*
X1472Y738D01*
X1472Y740D01*
X1468Y740D01*
X1468Y742D01*
X1466Y742D01*
X1466Y744D01*
X1464Y744D01*
X1464Y746D01*
X1460Y746D01*
X1460Y748D01*
X1458Y748D01*
X1458Y750D01*
X1456Y750D01*
X1456Y752D01*
X1454Y752D01*
X1454Y754D01*
X1452Y754D01*
X1452Y758D01*
X1450Y758D01*
X1450Y760D01*
X1448Y760D01*
X1448Y764D01*
X1446Y764D01*
X1446Y768D01*
X1444Y768D01*
X1444Y774D01*
X1442Y774D01*
X1442Y792D01*
X1444Y792D01*
X1444Y800D01*
X1446Y800D01*
X1446Y804D01*
X1448Y804D01*
X1448Y806D01*
X1450Y806D01*
X1450Y810D01*
X1452Y810D01*
X1452Y812D01*
X1454Y812D01*
X1454Y814D01*
X1456Y814D01*
X1456Y818D01*
X1460Y818D01*
X1460Y820D01*
X1462Y820D01*
X1462Y822D01*
X1464Y822D01*
X1464Y824D01*
X1466Y824D01*
X1466Y844D01*
X1464Y844D01*
X1464Y846D01*
X1460Y846D01*
X1460Y848D01*
X1458Y848D01*
X1458Y850D01*
X1456Y850D01*
X1456Y852D01*
X1454Y852D01*
X1454Y854D01*
X1452Y854D01*
X1452Y858D01*
X1450Y858D01*
X1450Y860D01*
X1448Y860D01*
X1448Y864D01*
X1446Y864D01*
X1446Y868D01*
X1444Y868D01*
X1444Y874D01*
X1442Y874D01*
X1442Y892D01*
X1444Y892D01*
X1444Y900D01*
X1446Y900D01*
X1446Y904D01*
X1448Y904D01*
X1448Y906D01*
X1450Y906D01*
X1450Y910D01*
X1452Y910D01*
X1452Y912D01*
X1454Y912D01*
X1454Y914D01*
X1456Y914D01*
X1456Y918D01*
X1460Y918D01*
X1460Y920D01*
X1462Y920D01*
X1462Y922D01*
X1464Y922D01*
X1464Y924D01*
X1466Y924D01*
X1466Y926D01*
X1470Y926D01*
X1470Y928D01*
X1474Y928D01*
X1474Y930D01*
X1480Y930D01*
X1480Y932D01*
X1314Y932D01*
G37*
D02*
G36*
X40Y848D02*
X40Y834D01*
X86Y834D01*
X86Y836D01*
X78Y836D01*
X78Y838D01*
X72Y838D01*
X72Y840D01*
X68Y840D01*
X68Y842D01*
X66Y842D01*
X66Y844D01*
X64Y844D01*
X64Y846D01*
X60Y846D01*
X60Y848D01*
X40Y848D01*
G37*
D02*
G36*
X40Y834D02*
X40Y832D01*
X342Y832D01*
X342Y834D01*
X40Y834D01*
G37*
D02*
G36*
X40Y834D02*
X40Y832D01*
X342Y832D01*
X342Y834D01*
X40Y834D01*
G37*
D02*
G36*
X40Y832D02*
X40Y732D01*
X94Y732D01*
X94Y730D01*
X104Y730D01*
X104Y728D01*
X108Y728D01*
X108Y726D01*
X112Y726D01*
X112Y724D01*
X116Y724D01*
X116Y722D01*
X118Y722D01*
X118Y720D01*
X120Y720D01*
X120Y718D01*
X122Y718D01*
X122Y716D01*
X124Y716D01*
X124Y714D01*
X126Y714D01*
X126Y712D01*
X128Y712D01*
X128Y710D01*
X130Y710D01*
X130Y706D01*
X132Y706D01*
X132Y704D01*
X134Y704D01*
X134Y700D01*
X136Y700D01*
X136Y694D01*
X138Y694D01*
X138Y674D01*
X136Y674D01*
X136Y668D01*
X134Y668D01*
X134Y664D01*
X132Y664D01*
X132Y660D01*
X130Y660D01*
X130Y658D01*
X128Y658D01*
X128Y656D01*
X126Y656D01*
X126Y652D01*
X124Y652D01*
X124Y650D01*
X122Y650D01*
X122Y648D01*
X118Y648D01*
X118Y646D01*
X116Y646D01*
X116Y644D01*
X114Y644D01*
X114Y642D01*
X110Y642D01*
X110Y640D01*
X106Y640D01*
X106Y638D01*
X98Y638D01*
X98Y636D01*
X484Y636D01*
X484Y638D01*
X476Y638D01*
X476Y640D01*
X472Y640D01*
X472Y642D01*
X468Y642D01*
X468Y644D01*
X466Y644D01*
X466Y646D01*
X462Y646D01*
X462Y648D01*
X460Y648D01*
X460Y650D01*
X458Y650D01*
X458Y652D01*
X456Y652D01*
X456Y654D01*
X454Y654D01*
X454Y658D01*
X452Y658D01*
X452Y660D01*
X450Y660D01*
X450Y664D01*
X448Y664D01*
X448Y668D01*
X446Y668D01*
X446Y672D01*
X444Y672D01*
X444Y694D01*
X446Y694D01*
X446Y700D01*
X448Y700D01*
X448Y704D01*
X450Y704D01*
X450Y708D01*
X452Y708D01*
X452Y710D01*
X454Y710D01*
X454Y712D01*
X456Y712D01*
X456Y714D01*
X458Y714D01*
X458Y716D01*
X460Y716D01*
X460Y718D01*
X462Y718D01*
X462Y720D01*
X464Y720D01*
X464Y722D01*
X466Y722D01*
X466Y724D01*
X468Y724D01*
X468Y744D01*
X466Y744D01*
X466Y746D01*
X462Y746D01*
X462Y748D01*
X460Y748D01*
X460Y750D01*
X458Y750D01*
X458Y752D01*
X456Y752D01*
X456Y754D01*
X454Y754D01*
X454Y758D01*
X452Y758D01*
X452Y760D01*
X450Y760D01*
X450Y764D01*
X448Y764D01*
X448Y768D01*
X446Y768D01*
X446Y772D01*
X444Y772D01*
X444Y782D01*
X442Y782D01*
X442Y784D01*
X438Y784D01*
X438Y786D01*
X434Y786D01*
X434Y788D01*
X430Y788D01*
X430Y790D01*
X426Y790D01*
X426Y792D01*
X422Y792D01*
X422Y794D01*
X418Y794D01*
X418Y796D01*
X414Y796D01*
X414Y798D01*
X410Y798D01*
X410Y800D01*
X406Y800D01*
X406Y802D01*
X402Y802D01*
X402Y804D01*
X398Y804D01*
X398Y806D01*
X394Y806D01*
X394Y808D01*
X390Y808D01*
X390Y810D01*
X386Y810D01*
X386Y812D01*
X382Y812D01*
X382Y814D01*
X378Y814D01*
X378Y816D01*
X374Y816D01*
X374Y818D01*
X370Y818D01*
X370Y820D01*
X366Y820D01*
X366Y822D01*
X362Y822D01*
X362Y824D01*
X358Y824D01*
X358Y826D01*
X354Y826D01*
X354Y828D01*
X350Y828D01*
X350Y830D01*
X346Y830D01*
X346Y832D01*
X40Y832D01*
G37*
D02*
G36*
X446Y832D02*
X446Y830D01*
X450Y830D01*
X450Y828D01*
X454Y828D01*
X454Y826D01*
X474Y826D01*
X474Y828D01*
X478Y828D01*
X478Y830D01*
X488Y830D01*
X488Y832D01*
X446Y832D01*
G37*
D02*
G36*
X1314Y734D02*
X1314Y732D01*
X1608Y732D01*
X1608Y734D01*
X1314Y734D01*
G37*
D02*
G36*
X1314Y734D02*
X1314Y732D01*
X1608Y732D01*
X1608Y734D01*
X1314Y734D01*
G37*
D02*
G36*
X40Y732D02*
X40Y716D01*
X60Y716D01*
X60Y718D01*
X62Y718D01*
X62Y720D01*
X64Y720D01*
X64Y722D01*
X66Y722D01*
X66Y724D01*
X70Y724D01*
X70Y726D01*
X74Y726D01*
X74Y728D01*
X78Y728D01*
X78Y730D01*
X88Y730D01*
X88Y732D01*
X40Y732D01*
G37*
D02*
G36*
X514Y732D02*
X514Y724D01*
X516Y724D01*
X516Y722D01*
X518Y722D01*
X518Y720D01*
X520Y720D01*
X520Y718D01*
X522Y718D01*
X522Y716D01*
X524Y716D01*
X524Y714D01*
X526Y714D01*
X526Y712D01*
X528Y712D01*
X528Y710D01*
X530Y710D01*
X530Y706D01*
X532Y706D01*
X532Y704D01*
X534Y704D01*
X534Y700D01*
X536Y700D01*
X536Y694D01*
X538Y694D01*
X538Y674D01*
X536Y674D01*
X536Y668D01*
X534Y668D01*
X534Y664D01*
X532Y664D01*
X532Y660D01*
X530Y660D01*
X530Y658D01*
X528Y658D01*
X528Y656D01*
X526Y656D01*
X526Y652D01*
X524Y652D01*
X524Y650D01*
X522Y650D01*
X522Y648D01*
X518Y648D01*
X518Y646D01*
X516Y646D01*
X516Y644D01*
X514Y644D01*
X514Y642D01*
X510Y642D01*
X510Y640D01*
X506Y640D01*
X506Y638D01*
X498Y638D01*
X498Y636D01*
X844Y636D01*
X844Y732D01*
X514Y732D01*
G37*
D02*
G36*
X938Y732D02*
X938Y714D01*
X958Y714D01*
X958Y716D01*
X960Y716D01*
X960Y718D01*
X962Y718D01*
X962Y720D01*
X964Y720D01*
X964Y722D01*
X966Y722D01*
X966Y724D01*
X970Y724D01*
X970Y726D01*
X974Y726D01*
X974Y728D01*
X978Y728D01*
X978Y730D01*
X988Y730D01*
X988Y732D01*
X938Y732D01*
G37*
D02*
G36*
X1314Y732D02*
X1314Y724D01*
X1316Y724D01*
X1316Y722D01*
X1318Y722D01*
X1318Y720D01*
X1320Y720D01*
X1320Y718D01*
X1322Y718D01*
X1322Y716D01*
X1324Y716D01*
X1324Y714D01*
X1326Y714D01*
X1326Y712D01*
X1328Y712D01*
X1328Y710D01*
X1330Y710D01*
X1330Y706D01*
X1332Y706D01*
X1332Y704D01*
X1334Y704D01*
X1334Y700D01*
X1336Y700D01*
X1336Y694D01*
X1338Y694D01*
X1338Y674D01*
X1336Y674D01*
X1336Y668D01*
X1334Y668D01*
X1334Y664D01*
X1332Y664D01*
X1332Y660D01*
X1330Y660D01*
X1330Y658D01*
X1328Y658D01*
X1328Y656D01*
X1326Y656D01*
X1326Y652D01*
X1324Y652D01*
X1324Y650D01*
X1322Y650D01*
X1322Y648D01*
X1318Y648D01*
X1318Y646D01*
X1316Y646D01*
X1316Y644D01*
X1314Y644D01*
X1314Y632D01*
X1502Y632D01*
X1502Y630D01*
X1508Y630D01*
X1508Y628D01*
X1512Y628D01*
X1512Y626D01*
X1514Y626D01*
X1514Y624D01*
X1518Y624D01*
X1518Y622D01*
X1520Y622D01*
X1520Y620D01*
X1522Y620D01*
X1522Y618D01*
X1524Y618D01*
X1524Y616D01*
X1526Y616D01*
X1526Y614D01*
X1528Y614D01*
X1528Y612D01*
X1530Y612D01*
X1530Y610D01*
X1532Y610D01*
X1532Y606D01*
X1534Y606D01*
X1534Y602D01*
X1536Y602D01*
X1536Y598D01*
X1538Y598D01*
X1538Y592D01*
X1540Y592D01*
X1540Y576D01*
X1538Y576D01*
X1538Y570D01*
X1536Y570D01*
X1536Y564D01*
X1534Y564D01*
X1534Y560D01*
X1532Y560D01*
X1532Y558D01*
X1530Y558D01*
X1530Y556D01*
X1528Y556D01*
X1528Y552D01*
X1526Y552D01*
X1526Y550D01*
X1524Y550D01*
X1524Y548D01*
X1522Y548D01*
X1522Y546D01*
X1518Y546D01*
X1518Y544D01*
X1516Y544D01*
X1516Y524D01*
X1518Y524D01*
X1518Y522D01*
X1520Y522D01*
X1520Y520D01*
X1522Y520D01*
X1522Y518D01*
X1524Y518D01*
X1524Y516D01*
X1526Y516D01*
X1526Y514D01*
X1528Y514D01*
X1528Y512D01*
X1530Y512D01*
X1530Y510D01*
X1532Y510D01*
X1532Y506D01*
X1534Y506D01*
X1534Y502D01*
X1536Y502D01*
X1536Y498D01*
X1538Y498D01*
X1538Y492D01*
X1540Y492D01*
X1540Y476D01*
X1538Y476D01*
X1538Y470D01*
X1536Y470D01*
X1536Y464D01*
X1534Y464D01*
X1534Y460D01*
X1532Y460D01*
X1532Y458D01*
X1530Y458D01*
X1530Y456D01*
X1528Y456D01*
X1528Y452D01*
X1526Y452D01*
X1526Y450D01*
X1524Y450D01*
X1524Y448D01*
X1522Y448D01*
X1522Y446D01*
X1518Y446D01*
X1518Y444D01*
X1516Y444D01*
X1516Y442D01*
X1512Y442D01*
X1512Y440D01*
X1508Y440D01*
X1508Y438D01*
X1504Y438D01*
X1504Y436D01*
X1496Y436D01*
X1496Y434D01*
X1608Y434D01*
X1608Y732D01*
X1314Y732D01*
G37*
D02*
G36*
X40Y650D02*
X40Y636D01*
X84Y636D01*
X84Y638D01*
X76Y638D01*
X76Y640D01*
X72Y640D01*
X72Y642D01*
X68Y642D01*
X68Y644D01*
X66Y644D01*
X66Y646D01*
X62Y646D01*
X62Y648D01*
X60Y648D01*
X60Y650D01*
X40Y650D01*
G37*
D02*
G36*
X40Y636D02*
X40Y634D01*
X860Y634D01*
X860Y636D01*
X40Y636D01*
G37*
D02*
G36*
X40Y636D02*
X40Y634D01*
X860Y634D01*
X860Y636D01*
X40Y636D01*
G37*
D02*
G36*
X40Y636D02*
X40Y634D01*
X860Y634D01*
X860Y636D01*
X40Y636D01*
G37*
D02*
G36*
X40Y634D02*
X40Y532D01*
X502Y532D01*
X502Y530D01*
X508Y530D01*
X508Y528D01*
X512Y528D01*
X512Y526D01*
X514Y526D01*
X514Y524D01*
X518Y524D01*
X518Y522D01*
X520Y522D01*
X520Y520D01*
X522Y520D01*
X522Y518D01*
X524Y518D01*
X524Y516D01*
X526Y516D01*
X526Y514D01*
X528Y514D01*
X528Y512D01*
X530Y512D01*
X530Y510D01*
X532Y510D01*
X532Y506D01*
X534Y506D01*
X534Y502D01*
X536Y502D01*
X536Y498D01*
X538Y498D01*
X538Y492D01*
X540Y492D01*
X540Y476D01*
X538Y476D01*
X538Y470D01*
X536Y470D01*
X536Y464D01*
X534Y464D01*
X534Y460D01*
X532Y460D01*
X532Y458D01*
X530Y458D01*
X530Y456D01*
X528Y456D01*
X528Y452D01*
X526Y452D01*
X526Y450D01*
X524Y450D01*
X524Y448D01*
X522Y448D01*
X522Y446D01*
X518Y446D01*
X518Y444D01*
X516Y444D01*
X516Y442D01*
X512Y442D01*
X512Y440D01*
X508Y440D01*
X508Y438D01*
X504Y438D01*
X504Y436D01*
X496Y436D01*
X496Y434D01*
X768Y434D01*
X768Y488D01*
X770Y488D01*
X770Y494D01*
X772Y494D01*
X772Y496D01*
X774Y496D01*
X774Y498D01*
X776Y498D01*
X776Y500D01*
X778Y500D01*
X778Y502D01*
X780Y502D01*
X780Y504D01*
X788Y504D01*
X788Y506D01*
X850Y506D01*
X850Y508D01*
X852Y508D01*
X852Y510D01*
X854Y510D01*
X854Y512D01*
X856Y512D01*
X856Y514D01*
X858Y514D01*
X858Y516D01*
X860Y516D01*
X860Y518D01*
X862Y518D01*
X862Y520D01*
X864Y520D01*
X864Y522D01*
X866Y522D01*
X866Y524D01*
X868Y524D01*
X868Y544D01*
X866Y544D01*
X866Y546D01*
X862Y546D01*
X862Y548D01*
X860Y548D01*
X860Y550D01*
X858Y550D01*
X858Y552D01*
X856Y552D01*
X856Y554D01*
X854Y554D01*
X854Y558D01*
X852Y558D01*
X852Y560D01*
X850Y560D01*
X850Y564D01*
X848Y564D01*
X848Y568D01*
X846Y568D01*
X846Y572D01*
X844Y572D01*
X844Y594D01*
X846Y594D01*
X846Y600D01*
X848Y600D01*
X848Y604D01*
X850Y604D01*
X850Y608D01*
X852Y608D01*
X852Y610D01*
X854Y610D01*
X854Y612D01*
X856Y612D01*
X856Y614D01*
X858Y614D01*
X858Y616D01*
X860Y616D01*
X860Y634D01*
X40Y634D01*
G37*
D02*
G36*
X1314Y632D02*
X1314Y624D01*
X1316Y624D01*
X1316Y622D01*
X1318Y622D01*
X1318Y620D01*
X1320Y620D01*
X1320Y618D01*
X1322Y618D01*
X1322Y616D01*
X1324Y616D01*
X1324Y614D01*
X1326Y614D01*
X1326Y612D01*
X1328Y612D01*
X1328Y610D01*
X1330Y610D01*
X1330Y606D01*
X1332Y606D01*
X1332Y604D01*
X1334Y604D01*
X1334Y600D01*
X1336Y600D01*
X1336Y594D01*
X1338Y594D01*
X1338Y574D01*
X1336Y574D01*
X1336Y568D01*
X1334Y568D01*
X1334Y564D01*
X1332Y564D01*
X1332Y560D01*
X1330Y560D01*
X1330Y558D01*
X1328Y558D01*
X1328Y556D01*
X1326Y556D01*
X1326Y552D01*
X1324Y552D01*
X1324Y550D01*
X1322Y550D01*
X1322Y548D01*
X1318Y548D01*
X1318Y546D01*
X1316Y546D01*
X1316Y544D01*
X1314Y544D01*
X1314Y524D01*
X1316Y524D01*
X1316Y522D01*
X1318Y522D01*
X1318Y520D01*
X1320Y520D01*
X1320Y518D01*
X1322Y518D01*
X1322Y516D01*
X1324Y516D01*
X1324Y514D01*
X1326Y514D01*
X1326Y512D01*
X1328Y512D01*
X1328Y510D01*
X1330Y510D01*
X1330Y506D01*
X1332Y506D01*
X1332Y504D01*
X1334Y504D01*
X1334Y500D01*
X1336Y500D01*
X1336Y494D01*
X1338Y494D01*
X1338Y474D01*
X1336Y474D01*
X1336Y468D01*
X1334Y468D01*
X1334Y464D01*
X1332Y464D01*
X1332Y460D01*
X1330Y460D01*
X1330Y458D01*
X1328Y458D01*
X1328Y456D01*
X1326Y456D01*
X1326Y452D01*
X1324Y452D01*
X1324Y450D01*
X1322Y450D01*
X1322Y448D01*
X1318Y448D01*
X1318Y446D01*
X1316Y446D01*
X1316Y444D01*
X1314Y444D01*
X1314Y434D01*
X1486Y434D01*
X1486Y436D01*
X1478Y436D01*
X1478Y438D01*
X1472Y438D01*
X1472Y440D01*
X1468Y440D01*
X1468Y442D01*
X1466Y442D01*
X1466Y444D01*
X1464Y444D01*
X1464Y446D01*
X1460Y446D01*
X1460Y448D01*
X1458Y448D01*
X1458Y450D01*
X1456Y450D01*
X1456Y452D01*
X1454Y452D01*
X1454Y454D01*
X1452Y454D01*
X1452Y458D01*
X1450Y458D01*
X1450Y460D01*
X1448Y460D01*
X1448Y464D01*
X1446Y464D01*
X1446Y468D01*
X1444Y468D01*
X1444Y474D01*
X1442Y474D01*
X1442Y492D01*
X1444Y492D01*
X1444Y500D01*
X1446Y500D01*
X1446Y504D01*
X1448Y504D01*
X1448Y506D01*
X1450Y506D01*
X1450Y510D01*
X1452Y510D01*
X1452Y512D01*
X1454Y512D01*
X1454Y514D01*
X1456Y514D01*
X1456Y518D01*
X1460Y518D01*
X1460Y520D01*
X1462Y520D01*
X1462Y522D01*
X1464Y522D01*
X1464Y524D01*
X1466Y524D01*
X1466Y544D01*
X1464Y544D01*
X1464Y546D01*
X1460Y546D01*
X1460Y548D01*
X1458Y548D01*
X1458Y550D01*
X1456Y550D01*
X1456Y552D01*
X1454Y552D01*
X1454Y554D01*
X1452Y554D01*
X1452Y558D01*
X1450Y558D01*
X1450Y560D01*
X1448Y560D01*
X1448Y564D01*
X1446Y564D01*
X1446Y568D01*
X1444Y568D01*
X1444Y574D01*
X1442Y574D01*
X1442Y592D01*
X1444Y592D01*
X1444Y600D01*
X1446Y600D01*
X1446Y604D01*
X1448Y604D01*
X1448Y606D01*
X1450Y606D01*
X1450Y610D01*
X1452Y610D01*
X1452Y612D01*
X1454Y612D01*
X1454Y614D01*
X1456Y614D01*
X1456Y618D01*
X1460Y618D01*
X1460Y620D01*
X1462Y620D01*
X1462Y622D01*
X1464Y622D01*
X1464Y624D01*
X1466Y624D01*
X1466Y626D01*
X1470Y626D01*
X1470Y628D01*
X1474Y628D01*
X1474Y630D01*
X1480Y630D01*
X1480Y632D01*
X1314Y632D01*
G37*
D02*
G36*
X40Y532D02*
X40Y518D01*
X60Y518D01*
X60Y520D01*
X62Y520D01*
X62Y522D01*
X64Y522D01*
X64Y524D01*
X66Y524D01*
X66Y526D01*
X70Y526D01*
X70Y528D01*
X74Y528D01*
X74Y530D01*
X80Y530D01*
X80Y532D01*
X40Y532D01*
G37*
D02*
G36*
X102Y532D02*
X102Y530D01*
X108Y530D01*
X108Y528D01*
X112Y528D01*
X112Y526D01*
X114Y526D01*
X114Y524D01*
X118Y524D01*
X118Y522D01*
X120Y522D01*
X120Y520D01*
X122Y520D01*
X122Y518D01*
X124Y518D01*
X124Y516D01*
X126Y516D01*
X126Y514D01*
X128Y514D01*
X128Y512D01*
X130Y512D01*
X130Y510D01*
X132Y510D01*
X132Y506D01*
X242Y506D01*
X242Y532D01*
X102Y532D01*
G37*
D02*
G36*
X340Y532D02*
X340Y518D01*
X360Y518D01*
X360Y520D01*
X362Y520D01*
X362Y522D01*
X364Y522D01*
X364Y524D01*
X366Y524D01*
X366Y526D01*
X370Y526D01*
X370Y528D01*
X374Y528D01*
X374Y530D01*
X380Y530D01*
X380Y532D01*
X340Y532D01*
G37*
D02*
G36*
X402Y532D02*
X402Y530D01*
X408Y530D01*
X408Y528D01*
X412Y528D01*
X412Y526D01*
X414Y526D01*
X414Y524D01*
X418Y524D01*
X418Y522D01*
X420Y522D01*
X420Y520D01*
X422Y520D01*
X422Y518D01*
X424Y518D01*
X424Y516D01*
X426Y516D01*
X426Y514D01*
X428Y514D01*
X428Y512D01*
X430Y512D01*
X430Y510D01*
X452Y510D01*
X452Y512D01*
X454Y512D01*
X454Y514D01*
X456Y514D01*
X456Y518D01*
X460Y518D01*
X460Y520D01*
X462Y520D01*
X462Y522D01*
X464Y522D01*
X464Y524D01*
X466Y524D01*
X466Y526D01*
X470Y526D01*
X470Y528D01*
X474Y528D01*
X474Y530D01*
X480Y530D01*
X480Y532D01*
X402Y532D01*
G37*
D02*
G36*
X812Y462D02*
X812Y336D01*
X884Y336D01*
X884Y338D01*
X876Y338D01*
X876Y340D01*
X872Y340D01*
X872Y342D01*
X868Y342D01*
X868Y344D01*
X866Y344D01*
X866Y346D01*
X862Y346D01*
X862Y348D01*
X860Y348D01*
X860Y350D01*
X858Y350D01*
X858Y352D01*
X856Y352D01*
X856Y354D01*
X854Y354D01*
X854Y358D01*
X852Y358D01*
X852Y360D01*
X850Y360D01*
X850Y364D01*
X848Y364D01*
X848Y368D01*
X846Y368D01*
X846Y372D01*
X844Y372D01*
X844Y394D01*
X846Y394D01*
X846Y400D01*
X848Y400D01*
X848Y404D01*
X850Y404D01*
X850Y408D01*
X852Y408D01*
X852Y410D01*
X854Y410D01*
X854Y412D01*
X856Y412D01*
X856Y414D01*
X858Y414D01*
X858Y416D01*
X860Y416D01*
X860Y418D01*
X862Y418D01*
X862Y420D01*
X864Y420D01*
X864Y422D01*
X866Y422D01*
X866Y424D01*
X868Y424D01*
X868Y444D01*
X866Y444D01*
X866Y446D01*
X862Y446D01*
X862Y448D01*
X860Y448D01*
X860Y450D01*
X858Y450D01*
X858Y452D01*
X856Y452D01*
X856Y454D01*
X854Y454D01*
X854Y458D01*
X852Y458D01*
X852Y460D01*
X850Y460D01*
X850Y462D01*
X812Y462D01*
G37*
D02*
G36*
X430Y458D02*
X430Y456D01*
X428Y456D01*
X428Y452D01*
X426Y452D01*
X426Y450D01*
X424Y450D01*
X424Y448D01*
X422Y448D01*
X422Y446D01*
X418Y446D01*
X418Y444D01*
X416Y444D01*
X416Y442D01*
X412Y442D01*
X412Y434D01*
X486Y434D01*
X486Y436D01*
X478Y436D01*
X478Y438D01*
X472Y438D01*
X472Y440D01*
X468Y440D01*
X468Y442D01*
X466Y442D01*
X466Y444D01*
X464Y444D01*
X464Y446D01*
X460Y446D01*
X460Y448D01*
X458Y448D01*
X458Y450D01*
X456Y450D01*
X456Y452D01*
X454Y452D01*
X454Y454D01*
X452Y454D01*
X452Y458D01*
X430Y458D01*
G37*
D02*
G36*
X412Y434D02*
X412Y432D01*
X768Y432D01*
X768Y434D01*
X412Y434D01*
G37*
D02*
G36*
X412Y434D02*
X412Y432D01*
X768Y432D01*
X768Y434D01*
X412Y434D01*
G37*
D02*
G36*
X1314Y434D02*
X1314Y432D01*
X1608Y432D01*
X1608Y434D01*
X1314Y434D01*
G37*
D02*
G36*
X1314Y434D02*
X1314Y432D01*
X1608Y432D01*
X1608Y434D01*
X1314Y434D01*
G37*
D02*
G36*
X412Y432D02*
X412Y376D01*
X410Y376D01*
X410Y372D01*
X408Y372D01*
X408Y370D01*
X406Y370D01*
X406Y366D01*
X402Y366D01*
X402Y364D01*
X400Y364D01*
X400Y362D01*
X392Y362D01*
X392Y360D01*
X214Y360D01*
X214Y332D01*
X502Y332D01*
X502Y330D01*
X508Y330D01*
X508Y328D01*
X512Y328D01*
X512Y326D01*
X514Y326D01*
X514Y324D01*
X518Y324D01*
X518Y322D01*
X520Y322D01*
X520Y320D01*
X522Y320D01*
X522Y318D01*
X524Y318D01*
X524Y316D01*
X526Y316D01*
X526Y314D01*
X528Y314D01*
X528Y312D01*
X530Y312D01*
X530Y310D01*
X532Y310D01*
X532Y306D01*
X534Y306D01*
X534Y302D01*
X536Y302D01*
X536Y298D01*
X538Y298D01*
X538Y292D01*
X540Y292D01*
X540Y276D01*
X538Y276D01*
X538Y270D01*
X536Y270D01*
X536Y264D01*
X534Y264D01*
X534Y262D01*
X786Y262D01*
X786Y264D01*
X780Y264D01*
X780Y266D01*
X778Y266D01*
X778Y268D01*
X776Y268D01*
X776Y270D01*
X774Y270D01*
X774Y272D01*
X772Y272D01*
X772Y274D01*
X770Y274D01*
X770Y280D01*
X768Y280D01*
X768Y432D01*
X412Y432D01*
G37*
D02*
G36*
X1314Y432D02*
X1314Y424D01*
X1316Y424D01*
X1316Y422D01*
X1318Y422D01*
X1318Y420D01*
X1320Y420D01*
X1320Y418D01*
X1322Y418D01*
X1322Y416D01*
X1324Y416D01*
X1324Y414D01*
X1326Y414D01*
X1326Y412D01*
X1328Y412D01*
X1328Y410D01*
X1330Y410D01*
X1330Y406D01*
X1332Y406D01*
X1332Y404D01*
X1334Y404D01*
X1334Y400D01*
X1336Y400D01*
X1336Y394D01*
X1338Y394D01*
X1338Y374D01*
X1336Y374D01*
X1336Y368D01*
X1334Y368D01*
X1334Y364D01*
X1332Y364D01*
X1332Y360D01*
X1330Y360D01*
X1330Y358D01*
X1328Y358D01*
X1328Y356D01*
X1326Y356D01*
X1326Y352D01*
X1324Y352D01*
X1324Y350D01*
X1322Y350D01*
X1322Y348D01*
X1318Y348D01*
X1318Y346D01*
X1316Y346D01*
X1316Y344D01*
X1314Y344D01*
X1314Y324D01*
X1316Y324D01*
X1316Y322D01*
X1318Y322D01*
X1318Y320D01*
X1320Y320D01*
X1320Y318D01*
X1322Y318D01*
X1322Y316D01*
X1324Y316D01*
X1324Y314D01*
X1326Y314D01*
X1326Y312D01*
X1328Y312D01*
X1328Y310D01*
X1330Y310D01*
X1330Y306D01*
X1332Y306D01*
X1332Y304D01*
X1334Y304D01*
X1334Y300D01*
X1336Y300D01*
X1336Y294D01*
X1338Y294D01*
X1338Y274D01*
X1336Y274D01*
X1336Y268D01*
X1334Y268D01*
X1334Y264D01*
X1332Y264D01*
X1332Y260D01*
X1330Y260D01*
X1330Y258D01*
X1328Y258D01*
X1328Y256D01*
X1326Y256D01*
X1326Y252D01*
X1324Y252D01*
X1324Y250D01*
X1322Y250D01*
X1322Y248D01*
X1318Y248D01*
X1318Y246D01*
X1316Y246D01*
X1316Y244D01*
X1314Y244D01*
X1314Y242D01*
X1310Y242D01*
X1310Y240D01*
X1306Y240D01*
X1306Y238D01*
X1298Y238D01*
X1298Y236D01*
X1608Y236D01*
X1608Y432D01*
X1314Y432D01*
G37*
D02*
G36*
X1124Y386D02*
X1124Y384D01*
X1122Y384D01*
X1122Y382D01*
X1120Y382D01*
X1120Y380D01*
X1118Y380D01*
X1118Y378D01*
X1116Y378D01*
X1116Y376D01*
X1114Y376D01*
X1114Y280D01*
X1112Y280D01*
X1112Y274D01*
X1110Y274D01*
X1110Y272D01*
X1108Y272D01*
X1108Y270D01*
X1106Y270D01*
X1106Y268D01*
X1104Y268D01*
X1104Y266D01*
X1102Y266D01*
X1102Y264D01*
X1096Y264D01*
X1096Y262D01*
X1150Y262D01*
X1150Y264D01*
X1148Y264D01*
X1148Y268D01*
X1146Y268D01*
X1146Y272D01*
X1144Y272D01*
X1144Y294D01*
X1146Y294D01*
X1146Y300D01*
X1148Y300D01*
X1148Y304D01*
X1150Y304D01*
X1150Y308D01*
X1152Y308D01*
X1152Y310D01*
X1154Y310D01*
X1154Y312D01*
X1156Y312D01*
X1156Y314D01*
X1158Y314D01*
X1158Y316D01*
X1160Y316D01*
X1160Y318D01*
X1162Y318D01*
X1162Y320D01*
X1164Y320D01*
X1164Y322D01*
X1166Y322D01*
X1166Y324D01*
X1168Y324D01*
X1168Y344D01*
X1166Y344D01*
X1166Y346D01*
X1162Y346D01*
X1162Y348D01*
X1160Y348D01*
X1160Y350D01*
X1158Y350D01*
X1158Y352D01*
X1156Y352D01*
X1156Y354D01*
X1154Y354D01*
X1154Y358D01*
X1152Y358D01*
X1152Y360D01*
X1150Y360D01*
X1150Y364D01*
X1148Y364D01*
X1148Y368D01*
X1146Y368D01*
X1146Y372D01*
X1144Y372D01*
X1144Y386D01*
X1124Y386D01*
G37*
D02*
G36*
X930Y360D02*
X930Y358D01*
X928Y358D01*
X928Y356D01*
X926Y356D01*
X926Y352D01*
X924Y352D01*
X924Y350D01*
X922Y350D01*
X922Y348D01*
X918Y348D01*
X918Y346D01*
X916Y346D01*
X916Y344D01*
X914Y344D01*
X914Y342D01*
X910Y342D01*
X910Y340D01*
X906Y340D01*
X906Y338D01*
X898Y338D01*
X898Y336D01*
X984Y336D01*
X984Y338D01*
X976Y338D01*
X976Y340D01*
X972Y340D01*
X972Y342D01*
X968Y342D01*
X968Y344D01*
X966Y344D01*
X966Y346D01*
X962Y346D01*
X962Y348D01*
X960Y348D01*
X960Y350D01*
X958Y350D01*
X958Y352D01*
X956Y352D01*
X956Y354D01*
X954Y354D01*
X954Y358D01*
X952Y358D01*
X952Y360D01*
X930Y360D01*
G37*
D02*
G36*
X812Y336D02*
X812Y334D01*
X1070Y334D01*
X1070Y336D01*
X812Y336D01*
G37*
D02*
G36*
X812Y336D02*
X812Y334D01*
X1070Y334D01*
X1070Y336D01*
X812Y336D01*
G37*
D02*
G36*
X812Y336D02*
X812Y334D01*
X1070Y334D01*
X1070Y336D01*
X812Y336D01*
G37*
D02*
G36*
X812Y334D02*
X812Y306D01*
X1070Y306D01*
X1070Y334D01*
X812Y334D01*
G37*
D02*
G36*
X214Y332D02*
X214Y234D01*
X242Y234D01*
X242Y332D01*
X214Y332D01*
G37*
D02*
G36*
X340Y332D02*
X340Y318D01*
X360Y318D01*
X360Y320D01*
X362Y320D01*
X362Y322D01*
X364Y322D01*
X364Y324D01*
X366Y324D01*
X366Y326D01*
X370Y326D01*
X370Y328D01*
X374Y328D01*
X374Y330D01*
X380Y330D01*
X380Y332D01*
X340Y332D01*
G37*
D02*
G36*
X402Y332D02*
X402Y330D01*
X408Y330D01*
X408Y328D01*
X412Y328D01*
X412Y326D01*
X414Y326D01*
X414Y324D01*
X418Y324D01*
X418Y322D01*
X420Y322D01*
X420Y320D01*
X422Y320D01*
X422Y318D01*
X424Y318D01*
X424Y316D01*
X426Y316D01*
X426Y314D01*
X428Y314D01*
X428Y312D01*
X430Y312D01*
X430Y310D01*
X452Y310D01*
X452Y312D01*
X454Y312D01*
X454Y314D01*
X456Y314D01*
X456Y318D01*
X460Y318D01*
X460Y320D01*
X462Y320D01*
X462Y322D01*
X464Y322D01*
X464Y324D01*
X466Y324D01*
X466Y326D01*
X470Y326D01*
X470Y328D01*
X474Y328D01*
X474Y330D01*
X480Y330D01*
X480Y332D01*
X402Y332D01*
G37*
D02*
G36*
X534Y262D02*
X534Y260D01*
X1150Y260D01*
X1150Y262D01*
X534Y262D01*
G37*
D02*
G36*
X534Y262D02*
X534Y260D01*
X1150Y260D01*
X1150Y262D01*
X534Y262D01*
G37*
D02*
G36*
X532Y260D02*
X532Y258D01*
X530Y258D01*
X530Y256D01*
X528Y256D01*
X528Y252D01*
X526Y252D01*
X526Y250D01*
X524Y250D01*
X524Y248D01*
X522Y248D01*
X522Y246D01*
X518Y246D01*
X518Y244D01*
X516Y244D01*
X516Y242D01*
X512Y242D01*
X512Y240D01*
X508Y240D01*
X508Y238D01*
X504Y238D01*
X504Y236D01*
X1184Y236D01*
X1184Y238D01*
X1176Y238D01*
X1176Y240D01*
X1172Y240D01*
X1172Y242D01*
X1168Y242D01*
X1168Y244D01*
X1166Y244D01*
X1166Y246D01*
X1162Y246D01*
X1162Y248D01*
X1160Y248D01*
X1160Y250D01*
X1158Y250D01*
X1158Y252D01*
X1156Y252D01*
X1156Y254D01*
X1154Y254D01*
X1154Y258D01*
X1152Y258D01*
X1152Y260D01*
X532Y260D01*
G37*
D02*
G36*
X1230Y260D02*
X1230Y258D01*
X1228Y258D01*
X1228Y256D01*
X1226Y256D01*
X1226Y252D01*
X1224Y252D01*
X1224Y250D01*
X1222Y250D01*
X1222Y248D01*
X1218Y248D01*
X1218Y246D01*
X1216Y246D01*
X1216Y244D01*
X1214Y244D01*
X1214Y242D01*
X1210Y242D01*
X1210Y240D01*
X1206Y240D01*
X1206Y238D01*
X1198Y238D01*
X1198Y236D01*
X1284Y236D01*
X1284Y238D01*
X1276Y238D01*
X1276Y240D01*
X1272Y240D01*
X1272Y242D01*
X1268Y242D01*
X1268Y244D01*
X1266Y244D01*
X1266Y246D01*
X1262Y246D01*
X1262Y248D01*
X1260Y248D01*
X1260Y250D01*
X1258Y250D01*
X1258Y252D01*
X1256Y252D01*
X1256Y254D01*
X1254Y254D01*
X1254Y258D01*
X1252Y258D01*
X1252Y260D01*
X1230Y260D01*
G37*
D02*
G36*
X430Y258D02*
X430Y256D01*
X428Y256D01*
X428Y252D01*
X426Y252D01*
X426Y250D01*
X424Y250D01*
X424Y248D01*
X422Y248D01*
X422Y246D01*
X418Y246D01*
X418Y244D01*
X416Y244D01*
X416Y242D01*
X412Y242D01*
X412Y240D01*
X408Y240D01*
X408Y238D01*
X404Y238D01*
X404Y236D01*
X396Y236D01*
X396Y234D01*
X486Y234D01*
X486Y236D01*
X478Y236D01*
X478Y238D01*
X472Y238D01*
X472Y240D01*
X468Y240D01*
X468Y242D01*
X466Y242D01*
X466Y244D01*
X464Y244D01*
X464Y246D01*
X460Y246D01*
X460Y248D01*
X458Y248D01*
X458Y250D01*
X456Y250D01*
X456Y252D01*
X454Y252D01*
X454Y254D01*
X452Y254D01*
X452Y258D01*
X430Y258D01*
G37*
D02*
G36*
X340Y248D02*
X340Y234D01*
X386Y234D01*
X386Y236D01*
X378Y236D01*
X378Y238D01*
X372Y238D01*
X372Y240D01*
X368Y240D01*
X368Y242D01*
X366Y242D01*
X366Y244D01*
X364Y244D01*
X364Y246D01*
X360Y246D01*
X360Y248D01*
X340Y248D01*
G37*
D02*
G36*
X496Y236D02*
X496Y234D01*
X1608Y234D01*
X1608Y236D01*
X496Y236D01*
G37*
D02*
G36*
X496Y236D02*
X496Y234D01*
X1608Y234D01*
X1608Y236D01*
X496Y236D01*
G37*
D02*
G36*
X496Y236D02*
X496Y234D01*
X1608Y234D01*
X1608Y236D01*
X496Y236D01*
G37*
D02*
G36*
X214Y234D02*
X214Y232D01*
X1608Y232D01*
X1608Y234D01*
X214Y234D01*
G37*
D02*
G36*
X214Y234D02*
X214Y232D01*
X1608Y232D01*
X1608Y234D01*
X214Y234D01*
G37*
D02*
G36*
X214Y234D02*
X214Y232D01*
X1608Y232D01*
X1608Y234D01*
X214Y234D01*
G37*
D02*
G36*
X214Y234D02*
X214Y232D01*
X1608Y232D01*
X1608Y234D01*
X214Y234D01*
G37*
D02*
G36*
X214Y232D02*
X214Y206D01*
X498Y206D01*
X498Y204D01*
X502Y204D01*
X502Y202D01*
X504Y202D01*
X504Y200D01*
X506Y200D01*
X506Y198D01*
X508Y198D01*
X508Y196D01*
X510Y196D01*
X510Y192D01*
X512Y192D01*
X512Y132D01*
X602Y132D01*
X602Y130D01*
X608Y130D01*
X608Y128D01*
X612Y128D01*
X612Y126D01*
X614Y126D01*
X614Y124D01*
X618Y124D01*
X618Y122D01*
X620Y122D01*
X620Y120D01*
X622Y120D01*
X622Y118D01*
X624Y118D01*
X624Y116D01*
X626Y116D01*
X626Y114D01*
X628Y114D01*
X628Y112D01*
X630Y112D01*
X630Y110D01*
X632Y110D01*
X632Y106D01*
X634Y106D01*
X634Y102D01*
X636Y102D01*
X636Y98D01*
X638Y98D01*
X638Y92D01*
X640Y92D01*
X640Y76D01*
X638Y76D01*
X638Y70D01*
X636Y70D01*
X636Y64D01*
X634Y64D01*
X634Y42D01*
X1608Y42D01*
X1608Y232D01*
X214Y232D01*
G37*
D02*
G36*
X512Y132D02*
X512Y126D01*
X514Y126D01*
X514Y124D01*
X518Y124D01*
X518Y122D01*
X520Y122D01*
X520Y120D01*
X522Y120D01*
X522Y118D01*
X524Y118D01*
X524Y116D01*
X526Y116D01*
X526Y114D01*
X528Y114D01*
X528Y112D01*
X530Y112D01*
X530Y110D01*
X552Y110D01*
X552Y112D01*
X554Y112D01*
X554Y114D01*
X556Y114D01*
X556Y118D01*
X560Y118D01*
X560Y120D01*
X562Y120D01*
X562Y122D01*
X564Y122D01*
X564Y124D01*
X566Y124D01*
X566Y126D01*
X570Y126D01*
X570Y128D01*
X574Y128D01*
X574Y130D01*
X580Y130D01*
X580Y132D01*
X512Y132D01*
G37*
D02*
G36*
X930Y460D02*
X930Y458D01*
X928Y458D01*
X928Y456D01*
X926Y456D01*
X926Y452D01*
X924Y452D01*
X924Y450D01*
X922Y450D01*
X922Y448D01*
X918Y448D01*
X918Y446D01*
X916Y446D01*
X916Y444D01*
X914Y444D01*
X914Y424D01*
X916Y424D01*
X916Y422D01*
X918Y422D01*
X918Y420D01*
X920Y420D01*
X920Y418D01*
X922Y418D01*
X922Y416D01*
X924Y416D01*
X924Y414D01*
X926Y414D01*
X926Y412D01*
X928Y412D01*
X928Y410D01*
X930Y410D01*
X930Y406D01*
X950Y406D01*
X950Y408D01*
X952Y408D01*
X952Y410D01*
X954Y410D01*
X954Y412D01*
X956Y412D01*
X956Y414D01*
X958Y414D01*
X958Y416D01*
X960Y416D01*
X960Y418D01*
X962Y418D01*
X962Y420D01*
X964Y420D01*
X964Y422D01*
X966Y422D01*
X966Y424D01*
X968Y424D01*
X968Y444D01*
X966Y444D01*
X966Y446D01*
X962Y446D01*
X962Y448D01*
X960Y448D01*
X960Y450D01*
X958Y450D01*
X958Y452D01*
X956Y452D01*
X956Y454D01*
X954Y454D01*
X954Y458D01*
X952Y458D01*
X952Y460D01*
X930Y460D01*
G37*
D02*
G36*
X1230Y460D02*
X1230Y458D01*
X1228Y458D01*
X1228Y456D01*
X1226Y456D01*
X1226Y452D01*
X1224Y452D01*
X1224Y450D01*
X1222Y450D01*
X1222Y448D01*
X1218Y448D01*
X1218Y446D01*
X1216Y446D01*
X1216Y444D01*
X1214Y444D01*
X1214Y424D01*
X1216Y424D01*
X1216Y422D01*
X1218Y422D01*
X1218Y420D01*
X1220Y420D01*
X1220Y418D01*
X1222Y418D01*
X1222Y416D01*
X1224Y416D01*
X1224Y414D01*
X1226Y414D01*
X1226Y412D01*
X1228Y412D01*
X1228Y410D01*
X1230Y410D01*
X1230Y406D01*
X1250Y406D01*
X1250Y408D01*
X1252Y408D01*
X1252Y410D01*
X1254Y410D01*
X1254Y412D01*
X1256Y412D01*
X1256Y414D01*
X1258Y414D01*
X1258Y416D01*
X1260Y416D01*
X1260Y418D01*
X1262Y418D01*
X1262Y420D01*
X1264Y420D01*
X1264Y422D01*
X1266Y422D01*
X1266Y424D01*
X1268Y424D01*
X1268Y444D01*
X1266Y444D01*
X1266Y446D01*
X1262Y446D01*
X1262Y448D01*
X1260Y448D01*
X1260Y450D01*
X1258Y450D01*
X1258Y452D01*
X1256Y452D01*
X1256Y454D01*
X1254Y454D01*
X1254Y458D01*
X1252Y458D01*
X1252Y460D01*
X1230Y460D01*
G37*
D02*
G36*
X1230Y360D02*
X1230Y358D01*
X1228Y358D01*
X1228Y356D01*
X1226Y356D01*
X1226Y352D01*
X1224Y352D01*
X1224Y350D01*
X1222Y350D01*
X1222Y348D01*
X1218Y348D01*
X1218Y346D01*
X1216Y346D01*
X1216Y344D01*
X1214Y344D01*
X1214Y324D01*
X1216Y324D01*
X1216Y322D01*
X1218Y322D01*
X1218Y320D01*
X1220Y320D01*
X1220Y318D01*
X1222Y318D01*
X1222Y316D01*
X1224Y316D01*
X1224Y314D01*
X1226Y314D01*
X1226Y312D01*
X1228Y312D01*
X1228Y310D01*
X1230Y310D01*
X1230Y306D01*
X1250Y306D01*
X1250Y308D01*
X1252Y308D01*
X1252Y310D01*
X1254Y310D01*
X1254Y312D01*
X1256Y312D01*
X1256Y314D01*
X1258Y314D01*
X1258Y316D01*
X1260Y316D01*
X1260Y318D01*
X1262Y318D01*
X1262Y320D01*
X1264Y320D01*
X1264Y322D01*
X1266Y322D01*
X1266Y324D01*
X1268Y324D01*
X1268Y344D01*
X1266Y344D01*
X1266Y346D01*
X1262Y346D01*
X1262Y348D01*
X1260Y348D01*
X1260Y350D01*
X1258Y350D01*
X1258Y352D01*
X1256Y352D01*
X1256Y354D01*
X1254Y354D01*
X1254Y358D01*
X1252Y358D01*
X1252Y360D01*
X1230Y360D01*
G37*
D02*
G36*
X134Y462D02*
X134Y460D01*
X132Y460D01*
X132Y458D01*
X130Y458D01*
X130Y456D01*
X128Y456D01*
X128Y452D01*
X126Y452D01*
X126Y450D01*
X124Y450D01*
X124Y448D01*
X122Y448D01*
X122Y446D01*
X118Y446D01*
X118Y444D01*
X116Y444D01*
X116Y434D01*
X242Y434D01*
X242Y462D01*
X134Y462D01*
G37*
D02*
G36*
X340Y448D02*
X340Y434D01*
X368Y434D01*
X368Y442D01*
X366Y442D01*
X366Y444D01*
X364Y444D01*
X364Y446D01*
X360Y446D01*
X360Y448D01*
X340Y448D01*
G37*
D02*
G36*
X116Y434D02*
X116Y432D01*
X368Y432D01*
X368Y434D01*
X116Y434D01*
G37*
D02*
G36*
X116Y434D02*
X116Y432D01*
X368Y432D01*
X368Y434D01*
X116Y434D01*
G37*
D02*
G36*
X116Y432D02*
X116Y424D01*
X118Y424D01*
X118Y422D01*
X120Y422D01*
X120Y420D01*
X122Y420D01*
X122Y418D01*
X124Y418D01*
X124Y416D01*
X126Y416D01*
X126Y414D01*
X128Y414D01*
X128Y412D01*
X130Y412D01*
X130Y410D01*
X132Y410D01*
X132Y406D01*
X134Y406D01*
X134Y402D01*
X136Y402D01*
X136Y398D01*
X138Y398D01*
X138Y392D01*
X140Y392D01*
X140Y376D01*
X138Y376D01*
X138Y370D01*
X136Y370D01*
X136Y364D01*
X134Y364D01*
X134Y360D01*
X132Y360D01*
X132Y358D01*
X130Y358D01*
X130Y356D01*
X128Y356D01*
X128Y352D01*
X126Y352D01*
X126Y350D01*
X124Y350D01*
X124Y348D01*
X122Y348D01*
X122Y346D01*
X118Y346D01*
X118Y344D01*
X116Y344D01*
X116Y342D01*
X112Y342D01*
X112Y340D01*
X108Y340D01*
X108Y338D01*
X104Y338D01*
X104Y336D01*
X96Y336D01*
X96Y334D01*
X170Y334D01*
X170Y392D01*
X172Y392D01*
X172Y396D01*
X174Y396D01*
X174Y398D01*
X176Y398D01*
X176Y400D01*
X178Y400D01*
X178Y402D01*
X182Y402D01*
X182Y404D01*
X368Y404D01*
X368Y432D01*
X116Y432D01*
G37*
D02*
G36*
X40Y348D02*
X40Y334D01*
X86Y334D01*
X86Y336D01*
X78Y336D01*
X78Y338D01*
X72Y338D01*
X72Y340D01*
X68Y340D01*
X68Y342D01*
X66Y342D01*
X66Y344D01*
X64Y344D01*
X64Y346D01*
X60Y346D01*
X60Y348D01*
X40Y348D01*
G37*
D02*
G36*
X40Y334D02*
X40Y332D01*
X170Y332D01*
X170Y334D01*
X40Y334D01*
G37*
D02*
G36*
X40Y334D02*
X40Y332D01*
X170Y332D01*
X170Y334D01*
X40Y334D01*
G37*
D02*
G36*
X40Y332D02*
X40Y132D01*
X440Y132D01*
X440Y118D01*
X460Y118D01*
X460Y120D01*
X462Y120D01*
X462Y122D01*
X464Y122D01*
X464Y124D01*
X466Y124D01*
X466Y126D01*
X468Y126D01*
X468Y162D01*
X186Y162D01*
X186Y164D01*
X180Y164D01*
X180Y166D01*
X178Y166D01*
X178Y168D01*
X176Y168D01*
X176Y170D01*
X174Y170D01*
X174Y172D01*
X172Y172D01*
X172Y176D01*
X170Y176D01*
X170Y332D01*
X40Y332D01*
G37*
D02*
G36*
X40Y132D02*
X40Y42D01*
X342Y42D01*
X342Y132D01*
X40Y132D01*
G37*
D02*
G36*
X470Y536D02*
X509Y536D01*
X509Y506D01*
X470Y506D01*
X470Y536D01*
G37*
D02*
G36*
X470Y468D02*
X509Y468D01*
X509Y434D01*
X470Y434D01*
X470Y468D01*
G37*
D02*
G36*
X470Y336D02*
X509Y336D01*
X509Y306D01*
X470Y306D01*
X470Y336D01*
G37*
D02*
G36*
X471Y670D02*
X508Y670D01*
X508Y636D01*
X471Y636D01*
X471Y670D01*
G37*
D02*
G36*
X871Y736D02*
X908Y736D01*
X908Y704D01*
X871Y704D01*
X871Y736D01*
G37*
D02*
G36*
X70Y868D02*
X109Y868D01*
X109Y834D01*
X70Y834D01*
X70Y868D01*
G37*
D02*
G36*
X38Y906D02*
X70Y906D01*
X70Y867D01*
X38Y867D01*
X38Y906D01*
G37*
D02*
G36*
X370Y968D02*
X409Y968D01*
X409Y934D01*
X370Y934D01*
X370Y968D01*
G37*
D02*
G36*
X338Y1006D02*
X370Y1006D01*
X370Y967D01*
X338Y967D01*
X338Y1006D01*
G37*
D02*
G36*
X408Y1006D02*
X440Y1006D01*
X440Y967D01*
X408Y967D01*
X408Y1006D01*
G37*
D02*
G36*
X1271Y270D02*
X1308Y270D01*
X1308Y236D01*
X1271Y236D01*
X1271Y270D01*
G37*
D02*
G36*
X270Y1468D02*
X309Y1468D01*
X309Y1434D01*
X270Y1434D01*
X270Y1468D01*
G37*
D02*
G36*
X238Y1506D02*
X270Y1506D01*
X270Y1467D01*
X238Y1467D01*
X238Y1506D01*
G37*
D02*
G36*
X508Y1606D02*
X540Y1606D01*
X540Y1567D01*
X508Y1567D01*
X508Y1606D01*
G37*
D02*
G36*
X1470Y468D02*
X1509Y468D01*
X1509Y434D01*
X1470Y434D01*
X1470Y468D01*
G37*
D02*
G36*
X1508Y506D02*
X1540Y506D01*
X1540Y467D01*
X1508Y467D01*
X1508Y506D01*
G37*
D02*
G36*
X1470Y768D02*
X1509Y768D01*
X1509Y734D01*
X1470Y734D01*
X1470Y768D01*
G37*
D02*
G36*
X1508Y806D02*
X1540Y806D01*
X1540Y767D01*
X1508Y767D01*
X1508Y806D01*
G37*
D02*
G36*
X1470Y1268D02*
X1509Y1268D01*
X1509Y1234D01*
X1470Y1234D01*
X1470Y1268D01*
G37*
D02*
G36*
X1508Y1306D02*
X1540Y1306D01*
X1540Y1267D01*
X1508Y1267D01*
X1508Y1306D01*
G37*
D02*
G04 End of Copper0*
M02*